solid OpenSCAD_Model
  facet normal -0.993295 0.1044 0.0496647
    outer loop
      vertex -11.7378 2.49494 40
      vertex -14 0 0
      vertex -12 0 40
    endloop
  endfacet
  facet normal 0.993295 0.1044 0.0496647
    outer loop
      vertex 14 0 0
      vertex 11.7378 2.49494 40
      vertex 12 0 40
    endloop
  endfacet
  facet normal 0.993295 0.1044 0.0496647
    outer loop
      vertex 13.6941 2.91076 0
      vertex 11.7378 2.49494 40
      vertex 14 0 0
    endloop
  endfacet
  facet normal 0.949883 0.308636 0.0496647
    outer loop
      vertex 12.7896 5.69431 0
      vertex 10.9625 4.88084 40
      vertex 13.6941 2.91076 0
    endloop
  endfacet
  facet normal 0.58706 0.808019 0.0496647
    outer loop
      vertex 8.5 11.0345 0
      vertex 8.5 10.401 10.3073
      vertex 9.36783 10.404 0
    endloop
  endfacet
  facet normal -0.207655 -0.976941 0.0496647
    outer loop
      vertex -1.25434 -11.9343 40
      vertex -3.7082 -11.4127 40
      vertex -1.4634 -13.9233 0
    endloop
  endfacet
  facet normal 0 0 -1
    outer loop
      vertex 0 -13.9233 0
      vertex 4 -13.3841 0
      vertex 4 -26.5 0
    endloop
  endfacet
  facet normal 0 -0 -1
    outer loop
      vertex 1.20208 -11.437 0
      vertex 4 -13.3841 0
      vertex 0 -13.9233 0
    endloop
  endfacet
  facet normal 0 0 -1
    outer loop
      vertex 0 -13.9233 0
      vertex 4 -26.5 0
      vertex 0 -26.5 0
    endloop
  endfacet
  facet normal 0 0 -1
    outer loop
      vertex 4 -13.3841 0
      vertex 1.20208 -11.437 0
      vertex 3.55369 -10.9371 0
    endloop
  endfacet
  facet normal 0 0 -1
    outer loop
      vertex 0 -13.9233 0
      vertex -1.20208 -11.437 0
      vertex 1.20208 -11.437 0
    endloop
  endfacet
  facet normal 0 0 -1
    outer loop
      vertex -1.4634 -13.9233 0
      vertex -1.20208 -11.437 0
      vertex 0 -13.9233 0
    endloop
  endfacet
  facet normal 0 0 -1
    outer loop
      vertex -1.4634 -13.9233 0
      vertex -3.55369 -10.9371 0
      vertex -1.20208 -11.437 0
    endloop
  endfacet
  facet normal 0 0 -1
    outer loop
      vertex -4.32624 -13.3148 0
      vertex -3.55369 -10.9371 0
      vertex -1.4634 -13.9233 0
    endloop
  endfacet
  facet normal 0 0 -1
    outer loop
      vertex -4.32624 -13.3148 0
      vertex -5.75 -9.95929 0
      vertex -3.55369 -10.9371 0
    endloop
  endfacet
  facet normal 0 0 -1
    outer loop
      vertex -7 -12.1244 0
      vertex -5.75 -9.95929 0
      vertex -4.32624 -13.3148 0
    endloop
  endfacet
  facet normal 0 0 -1
    outer loop
      vertex -7 -12.1244 0
      vertex -7.695 -8.54617 0
      vertex -5.75 -9.95929 0
    endloop
  endfacet
  facet normal 0 0 -1
    outer loop
      vertex -9.36783 -10.404 0
      vertex -7.695 -8.54617 0
      vertex -7 -12.1244 0
    endloop
  endfacet
  facet normal -0 0 -1
    outer loop
      vertex -7.695 -8.54617 0
      vertex -9.36783 -10.404 0
      vertex -9.30369 -6.75953 0
    endloop
  endfacet
  facet normal 0 0 -1
    outer loop
      vertex -11.3262 -8.22899 0
      vertex -9.30369 -6.75953 0
      vertex -9.36783 -10.404 0
    endloop
  endfacet
  facet normal -0 0 -1
    outer loop
      vertex -9.30369 -6.75953 0
      vertex -11.3262 -8.22899 0
      vertex -10.5058 -4.67747 0
    endloop
  endfacet
  facet normal 0 0 -1
    outer loop
      vertex -12.7896 -5.69431 0
      vertex -10.5058 -4.67747 0
      vertex -11.3262 -8.22899 0
    endloop
  endfacet
  facet normal -0 0 -1
    outer loop
      vertex -10.5058 -4.67747 0
      vertex -12.7896 -5.69431 0
      vertex -11.2487 -2.39098 0
    endloop
  endfacet
  facet normal 0 0 -1
    outer loop
      vertex -13.6941 -2.91076 0
      vertex -11.2487 -2.39098 0
      vertex -12.7896 -5.69431 0
    endloop
  endfacet
  facet normal 0 0 -1
    outer loop
      vertex 11.5 0 0
      vertex 14 0 0
      vertex 13.6941 -2.91076 0
    endloop
  endfacet
  facet normal 0 0 -1
    outer loop
      vertex 11.2487 -2.39098 0
      vertex 13.6941 -2.91076 0
      vertex 12.7896 -5.69431 0
    endloop
  endfacet
  facet normal 0 0 -1
    outer loop
      vertex 14 0 0
      vertex 11.5 0 0
      vertex 13.6941 2.91076 0
    endloop
  endfacet
  facet normal 0 0 -1
    outer loop
      vertex 11.2487 2.39098 0
      vertex 13.6941 2.91076 0
      vertex 11.5 0 0
    endloop
  endfacet
  facet normal 0 0 -1
    outer loop
      vertex 10.5058 -4.67747 0
      vertex 12.7896 -5.69431 0
      vertex 11.3262 -8.22899 0
    endloop
  endfacet
  facet normal 0 0 -1
    outer loop
      vertex 13.6941 -2.91076 0
      vertex 11.2487 -2.39098 0
      vertex 11.5 0 0
    endloop
  endfacet
  facet normal 0 0 -1
    outer loop
      vertex 12.7896 -5.69431 0
      vertex 10.5058 -4.67747 0
      vertex 11.2487 -2.39098 0
    endloop
  endfacet
  facet normal 0 0 -1
    outer loop
      vertex 9.30369 -6.75953 0
      vertex 11.3262 -8.22899 0
      vertex 9.36783 -10.404 0
    endloop
  endfacet
  facet normal 0 0 -1
    outer loop
      vertex 11.3262 -8.22899 0
      vertex 9.30369 -6.75953 0
      vertex 10.5058 -4.67747 0
    endloop
  endfacet
  facet normal 0 0 -1
    outer loop
      vertex 9.36783 -10.404 0
      vertex 7.695 -8.54617 0
      vertex 9.30369 -6.75953 0
    endloop
  endfacet
  facet normal 0 0 -1
    outer loop
      vertex 7 -12.1244 0
      vertex 7.695 -8.54617 0
      vertex 9.36783 -10.404 0
    endloop
  endfacet
  facet normal 0 0 -1
    outer loop
      vertex 7 -12.1244 0
      vertex 5.75 -9.95929 0
      vertex 7.695 -8.54617 0
    endloop
  endfacet
  facet normal 0 0 -1
    outer loop
      vertex 4.32624 -13.3148 0
      vertex 5.75 -9.95929 0
      vertex 7 -12.1244 0
    endloop
  endfacet
  facet normal 0 0 -1
    outer loop
      vertex 3.55369 -10.9371 0
      vertex 4.32624 -13.3148 0
      vertex 4 -13.3841 0
    endloop
  endfacet
  facet normal 0 0 -1
    outer loop
      vertex 4.32624 -13.3148 0
      vertex 3.55369 -10.9371 0
      vertex 5.75 -9.95929 0
    endloop
  endfacet
  facet normal -0 0 -1
    outer loop
      vertex 13.6941 2.91076 0
      vertex 11.2487 2.39098 0
      vertex 12.7896 5.69431 0
    endloop
  endfacet
  facet normal 0 0 -1
    outer loop
      vertex 10.5058 4.67747 0
      vertex 12.7896 5.69431 0
      vertex 11.2487 2.39098 0
    endloop
  endfacet
  facet normal -0 0 -1
    outer loop
      vertex 12.7896 5.69431 0
      vertex 10.5058 4.67747 0
      vertex 11.3262 8.22899 0
    endloop
  endfacet
  facet normal 0 0 -1
    outer loop
      vertex 9.30369 6.75953 0
      vertex 11.3262 8.22899 0
      vertex 10.5058 4.67747 0
    endloop
  endfacet
  facet normal 0 0 -1
    outer loop
      vertex 8.5 7.65212 0
      vertex 11.3262 8.22899 0
      vertex 9.30369 6.75953 0
    endloop
  endfacet
  facet normal -0 0 -1
    outer loop
      vertex 11.3262 8.22899 0
      vertex 8.5 7.65212 0
      vertex 9.36783 10.404 0
    endloop
  endfacet
  facet normal -0 0 -1
    outer loop
      vertex 9.36783 10.404 0
      vertex 8.5 7.65212 0
      vertex 8.5 11.0345 0
    endloop
  endfacet
  facet normal 0 0 -1
    outer loop
      vertex -11.3262 8.22899 0
      vertex -8.5 7.65212 0
      vertex -9.30369 6.75953 0
    endloop
  endfacet
  facet normal 0 0 -1
    outer loop
      vertex -8.5 7.65212 0
      vertex -9.36783 10.404 0
      vertex -8.5 11.0345 0
    endloop
  endfacet
  facet normal 0 0 -1
    outer loop
      vertex -11.3262 8.22899 0
      vertex -9.30369 6.75953 0
      vertex -10.5058 4.67747 0
    endloop
  endfacet
  facet normal 0 0 -1
    outer loop
      vertex -12.7896 5.69431 0
      vertex -10.5058 4.67747 0
      vertex -11.2487 2.39098 0
    endloop
  endfacet
  facet normal 0 0 -1
    outer loop
      vertex -8.5 7.65212 0
      vertex -11.3262 8.22899 0
      vertex -9.36783 10.404 0
    endloop
  endfacet
  facet normal 0 0 -1
    outer loop
      vertex -13.6941 2.91076 0
      vertex -11.2487 2.39098 0
      vertex -11.5 0 0
    endloop
  endfacet
  facet normal -0 0 -1
    outer loop
      vertex -11.2487 -2.39098 0
      vertex -13.6941 -2.91076 0
      vertex -11.5 0 0
    endloop
  endfacet
  facet normal 0 0 -1
    outer loop
      vertex -10.5058 4.67747 0
      vertex -12.7896 5.69431 0
      vertex -11.3262 8.22899 0
    endloop
  endfacet
  facet normal 0 0 -1
    outer loop
      vertex -14 0 0
      vertex -11.5 0 0
      vertex -13.6941 -2.91076 0
    endloop
  endfacet
  facet normal 0 0 -1
    outer loop
      vertex -11.2487 2.39098 0
      vertex -13.6941 2.91076 0
      vertex -12.7896 5.69431 0
    endloop
  endfacet
  facet normal 0 0 -1
    outer loop
      vertex -11.5 0 0
      vertex -14 0 0
      vertex -13.6941 2.91076 0
    endloop
  endfacet
  facet normal 0.949883 -0.308636 0.0496647
    outer loop
      vertex 11.7378 -2.49494 40
      vertex 10.9625 -4.88084 40
      vertex 13.6941 -2.91076 0
    endloop
  endfacet
  facet normal -0 0 1
    outer loop
      vertex -9.7082 7.05342 40
      vertex -8.5 5.16801 40
      vertex -8.5 8.39527 40
    endloop
  endfacet
  facet normal 0 0 1
    outer loop
      vertex -10.9625 4.88084 40
      vertex -8.5 5.16801 40
      vertex -9.7082 7.05342 40
    endloop
  endfacet
  facet normal 0 0 1
    outer loop
      vertex -8.5 5.16801 40
      vertex -10.9625 4.88084 40
      vertex -9.13545 4.06737 40
    endloop
  endfacet
  facet normal 0 0 1
    outer loop
      vertex -9.13545 4.06737 40
      vertex -10.9625 4.88084 40
      vertex -9.78148 2.07912 40
    endloop
  endfacet
  facet normal -0 0 1
    outer loop
      vertex -11.7378 2.49494 40
      vertex -9.78148 2.07912 40
      vertex -10.9625 4.88084 40
    endloop
  endfacet
  facet normal 0 0 1
    outer loop
      vertex 10 0 40
      vertex 12 0 40
      vertex 11.7378 2.49494 40
    endloop
  endfacet
  facet normal 0 0 1
    outer loop
      vertex 9.78148 2.07912 40
      vertex 11.7378 2.49494 40
      vertex 10.9625 4.88084 40
    endloop
  endfacet
  facet normal 0 0 1
    outer loop
      vertex 12 0 40
      vertex 10 0 40
      vertex 11.7378 -2.49494 40
    endloop
  endfacet
  facet normal -0 0 1
    outer loop
      vertex 9.78148 -2.07912 40
      vertex 11.7378 -2.49494 40
      vertex 10 0 40
    endloop
  endfacet
  facet normal 0 0 1
    outer loop
      vertex 11.7378 2.49494 40
      vertex 9.78148 2.07912 40
      vertex 10 0 40
    endloop
  endfacet
  facet normal -0 0 1
    outer loop
      vertex 8.5 5.16801 40
      vertex 10.9625 4.88084 40
      vertex 9.7082 7.05342 40
    endloop
  endfacet
  facet normal 0 0 1
    outer loop
      vertex 10.9625 4.88084 40
      vertex 9.13545 4.06737 40
      vertex 9.78148 2.07912 40
    endloop
  endfacet
  facet normal 0 0 1
    outer loop
      vertex 8.5 5.16801 40
      vertex 9.7082 7.05342 40
      vertex 8.5 8.39527 40
    endloop
  endfacet
  facet normal 0 0 1
    outer loop
      vertex 10.9625 4.88084 40
      vertex 8.5 5.16801 40
      vertex 9.13545 4.06737 40
    endloop
  endfacet
  facet normal 0 0 1
    outer loop
      vertex 11.7378 -2.49494 40
      vertex 9.78148 -2.07912 40
      vertex 10.9625 -4.88084 40
    endloop
  endfacet
  facet normal -0 0 1
    outer loop
      vertex 9.13545 -4.06737 40
      vertex 10.9625 -4.88084 40
      vertex 9.78148 -2.07912 40
    endloop
  endfacet
  facet normal 0 0 1
    outer loop
      vertex 10.9625 -4.88084 40
      vertex 9.13545 -4.06737 40
      vertex 9.7082 -7.05342 40
    endloop
  endfacet
  facet normal -0 0 1
    outer loop
      vertex 8.09017 -5.87785 40
      vertex 9.7082 -7.05342 40
      vertex 9.13545 -4.06737 40
    endloop
  endfacet
  facet normal 0 0 1
    outer loop
      vertex 8.09017 -5.87785 40
      vertex 8.02957 -8.91774 40
      vertex 9.7082 -7.05342 40
    endloop
  endfacet
  facet normal -0 0 1
    outer loop
      vertex 6.69131 -7.43145 40
      vertex 8.02957 -8.91774 40
      vertex 8.09017 -5.87785 40
    endloop
  endfacet
  facet normal 0 0 1
    outer loop
      vertex 6.69131 -7.43145 40
      vertex 6 -10.3923 40
      vertex 8.02957 -8.91774 40
    endloop
  endfacet
  facet normal -0 0 1
    outer loop
      vertex 5 -8.66025 40
      vertex 6 -10.3923 40
      vertex 6.69131 -7.43145 40
    endloop
  endfacet
  facet normal 0 0 1
    outer loop
      vertex 5 -8.66025 40
      vertex 3.7082 -11.4127 40
      vertex 6 -10.3923 40
    endloop
  endfacet
  facet normal -0 0 1
    outer loop
      vertex 3.09017 -9.51056 40
      vertex 3.7082 -11.4127 40
      vertex 5 -8.66025 40
    endloop
  endfacet
  facet normal 0 0 1
    outer loop
      vertex 3.09017 -9.51056 40
      vertex 1.25434 -11.9343 40
      vertex 3.7082 -11.4127 40
    endloop
  endfacet
  facet normal -0 0 1
    outer loop
      vertex 1.04528 -9.94522 40
      vertex 1.25434 -11.9343 40
      vertex 3.09017 -9.51056 40
    endloop
  endfacet
  facet normal -0 0 1
    outer loop
      vertex -1.04528 -9.94522 40
      vertex 1.25434 -11.9343 40
      vertex 1.04528 -9.94522 40
    endloop
  endfacet
  facet normal 0 0 1
    outer loop
      vertex -1.04528 -9.94522 40
      vertex -1.25434 -11.9343 40
      vertex 1.25434 -11.9343 40
    endloop
  endfacet
  facet normal 0 0 1
    outer loop
      vertex -3.09017 -9.51056 40
      vertex -1.25434 -11.9343 40
      vertex -1.04528 -9.94522 40
    endloop
  endfacet
  facet normal 0 0 1
    outer loop
      vertex -3.09017 -9.51056 40
      vertex -3.7082 -11.4127 40
      vertex -1.25434 -11.9343 40
    endloop
  endfacet
  facet normal 0 0 1
    outer loop
      vertex -5 -8.66025 40
      vertex -3.7082 -11.4127 40
      vertex -3.09017 -9.51056 40
    endloop
  endfacet
  facet normal 0 0 1
    outer loop
      vertex -5 -8.66025 40
      vertex -6 -10.3923 40
      vertex -3.7082 -11.4127 40
    endloop
  endfacet
  facet normal 0 0 1
    outer loop
      vertex -6.69131 -7.43145 40
      vertex -6 -10.3923 40
      vertex -5 -8.66025 40
    endloop
  endfacet
  facet normal 0 0 1
    outer loop
      vertex -6.69131 -7.43145 40
      vertex -8.02957 -8.91774 40
      vertex -6 -10.3923 40
    endloop
  endfacet
  facet normal 0 0 1
    outer loop
      vertex -8.09017 -5.87785 40
      vertex -8.02957 -8.91774 40
      vertex -6.69131 -7.43145 40
    endloop
  endfacet
  facet normal 0 0 1
    outer loop
      vertex -9.7082 -7.05342 40
      vertex -8.09017 -5.87785 40
      vertex -9.13545 -4.06737 40
    endloop
  endfacet
  facet normal 0 0 1
    outer loop
      vertex -8.09017 -5.87785 40
      vertex -9.7082 -7.05342 40
      vertex -8.02957 -8.91774 40
    endloop
  endfacet
  facet normal 0 0 1
    outer loop
      vertex -10.9625 -4.88084 40
      vertex -9.13545 -4.06737 40
      vertex -9.78148 -2.07912 40
    endloop
  endfacet
  facet normal 0 0 1
    outer loop
      vertex -11.7378 -2.49494 40
      vertex -9.78148 -2.07912 40
      vertex -10 0 40
    endloop
  endfacet
  facet normal 0 0 1
    outer loop
      vertex -9.78148 2.07912 40
      vertex -11.7378 2.49494 40
      vertex -10 0 40
    endloop
  endfacet
  facet normal 0 0 1
    outer loop
      vertex -9.13545 -4.06737 40
      vertex -10.9625 -4.88084 40
      vertex -9.7082 -7.05342 40
    endloop
  endfacet
  facet normal 0 0 1
    outer loop
      vertex -12 0 40
      vertex -10 0 40
      vertex -11.7378 2.49494 40
    endloop
  endfacet
  facet normal 0 0 1
    outer loop
      vertex -9.78148 -2.07912 40
      vertex -11.7378 -2.49494 40
      vertex -10.9625 -4.88084 40
    endloop
  endfacet
  facet normal 0 0 1
    outer loop
      vertex -10 0 40
      vertex -12 0 40
      vertex -11.7378 -2.49494 40
    endloop
  endfacet
  facet normal -0.742228 0.668305 0.0496647
    outer loop
      vertex -9.36783 10.404 0
      vertex -11.3262 8.22899 0
      vertex -9.7082 7.05342 40
    endloop
  endfacet
  facet normal -0.993295 -0.1044 0.0496647
    outer loop
      vertex -11.7378 -2.49494 40
      vertex -14 0 0
      vertex -13.6941 -2.91076 0
    endloop
  endfacet
  facet normal -0.949883 -0.308636 0.0496647
    outer loop
      vertex -11.7378 -2.49494 40
      vertex -13.6941 -2.91076 0
      vertex -10.9625 -4.88084 40
    endloop
  endfacet
  facet normal -0.864957 -0.499383 0.0496647
    outer loop
      vertex -10.9625 -4.88084 40
      vertex -12.7896 -5.69431 0
      vertex -11.3262 -8.22899 0
    endloop
  endfacet
  facet normal 0.58706 -0.808018 0.0496647
    outer loop
      vertex 8.02957 -8.91774 40
      vertex 6 -10.3923 40
      vertex 9.36783 -10.404 0
    endloop
  endfacet
  facet normal 0.864957 0.499383 0.0496647
    outer loop
      vertex 11.3262 8.22899 0
      vertex 10.9625 4.88084 40
      vertex 12.7896 5.69431 0
    endloop
  endfacet
  facet normal 0.864957 0.499383 0.0496647
    outer loop
      vertex 11.3262 8.22899 0
      vertex 9.7082 7.05342 40
      vertex 10.9625 4.88084 40
    endloop
  endfacet
  facet normal 0.742228 0.668305 0.0496647
    outer loop
      vertex 11.3262 8.22899 0
      vertex 9.36783 10.404 0
      vertex 9.7082 7.05342 40
    endloop
  endfacet
  facet normal -0.864957 0.499383 0.0496647
    outer loop
      vertex -11.3262 8.22899 0
      vertex -12.7896 5.69431 0
      vertex -10.9625 4.88084 40
    endloop
  endfacet
  facet normal -0.993295 0.1044 0.0496647
    outer loop
      vertex -13.6941 2.91076 0
      vertex -14 0 0
      vertex -11.7378 2.49494 40
    endloop
  endfacet
  facet normal -0.406235 -0.912418 0.0496647
    outer loop
      vertex -6 -10.3923 40
      vertex -7 -12.1244 0
      vertex -4.32624 -13.3148 0
    endloop
  endfacet
  facet normal -0.864957 -0.499383 0.0496647
    outer loop
      vertex -10.9625 -4.88084 40
      vertex -11.3262 -8.22899 0
      vertex -9.7082 -7.05342 40
    endloop
  endfacet
  facet normal 0 -0.998766 0.0496647
    outer loop
      vertex -1.25434 -11.9343 40
      vertex 0 -12.1829 35
      vertex 1.25434 -11.9343 40
    endloop
  endfacet
  facet normal 0 -0.998766 0.0496647
    outer loop
      vertex -1.4634 -13.9233 0
      vertex 0 -12.1829 35
      vertex -1.25434 -11.9343 40
    endloop
  endfacet
  facet normal 0 -0.998766 0.0496647
    outer loop
      vertex 0 -12.1829 35
      vertex -1.4634 -13.9233 0
      vertex 0 -13.9233 0
    endloop
  endfacet
  facet normal 0 -0.998766 0.0496647
    outer loop
      vertex 1.25434 -11.9343 40
      vertex 0 -12.1829 35
      vertex 1.28047 -12.1829 35
    endloop
  endfacet
  facet normal 0.207654 -0.976941 0.0496648
    outer loop
      vertex 3.7082 -11.4127 40
      vertex 3.4276 -11.7265 35
      vertex 3.78546 -11.6504 35
    endloop
  endfacet
  facet normal 0.207654 -0.976941 0.0496647
    outer loop
      vertex 4 -12.3107 21.1145
      vertex 4 -13.3841 0
      vertex 4.32624 -13.3148 0
    endloop
  endfacet
  facet normal 0.949883 -0.308636 0.0496647
    outer loop
      vertex 13.6941 -2.91076 0
      vertex 10.9625 -4.88084 40
      vertex 12.7896 -5.69431 0
    endloop
  endfacet
  facet normal 0.864957 -0.499383 0.0496647
    outer loop
      vertex 10.9625 -4.88084 40
      vertex 9.7082 -7.05342 40
      vertex 11.3262 -8.22899 0
    endloop
  endfacet
  facet normal 0.993295 -0.1044 0.0496647
    outer loop
      vertex 14 0 0
      vertex 11.7378 -2.49494 40
      vertex 13.6941 -2.91076 0
    endloop
  endfacet
  facet normal 0.993295 -0.1044 0.0496647
    outer loop
      vertex 12 0 40
      vertex 11.7378 -2.49494 40
      vertex 14 0 0
    endloop
  endfacet
  facet normal 0.949883 0.308636 0.0496647
    outer loop
      vertex 13.6941 2.91076 0
      vertex 10.9625 4.88084 40
      vertex 11.7378 2.49494 40
    endloop
  endfacet
  facet normal 0.742228 0.668305 0.0496647
    outer loop
      vertex 9.7082 7.05342 40
      vertex 8.5 9.44021 25.939
      vertex 8.5 8.39527 40
    endloop
  endfacet
  facet normal 0.742228 0.668305 0.0496648
    outer loop
      vertex 8.5 9.44021 25.939
      vertex 9.7082 7.05342 40
      vertex 9.36783 10.404 0
    endloop
  endfacet
  facet normal 0.587061 0.808018 0.0496648
    outer loop
      vertex 8.5 10.401 10.3073
      vertex 8.5 9.44021 25.939
      vertex 9.36783 10.404 0
    endloop
  endfacet
  facet normal -0.949883 0.308636 0.0496647
    outer loop
      vertex -12.7896 5.69431 0
      vertex -13.6941 2.91076 0
      vertex -10.9625 4.88084 40
    endloop
  endfacet
  facet normal -0.949883 0.308636 0.0496647
    outer loop
      vertex -10.9625 4.88084 40
      vertex -13.6941 2.91076 0
      vertex -11.7378 2.49494 40
    endloop
  endfacet
  facet normal -0.993295 -0.1044 0.0496647
    outer loop
      vertex -12 0 40
      vertex -14 0 0
      vertex -11.7378 -2.49494 40
    endloop
  endfacet
  facet normal -0.949883 -0.308636 0.0496647
    outer loop
      vertex -10.9625 -4.88084 40
      vertex -13.6941 -2.91076 0
      vertex -12.7896 -5.69431 0
    endloop
  endfacet
  facet normal 0.406237 -0.912417 0.0496648
    outer loop
      vertex 4 -11.5549 35
      vertex 3.7082 -11.4127 40
      vertex 3.78546 -11.6504 35
    endloop
  endfacet
  facet normal 0.406235 -0.912418 0.0496647
    outer loop
      vertex 3.7082 -11.4127 40
      vertex 4 -11.5549 35
      vertex 6 -10.3923 40
    endloop
  endfacet
  facet normal 0.406234 -0.912418 0.0496647
    outer loop
      vertex 4 -12.3107 21.1145
      vertex 6 -10.3923 40
      vertex 4 -11.5549 35
    endloop
  endfacet
  facet normal 0.406234 -0.912418 0.0496647
    outer loop
      vertex 6 -10.3923 40
      vertex 4 -12.3107 21.1145
      vertex 4.32624 -13.3148 0
    endloop
  endfacet
  facet normal 0.207655 -0.976941 0.0496647
    outer loop
      vertex 3.4276 -11.7265 35
      vertex 1.25434 -11.9343 40
      vertex 1.28047 -12.1829 35
    endloop
  endfacet
  facet normal 0.207655 -0.976941 0.0496647
    outer loop
      vertex 1.25434 -11.9343 40
      vertex 3.4276 -11.7265 35
      vertex 3.7082 -11.4127 40
    endloop
  endfacet
  facet normal 0.742228 -0.668305 0.0496647
    outer loop
      vertex 9.7082 -7.05342 40
      vertex 9.36783 -10.404 0
      vertex 11.3262 -8.22899 0
    endloop
  endfacet
  facet normal 0.864957 -0.499383 0.0496647
    outer loop
      vertex 12.7896 -5.69431 0
      vertex 10.9625 -4.88084 40
      vertex 11.3262 -8.22899 0
    endloop
  endfacet
  facet normal -0.864957 0.499383 0.0496647
    outer loop
      vertex -9.7082 7.05342 40
      vertex -11.3262 8.22899 0
      vertex -10.9625 4.88084 40
    endloop
  endfacet
  facet normal -0.58706 0.808019 0.0496647
    outer loop
      vertex -8.5 11.0345 0
      vertex -9.36783 10.404 0
      vertex -8.5 10.401 10.3073
    endloop
  endfacet
  facet normal -0.406235 -0.912418 0.0496647
    outer loop
      vertex -3.7082 -11.4127 40
      vertex -6 -10.3923 40
      vertex -4.32624 -13.3148 0
    endloop
  endfacet
  facet normal -0.207655 -0.97694 0.0496647
    outer loop
      vertex -3.7082 -11.4127 40
      vertex -4.32624 -13.3148 0
      vertex -1.4634 -13.9233 0
    endloop
  endfacet
  facet normal -0.742228 -0.668305 0.0496647
    outer loop
      vertex -8.02957 -8.91774 40
      vertex -9.7082 -7.05342 40
      vertex -9.36783 -10.404 0
    endloop
  endfacet
  facet normal -0.742228 -0.668305 0.0496647
    outer loop
      vertex -9.7082 -7.05342 40
      vertex -11.3262 -8.22899 0
      vertex -9.36783 -10.404 0
    endloop
  endfacet
  facet normal 0.406235 -0.912418 0.0496647
    outer loop
      vertex 6 -10.3923 40
      vertex 4.32624 -13.3148 0
      vertex 7 -12.1244 0
    endloop
  endfacet
  facet normal 0.58706 -0.808019 0.0496647
    outer loop
      vertex 9.36783 -10.404 0
      vertex 6 -10.3923 40
      vertex 7 -12.1244 0
    endloop
  endfacet
  facet normal 0.742228 -0.668305 0.0496647
    outer loop
      vertex 9.7082 -7.05342 40
      vertex 8.02957 -8.91774 40
      vertex 9.36783 -10.404 0
    endloop
  endfacet
  facet normal -0.587061 0.808018 0.0496648
    outer loop
      vertex -8.5 10.401 10.3073
      vertex -9.36783 10.404 0
      vertex -8.5 9.44021 25.939
    endloop
  endfacet
  facet normal -0.742228 0.668305 0.0496648
    outer loop
      vertex -9.7082 7.05342 40
      vertex -8.5 9.44021 25.939
      vertex -9.36783 10.404 0
    endloop
  endfacet
  facet normal -0.742228 0.668305 0.0496647
    outer loop
      vertex -8.5 9.44021 25.939
      vertex -9.7082 7.05342 40
      vertex -8.5 8.39527 40
    endloop
  endfacet
  facet normal -0.58706 -0.808018 0.0496647
    outer loop
      vertex -8.02957 -8.91774 40
      vertex -9.36783 -10.404 0
      vertex -6 -10.3923 40
    endloop
  endfacet
  facet normal -0.58706 -0.808019 0.0496647
    outer loop
      vertex -6 -10.3923 40
      vertex -9.36783 -10.404 0
      vertex -7 -12.1244 0
    endloop
  endfacet
  facet normal 1 -0 0
    outer loop
      vertex 4 -28.4922 7.88327
      vertex 4 -26.5 1.73352
      vertex 4 -25.5954 9.55573
    endloop
  endfacet
  facet normal 1 -0 0
    outer loop
      vertex 4 -31.6734 6.84964
      vertex 4 -26.5 1.73352
      vertex 4 -28.4922 7.88327
    endloop
  endfacet
  facet normal 1 0 0
    outer loop
      vertex 4 -26.5 1.73352
      vertex 4 -31.6734 6.84964
      vertex 4 -30.322 0.491678
    endloop
  endfacet
  facet normal 1 -0 0
    outer loop
      vertex 4 -35 6.5
      vertex 4 -30.322 0.491678
      vertex 4 -31.6734 6.84964
    endloop
  endfacet
  facet normal 1 0 0
    outer loop
      vertex 4 -35 6.5
      vertex 4 -35 0
      vertex 4 -30.322 0.491678
    endloop
  endfacet
  facet normal 1 0 0
    outer loop
      vertex 4 -38.3266 6.84964
      vertex 4 -35 0
      vertex 4 -35 6.5
    endloop
  endfacet
  facet normal 1 0 0
    outer loop
      vertex 4 -38.3266 6.84964
      vertex 4 -39.678 0.491678
      vertex 4 -35 0
    endloop
  endfacet
  facet normal 1 0 0
    outer loop
      vertex 4 -41.5078 7.88327
      vertex 4 -39.678 0.491678
      vertex 4 -38.3266 6.84964
    endloop
  endfacet
  facet normal 1 0 0
    outer loop
      vertex 4 -41.5078 7.88327
      vertex 4 -44.1516 1.94523
      vertex 4 -39.678 0.491678
    endloop
  endfacet
  facet normal 1 0 0
    outer loop
      vertex 4 -44.4046 9.55573
      vertex 4 -44.1516 1.94523
      vertex 4 -41.5078 7.88327
    endloop
  endfacet
  facet normal 1 0 0
    outer loop
      vertex 4 -48.2252 4.29712
      vertex 4 -44.4046 9.55573
      vertex 4 -46.8903 11.7939
    endloop
  endfacet
  facet normal 1 0 0
    outer loop
      vertex 4 -51.7208 7.44456
      vertex 4 -46.8903 11.7939
      vertex 4 -47.218 12.2449
    endloop
  endfacet
  facet normal 1 0 0
    outer loop
      vertex 4 -44.4046 9.55573
      vertex 4 -48.2252 4.29712
      vertex 4 -44.1516 1.94523
    endloop
  endfacet
  facet normal 1 0 0
    outer loop
      vertex 4 -54.4856 11.25
      vertex 4 -47.218 12.2449
      vertex 4 -48.8564 14.5
    endloop
  endfacet
  facet normal 1 0 0
    outer loop
      vertex 4 -54.4856 11.25
      vertex 4 -48.8564 14.5
      vertex 4 -49.9902 17.0464
    endloop
  endfacet
  facet normal 1 0 0
    outer loop
      vertex 4 -56.3988 15.5471
      vertex 4 -49.9902 17.0464
      vertex 4 -50.2169 17.5557
    endloop
  endfacet
  facet normal 1 0 0
    outer loop
      vertex 4 -56.3988 15.5471
      vertex 4 -50.2169 17.5557
      vertex 4 -50.7679 20.1481
    endloop
  endfacet
  facet normal 1 0 0
    outer loop
      vertex 4 -46.8903 11.7939
      vertex 4 -51.7208 7.44456
      vertex 4 -48.2252 4.29712
    endloop
  endfacet
  facet normal 1 0 0
    outer loop
      vertex 4 -47.218 12.2449
      vertex 4 -54.4856 11.25
      vertex 4 -51.7208 7.44456
    endloop
  endfacet
  facet normal 1 0 0
    outer loop
      vertex 4 -49.9902 17.0464
      vertex 4 -56.3988 15.5471
      vertex 4 -54.4856 11.25
    endloop
  endfacet
  facet normal 1 0 -0
    outer loop
      vertex 4 -56.3988 15.5471
      vertex 4 -50.7679 20.1481
      vertex 4 -57.3767 20.1481
    endloop
  endfacet
  facet normal 1 0 0
    outer loop
      vertex 4 -19.0877 20.8275
      vertex 4 -12.3107 21.1145
      vertex 4 -19.0877 24.1725
    endloop
  endfacet
  facet normal 1 -0 0
    outer loop
      vertex 4 -19.7831 27.4443
      vertex 4 -12.3107 21.1145
      vertex 4 -11.5549 35
    endloop
  endfacet
  facet normal 1 0 0
    outer loop
      vertex 4 -12.3107 21.1145
      vertex 4 -19.7831 27.4443
      vertex 4 -19.0877 24.1725
    endloop
  endfacet
  facet normal 1 0 0
    outer loop
      vertex 4 -11.5549 35
      vertex 4 -20.9168 29.9907
      vertex 4 -19.7831 27.4443
    endloop
  endfacet
  facet normal 1 0 0
    outer loop
      vertex 4 -11.5549 35
      vertex 4 -21.1436 30.5
      vertex 4 -20.9168 29.9907
    endloop
  endfacet
  facet normal 1 0 0
    outer loop
      vertex 4 -11.5549 35
      vertex 4 -21.4713 30.951
      vertex 4 -21.1436 30.5
    endloop
  endfacet
  facet normal 1 0 0
    outer loop
      vertex 4 -11.5549 35
      vertex 4 -23.1097 33.2061
      vertex 4 -21.4713 30.951
    endloop
  endfacet
  facet normal 1 0 -0
    outer loop
      vertex 4 -23.1097 33.2061
      vertex 4 -11.5549 35
      vertex 4 -25.102 35
    endloop
  endfacet
  facet normal 1 0 0
    outer loop
      vertex 4 -19.7831 17.5557
      vertex 4 -12.3107 21.1145
      vertex 4 -19.0877 20.8275
    endloop
  endfacet
  facet normal 1 0 0
    outer loop
      vertex 4 -20.0098 17.0464
      vertex 4 -12.3107 21.1145
      vertex 4 -19.7831 17.5557
    endloop
  endfacet
  facet normal 1 0 0
    outer loop
      vertex 4 -21.1436 14.5
      vertex 4 -12.3107 21.1145
      vertex 4 -20.0098 17.0464
    endloop
  endfacet
  facet normal 1 0 0
    outer loop
      vertex 4 -12.3107 21.1145
      vertex 4 -21.1436 14.5
      vertex 4 -13.3841 0
    endloop
  endfacet
  facet normal 1 -0 0
    outer loop
      vertex 4 -22.782 12.2449
      vertex 4 -13.3841 0
      vertex 4 -21.1436 14.5
    endloop
  endfacet
  facet normal 1 -0 0
    outer loop
      vertex 4 -23.1097 11.7939
      vertex 4 -13.3841 0
      vertex 4 -22.782 12.2449
    endloop
  endfacet
  facet normal 1 -0 0
    outer loop
      vertex 4 -25.5954 9.55573
      vertex 4 -13.3841 0
      vertex 4 -23.1097 11.7939
    endloop
  endfacet
  facet normal 1 -0 0
    outer loop
      vertex 4 -26.5 1.73352
      vertex 4 -13.3841 0
      vertex 4 -25.5954 9.55573
    endloop
  endfacet
  facet normal 1 0 0
    outer loop
      vertex 4 -13.3841 0
      vertex 4 -26.5 1.73352
      vertex 4 -26.5 0
    endloop
  endfacet
  facet normal 0 -0.104528 -0.994522
    outer loop
      vertex 0 -39.678 0.491678
      vertex 4 -35 0
      vertex 4 -39.678 0.491678
    endloop
  endfacet
  facet normal -0 -0.104528 -0.994522
    outer loop
      vertex 4 -35 0
      vertex 0 -39.678 0.491678
      vertex 0 -35 0
    endloop
  endfacet
  facet normal 0 -0.978148 0.207912
    outer loop
      vertex 0 -57.3767 24.8519
      vertex 4 -56.3988 29.4529
      vertex 0 -56.3988 29.4529
    endloop
  endfacet
  facet normal 0 -0.978148 0.207912
    outer loop
      vertex 4 -56.3988 29.4529
      vertex 0 -57.3767 24.8519
      vertex 4 -57.3767 24.8519
    endloop
  endfacet
  facet normal 1 -1.6651e-08 5.12465e-08
    outer loop
      vertex 4 -39.678 44.5083
      vertex 4 -44.1516 43.0548
      vertex 4 -57.3767 20.1481
    endloop
  endfacet
  facet normal 0 0.309017 -0.951057
    outer loop
      vertex 0 -30.322 0.491678
      vertex 4 -26.5 1.73352
      vertex 4 -30.322 0.491678
    endloop
  endfacet
  facet normal 0 0.309017 -0.951057
    outer loop
      vertex 4 -26.5 1.73352
      vertex 0 -30.322 0.491678
      vertex 0 -26.5 1.73352
    endloop
  endfacet
  facet normal 1 0 0
    outer loop
      vertex 4 -23.4138 35
      vertex 4 -25.5954 35.4443
      vertex 4 -25.102 35
    endloop
  endfacet
  facet normal 1 7.79219e-08 3.82645e-07
    outer loop
      vertex 4 -23.4138 35
      vertex 4 -27.2627 36.4069
      vertex 4 -25.5954 35.4443
    endloop
  endfacet
  facet normal 1 -5.93838e-08 7.00463e-09
    outer loop
      vertex 4 -30.322 44.5083
      vertex 4 -27.2627 36.4069
      vertex 4 -23.4138 35
    endloop
  endfacet
  facet normal 1 3.22097e-09 3.06455e-08
    outer loop
      vertex 4 -27.2627 36.4069
      vertex 4 -30.322 44.5083
      vertex 4 -35 45
    endloop
  endfacet
  facet normal 1 -6.97292e-08 7.74422e-08
    outer loop
      vertex 4 -48.2252 40.7029
      vertex 4 -51.7208 37.5554
      vertex 4 -57.3767 20.1481
    endloop
  endfacet
  facet normal 0 -0.309017 0.951056
    outer loop
      vertex 0 -39.678 44.5083
      vertex 4 -44.1516 43.0548
      vertex 4 -39.678 44.5083
    endloop
  endfacet
  facet normal 0 -0.309017 0.951056
    outer loop
      vertex 4 -44.1516 43.0548
      vertex 0 -39.678 44.5083
      vertex 0 -44.1516 43.0548
    endloop
  endfacet
  facet normal 0 -0.913545 0.406737
    outer loop
      vertex 0 -56.3988 29.4529
      vertex 4 -54.4856 33.75
      vertex 0 -54.4856 33.75
    endloop
  endfacet
  facet normal 0 -0.913545 0.406737
    outer loop
      vertex 4 -54.4856 33.75
      vertex 0 -56.3988 29.4529
      vertex 4 -56.3988 29.4529
    endloop
  endfacet
  facet normal 1 -3.60553e-08 6.24496e-08
    outer loop
      vertex 4 -44.1516 43.0548
      vertex 4 -48.2252 40.7029
      vertex 4 -57.3767 20.1481
    endloop
  endfacet
  facet normal -0 0.104529 0.994522
    outer loop
      vertex 0 -30.322 44.5083
      vertex 4 -35 45
      vertex 4 -30.322 44.5083
    endloop
  endfacet
  facet normal 0 0.104529 0.994522
    outer loop
      vertex 4 -35 45
      vertex 0 -30.322 44.5083
      vertex 0 -35 45
    endloop
  endfacet
  facet normal 1 -7.49163e-09 7.1278e-08
    outer loop
      vertex 4 -50.9123 24.1725
      vertex 4 -57.3767 20.1481
      vertex 4 -50.9123 20.8275
    endloop
  endfacet
  facet normal 1 4.25065e-08 -9.03503e-09
    outer loop
      vertex 4 -50.2169 27.4443
      vertex 4 -57.3767 20.1481
      vertex 4 -50.9123 24.1725
    endloop
  endfacet
  facet normal 1 6.09549e-08 -2.71388e-08
    outer loop
      vertex 4 -57.3767 20.1481
      vertex 4 -50.2169 27.4443
      vertex 4 -49.6395 28.7412
    endloop
  endfacet
  facet normal 1 0 0
    outer loop
      vertex 4 -50.7679 20.1481
      vertex 4 -50.9123 20.8275
      vertex 4 -57.3767 20.1481
    endloop
  endfacet
  facet normal 1 3.33618e-08 5.77844e-08
    outer loop
      vertex 4 -35 45
      vertex 4 -28.4922 37.1167
      vertex 4 -27.2627 36.4069
    endloop
  endfacet
  facet normal 1 1.34287e-08 4.13292e-08
    outer loop
      vertex 4 -35 45
      vertex 4 -31.6734 38.1504
      vertex 4 -28.4922 37.1167
    endloop
  endfacet
  facet normal 1 3.85522e-09 3.66798e-08
    outer loop
      vertex 4 -35 45
      vertex 4 -35 38.5
      vertex 4 -31.6734 38.1504
    endloop
  endfacet
  facet normal 1 -3.85522e-09 3.66798e-08
    outer loop
      vertex 4 -35 45
      vertex 4 -38.3266 38.1504
      vertex 4 -35 38.5
    endloop
  endfacet
  facet normal 1 -1.34287e-08 4.13292e-08
    outer loop
      vertex 4 -35 45
      vertex 4 -41.5078 37.1167
      vertex 4 -38.3266 38.1504
    endloop
  endfacet
  facet normal 1 -3.33619e-08 5.77844e-08
    outer loop
      vertex 4 -41.5078 37.1167
      vertex 4 -35 45
      vertex 4 -42.7373 36.4069
    endloop
  endfacet
  facet normal -0 0.66913 0.743145
    outer loop
      vertex 0 -18.2792 37.5554
      vertex 4 -21.7748 40.7029
      vertex 4 -18.2792 37.5554
    endloop
  endfacet
  facet normal 0 0.66913 0.743145
    outer loop
      vertex 4 -21.7748 40.7029
      vertex 0 -18.2792 37.5554
      vertex 0 -21.7748 40.7029
    endloop
  endfacet
  facet normal -0 0.5 0.866025
    outer loop
      vertex 0 -21.7748 40.7029
      vertex 4 -25.8484 43.0548
      vertex 4 -21.7748 40.7029
    endloop
  endfacet
  facet normal 0 0.5 0.866025
    outer loop
      vertex 4 -25.8484 43.0548
      vertex 0 -21.7748 40.7029
      vertex 0 -25.8484 43.0548
    endloop
  endfacet
  facet normal 0 0.104528 -0.994522
    outer loop
      vertex 0 -35 0
      vertex 4 -30.322 0.491678
      vertex 4 -35 0
    endloop
  endfacet
  facet normal 0 0.104528 -0.994522
    outer loop
      vertex 4 -30.322 0.491678
      vertex 0 -35 0
      vertex 0 -30.322 0.491678
    endloop
  endfacet
  facet normal 0 -0.978148 -0.207911
    outer loop
      vertex 0 -56.3988 15.5471
      vertex 4 -57.3767 20.1481
      vertex 0 -57.3767 20.1481
    endloop
  endfacet
  facet normal 0 -0.978148 -0.207911
    outer loop
      vertex 4 -57.3767 20.1481
      vertex 0 -56.3988 15.5471
      vertex 4 -56.3988 15.5471
    endloop
  endfacet
  facet normal -1 0 0
    outer loop
      vertex 0 -19.0877 20.8275
      vertex 0 -12.1829 35
      vertex 0 -13.9233 0
    endloop
  endfacet
  facet normal -1 0 0
    outer loop
      vertex 0 -19.0877 24.1725
      vertex 0 -12.1829 35
      vertex 0 -19.0877 20.8275
    endloop
  endfacet
  facet normal -1 0 0
    outer loop
      vertex 0 -19.7831 27.4443
      vertex 0 -12.1829 35
      vertex 0 -19.0877 24.1725
    endloop
  endfacet
  facet normal -1 0 0
    outer loop
      vertex 0 -13.9233 0
      vertex 0 -19.7831 17.5557
      vertex 0 -19.0877 20.8275
    endloop
  endfacet
  facet normal -1 0 0
    outer loop
      vertex 0 -13.9233 0
      vertex 0 -20.9168 15.0093
      vertex 0 -19.7831 17.5557
    endloop
  endfacet
  facet normal -1 0 0
    outer loop
      vertex 0 -13.9233 0
      vertex 0 -21.1436 14.5
      vertex 0 -20.9168 15.0093
    endloop
  endfacet
  facet normal -1 0 0
    outer loop
      vertex 0 -13.9233 0
      vertex 0 -21.4713 14.049
      vertex 0 -21.1436 14.5
    endloop
  endfacet
  facet normal -1 0 0
    outer loop
      vertex 0 -13.9233 0
      vertex 0 -23.1097 11.7939
      vertex 0 -21.4713 14.049
    endloop
  endfacet
  facet normal -1 0 0
    outer loop
      vertex 0 -13.9233 0
      vertex 0 -25.5954 9.55573
      vertex 0 -23.1097 11.7939
    endloop
  endfacet
  facet normal -1 0 0
    outer loop
      vertex 0 -26.5 1.73352
      vertex 0 -13.9233 0
      vertex 0 -26.5 0
    endloop
  endfacet
  facet normal -1 0 0
    outer loop
      vertex 0 -13.9233 0
      vertex 0 -26.5 1.73352
      vertex 0 -25.5954 9.55573
    endloop
  endfacet
  facet normal -1 0 0
    outer loop
      vertex 0 -26.5 1.73352
      vertex 0 -28.4922 7.88327
      vertex 0 -25.5954 9.55573
    endloop
  endfacet
  facet normal -1 0 0
    outer loop
      vertex 0 -31.6734 6.84964
      vertex 0 -26.5 1.73352
      vertex 0 -30.322 0.491678
    endloop
  endfacet
  facet normal -1 0 0
    outer loop
      vertex 0 -26.5 1.73352
      vertex 0 -31.6734 6.84964
      vertex 0 -28.4922 7.88327
    endloop
  endfacet
  facet normal -1 0 0
    outer loop
      vertex 0 -35 0
      vertex 0 -31.6734 6.84964
      vertex 0 -30.322 0.491678
    endloop
  endfacet
  facet normal -1 0 0
    outer loop
      vertex 0 -35 0
      vertex 0 -35 6.5
      vertex 0 -31.6734 6.84964
    endloop
  endfacet
  facet normal -1 0 0
    outer loop
      vertex 0 -35 0
      vertex 0 -38.3266 6.84964
      vertex 0 -35 6.5
    endloop
  endfacet
  facet normal -1 0 0
    outer loop
      vertex 0 -39.678 0.491678
      vertex 0 -38.3266 6.84964
      vertex 0 -35 0
    endloop
  endfacet
  facet normal -1 0 0
    outer loop
      vertex 0 -39.678 0.491678
      vertex 0 -41.5078 7.88327
      vertex 0 -38.3266 6.84964
    endloop
  endfacet
  facet normal -1 0 0
    outer loop
      vertex 0 -44.1516 1.94523
      vertex 0 -41.5078 7.88327
      vertex 0 -39.678 0.491678
    endloop
  endfacet
  facet normal -1 0 0
    outer loop
      vertex 0 -44.1516 1.94523
      vertex 0 -44.4046 9.55573
      vertex 0 -41.5078 7.88327
    endloop
  endfacet
  facet normal -1 0 0
    outer loop
      vertex 0 -48.2252 4.29712
      vertex 0 -44.4046 9.55573
      vertex 0 -44.1516 1.94523
    endloop
  endfacet
  facet normal -1 -0 0
    outer loop
      vertex 0 -44.4046 9.55573
      vertex 0 -48.2252 4.29712
      vertex 0 -46.8903 11.7939
    endloop
  endfacet
  facet normal -1 0 0
    outer loop
      vertex 0 -51.7208 7.44456
      vertex 0 -46.8903 11.7939
      vertex 0 -48.2252 4.29712
    endloop
  endfacet
  facet normal -1 -0 0
    outer loop
      vertex 0 -46.8903 11.7939
      vertex 0 -51.7208 7.44456
      vertex 0 -48.5287 14.049
    endloop
  endfacet
  facet normal -1 0 0
    outer loop
      vertex 0 -54.4856 11.25
      vertex 0 -48.5287 14.049
      vertex 0 -51.7208 7.44456
    endloop
  endfacet
  facet normal -1 -0 0
    outer loop
      vertex 0 -48.5287 14.049
      vertex 0 -54.4856 11.25
      vertex 0 -48.8564 14.5
    endloop
  endfacet
  facet normal -1 -0 0
    outer loop
      vertex 0 -48.8564 14.5
      vertex 0 -54.4856 11.25
      vertex 0 -49.0832 15.0093
    endloop
  endfacet
  facet normal -1 0 0
    outer loop
      vertex 0 -49.0832 15.0093
      vertex 0 -56.3988 15.5471
      vertex 0 -50.2169 17.5557
    endloop
  endfacet
  facet normal -1 0 0
    outer loop
      vertex 0 -56.3988 15.5471
      vertex 0 -49.0832 15.0093
      vertex 0 -54.4856 11.25
    endloop
  endfacet
  facet normal -1 -0 0
    outer loop
      vertex 0 -12.1829 35
      vertex 0 -19.7831 27.4443
      vertex 0 -16.4226 35
    endloop
  endfacet
  facet normal -1 0 0
    outer loop
      vertex 0 -20.0098 27.9536
      vertex 0 -16.4226 35
      vertex 0 -19.7831 27.4443
    endloop
  endfacet
  facet normal -1 0 0
    outer loop
      vertex 0 -21.1436 30.5
      vertex 0 -16.4226 35
      vertex 0 -20.0098 27.9536
    endloop
  endfacet
  facet normal -1 0 0
    outer loop
      vertex 0 -22.782 32.7551
      vertex 0 -16.4226 35
      vertex 0 -21.1436 30.5
    endloop
  endfacet
  facet normal -1 -0 0
    outer loop
      vertex 0 -16.4226 35
      vertex 0 -22.782 32.7551
      vertex 0 -18.2792 37.5554
    endloop
  endfacet
  facet normal -1 0 0
    outer loop
      vertex 0 -23.1097 33.2061
      vertex 0 -18.2792 37.5554
      vertex 0 -22.782 32.7551
    endloop
  endfacet
  facet normal -1 -0 0
    outer loop
      vertex 0 -18.2792 37.5554
      vertex 0 -23.1097 33.2061
      vertex 0 -21.7748 40.7029
    endloop
  endfacet
  facet normal -1 0 0
    outer loop
      vertex 0 -25.5954 35.4443
      vertex 0 -21.7748 40.7029
      vertex 0 -23.1097 33.2061
    endloop
  endfacet
  facet normal -1 0 0
    outer loop
      vertex 0 -25.5954 35.4443
      vertex 0 -25.8484 43.0548
      vertex 0 -21.7748 40.7029
    endloop
  endfacet
  facet normal -1 0 0
    outer loop
      vertex 0 -28.4922 37.1167
      vertex 0 -25.8484 43.0548
      vertex 0 -25.5954 35.4443
    endloop
  endfacet
  facet normal -1 0 0
    outer loop
      vertex 0 -28.4922 37.1167
      vertex 0 -30.322 44.5083
      vertex 0 -25.8484 43.0548
    endloop
  endfacet
  facet normal -1 0 0
    outer loop
      vertex 0 -31.6734 38.1504
      vertex 0 -30.322 44.5083
      vertex 0 -28.4922 37.1167
    endloop
  endfacet
  facet normal -1 0 0
    outer loop
      vertex 0 -35 38.5
      vertex 0 -30.322 44.5083
      vertex 0 -31.6734 38.1504
    endloop
  endfacet
  facet normal -1 0 0
    outer loop
      vertex 0 -35 38.5
      vertex 0 -35 45
      vertex 0 -30.322 44.5083
    endloop
  endfacet
  facet normal -1 0 0
    outer loop
      vertex 0 -38.3266 38.1504
      vertex 0 -35 45
      vertex 0 -35 38.5
    endloop
  endfacet
  facet normal -1 0 0
    outer loop
      vertex 0 -38.3266 38.1504
      vertex 0 -39.678 44.5083
      vertex 0 -35 45
    endloop
  endfacet
  facet normal -1 0 0
    outer loop
      vertex 0 -41.5078 37.1167
      vertex 0 -39.678 44.5083
      vertex 0 -38.3266 38.1504
    endloop
  endfacet
  facet normal -1 0 0
    outer loop
      vertex 0 -41.5078 37.1167
      vertex 0 -44.1516 43.0548
      vertex 0 -39.678 44.5083
    endloop
  endfacet
  facet normal -1 0 0
    outer loop
      vertex 0 -44.4046 35.4443
      vertex 0 -44.1516 43.0548
      vertex 0 -41.5078 37.1167
    endloop
  endfacet
  facet normal -1 0 0
    outer loop
      vertex 0 -48.2252 40.7029
      vertex 0 -44.4046 35.4443
      vertex 0 -46.8903 33.2061
    endloop
  endfacet
  facet normal -1 0 0
    outer loop
      vertex 0 -44.4046 35.4443
      vertex 0 -48.2252 40.7029
      vertex 0 -44.1516 43.0548
    endloop
  endfacet
  facet normal -1 0 0
    outer loop
      vertex 0 -51.7208 37.5554
      vertex 0 -46.8903 33.2061
      vertex 0 -48.8564 30.5
    endloop
  endfacet
  facet normal -1 0 0
    outer loop
      vertex 0 -54.4856 33.75
      vertex 0 -48.8564 30.5
      vertex 0 -50.2169 27.4443
    endloop
  endfacet
  facet normal -1 0 0
    outer loop
      vertex 0 -56.3988 29.4529
      vertex 0 -50.2169 27.4443
      vertex 0 -50.9123 24.1725
    endloop
  endfacet
  facet normal -1 0 0
    outer loop
      vertex 0 -46.8903 33.2061
      vertex 0 -51.7208 37.5554
      vertex 0 -48.2252 40.7029
    endloop
  endfacet
  facet normal -1 -0 0
    outer loop
      vertex 0 -50.2169 17.5557
      vertex 0 -56.3988 15.5471
      vertex 0 -50.9123 20.8275
    endloop
  endfacet
  facet normal -1 0 0
    outer loop
      vertex 0 -57.3767 20.1481
      vertex 0 -50.9123 20.8275
      vertex 0 -56.3988 15.5471
    endloop
  endfacet
  facet normal -1 0 0
    outer loop
      vertex 0 -48.8564 30.5
      vertex 0 -54.4856 33.75
      vertex 0 -51.7208 37.5554
    endloop
  endfacet
  facet normal -1 -0 0
    outer loop
      vertex 0 -50.9123 20.8275
      vertex 0 -57.3767 20.1481
      vertex 0 -50.9123 24.1725
    endloop
  endfacet
  facet normal -1 0 0
    outer loop
      vertex 0 -50.2169 27.4443
      vertex 0 -56.3988 29.4529
      vertex 0 -54.4856 33.75
    endloop
  endfacet
  facet normal -1 0 0
    outer loop
      vertex 0 -57.3767 24.8519
      vertex 0 -50.9123 24.1725
      vertex 0 -57.3767 20.1481
    endloop
  endfacet
  facet normal -1 0 0
    outer loop
      vertex 0 -50.9123 24.1725
      vertex 0 -57.3767 24.8519
      vertex 0 -56.3988 29.4529
    endloop
  endfacet
  facet normal 9.69736e-08 -0.913545 -0.406737
    outer loop
      vertex 4 -56.3988 15.5471
      vertex 0 -54.4856 11.25
      vertex 4 -54.4856 11.25
    endloop
  endfacet
  facet normal -0 -0.809017 -0.587786
    outer loop
      vertex 4 -51.7208 7.44456
      vertex 0 -54.4856 11.25
      vertex 0 -51.7208 7.44456
    endloop
  endfacet
  facet normal 0 -0.669131 -0.743145
    outer loop
      vertex 0 -51.7208 7.44456
      vertex 4 -48.2252 4.29712
      vertex 4 -51.7208 7.44456
    endloop
  endfacet
  facet normal -0 -0.669131 -0.743145
    outer loop
      vertex 4 -48.2252 4.29712
      vertex 0 -51.7208 7.44456
      vertex 0 -48.2252 4.29712
    endloop
  endfacet
  facet normal 0 -0.5 -0.866025
    outer loop
      vertex 0 -48.2252 4.29712
      vertex 4 -44.1516 1.94523
      vertex 4 -48.2252 4.29712
    endloop
  endfacet
  facet normal -0 -0.5 -0.866025
    outer loop
      vertex 4 -44.1516 1.94523
      vertex 0 -48.2252 4.29712
      vertex 0 -44.1516 1.94523
    endloop
  endfacet
  facet normal 0 -1 0
    outer loop
      vertex 0 -57.3767 20.1481
      vertex 4 -57.3767 24.8519
      vertex 0 -57.3767 24.8519
    endloop
  endfacet
  facet normal 0 -1 -0
    outer loop
      vertex 4 -57.3767 24.8519
      vertex 0 -57.3767 20.1481
      vertex 4 -57.3767 20.1481
    endloop
  endfacet
  facet normal 1 -3.22097e-09 3.06455e-08
    outer loop
      vertex 4 -39.678 44.5083
      vertex 4 -42.7373 36.4069
      vertex 4 -35 45
    endloop
  endfacet
  facet normal 1 1.61139e-07 -3.14201e-08
    outer loop
      vertex 4 -39.678 44.5083
      vertex 4 -44.4046 35.4443
      vertex 4 -42.7373 36.4069
    endloop
  endfacet
  facet normal 1 -8.92938e-08 9.91708e-08
    outer loop
      vertex 4 -39.678 44.5083
      vertex 4 -46.8903 33.2061
      vertex 4 -44.4046 35.4443
    endloop
  endfacet
  facet normal 1 -4.77191e-07 3.467e-07
    outer loop
      vertex 4 -39.678 44.5083
      vertex 4 -48.8564 30.5
      vertex 4 -46.8903 33.2061
    endloop
  endfacet
  facet normal 1 -2.36864e-07 2.41019e-07
    outer loop
      vertex 4 -48.8564 30.5
      vertex 4 -57.3767 20.1481
      vertex 4 -49.6395 28.7412
    endloop
  endfacet
  facet normal 1 7.16265e-08 -1.28908e-08
    outer loop
      vertex 4 -57.3767 20.1481
      vertex 4 -48.8564 30.5
      vertex 4 -39.678 44.5083
    endloop
  endfacet
  facet normal 0 -0.5 0.866025
    outer loop
      vertex 0 -44.1516 43.0548
      vertex 4 -48.2252 40.7029
      vertex 4 -44.1516 43.0548
    endloop
  endfacet
  facet normal 0 -0.5 0.866025
    outer loop
      vertex 4 -48.2252 40.7029
      vertex 0 -44.1516 43.0548
      vertex 0 -48.2252 40.7029
    endloop
  endfacet
  facet normal 0 -0.809017 0.587786
    outer loop
      vertex 0 -54.4856 33.75
      vertex 4 -51.7208 37.5554
      vertex 0 -51.7208 37.5554
    endloop
  endfacet
  facet normal 0 -0.809017 0.587786
    outer loop
      vertex 4 -51.7208 37.5554
      vertex 0 -54.4856 33.75
      vertex 4 -54.4856 33.75
    endloop
  endfacet
  facet normal 0 -0.104529 0.994522
    outer loop
      vertex 0 -35 45
      vertex 4 -39.678 44.5083
      vertex 4 -35 45
    endloop
  endfacet
  facet normal 0 -0.104529 0.994522
    outer loop
      vertex 4 -39.678 44.5083
      vertex 0 -35 45
      vertex 0 -39.678 44.5083
    endloop
  endfacet
  facet normal 0 -0.66913 0.743145
    outer loop
      vertex 0 -48.2252 40.7029
      vertex 4 -51.7208 37.5554
      vertex 4 -48.2252 40.7029
    endloop
  endfacet
  facet normal 0 -0.66913 0.743145
    outer loop
      vertex 4 -51.7208 37.5554
      vertex 0 -48.2252 40.7029
      vertex 0 -51.7208 37.5554
    endloop
  endfacet
  facet normal 1 2.32304e-07 1.68778e-07
    outer loop
      vertex 4 -16.4226 35
      vertex 4 -18.2792 37.5554
      vertex 4 -17.4489 35
    endloop
  endfacet
  facet normal 1 1.076e-07 9.17226e-08
    outer loop
      vertex 4 -25.8484 43.0548
      vertex 4 -23.4138 35
      vertex 4 -21.198 35
    endloop
  endfacet
  facet normal 1 2.13298e-08 6.56465e-08
    outer loop
      vertex 4 -23.4138 35
      vertex 4 -25.8484 43.0548
      vertex 4 -30.322 44.5083
    endloop
  endfacet
  facet normal -0 0.309017 0.951057
    outer loop
      vertex 0 -25.8484 43.0548
      vertex 4 -30.322 44.5083
      vertex 4 -25.8484 43.0548
    endloop
  endfacet
  facet normal 0 0.309017 0.951057
    outer loop
      vertex 4 -30.322 44.5083
      vertex 0 -25.8484 43.0548
      vertex 0 -30.322 44.5083
    endloop
  endfacet
  facet normal -0 -0.913545 -0.406737
    outer loop
      vertex 4 -56.3988 15.5471
      vertex 0 -56.3988 15.5471
      vertex 0 -54.4856 11.25
    endloop
  endfacet
  facet normal 1.40139e-07 -0.809017 -0.587786
    outer loop
      vertex 4 -54.4856 11.25
      vertex 0 -54.4856 11.25
      vertex 4 -51.7208 7.44456
    endloop
  endfacet
  facet normal 0 -0.309017 -0.951056
    outer loop
      vertex 0 -44.1516 1.94523
      vertex 4 -39.678 0.491678
      vertex 4 -44.1516 1.94523
    endloop
  endfacet
  facet normal -0 -0.309017 -0.951056
    outer loop
      vertex 4 -39.678 0.491678
      vertex 0 -44.1516 1.94523
      vertex 0 -39.678 0.491678
    endloop
  endfacet
  facet normal 1 -9.53847e-07 2.02746e-07
    outer loop
      vertex 4 -56.3988 29.4529
      vertex 4 -57.3767 24.8519
      vertex 4 -57.3767 20.1481
    endloop
  endfacet
  facet normal 1 -3.0134e-07 1.34165e-07
    outer loop
      vertex 4 -54.4856 33.75
      vertex 4 -56.3988 29.4529
      vertex 4 -57.3767 20.1481
    endloop
  endfacet
  facet normal 1 -1.36411e-07 9.91084e-08
    outer loop
      vertex 4 -51.7208 37.5554
      vertex 4 -54.4856 33.75
      vertex 4 -57.3767 20.1481
    endloop
  endfacet
  facet normal 1 0 4.18067e-08
    outer loop
      vertex 4 -21.7748 40.7029
      vertex 4 -21.198 35
      vertex 4 -19.2357 35
    endloop
  endfacet
  facet normal 1 2.56341e-08 4.43995e-08
    outer loop
      vertex 4 -21.198 35
      vertex 4 -21.7748 40.7029
      vertex 4 -25.8484 43.0548
    endloop
  endfacet
  facet normal 1 0 9.32985e-08
    outer loop
      vertex 4 -18.2792 37.5554
      vertex 4 -19.2357 35
      vertex 4 -17.4489 35
    endloop
  endfacet
  facet normal 1 6.28308e-08 6.97808e-08
    outer loop
      vertex 4 -19.2357 35
      vertex 4 -18.2792 37.5554
      vertex 4 -21.7748 40.7029
    endloop
  endfacet
  facet normal -5.7447e-07 0.809017 0.587785
    outer loop
      vertex 0 -16.4226 35
      vertex 0 -18.2792 37.5554
      vertex 2.68609 -16.4226 35
    endloop
  endfacet
  facet normal -0 0.809017 0.587785
    outer loop
      vertex 2.68609 -16.4226 35
      vertex 4 -18.2792 37.5554
      vertex 4 -16.4226 35
    endloop
  endfacet
  facet normal 0 0.809017 0.587785
    outer loop
      vertex 4 -18.2792 37.5554
      vertex 2.68609 -16.4226 35
      vertex 0 -18.2792 37.5554
    endloop
  endfacet
  facet normal 0 0 1
    outer loop
      vertex 4 -11.5549 35
      vertex 4 -23.4138 35
      vertex 4 -25.102 35
    endloop
  endfacet
  facet normal 0 0 1
    outer loop
      vertex 4 -11.5549 35
      vertex 4 -17.4489 35
      vertex 4 -23.4138 35
    endloop
  endfacet
  facet normal 0 0 1
    outer loop
      vertex 4 -11.5549 35
      vertex 4 -16.4226 35
      vertex 4 -17.4489 35
    endloop
  endfacet
  facet normal -0 0 1
    outer loop
      vertex 3.78546 -11.6504 35
      vertex 4 -16.4226 35
      vertex 4 -11.5549 35
    endloop
  endfacet
  facet normal -0 0 1
    outer loop
      vertex 3.4276 -11.7265 35
      vertex 4 -16.4226 35
      vertex 3.78546 -11.6504 35
    endloop
  endfacet
  facet normal 0 0 1
    outer loop
      vertex 3.4276 -11.7265 35
      vertex 2.68609 -16.4226 35
      vertex 4 -16.4226 35
    endloop
  endfacet
  facet normal -0 0 1
    outer loop
      vertex 1.28047 -12.1829 35
      vertex 2.68609 -16.4226 35
      vertex 3.4276 -11.7265 35
    endloop
  endfacet
  facet normal 0 0 1
    outer loop
      vertex 0 -16.4226 35
      vertex 1.28047 -12.1829 35
      vertex 0 -12.1829 35
    endloop
  endfacet
  facet normal 0 0 1
    outer loop
      vertex 1.28047 -12.1829 35
      vertex 0 -16.4226 35
      vertex 2.68609 -16.4226 35
    endloop
  endfacet
  facet normal -0 0 1
    outer loop
      vertex 4 -19.2357 35
      vertex 4 -23.4138 35
      vertex 4 -17.4489 35
    endloop
  endfacet
  facet normal 0 0 1
    outer loop
      vertex 4 -23.4138 35
      vertex 4 -19.2357 35
      vertex 4 -21.198 35
    endloop
  endfacet
  facet normal 0 -1 0
    outer loop
      vertex 0 -26.5 0
      vertex 4 -26.5 1.73352
      vertex 0 -26.5 1.73352
    endloop
  endfacet
  facet normal 0 -1 -0
    outer loop
      vertex 4 -26.5 1.73352
      vertex 0 -26.5 0
      vertex 4 -26.5 0
    endloop
  endfacet
  facet normal -0.993831 -0.104456 -0.0372687
    outer loop
      vertex 11.2487 2.39098 0
      vertex 11.5 0 0
      vertex 10 0 40
    endloop
  endfacet
  facet normal -0.207767 0.977468 -0.0372686
    outer loop
      vertex 3.09017 -9.51056 40
      vertex 3.55369 -10.9371 0
      vertex 1.20208 -11.437 0
    endloop
  endfacet
  facet normal -0.742628 0.668666 -0.0372687
    outer loop
      vertex 8.09017 -5.87785 40
      vertex 7.695 -8.54617 0
      vertex 6.69131 -7.43145 40
    endloop
  endfacet
  facet normal -0.865424 -0.499652 -0.0372687
    outer loop
      vertex 9.13545 4.06737 40
      vertex 8.5 5.6742 33.2136
      vertex 10.5058 4.67747 0
    endloop
  endfacet
  facet normal -0.865424 -0.499652 -0.0372687
    outer loop
      vertex 8.5 5.6742 33.2136
      vertex 9.13545 4.06737 40
      vertex 8.5 5.16801 40
    endloop
  endfacet
  facet normal -0.950396 -0.308802 -0.0372687
    outer loop
      vertex 11.2487 2.39098 0
      vertex 9.78148 2.07912 40
      vertex 9.13545 4.06737 40
    endloop
  endfacet
  facet normal -0.865424 0.499652 -0.0372687
    outer loop
      vertex 9.13545 -4.06737 40
      vertex 10.5058 -4.67747 0
      vertex 8.09017 -5.87785 40
    endloop
  endfacet
  facet normal -0.950396 -0.308802 -0.0372687
    outer loop
      vertex 10.5058 4.67747 0
      vertex 11.2487 2.39098 0
      vertex 9.13545 4.06737 40
    endloop
  endfacet
  facet normal -0.993831 -0.104456 -0.0372687
    outer loop
      vertex 11.2487 2.39098 0
      vertex 10 0 40
      vertex 9.78148 2.07912 40
    endloop
  endfacet
  facet normal 0.950396 0.308802 -0.0372687
    outer loop
      vertex -9.13545 -4.06737 40
      vertex -10.5058 -4.67747 0
      vertex -11.2487 -2.39098 0
    endloop
  endfacet
  facet normal 0.865424 -0.499652 -0.0372687
    outer loop
      vertex -9.13545 4.06737 40
      vertex -8.5 5.6742 33.2136
      vertex -8.5 5.16801 40
    endloop
  endfacet
  facet normal 0.865424 -0.499652 -0.0372687
    outer loop
      vertex -8.5 5.6742 33.2136
      vertex -9.13545 4.06737 40
      vertex -10.5058 4.67747 0
    endloop
  endfacet
  facet normal 0.587377 0.808455 -0.0372687
    outer loop
      vertex -5 -8.66025 40
      vertex -5.75 -9.95929 0
      vertex -7.695 -8.54617 0
    endloop
  endfacet
  facet normal 0.587377 0.808455 -0.0372687
    outer loop
      vertex -6.69131 -7.43145 40
      vertex -5 -8.66025 40
      vertex -7.695 -8.54617 0
    endloop
  endfacet
  facet normal 0.207767 0.977468 -0.0372686
    outer loop
      vertex -3.09017 -9.51056 40
      vertex -1.20208 -11.437 0
      vertex -3.55369 -10.9371 0
    endloop
  endfacet
  facet normal -0.993831 0.104456 -0.0372687
    outer loop
      vertex 11.5 0 0
      vertex 11.2487 -2.39098 0
      vertex 10 0 40
    endloop
  endfacet
  facet normal -0.865424 -0.499653 -0.0372686
    outer loop
      vertex 10.5058 4.67747 0
      vertex 8.5 6.17561 26.4912
      vertex 9.30369 6.75953 0
    endloop
  endfacet
  facet normal -0.865424 -0.499653 -0.0372686
    outer loop
      vertex 8.5 6.17561 26.4912
      vertex 10.5058 4.67747 0
      vertex 8.5 5.6742 33.2136
    endloop
  endfacet
  facet normal 0.865424 0.499653 -0.0372686
    outer loop
      vertex -8.09017 -5.87785 40
      vertex -9.30369 -6.75953 0
      vertex -10.5058 -4.67747 0
    endloop
  endfacet
  facet normal 0.993831 -0.104456 -0.0372687
    outer loop
      vertex -11.2487 2.39098 0
      vertex -10 0 40
      vertex -11.5 0 0
    endloop
  endfacet
  facet normal 0.950396 -0.308802 -0.0372687
    outer loop
      vertex -9.13545 4.06737 40
      vertex -9.78148 2.07912 40
      vertex -11.2487 2.39098 0
    endloop
  endfacet
  facet normal 0.207767 0.977468 -0.0372687
    outer loop
      vertex -1.04528 -9.94522 40
      vertex -1.20208 -11.437 0
      vertex -3.09017 -9.51056 40
    endloop
  endfacet
  facet normal 0.406454 0.912911 -0.0372687
    outer loop
      vertex -5 -8.66025 40
      vertex -3.09017 -9.51056 40
      vertex -5.75 -9.95929 0
    endloop
  endfacet
  facet normal 0.406454 0.912911 -0.0372686
    outer loop
      vertex -3.09017 -9.51056 40
      vertex -3.55369 -10.9371 0
      vertex -5.75 -9.95929 0
    endloop
  endfacet
  facet normal -0.406454 0.912911 -0.0372686
    outer loop
      vertex 5.75 -9.95929 0
      vertex 3.55369 -10.9371 0
      vertex 3.09017 -9.51056 40
    endloop
  endfacet
  facet normal 0 0.999305 -0.0372687
    outer loop
      vertex 1.20208 -11.437 0
      vertex -1.04528 -9.94522 40
      vertex 1.04528 -9.94522 40
    endloop
  endfacet
  facet normal 0 0.999305 -0.0372687
    outer loop
      vertex -1.04528 -9.94522 40
      vertex 1.20208 -11.437 0
      vertex -1.20208 -11.437 0
    endloop
  endfacet
  facet normal -0.406454 0.912911 -0.0372687
    outer loop
      vertex 5 -8.66025 40
      vertex 5.75 -9.95929 0
      vertex 3.09017 -9.51056 40
    endloop
  endfacet
  facet normal -0.587377 0.808455 -0.0372687
    outer loop
      vertex 7.695 -8.54617 0
      vertex 5.75 -9.95929 0
      vertex 5 -8.66025 40
    endloop
  endfacet
  facet normal -0.865424 0.499653 -0.0372686
    outer loop
      vertex 10.5058 -4.67747 0
      vertex 9.30369 -6.75953 0
      vertex 8.09017 -5.87785 40
    endloop
  endfacet
  facet normal -0.742629 0.668666 -0.0372686
    outer loop
      vertex 8.09017 -5.87785 40
      vertex 9.30369 -6.75953 0
      vertex 7.695 -8.54617 0
    endloop
  endfacet
  facet normal -0.950396 0.308802 -0.0372687
    outer loop
      vertex 11.2487 -2.39098 0
      vertex 10.5058 -4.67747 0
      vertex 9.13545 -4.06737 40
    endloop
  endfacet
  facet normal -0.742629 -0.668666 -0.0372686
    outer loop
      vertex 8.5 7.65212 0
      vertex 9.30369 6.75953 0
      vertex 8.5 6.17561 26.4912
    endloop
  endfacet
  facet normal 0.950396 0.308802 -0.0372687
    outer loop
      vertex -9.78148 -2.07912 40
      vertex -9.13545 -4.06737 40
      vertex -11.2487 -2.39098 0
    endloop
  endfacet
  facet normal 0.993831 0.104456 -0.0372687
    outer loop
      vertex -10 0 40
      vertex -9.78148 -2.07912 40
      vertex -11.2487 -2.39098 0
    endloop
  endfacet
  facet normal 0.993831 0.104456 -0.0372687
    outer loop
      vertex -10 0 40
      vertex -11.2487 -2.39098 0
      vertex -11.5 0 0
    endloop
  endfacet
  facet normal 0.950396 -0.308802 -0.0372687
    outer loop
      vertex -10.5058 4.67747 0
      vertex -9.13545 4.06737 40
      vertex -11.2487 2.39098 0
    endloop
  endfacet
  facet normal 0.865424 -0.499653 -0.0372686
    outer loop
      vertex -10.5058 4.67747 0
      vertex -8.5 6.17561 26.4912
      vertex -8.5 5.6742 33.2136
    endloop
  endfacet
  facet normal 0.865424 -0.499653 -0.0372686
    outer loop
      vertex -8.5 6.17561 26.4912
      vertex -10.5058 4.67747 0
      vertex -9.30369 6.75953 0
    endloop
  endfacet
  facet normal 0.742629 -0.668666 -0.0372686
    outer loop
      vertex -8.5 7.65212 0
      vertex -8.5 6.17561 26.4912
      vertex -9.30369 6.75953 0
    endloop
  endfacet
  facet normal -0.207767 0.977468 -0.0372687
    outer loop
      vertex 3.09017 -9.51056 40
      vertex 1.20208 -11.437 0
      vertex 1.04528 -9.94522 40
    endloop
  endfacet
  facet normal -0.587377 0.808455 -0.0372687
    outer loop
      vertex 6.69131 -7.43145 40
      vertex 7.695 -8.54617 0
      vertex 5 -8.66025 40
    endloop
  endfacet
  facet normal -0.950396 0.308802 -0.0372687
    outer loop
      vertex 9.78148 -2.07912 40
      vertex 11.2487 -2.39098 0
      vertex 9.13545 -4.06737 40
    endloop
  endfacet
  facet normal -0.993831 0.104456 -0.0372687
    outer loop
      vertex 10 0 40
      vertex 11.2487 -2.39098 0
      vertex 9.78148 -2.07912 40
    endloop
  endfacet
  facet normal 0.742629 0.668666 -0.0372686
    outer loop
      vertex -8.09017 -5.87785 40
      vertex -7.695 -8.54617 0
      vertex -9.30369 -6.75953 0
    endloop
  endfacet
  facet normal 0.742628 0.668666 -0.0372687
    outer loop
      vertex -6.69131 -7.43145 40
      vertex -7.695 -8.54617 0
      vertex -8.09017 -5.87785 40
    endloop
  endfacet
  facet normal 0.993831 -0.104456 -0.0372687
    outer loop
      vertex -9.78148 2.07912 40
      vertex -10 0 40
      vertex -11.2487 2.39098 0
    endloop
  endfacet
  facet normal 0.865424 0.499652 -0.0372687
    outer loop
      vertex -9.13545 -4.06737 40
      vertex -8.09017 -5.87785 40
      vertex -10.5058 -4.67747 0
    endloop
  endfacet
  facet normal 1 0 0
    outer loop
      vertex -8.5 6.17561 26.4912
      vertex -8.5 10.401 10.3073
      vertex -8.5 9.44021 25.939
    endloop
  endfacet
  facet normal 1 -0 0
    outer loop
      vertex -8.5 5.6742 33.2136
      vertex -8.5 9.44021 25.939
      vertex -8.5 8.39527 40
    endloop
  endfacet
  facet normal 1 0 0
    outer loop
      vertex -8.5 10.401 10.3073
      vertex -8.5 6.17561 26.4912
      vertex -8.5 7.65212 0
    endloop
  endfacet
  facet normal 1 0 0
    outer loop
      vertex -8.5 10.401 10.3073
      vertex -8.5 7.65212 0
      vertex -8.5 11.0345 0
    endloop
  endfacet
  facet normal 1 0 0
    outer loop
      vertex -8.5 9.44021 25.939
      vertex -8.5 5.6742 33.2136
      vertex -8.5 6.17561 26.4912
    endloop
  endfacet
  facet normal 1 0 -0
    outer loop
      vertex -8.5 5.6742 33.2136
      vertex -8.5 8.39527 40
      vertex -8.5 5.16801 40
    endloop
  endfacet
  facet normal -1 0 0
    outer loop
      vertex 8.5 7.65212 0
      vertex 8.5 10.401 10.3073
      vertex 8.5 11.0345 0
    endloop
  endfacet
  facet normal -1 0 0
    outer loop
      vertex 8.5 6.17561 26.4912
      vertex 8.5 10.401 10.3073
      vertex 8.5 7.65212 0
    endloop
  endfacet
  facet normal -1 0 0
    outer loop
      vertex 8.5 10.401 10.3073
      vertex 8.5 6.17561 26.4912
      vertex 8.5 9.44021 25.939
    endloop
  endfacet
  facet normal -1 0 0
    outer loop
      vertex 8.5 5.6742 33.2136
      vertex 8.5 9.44021 25.939
      vertex 8.5 6.17561 26.4912
    endloop
  endfacet
  facet normal -1 0 0
    outer loop
      vertex 8.5 9.44021 25.939
      vertex 8.5 5.6742 33.2136
      vertex 8.5 8.39527 40
    endloop
  endfacet
  facet normal -1 -0 0
    outer loop
      vertex 8.5 8.39527 40
      vertex 8.5 5.6742 33.2136
      vertex 8.5 5.16801 40
    endloop
  endfacet
  facet normal 0 -0.5 0.866025
    outer loop
      vertex 0 -25.5954 9.55573
      vertex 4 -28.4922 7.88327
      vertex 4 -25.5954 9.55573
    endloop
  endfacet
  facet normal 0 -0.5 0.866025
    outer loop
      vertex 4 -28.4922 7.88327
      vertex 0 -25.5954 9.55573
      vertex 0 -28.4922 7.88327
    endloop
  endfacet
  facet normal 0 -1 0
    outer loop
      vertex 0 -19.0877 20.8275
      vertex 4 -19.0877 24.1725
      vertex 0 -19.0877 24.1725
    endloop
  endfacet
  facet normal 0 -1 -0
    outer loop
      vertex 4 -19.0877 24.1725
      vertex 0 -19.0877 20.8275
      vertex 4 -19.0877 20.8275
    endloop
  endfacet
  facet normal 0 -0.309017 -0.951056
    outer loop
      vertex 0 -31.6734 38.1504
      vertex 4 -28.4922 37.1167
      vertex 4 -31.6734 38.1504
    endloop
  endfacet
  facet normal -0 -0.309017 -0.951056
    outer loop
      vertex 4 -28.4922 37.1167
      vertex 0 -31.6734 38.1504
      vertex 0 -28.4922 37.1167
    endloop
  endfacet
  facet normal -0 0.104528 0.994522
    outer loop
      vertex 0 -35 6.5
      vertex 4 -38.3266 6.84964
      vertex 4 -35 6.5
    endloop
  endfacet
  facet normal 0 0.104528 0.994522
    outer loop
      vertex 4 -38.3266 6.84964
      vertex 0 -35 6.5
      vertex 0 -38.3266 6.84964
    endloop
  endfacet
  facet normal 2.10363e-07 -0.809017 0.587786
    outer loop
      vertex 0 -23.1097 11.7939
      vertex 4 -22.782 12.2449
      vertex 0 -21.4713 14.049
    endloop
  endfacet
  facet normal 0 -0.809016 0.587787
    outer loop
      vertex 4 -22.782 12.2449
      vertex 0 -23.1097 11.7939
      vertex 4 -23.1097 11.7939
    endloop
  endfacet
  facet normal 0 -0.913546 0.406736
    outer loop
      vertex 0 -19.7831 17.5557
      vertex 4 -20.0098 17.0464
      vertex 4 -19.7831 17.5557
    endloop
  endfacet
  facet normal 3.87894e-08 -0.913546 0.406736
    outer loop
      vertex 4 -20.0098 17.0464
      vertex 0 -19.7831 17.5557
      vertex 0 -20.9168 15.0093
    endloop
  endfacet
  facet normal 0 -0.913545 -0.406737
    outer loop
      vertex 0 -21.1436 30.5
      vertex 4 -20.9168 29.9907
      vertex 4 -21.1436 30.5
    endloop
  endfacet
  facet normal 1.16368e-07 -0.913546 -0.406736
    outer loop
      vertex 4 -20.9168 29.9907
      vertex 0 -21.1436 30.5
      vertex 0 -20.0098 27.9536
    endloop
  endfacet
  facet normal -0 -0.5 -0.866026
    outer loop
      vertex 4 -28.4922 37.1167
      vertex 0 -28.4922 37.1167
      vertex 4 -27.2627 36.4069
    endloop
  endfacet
  facet normal 6.58802e-08 -0.5 -0.866026
    outer loop
      vertex 0 -25.5954 35.4443
      vertex 4 -27.2627 36.4069
      vertex 0 -28.4922 37.1167
    endloop
  endfacet
  facet normal 0 -0.5 -0.866025
    outer loop
      vertex 4 -27.2627 36.4069
      vertex 0 -25.5954 35.4443
      vertex 4 -25.5954 35.4443
    endloop
  endfacet
  facet normal 0 -0.309017 0.951056
    outer loop
      vertex 0 -28.4922 7.88327
      vertex 4 -31.6734 6.84964
      vertex 4 -28.4922 7.88327
    endloop
  endfacet
  facet normal 0 -0.309017 0.951056
    outer loop
      vertex 4 -31.6734 6.84964
      vertex 0 -28.4922 7.88327
      vertex 0 -31.6734 6.84964
    endloop
  endfacet
  facet normal 0 -0.978148 0.207912
    outer loop
      vertex 0 -19.7831 17.5557
      vertex 4 -19.0877 20.8275
      vertex 0 -19.0877 20.8275
    endloop
  endfacet
  facet normal 0 -0.978148 0.207912
    outer loop
      vertex 4 -19.0877 20.8275
      vertex 0 -19.7831 17.5557
      vertex 4 -19.7831 17.5557
    endloop
  endfacet
  facet normal 0 -0.104529 -0.994522
    outer loop
      vertex 0 -35 38.5
      vertex 4 -31.6734 38.1504
      vertex 4 -35 38.5
    endloop
  endfacet
  facet normal -0 -0.104529 -0.994522
    outer loop
      vertex 4 -31.6734 38.1504
      vertex 0 -35 38.5
      vertex 0 -31.6734 38.1504
    endloop
  endfacet
  facet normal -0 -0.66913 -0.743145
    outer loop
      vertex 4 -25.5954 35.4443
      vertex 0 -25.5954 35.4443
      vertex 4 -25.102 35
    endloop
  endfacet
  facet normal 1.16621e-07 -0.66913 -0.743145
    outer loop
      vertex 0 -23.1097 33.2061
      vertex 4 -25.102 35
      vertex 0 -25.5954 35.4443
    endloop
  endfacet
  facet normal 0 -0.669131 -0.743145
    outer loop
      vertex 4 -25.102 35
      vertex 0 -23.1097 33.2061
      vertex 4 -23.1097 33.2061
    endloop
  endfacet
  facet normal -1.3859e-08 -0.809017 -0.587785
    outer loop
      vertex 0 -21.1436 30.5
      vertex 4 -21.4713 30.951
      vertex 0 -22.782 32.7551
    endloop
  endfacet
  facet normal 0 -0.809017 -0.587785
    outer loop
      vertex 4 -21.4713 30.951
      vertex 0 -21.1436 30.5
      vertex 4 -21.1436 30.5
    endloop
  endfacet
  facet normal 0 -0.809017 -0.587786
    outer loop
      vertex 0 -22.782 32.7551
      vertex 4 -23.1097 33.2061
      vertex 0 -23.1097 33.2061
    endloop
  endfacet
  facet normal -9.82522e-08 -0.809017 -0.587785
    outer loop
      vertex 4 -23.1097 33.2061
      vertex 0 -22.782 32.7551
      vertex 4 -21.4713 30.951
    endloop
  endfacet
  facet normal 0 -0.104528 0.994522
    outer loop
      vertex 0 -31.6734 6.84964
      vertex 4 -35 6.5
      vertex 4 -31.6734 6.84964
    endloop
  endfacet
  facet normal 0 -0.104528 0.994522
    outer loop
      vertex 4 -35 6.5
      vertex 0 -31.6734 6.84964
      vertex 0 -35 6.5
    endloop
  endfacet
  facet normal -1.40139e-07 0.809016 0.587787
    outer loop
      vertex 4 -48.8564 14.5
      vertex 0 -48.5287 14.049
      vertex 0 -48.8564 14.5
    endloop
  endfacet
  facet normal 9.82522e-08 0.809017 0.587785
    outer loop
      vertex 0 -48.5287 14.049
      vertex 4 -48.8564 14.5
      vertex 4 -47.218 12.2449
    endloop
  endfacet
  facet normal -0 0.309017 0.951056
    outer loop
      vertex 0 -38.3266 6.84964
      vertex 4 -41.5078 7.88327
      vertex 4 -38.3266 6.84964
    endloop
  endfacet
  facet normal 0 0.309017 0.951056
    outer loop
      vertex 4 -41.5078 7.88327
      vertex 0 -38.3266 6.84964
      vertex 0 -41.5078 7.88327
    endloop
  endfacet
  facet normal 0 0.978148 0.207909
    outer loop
      vertex 4 -50.7679 20.1481
      vertex 0 -50.9123 20.8275
      vertex 4 -50.9123 20.8275
    endloop
  endfacet
  facet normal -0 0.978147 0.207912
    outer loop
      vertex 0 -50.2169 17.5557
      vertex 4 -50.7679 20.1481
      vertex 4 -50.2169 17.5557
    endloop
  endfacet
  facet normal 4.19085e-07 0.978148 0.207912
    outer loop
      vertex 4 -50.7679 20.1481
      vertex 0 -50.2169 17.5557
      vertex 0 -50.9123 20.8275
    endloop
  endfacet
  facet normal -0 0.669131 0.743145
    outer loop
      vertex 0 -44.4046 9.55573
      vertex 4 -46.8903 11.7939
      vertex 4 -44.4046 9.55573
    endloop
  endfacet
  facet normal 0 0.669131 0.743145
    outer loop
      vertex 4 -46.8903 11.7939
      vertex 0 -44.4046 9.55573
      vertex 0 -46.8903 11.7939
    endloop
  endfacet
  facet normal -1.40139e-07 -0.809018 0.587784
    outer loop
      vertex 0 -21.4713 14.049
      vertex 4 -21.1436 14.5
      vertex 0 -21.1436 14.5
    endloop
  endfacet
  facet normal -2.10363e-07 -0.809017 0.587785
    outer loop
      vertex 4 -21.1436 14.5
      vertex 0 -21.4713 14.049
      vertex 4 -22.782 12.2449
    endloop
  endfacet
  facet normal -1.16368e-07 -0.913546 0.406736
    outer loop
      vertex 0 -20.9168 15.0093
      vertex 4 -21.1436 14.5
      vertex 4 -20.0098 17.0464
    endloop
  endfacet
  facet normal -9.69735e-08 -0.913546 0.406736
    outer loop
      vertex 4 -21.1436 14.5
      vertex 0 -20.9168 15.0093
      vertex 0 -21.1436 14.5
    endloop
  endfacet
  facet normal -0 -0.913546 -0.406736
    outer loop
      vertex 4 -19.7831 27.4443
      vertex 0 -20.0098 27.9536
      vertex 0 -19.7831 27.4443
    endloop
  endfacet
  facet normal -3.87894e-08 -0.913546 -0.406736
    outer loop
      vertex 0 -20.0098 27.9536
      vertex 4 -19.7831 27.4443
      vertex 4 -20.9168 29.9907
    endloop
  endfacet
  facet normal 0 0.669131 -0.743145
    outer loop
      vertex 0 -46.8903 33.2061
      vertex 4 -44.4046 35.4443
      vertex 4 -46.8903 33.2061
    endloop
  endfacet
  facet normal 0 0.669131 -0.743145
    outer loop
      vertex 4 -44.4046 35.4443
      vertex 0 -46.8903 33.2061
      vertex 0 -44.4046 35.4443
    endloop
  endfacet
  facet normal 0 0.104529 -0.994522
    outer loop
      vertex 0 -38.3266 38.1504
      vertex 4 -35 38.5
      vertex 4 -38.3266 38.1504
    endloop
  endfacet
  facet normal 0 0.104529 -0.994522
    outer loop
      vertex 4 -35 38.5
      vertex 0 -38.3266 38.1504
      vertex 0 -35 38.5
    endloop
  endfacet
  facet normal 0 0.5 -0.866026
    outer loop
      vertex 0 -44.4046 35.4443
      vertex 4 -42.7373 36.4069
      vertex 4 -44.4046 35.4443
    endloop
  endfacet
  facet normal -1.72538e-07 0.5 -0.866026
    outer loop
      vertex 0 -41.5078 37.1167
      vertex 4 -42.7373 36.4069
      vertex 0 -44.4046 35.4443
    endloop
  endfacet
  facet normal 0 0.5 -0.866025
    outer loop
      vertex 4 -42.7373 36.4069
      vertex 0 -41.5078 37.1167
      vertex 4 -41.5078 37.1167
    endloop
  endfacet
  facet normal -1.16368e-07 0.913546 0.406736
    outer loop
      vertex 4 -48.8564 14.5
      vertex 0 -49.0832 15.0093
      vertex 4 -49.9902 17.0464
    endloop
  endfacet
  facet normal -9.69735e-08 0.913546 0.406736
    outer loop
      vertex 0 -49.0832 15.0093
      vertex 4 -48.8564 14.5
      vertex 0 -48.8564 14.5
    endloop
  endfacet
  facet normal -0 0.809016 0.587787
    outer loop
      vertex 0 -46.8903 11.7939
      vertex 4 -47.218 12.2449
      vertex 4 -46.8903 11.7939
    endloop
  endfacet
  facet normal 2.10363e-07 0.809017 0.587786
    outer loop
      vertex 4 -47.218 12.2449
      vertex 0 -46.8903 11.7939
      vertex 0 -48.5287 14.049
    endloop
  endfacet
  facet normal 0 -0.66913 0.743145
    outer loop
      vertex 0 -23.1097 11.7939
      vertex 4 -25.5954 9.55573
      vertex 4 -23.1097 11.7939
    endloop
  endfacet
  facet normal 0 -0.66913 0.743145
    outer loop
      vertex 4 -25.5954 9.55573
      vertex 0 -23.1097 11.7939
      vertex 0 -25.5954 9.55573
    endloop
  endfacet
  facet normal 0 -0.978148 -0.207912
    outer loop
      vertex 0 -19.0877 24.1725
      vertex 4 -19.7831 27.4443
      vertex 0 -19.7831 27.4443
    endloop
  endfacet
  facet normal 0 -0.978148 -0.207912
    outer loop
      vertex 4 -19.7831 27.4443
      vertex 0 -19.0877 24.1725
      vertex 4 -19.0877 24.1725
    endloop
  endfacet
  facet normal -0 0.5 0.866025
    outer loop
      vertex 0 -41.5078 7.88327
      vertex 4 -44.4046 9.55573
      vertex 4 -41.5078 7.88327
    endloop
  endfacet
  facet normal 0 0.5 0.866025
    outer loop
      vertex 4 -44.4046 9.55573
      vertex 0 -41.5078 7.88327
      vertex 0 -44.4046 9.55573
    endloop
  endfacet
  facet normal 0 1 0
    outer loop
      vertex 4 -50.9123 20.8275
      vertex 0 -50.9123 24.1725
      vertex 4 -50.9123 24.1725
    endloop
  endfacet
  facet normal 0 1 0
    outer loop
      vertex 0 -50.9123 24.1725
      vertex 4 -50.9123 20.8275
      vertex 0 -50.9123 20.8275
    endloop
  endfacet
  facet normal 0 0.809017 -0.587786
    outer loop
      vertex 4 -48.8564 30.5
      vertex 0 -46.8903 33.2061
      vertex 4 -46.8903 33.2061
    endloop
  endfacet
  facet normal 0 0.809017 -0.587786
    outer loop
      vertex 0 -46.8903 33.2061
      vertex 4 -48.8564 30.5
      vertex 0 -48.8564 30.5
    endloop
  endfacet
  facet normal 0 0.309017 -0.951056
    outer loop
      vertex 0 -41.5078 37.1167
      vertex 4 -38.3266 38.1504
      vertex 4 -41.5078 37.1167
    endloop
  endfacet
  facet normal 0 0.309017 -0.951056
    outer loop
      vertex 4 -38.3266 38.1504
      vertex 0 -41.5078 37.1167
      vertex 0 -38.3266 38.1504
    endloop
  endfacet
  facet normal 0 0.913546 0.406736
    outer loop
      vertex 4 -49.9902 17.0464
      vertex 0 -50.2169 17.5557
      vertex 4 -50.2169 17.5557
    endloop
  endfacet
  facet normal 3.87894e-08 0.913546 0.406736
    outer loop
      vertex 0 -50.2169 17.5557
      vertex 4 -49.9902 17.0464
      vertex 0 -49.0832 15.0093
    endloop
  endfacet
  facet normal 0 0.913545 -0.406737
    outer loop
      vertex 4 -49.6395 28.7412
      vertex 0 -48.8564 30.5
      vertex 4 -48.8564 30.5
    endloop
  endfacet
  facet normal 0 0.913546 -0.406735
    outer loop
      vertex 0 -50.2169 27.4443
      vertex 4 -49.6395 28.7412
      vertex 4 -50.2169 27.4443
    endloop
  endfacet
  facet normal 2.96452e-07 0.913546 -0.406736
    outer loop
      vertex 4 -49.6395 28.7412
      vertex 0 -50.2169 27.4443
      vertex 0 -48.8564 30.5
    endloop
  endfacet
  facet normal 0 0.978148 -0.207912
    outer loop
      vertex 4 -50.9123 24.1725
      vertex 0 -50.2169 27.4443
      vertex 4 -50.2169 27.4443
    endloop
  endfacet
  facet normal 0 0.978148 -0.207912
    outer loop
      vertex 0 -50.2169 27.4443
      vertex 4 -50.9123 24.1725
      vertex 0 -50.9123 24.1725
    endloop
  endfacet
endsolid OpenSCAD_Model
