solid OpenSCAD_Model
  facet normal 0.707107 0.707107 0
    outer loop
      vertex 8 0 -5
      vertex 5 3 -15
      vertex 5 3 -5
    endloop
  endfacet
  facet normal 0.707107 0.707107 0
    outer loop
      vertex 5 3 -15
      vertex 8 0 -5
      vertex 8 0 -15
    endloop
  endfacet
  facet normal -0.707107 0.707107 0
    outer loop
      vertex 2 0 -15
      vertex 5 3 -5
      vertex 5 3 -15
    endloop
  endfacet
  facet normal -0.707107 0.707107 0
    outer loop
      vertex 5 3 -5
      vertex 2 0 -15
      vertex 2 0 -5
    endloop
  endfacet
  facet normal 0 0 1
    outer loop
      vertex 5 3 -5
      vertex 5 -3 -5
      vertex 8 0 -5
    endloop
  endfacet
  facet normal 0 -0 1
    outer loop
      vertex 5 -3 -5
      vertex 5 3 -5
      vertex 2 0 -5
    endloop
  endfacet
  facet normal -0.707107 -0.707107 0
    outer loop
      vertex 5 -3 -15
      vertex 2 0 -5
      vertex 2 0 -15
    endloop
  endfacet
  facet normal -0.707107 -0.707107 0
    outer loop
      vertex 2 0 -5
      vertex 5 -3 -15
      vertex 5 -3 -5
    endloop
  endfacet
  facet normal 0.707107 -0.707107 0
    outer loop
      vertex 5 -3 -5
      vertex 8 0 -15
      vertex 8 0 -5
    endloop
  endfacet
  facet normal 0.707107 -0.707107 0
    outer loop
      vertex 8 0 -15
      vertex 5 -3 -5
      vertex 5 -3 -15
    endloop
  endfacet
  facet normal 0.951056 0.309017 0
    outer loop
      vertex 10.6243 1.19549 -15
      vertex 10.2529 2.33874 -30
      vertex 10.2529 2.33874 -15
    endloop
  endfacet
  facet normal 0.951056 0.309017 0
    outer loop
      vertex 10.2529 2.33874 -30
      vertex 10.6243 1.19549 -15
      vertex 10.6243 1.19549 -30
    endloop
  endfacet
  facet normal -0.866025 0.5 0
    outer loop
      vertex -0.252886 2.33874 -30
      vertex 0.348153 3.37976 -15
      vertex 0.348153 3.37976 -30
    endloop
  endfacet
  facet normal -0.866025 0.5 0
    outer loop
      vertex 0.348153 3.37976 -15
      vertex -0.252886 2.33874 -30
      vertex -0.252886 2.33874 -15
    endloop
  endfacet
  facet normal -0.951056 0.309017 0
    outer loop
      vertex -0.624349 1.19549 -30
      vertex -0.252886 2.33874 -15
      vertex -0.252886 2.33874 -30
    endloop
  endfacet
  facet normal -0.951056 0.309017 0
    outer loop
      vertex -0.252886 2.33874 -15
      vertex -0.624349 1.19549 -30
      vertex -0.624349 1.19549 -15
    endloop
  endfacet
  facet normal -0.406736 0.913546 0
    outer loop
      vertex 3.22315 5.46857 -30
      vertex 2.125 4.97965 -15
      vertex 3.22315 5.46857 -15
    endloop
  endfacet
  facet normal -0.406736 0.913546 0
    outer loop
      vertex 2.125 4.97965 -15
      vertex 3.22315 5.46857 -30
      vertex 2.125 4.97965 -30
    endloop
  endfacet
  facet normal 0.207911 0.978148 -0
    outer loop
      vertex 6.77685 5.46857 -30
      vertex 5.60104 5.7185 -15
      vertex 6.77685 5.46857 -15
    endloop
  endfacet
  facet normal 0.207911 0.978148 0
    outer loop
      vertex 5.60104 5.7185 -15
      vertex 6.77685 5.46857 -30
      vertex 5.60104 5.7185 -30
    endloop
  endfacet
  facet normal 0.866025 0.5 0
    outer loop
      vertex 10.2529 2.33874 -15
      vertex 9.65185 3.37976 -30
      vertex 9.65185 3.37976 -15
    endloop
  endfacet
  facet normal 0.866025 0.5 0
    outer loop
      vertex 9.65185 3.37976 -30
      vertex 10.2529 2.33874 -15
      vertex 10.2529 2.33874 -30
    endloop
  endfacet
  facet normal -0.994522 -0.104529 0
    outer loop
      vertex -0.624349 -1.19549 -30
      vertex -0.75 0 -15
      vertex -0.75 0 -30
    endloop
  endfacet
  facet normal -0.994522 -0.104529 0
    outer loop
      vertex -0.75 0 -15
      vertex -0.624349 -1.19549 -30
      vertex -0.624349 -1.19549 -15
    endloop
  endfacet
  facet normal -0.743145 0.66913 0
    outer loop
      vertex 0.348153 3.37976 -30
      vertex 1.1525 4.27308 -15
      vertex 1.1525 4.27308 -30
    endloop
  endfacet
  facet normal -0.743145 0.66913 0
    outer loop
      vertex 1.1525 4.27308 -15
      vertex 0.348153 3.37976 -30
      vertex 0.348153 3.37976 -15
    endloop
  endfacet
  facet normal 0 1 -0
    outer loop
      vertex 5.60104 5.7185 -30
      vertex 4.39896 5.7185 -15
      vertex 5.60104 5.7185 -15
    endloop
  endfacet
  facet normal 0 1 0
    outer loop
      vertex 4.39896 5.7185 -15
      vertex 5.60104 5.7185 -30
      vertex 4.39896 5.7185 -30
    endloop
  endfacet
  facet normal -0.587785 0.809017 0
    outer loop
      vertex 2.125 4.97965 -30
      vertex 1.1525 4.27308 -15
      vertex 2.125 4.97965 -15
    endloop
  endfacet
  facet normal -0.587785 0.809017 0
    outer loop
      vertex 1.1525 4.27308 -15
      vertex 2.125 4.97965 -30
      vertex 1.1525 4.27308 -30
    endloop
  endfacet
  facet normal 0.994522 0.104529 0
    outer loop
      vertex 10.75 0 -15
      vertex 10.6243 1.19549 -30
      vertex 10.6243 1.19549 -15
    endloop
  endfacet
  facet normal 0.994522 0.104529 0
    outer loop
      vertex 10.6243 1.19549 -30
      vertex 10.75 0 -15
      vertex 10.75 0 -30
    endloop
  endfacet
  facet normal 0.743145 0.66913 0
    outer loop
      vertex 9.65185 3.37976 -15
      vertex 8.8475 4.27308 -30
      vertex 8.8475 4.27308 -15
    endloop
  endfacet
  facet normal 0.743145 0.66913 0
    outer loop
      vertex 8.8475 4.27308 -30
      vertex 9.65185 3.37976 -15
      vertex 9.65185 3.37976 -30
    endloop
  endfacet
  facet normal 0.406737 0.913545 -0
    outer loop
      vertex 7.875 4.97965 -30
      vertex 6.77685 5.46857 -15
      vertex 7.875 4.97965 -15
    endloop
  endfacet
  facet normal 0.406737 0.913545 0
    outer loop
      vertex 6.77685 5.46857 -15
      vertex 7.875 4.97965 -30
      vertex 6.77685 5.46857 -30
    endloop
  endfacet
  facet normal 0.587785 0.809017 -0
    outer loop
      vertex 8.8475 4.27308 -30
      vertex 7.875 4.97965 -15
      vertex 8.8475 4.27308 -15
    endloop
  endfacet
  facet normal 0.587785 0.809017 0
    outer loop
      vertex 7.875 4.97965 -15
      vertex 8.8475 4.27308 -30
      vertex 7.875 4.97965 -30
    endloop
  endfacet
  facet normal -0.994522 0.104529 0
    outer loop
      vertex -0.75 0 -30
      vertex -0.624349 1.19549 -15
      vertex -0.624349 1.19549 -30
    endloop
  endfacet
  facet normal -0.994522 0.104529 0
    outer loop
      vertex -0.624349 1.19549 -15
      vertex -0.75 0 -30
      vertex -0.75 0 -15
    endloop
  endfacet
  facet normal -0.951056 -0.309017 0
    outer loop
      vertex -0.252886 -2.33874 -30
      vertex -0.624349 -1.19549 -15
      vertex -0.624349 -1.19549 -30
    endloop
  endfacet
  facet normal -0.951056 -0.309017 0
    outer loop
      vertex -0.624349 -1.19549 -15
      vertex -0.252886 -2.33874 -30
      vertex -0.252886 -2.33874 -15
    endloop
  endfacet
  facet normal 0.587785 -0.809017 0
    outer loop
      vertex 7.875 -4.97965 -30
      vertex 8.8475 -4.27308 -15
      vertex 7.875 -4.97965 -15
    endloop
  endfacet
  facet normal 0.587785 -0.809017 0
    outer loop
      vertex 8.8475 -4.27308 -15
      vertex 7.875 -4.97965 -30
      vertex 8.8475 -4.27308 -30
    endloop
  endfacet
  facet normal 0.866025 -0.5 0
    outer loop
      vertex 9.65185 -3.37976 -15
      vertex 10.2529 -2.33874 -30
      vertex 10.2529 -2.33874 -15
    endloop
  endfacet
  facet normal 0.866025 -0.5 0
    outer loop
      vertex 10.2529 -2.33874 -30
      vertex 9.65185 -3.37976 -15
      vertex 9.65185 -3.37976 -30
    endloop
  endfacet
  facet normal -0.587785 -0.809017 0
    outer loop
      vertex 1.1525 -4.27308 -30
      vertex 2.125 -4.97965 -15
      vertex 1.1525 -4.27308 -15
    endloop
  endfacet
  facet normal -0.587785 -0.809017 -0
    outer loop
      vertex 2.125 -4.97965 -15
      vertex 1.1525 -4.27308 -30
      vertex 2.125 -4.97965 -30
    endloop
  endfacet
  facet normal -0.207911 0.978148 0
    outer loop
      vertex 4.39896 5.7185 -30
      vertex 3.22315 5.46857 -15
      vertex 4.39896 5.7185 -15
    endloop
  endfacet
  facet normal -0.207911 0.978148 0
    outer loop
      vertex 3.22315 5.46857 -15
      vertex 4.39896 5.7185 -30
      vertex 3.22315 5.46857 -30
    endloop
  endfacet
  facet normal 0 0 -1
    outer loop
      vertex 10.4792 -0.00727638 -30
      vertex 10.75 0 -30
      vertex 10.6243 -1.19549 -30
    endloop
  endfacet
  facet normal 0 0 -1
    outer loop
      vertex 10.4792 0.00727638 -30
      vertex 10.75 0 -30
      vertex 10.48 0 -30
    endloop
  endfacet
  facet normal -0 0 -1
    outer loop
      vertex 10.75 0 -30
      vertex 10.4792 -0.00727638 -30
      vertex 10.48 0 -30
    endloop
  endfacet
  facet normal 0 0 -1
    outer loop
      vertex 10.6243 -1.19549 -30
      vertex 10.3602 -1.13936 -30
      vertex 10.4792 -0.00727638 -30
    endloop
  endfacet
  facet normal 0 0 -1
    outer loop
      vertex 10.0085 -2.22196 -30
      vertex 10.6243 -1.19549 -30
      vertex 10.2529 -2.33874 -30
    endloop
  endfacet
  facet normal -0 0 -1
    outer loop
      vertex 10.6243 -1.19549 -30
      vertex 10.0085 -2.22196 -30
      vertex 10.3602 -1.13936 -30
    endloop
  endfacet
  facet normal 0 0 -1
    outer loop
      vertex 10.2529 -2.33874 -30
      vertex 10.0062 -2.22892 -30
      vertex 10.0085 -2.22196 -30
    endloop
  endfacet
  facet normal 0 0 -1
    outer loop
      vertex 10.2529 -2.33874 -30
      vertex 10.0026 -2.23525 -30
      vertex 10.0062 -2.22892 -30
    endloop
  endfacet
  facet normal 0 0 -1
    outer loop
      vertex 9.65185 -3.37976 -30
      vertex 10.0026 -2.23525 -30
      vertex 10.2529 -2.33874 -30
    endloop
  endfacet
  facet normal 0 0 -1
    outer loop
      vertex 9.65185 -3.37976 -30
      vertex 9.43341 -3.22106 -30
      vertex 10.0026 -2.23525 -30
    endloop
  endfacet
  facet normal 0 0 -1
    outer loop
      vertex 8.67173 -4.067 -30
      vertex 9.65185 -3.37976 -30
      vertex 8.8475 -4.27308 -30
    endloop
  endfacet
  facet normal -0 0 -1
    outer loop
      vertex 9.65185 -3.37976 -30
      vertex 8.67173 -4.067 -30
      vertex 9.43341 -3.22106 -30
    endloop
  endfacet
  facet normal 0 0 -1
    outer loop
      vertex 8.8475 -4.27308 -30
      vertex 8.66684 -4.07243 -30
      vertex 8.67173 -4.067 -30
    endloop
  endfacet
  facet normal 0 0 -1
    outer loop
      vertex 8.8475 -4.27308 -30
      vertex 8.66092 -4.07674 -30
      vertex 8.66684 -4.07243 -30
    endloop
  endfacet
  facet normal 0 0 -1
    outer loop
      vertex 7.875 -4.97965 -30
      vertex 8.66092 -4.07674 -30
      vertex 8.8475 -4.27308 -30
    endloop
  endfacet
  facet normal 0 0 -1
    outer loop
      vertex 7.875 -4.97965 -30
      vertex 7.74 -4.74582 -30
      vertex 8.66092 -4.07674 -30
    endloop
  endfacet
  facet normal 0 0 -1
    outer loop
      vertex 6.7001 -5.20881 -30
      vertex 7.875 -4.97965 -30
      vertex 6.77685 -5.46857 -30
    endloop
  endfacet
  facet normal -0 0 -1
    outer loop
      vertex 7.875 -4.97965 -30
      vertex 6.7001 -5.20881 -30
      vertex 7.74 -4.74582 -30
    endloop
  endfacet
  facet normal 0 0 -1
    outer loop
      vertex 6.77685 -5.46857 -30
      vertex 6.69341 -5.21179 -30
      vertex 6.7001 -5.20881 -30
    endloop
  endfacet
  facet normal 0 0 -1
    outer loop
      vertex 6.77685 -5.46857 -30
      vertex 6.68626 -5.21331 -30
      vertex 6.69341 -5.21179 -30
    endloop
  endfacet
  facet normal 0 0 -1
    outer loop
      vertex 5.60104 -5.7185 -30
      vertex 6.68626 -5.21331 -30
      vertex 6.77685 -5.46857 -30
    endloop
  endfacet
  facet normal 0 0 -1
    outer loop
      vertex 5.60104 -5.7185 -30
      vertex 5.57282 -5.44998 -30
      vertex 6.68626 -5.21331 -30
    endloop
  endfacet
  facet normal 0 0 -1
    outer loop
      vertex 5.60104 -5.7185 -30
      vertex 4.42718 -5.44998 -30
      vertex 5.57282 -5.44998 -30
    endloop
  endfacet
  facet normal 0 0 -1
    outer loop
      vertex 4.39896 -5.7185 -30
      vertex 4.42718 -5.44998 -30
      vertex 5.60104 -5.7185 -30
    endloop
  endfacet
  facet normal 0 0 -1
    outer loop
      vertex 4.39896 -5.7185 -30
      vertex 3.31374 -5.21331 -30
      vertex 4.42718 -5.44998 -30
    endloop
  endfacet
  facet normal 0 0 -1
    outer loop
      vertex 3.22315 -5.46857 -30
      vertex 3.31374 -5.21331 -30
      vertex 4.39896 -5.7185 -30
    endloop
  endfacet
  facet normal -0 0 -1
    outer loop
      vertex 3.31374 -5.21331 -30
      vertex 3.22315 -5.46857 -30
      vertex 3.30659 -5.21179 -30
    endloop
  endfacet
  facet normal -0 0 -1
    outer loop
      vertex 3.30659 -5.21179 -30
      vertex 3.22315 -5.46857 -30
      vertex 3.2999 -5.20881 -30
    endloop
  endfacet
  facet normal 0 0 -1
    outer loop
      vertex 2.125 -4.97965 -30
      vertex 3.2999 -5.20881 -30
      vertex 3.22315 -5.46857 -30
    endloop
  endfacet
  facet normal 0 0 -1
    outer loop
      vertex 3.2999 -5.20881 -30
      vertex 2.125 -4.97965 -30
      vertex 2.26 -4.74582 -30
    endloop
  endfacet
  facet normal 0 0 -1
    outer loop
      vertex 2.125 -4.97965 -30
      vertex 1.33908 -4.07674 -30
      vertex 2.26 -4.74582 -30
    endloop
  endfacet
  facet normal 0 0 -1
    outer loop
      vertex 1.1525 -4.27308 -30
      vertex 1.33908 -4.07674 -30
      vertex 2.125 -4.97965 -30
    endloop
  endfacet
  facet normal -0 0 -1
    outer loop
      vertex 1.33908 -4.07674 -30
      vertex 1.1525 -4.27308 -30
      vertex 1.33316 -4.07243 -30
    endloop
  endfacet
  facet normal -0 0 -1
    outer loop
      vertex 1.33316 -4.07243 -30
      vertex 1.1525 -4.27308 -30
      vertex 1.32827 -4.067 -30
    endloop
  endfacet
  facet normal 0 0 -1
    outer loop
      vertex 0.348153 -3.37976 -30
      vertex 1.32827 -4.067 -30
      vertex 1.1525 -4.27308 -30
    endloop
  endfacet
  facet normal 0 0 -1
    outer loop
      vertex 1.32827 -4.067 -30
      vertex 0.348153 -3.37976 -30
      vertex 0.566587 -3.22106 -30
    endloop
  endfacet
  facet normal 0 0 -1
    outer loop
      vertex 0.348153 -3.37976 -30
      vertex -0.00257208 -2.23525 -30
      vertex 0.566587 -3.22106 -30
    endloop
  endfacet
  facet normal 0 0 -1
    outer loop
      vertex -0.252886 -2.33874 -30
      vertex -0.00257208 -2.23525 -30
      vertex 0.348153 -3.37976 -30
    endloop
  endfacet
  facet normal -0 0 -1
    outer loop
      vertex -0.00257208 -2.23525 -30
      vertex -0.252886 -2.33874 -30
      vertex -0.00623031 -2.22892 -30
    endloop
  endfacet
  facet normal -0 0 -1
    outer loop
      vertex -0.00623031 -2.22892 -30
      vertex -0.252886 -2.33874 -30
      vertex -0.00849122 -2.22196 -30
    endloop
  endfacet
  facet normal 0 0 -1
    outer loop
      vertex -0.624349 -1.19549 -30
      vertex -0.00849122 -2.22196 -30
      vertex -0.252886 -2.33874 -30
    endloop
  endfacet
  facet normal 0 0 -1
    outer loop
      vertex -0.00849122 -2.22196 -30
      vertex -0.624349 -1.19549 -30
      vertex -0.36025 -1.13936 -30
    endloop
  endfacet
  facet normal -0 0 -1
    outer loop
      vertex -0.36025 -1.13936 -30
      vertex -0.624349 -1.19549 -30
      vertex -0.479237 -0.00727638 -30
    endloop
  endfacet
  facet normal 0 0 -1
    outer loop
      vertex -0.75 0 -30
      vertex -0.479237 -0.00727638 -30
      vertex -0.624349 -1.19549 -30
    endloop
  endfacet
  facet normal 0 0 -1
    outer loop
      vertex 10.75 0 -30
      vertex 10.4792 0.00727638 -30
      vertex 10.6243 1.19549 -30
    endloop
  endfacet
  facet normal 0 0 -1
    outer loop
      vertex 10.3602 1.13936 -30
      vertex 10.6243 1.19549 -30
      vertex 10.4792 0.00727638 -30
    endloop
  endfacet
  facet normal 0 0 -1
    outer loop
      vertex 10.0085 2.22196 -30
      vertex 10.6243 1.19549 -30
      vertex 10.3602 1.13936 -30
    endloop
  endfacet
  facet normal 0 0 -1
    outer loop
      vertex 10.6243 1.19549 -30
      vertex 10.0085 2.22196 -30
      vertex 10.2529 2.33874 -30
    endloop
  endfacet
  facet normal 0 0 -1
    outer loop
      vertex 10.0062 2.22892 -30
      vertex 10.2529 2.33874 -30
      vertex 10.0085 2.22196 -30
    endloop
  endfacet
  facet normal 0 0 -1
    outer loop
      vertex 10.0026 2.23525 -30
      vertex 10.2529 2.33874 -30
      vertex 10.0062 2.22892 -30
    endloop
  endfacet
  facet normal 0 0 -1
    outer loop
      vertex 10.0026 2.23525 -30
      vertex 9.65185 3.37976 -30
      vertex 10.2529 2.33874 -30
    endloop
  endfacet
  facet normal 0 0 -1
    outer loop
      vertex 9.43341 3.22106 -30
      vertex 9.65185 3.37976 -30
      vertex 10.0026 2.23525 -30
    endloop
  endfacet
  facet normal 0 0 -1
    outer loop
      vertex 8.67173 4.067 -30
      vertex 9.65185 3.37976 -30
      vertex 9.43341 3.22106 -30
    endloop
  endfacet
  facet normal 0 0 -1
    outer loop
      vertex 9.65185 3.37976 -30
      vertex 8.67173 4.067 -30
      vertex 8.8475 4.27308 -30
    endloop
  endfacet
  facet normal 0 0 -1
    outer loop
      vertex 8.66684 4.07243 -30
      vertex 8.8475 4.27308 -30
      vertex 8.67173 4.067 -30
    endloop
  endfacet
  facet normal 0 0 -1
    outer loop
      vertex 8.66092 4.07674 -30
      vertex 8.8475 4.27308 -30
      vertex 8.66684 4.07243 -30
    endloop
  endfacet
  facet normal 0 0 -1
    outer loop
      vertex 8.66092 4.07674 -30
      vertex 7.875 4.97965 -30
      vertex 8.8475 4.27308 -30
    endloop
  endfacet
  facet normal 0 0 -1
    outer loop
      vertex 7.74 4.74582 -30
      vertex 7.875 4.97965 -30
      vertex 8.66092 4.07674 -30
    endloop
  endfacet
  facet normal 0 0 -1
    outer loop
      vertex 6.7001 5.20881 -30
      vertex 7.875 4.97965 -30
      vertex 7.74 4.74582 -30
    endloop
  endfacet
  facet normal 0 0 -1
    outer loop
      vertex 7.875 4.97965 -30
      vertex 6.7001 5.20881 -30
      vertex 6.77685 5.46857 -30
    endloop
  endfacet
  facet normal 0 0 -1
    outer loop
      vertex 6.69341 5.21179 -30
      vertex 6.77685 5.46857 -30
      vertex 6.7001 5.20881 -30
    endloop
  endfacet
  facet normal 0 0 -1
    outer loop
      vertex 6.68626 5.21331 -30
      vertex 6.77685 5.46857 -30
      vertex 6.69341 5.21179 -30
    endloop
  endfacet
  facet normal 0 0 -1
    outer loop
      vertex 6.68626 5.21331 -30
      vertex 5.60104 5.7185 -30
      vertex 6.77685 5.46857 -30
    endloop
  endfacet
  facet normal 0 0 -1
    outer loop
      vertex 5.57282 5.44998 -30
      vertex 5.60104 5.7185 -30
      vertex 6.68626 5.21331 -30
    endloop
  endfacet
  facet normal 0 0 -1
    outer loop
      vertex 4.42718 5.44998 -30
      vertex 5.60104 5.7185 -30
      vertex 5.57282 5.44998 -30
    endloop
  endfacet
  facet normal 0 0 -1
    outer loop
      vertex 4.42718 5.44998 -30
      vertex 4.39896 5.7185 -30
      vertex 5.60104 5.7185 -30
    endloop
  endfacet
  facet normal 0 0 -1
    outer loop
      vertex 3.31374 5.21331 -30
      vertex 4.39896 5.7185 -30
      vertex 4.42718 5.44998 -30
    endloop
  endfacet
  facet normal 0 0 -1
    outer loop
      vertex 3.22315 5.46857 -30
      vertex 3.31374 5.21331 -30
      vertex 3.30659 5.21179 -30
    endloop
  endfacet
  facet normal 0 0 -1
    outer loop
      vertex 3.22315 5.46857 -30
      vertex 3.30659 5.21179 -30
      vertex 3.2999 5.20881 -30
    endloop
  endfacet
  facet normal 0 0 -1
    outer loop
      vertex 3.31374 5.21331 -30
      vertex 3.22315 5.46857 -30
      vertex 4.39896 5.7185 -30
    endloop
  endfacet
  facet normal 0 0 -1
    outer loop
      vertex 2.125 4.97965 -30
      vertex 3.2999 5.20881 -30
      vertex 2.26 4.74582 -30
    endloop
  endfacet
  facet normal -0 0 -1
    outer loop
      vertex 3.2999 5.20881 -30
      vertex 2.125 4.97965 -30
      vertex 3.22315 5.46857 -30
    endloop
  endfacet
  facet normal 0 0 -1
    outer loop
      vertex 1.33908 4.07674 -30
      vertex 2.125 4.97965 -30
      vertex 2.26 4.74582 -30
    endloop
  endfacet
  facet normal 0 0 -1
    outer loop
      vertex 1.1525 4.27308 -30
      vertex 1.33908 4.07674 -30
      vertex 1.33316 4.07243 -30
    endloop
  endfacet
  facet normal 0 0 -1
    outer loop
      vertex 1.1525 4.27308 -30
      vertex 1.33316 4.07243 -30
      vertex 1.32827 4.067 -30
    endloop
  endfacet
  facet normal 0 0 -1
    outer loop
      vertex 1.33908 4.07674 -30
      vertex 1.1525 4.27308 -30
      vertex 2.125 4.97965 -30
    endloop
  endfacet
  facet normal 0 0 -1
    outer loop
      vertex 0.348153 3.37976 -30
      vertex 1.32827 4.067 -30
      vertex 0.566587 3.22106 -30
    endloop
  endfacet
  facet normal -0 0 -1
    outer loop
      vertex 1.32827 4.067 -30
      vertex 0.348153 3.37976 -30
      vertex 1.1525 4.27308 -30
    endloop
  endfacet
  facet normal 0 0 -1
    outer loop
      vertex -0.00257208 2.23525 -30
      vertex 0.348153 3.37976 -30
      vertex 0.566587 3.22106 -30
    endloop
  endfacet
  facet normal 0 0 -1
    outer loop
      vertex -0.252886 2.33874 -30
      vertex -0.00257208 2.23525 -30
      vertex -0.00623031 2.22892 -30
    endloop
  endfacet
  facet normal 0 0 -1
    outer loop
      vertex -0.252886 2.33874 -30
      vertex -0.00623031 2.22892 -30
      vertex -0.00849122 2.22196 -30
    endloop
  endfacet
  facet normal 0 0 -1
    outer loop
      vertex -0.00257208 2.23525 -30
      vertex -0.252886 2.33874 -30
      vertex 0.348153 3.37976 -30
    endloop
  endfacet
  facet normal 0 0 -1
    outer loop
      vertex -0.624349 1.19549 -30
      vertex -0.00849122 2.22196 -30
      vertex -0.36025 1.13936 -30
    endloop
  endfacet
  facet normal 0 0 -1
    outer loop
      vertex -0.624349 1.19549 -30
      vertex -0.36025 1.13936 -30
      vertex -0.479237 0.00727638 -30
    endloop
  endfacet
  facet normal 0 0 -1
    outer loop
      vertex -0.75 0 -30
      vertex -0.479237 0.00727638 -30
      vertex -0.480001 0 -30
    endloop
  endfacet
  facet normal 0 0 -1
    outer loop
      vertex -0.479237 -0.00727638 -30
      vertex -0.75 0 -30
      vertex -0.480001 0 -30
    endloop
  endfacet
  facet normal -0 0 -1
    outer loop
      vertex -0.00849122 2.22196 -30
      vertex -0.624349 1.19549 -30
      vertex -0.252886 2.33874 -30
    endloop
  endfacet
  facet normal -0 0 -1
    outer loop
      vertex -0.479237 0.00727638 -30
      vertex -0.75 0 -30
      vertex -0.624349 1.19549 -30
    endloop
  endfacet
  facet normal -0.866025 -0.5 0
    outer loop
      vertex 0.348153 -3.37976 -30
      vertex -0.252886 -2.33874 -15
      vertex -0.252886 -2.33874 -30
    endloop
  endfacet
  facet normal -0.866025 -0.5 0
    outer loop
      vertex -0.252886 -2.33874 -15
      vertex 0.348153 -3.37976 -30
      vertex 0.348153 -3.37976 -15
    endloop
  endfacet
  facet normal 0.994522 -0.104529 0
    outer loop
      vertex 10.6243 -1.19549 -15
      vertex 10.75 0 -30
      vertex 10.75 0 -15
    endloop
  endfacet
  facet normal 0.994522 -0.104529 0
    outer loop
      vertex 10.75 0 -30
      vertex 10.6243 -1.19549 -15
      vertex 10.6243 -1.19549 -30
    endloop
  endfacet
  facet normal 0.743145 -0.66913 0
    outer loop
      vertex 8.8475 -4.27308 -15
      vertex 9.65185 -3.37976 -30
      vertex 9.65185 -3.37976 -15
    endloop
  endfacet
  facet normal 0.743145 -0.66913 0
    outer loop
      vertex 9.65185 -3.37976 -30
      vertex 8.8475 -4.27308 -15
      vertex 8.8475 -4.27308 -30
    endloop
  endfacet
  facet normal -0.207911 -0.978148 0
    outer loop
      vertex 3.22315 -5.46857 -30
      vertex 4.39896 -5.7185 -15
      vertex 3.22315 -5.46857 -15
    endloop
  endfacet
  facet normal -0.207911 -0.978148 -0
    outer loop
      vertex 4.39896 -5.7185 -15
      vertex 3.22315 -5.46857 -30
      vertex 4.39896 -5.7185 -30
    endloop
  endfacet
  facet normal -0.406736 -0.913546 0
    outer loop
      vertex 2.125 -4.97965 -30
      vertex 3.22315 -5.46857 -15
      vertex 2.125 -4.97965 -15
    endloop
  endfacet
  facet normal -0.406736 -0.913546 -0
    outer loop
      vertex 3.22315 -5.46857 -15
      vertex 2.125 -4.97965 -30
      vertex 3.22315 -5.46857 -30
    endloop
  endfacet
  facet normal 0.406736 -0.913546 0
    outer loop
      vertex 6.77685 -5.46857 -30
      vertex 7.875 -4.97965 -15
      vertex 6.77685 -5.46857 -15
    endloop
  endfacet
  facet normal 0.406736 -0.913546 0
    outer loop
      vertex 7.875 -4.97965 -15
      vertex 6.77685 -5.46857 -30
      vertex 7.875 -4.97965 -30
    endloop
  endfacet
  facet normal 0 -1 0
    outer loop
      vertex 4.39896 -5.7185 -30
      vertex 5.60104 -5.7185 -15
      vertex 4.39896 -5.7185 -15
    endloop
  endfacet
  facet normal 0 -1 -0
    outer loop
      vertex 5.60104 -5.7185 -15
      vertex 4.39896 -5.7185 -30
      vertex 5.60104 -5.7185 -30
    endloop
  endfacet
  facet normal 0 0 1
    outer loop
      vertex 8 0 -15
      vertex 10.75 0 -15
      vertex 10.6243 1.19549 -15
    endloop
  endfacet
  facet normal 0 0 1
    outer loop
      vertex 8 0 -15
      vertex 10.6243 1.19549 -15
      vertex 10.2529 2.33874 -15
    endloop
  endfacet
  facet normal 0 0 1
    outer loop
      vertex 10.75 0 -15
      vertex 8 0 -15
      vertex 10.6243 -1.19549 -15
    endloop
  endfacet
  facet normal 0 0 1
    outer loop
      vertex 8 0 -15
      vertex 10.2529 2.33874 -15
      vertex 9.65185 3.37976 -15
    endloop
  endfacet
  facet normal 0 0 1
    outer loop
      vertex 10.6243 -1.19549 -15
      vertex 8 0 -15
      vertex 10.2529 -2.33874 -15
    endloop
  endfacet
  facet normal 0 0 1
    outer loop
      vertex 8 0 -15
      vertex 9.65185 3.37976 -15
      vertex 8.8475 4.27308 -15
    endloop
  endfacet
  facet normal 0 0 1
    outer loop
      vertex 10.2529 -2.33874 -15
      vertex 8 0 -15
      vertex 9.65185 -3.37976 -15
    endloop
  endfacet
  facet normal 0 0 1
    outer loop
      vertex 9.65185 -3.37976 -15
      vertex 8 0 -15
      vertex 8.8475 -4.27308 -15
    endloop
  endfacet
  facet normal 0 0 1
    outer loop
      vertex 5 3 -15
      vertex 8.8475 4.27308 -15
      vertex 7.875 4.97965 -15
    endloop
  endfacet
  facet normal 0 0 1
    outer loop
      vertex 5 3 -15
      vertex 7.875 4.97965 -15
      vertex 6.77685 5.46857 -15
    endloop
  endfacet
  facet normal 0 0 1
    outer loop
      vertex 5 3 -15
      vertex 6.77685 5.46857 -15
      vertex 5.60104 5.7185 -15
    endloop
  endfacet
  facet normal 0 0 1
    outer loop
      vertex 8.8475 4.27308 -15
      vertex 5 3 -15
      vertex 8 0 -15
    endloop
  endfacet
  facet normal -0 0 1
    outer loop
      vertex 4.39896 5.7185 -15
      vertex 5 3 -15
      vertex 5.60104 5.7185 -15
    endloop
  endfacet
  facet normal -0 0 1
    outer loop
      vertex 3.22315 5.46857 -15
      vertex 5 3 -15
      vertex 4.39896 5.7185 -15
    endloop
  endfacet
  facet normal -0 0 1
    outer loop
      vertex 2.125 4.97965 -15
      vertex 5 3 -15
      vertex 3.22315 5.46857 -15
    endloop
  endfacet
  facet normal -0 0 1
    outer loop
      vertex 1.1525 4.27308 -15
      vertex 5 3 -15
      vertex 2.125 4.97965 -15
    endloop
  endfacet
  facet normal 0 0 1
    outer loop
      vertex 5 3 -15
      vertex 1.1525 4.27308 -15
      vertex 2 0 -15
    endloop
  endfacet
  facet normal -0 0 1
    outer loop
      vertex 5 -3 -15
      vertex 8.8475 -4.27308 -15
      vertex 8 0 -15
    endloop
  endfacet
  facet normal 0 0 1
    outer loop
      vertex 8.8475 -4.27308 -15
      vertex 5 -3 -15
      vertex 7.875 -4.97965 -15
    endloop
  endfacet
  facet normal 0 0 1
    outer loop
      vertex 7.875 -4.97965 -15
      vertex 5 -3 -15
      vertex 6.77685 -5.46857 -15
    endloop
  endfacet
  facet normal 0 0 1
    outer loop
      vertex 6.77685 -5.46857 -15
      vertex 5 -3 -15
      vertex 5.60104 -5.7185 -15
    endloop
  endfacet
  facet normal 0 0 1
    outer loop
      vertex 5 -3 -15
      vertex 4.39896 -5.7185 -15
      vertex 5.60104 -5.7185 -15
    endloop
  endfacet
  facet normal 0 0 1
    outer loop
      vertex 5 -3 -15
      vertex 3.22315 -5.46857 -15
      vertex 4.39896 -5.7185 -15
    endloop
  endfacet
  facet normal 0 0 1
    outer loop
      vertex 5 -3 -15
      vertex 2.125 -4.97965 -15
      vertex 3.22315 -5.46857 -15
    endloop
  endfacet
  facet normal 0 0 1
    outer loop
      vertex 1.1525 -4.27308 -15
      vertex 5 -3 -15
      vertex 2 0 -15
    endloop
  endfacet
  facet normal -0 0 1
    outer loop
      vertex 0.348153 3.37976 -15
      vertex 2 0 -15
      vertex 1.1525 4.27308 -15
    endloop
  endfacet
  facet normal 0 0 1
    outer loop
      vertex 5 -3 -15
      vertex 1.1525 -4.27308 -15
      vertex 2.125 -4.97965 -15
    endloop
  endfacet
  facet normal -0 0 1
    outer loop
      vertex -0.252886 2.33874 -15
      vertex 2 0 -15
      vertex 0.348153 3.37976 -15
    endloop
  endfacet
  facet normal 0 0 1
    outer loop
      vertex 2 0 -15
      vertex 0.348153 -3.37976 -15
      vertex 1.1525 -4.27308 -15
    endloop
  endfacet
  facet normal -0 0 1
    outer loop
      vertex -0.624349 1.19549 -15
      vertex 2 0 -15
      vertex -0.252886 2.33874 -15
    endloop
  endfacet
  facet normal 0 0 1
    outer loop
      vertex 2 0 -15
      vertex -0.252886 -2.33874 -15
      vertex 0.348153 -3.37976 -15
    endloop
  endfacet
  facet normal 0 0 1
    outer loop
      vertex -0.75 0 -15
      vertex 2 0 -15
      vertex -0.624349 1.19549 -15
    endloop
  endfacet
  facet normal 0 0 1
    outer loop
      vertex 2 0 -15
      vertex -0.624349 -1.19549 -15
      vertex -0.252886 -2.33874 -15
    endloop
  endfacet
  facet normal 0 0 1
    outer loop
      vertex 2 0 -15
      vertex -0.75 0 -15
      vertex -0.624349 -1.19549 -15
    endloop
  endfacet
  facet normal 0.951056 -0.309017 0
    outer loop
      vertex 10.2529 -2.33874 -15
      vertex 10.6243 -1.19549 -30
      vertex 10.6243 -1.19549 -15
    endloop
  endfacet
  facet normal 0.951056 -0.309017 0
    outer loop
      vertex 10.6243 -1.19549 -30
      vertex 10.2529 -2.33874 -15
      vertex 10.2529 -2.33874 -30
    endloop
  endfacet
  facet normal -0.743145 -0.66913 0
    outer loop
      vertex 1.1525 -4.27308 -30
      vertex 0.348153 -3.37976 -15
      vertex 0.348153 -3.37976 -30
    endloop
  endfacet
  facet normal -0.743145 -0.66913 0
    outer loop
      vertex 0.348153 -3.37976 -15
      vertex 1.1525 -4.27308 -30
      vertex 1.1525 -4.27308 -15
    endloop
  endfacet
  facet normal 0.207911 -0.978148 0
    outer loop
      vertex 5.60104 -5.7185 -30
      vertex 6.77685 -5.46857 -15
      vertex 5.60104 -5.7185 -15
    endloop
  endfacet
  facet normal 0.207911 -0.978148 0
    outer loop
      vertex 6.77685 -5.46857 -15
      vertex 5.60104 -5.7185 -30
      vertex 6.77685 -5.46857 -30
    endloop
  endfacet
  facet normal 0.990686 -0.136168 0
    outer loop
      vertex 1.75 0 -20
      vertex 1.87052 0.876839 -29.01
      vertex 1.87052 0.876839 -20
    endloop
  endfacet
  facet normal 0.990686 -0.136168 0
    outer loop
      vertex 1.87052 0.876839 -29.01
      vertex 1.75 0 -20
      vertex 1.75 0 -29.01
    endloop
  endfacet
  facet normal -1 0 0
    outer loop
      vertex 8.21973 -0.442541 -29.01
      vertex 8.21973 0.442541 -20
      vertex 8.21973 0.442541 -29.01
    endloop
  endfacet
  facet normal -1 -0 0
    outer loop
      vertex 8.21973 0.442541 -20
      vertex 8.21973 -0.442541 -29.01
      vertex 8.21973 -0.442541 -20
    endloop
  endfacet
  facet normal -0.682553 0.730836 0
    outer loop
      vertex 7.52106 -2.05103 -29.01
      vertex 6.87421 -2.65515 -20
      vertex 7.52106 -2.05103 -20
    endloop
  endfacet
  facet normal -0.682553 0.730836 0
    outer loop
      vertex 6.87421 -2.65515 -20
      vertex 7.52106 -2.05103 -29.01
      vertex 6.87421 -2.65515 -29.01
    endloop
  endfacet
  facet normal 0 0 -1
    outer loop
      vertex 2.7817 -2.37522 -20
      vertex 4 -3.06162 -20
      vertex 3.50479 -2.88563 -20
    endloop
  endfacet
  facet normal 0 0 -1
    outer loop
      vertex 2.22314 -1.68865 -20
      vertex 4 -3.06162 -20
      vertex 2.7817 -2.37522 -20
    endloop
  endfacet
  facet normal 0 0 -1
    outer loop
      vertex 4 -3.06162 -20
      vertex 2.22314 -1.68865 -20
      vertex 4 3.06162 -20
    endloop
  endfacet
  facet normal 0 0 -1
    outer loop
      vertex 4 3.06162 -20
      vertex 2.7817 2.37522 -20
      vertex 3.50479 2.88563 -20
    endloop
  endfacet
  facet normal 0 0 -1
    outer loop
      vertex 2.22314 1.68865 -20
      vertex 4 3.06162 -20
      vertex 2.22314 -1.68865 -20
    endloop
  endfacet
  facet normal 0 0 -1
    outer loop
      vertex 4 3.06162 -20
      vertex 2.22314 1.68865 -20
      vertex 2.7817 2.37522 -20
    endloop
  endfacet
  facet normal 0 0 -1
    outer loop
      vertex 1.87052 -0.876839 -20
      vertex 2.22314 1.68865 -20
      vertex 2.22314 -1.68865 -20
    endloop
  endfacet
  facet normal 0 0 -1
    outer loop
      vertex 1.87052 -0.876839 -20
      vertex 1.87052 0.876839 -20
      vertex 2.22314 1.68865 -20
    endloop
  endfacet
  facet normal 0 -0 -1
    outer loop
      vertex 1.87052 0.876839 -20
      vertex 1.87052 -0.876839 -20
      vertex 1.75 0 -20
    endloop
  endfacet
  facet normal 0 0 -1
    outer loop
      vertex 4 -3.06162 -20
      vertex 6 -3.08071 -20
      vertex 6 -5 -20
    endloop
  endfacet
  facet normal 0 0 -1
    outer loop
      vertex 6 -3.08071 -20
      vertex 4 -3.06162 -20
      vertex 6 3.08071 -20
    endloop
  endfacet
  facet normal 0 0 -1
    outer loop
      vertex 4 -3.06162 -20
      vertex 6 -5 -20
      vertex 4 -5 -20
    endloop
  endfacet
  facet normal 0 0 -1
    outer loop
      vertex 4 3.06162 -20
      vertex 6 3.08071 -20
      vertex 4 -3.06162 -20
    endloop
  endfacet
  facet normal -0 0 -1
    outer loop
      vertex 6 3.08071 -20
      vertex 4 3.06162 -20
      vertex 6 5 -20
    endloop
  endfacet
  facet normal -0 0 -1
    outer loop
      vertex 6 5 -20
      vertex 4 3.06162 -20
      vertex 4 5 -20
    endloop
  endfacet
  facet normal 0 0 -1
    outer loop
      vertex 7.98094 -1.2948 -20
      vertex 8.21973 0.442541 -20
      vertex 8.21973 -0.442541 -20
    endloop
  endfacet
  facet normal 0 0 -1
    outer loop
      vertex 7.98094 -1.2948 -20
      vertex 7.98094 1.2948 -20
      vertex 8.21973 0.442541 -20
    endloop
  endfacet
  facet normal 0 0 -1
    outer loop
      vertex 7.52106 -2.05103 -20
      vertex 7.98094 1.2948 -20
      vertex 7.98094 -1.2948 -20
    endloop
  endfacet
  facet normal 0 0 -1
    outer loop
      vertex 7.52106 -2.05103 -20
      vertex 7.52106 2.05103 -20
      vertex 7.98094 1.2948 -20
    endloop
  endfacet
  facet normal 0 0 -1
    outer loop
      vertex 6 -3.08071 -20
      vertex 7.52106 -2.05103 -20
      vertex 6.87421 -2.65515 -20
    endloop
  endfacet
  facet normal -0 0 -1
    outer loop
      vertex 7.52106 -2.05103 -20
      vertex 6 -3.08071 -20
      vertex 7.52106 2.05103 -20
    endloop
  endfacet
  facet normal 0 0 -1
    outer loop
      vertex 6 -3.08071 -20
      vertex 6.87421 -2.65515 -20
      vertex 6.08836 -3.06235 -20
    endloop
  endfacet
  facet normal 0 0 -1
    outer loop
      vertex 6 3.08071 -20
      vertex 7.52106 2.05103 -20
      vertex 6 -3.08071 -20
    endloop
  endfacet
  facet normal 0 0 -1
    outer loop
      vertex 7.52106 2.05103 -20
      vertex 6 3.08071 -20
      vertex 6.87421 2.65515 -20
    endloop
  endfacet
  facet normal 0 0 -1
    outer loop
      vertex 6.87421 2.65515 -20
      vertex 6 3.08071 -20
      vertex 6.08836 3.06235 -20
    endloop
  endfacet
  facet normal 0.775711 -0.631088 0
    outer loop
      vertex 2.22314 1.68865 -20
      vertex 2.7817 2.37522 -29.01
      vertex 2.7817 2.37522 -20
    endloop
  endfacet
  facet normal 0.775711 -0.631088 0
    outer loop
      vertex 2.7817 2.37522 -29.01
      vertex 2.22314 1.68865 -20
      vertex 2.22314 1.68865 -29.01
    endloop
  endfacet
  facet normal 0.917211 -0.398401 0
    outer loop
      vertex 1.87052 0.876839 -20
      vertex 2.22314 1.68865 -29.01
      vertex 2.22314 1.68865 -20
    endloop
  endfacet
  facet normal 0.917211 -0.398401 0
    outer loop
      vertex 2.22314 1.68865 -29.01
      vertex 1.87052 0.876839 -20
      vertex 1.87052 0.876839 -29.01
    endloop
  endfacet
  facet normal -0.682553 -0.730836 0
    outer loop
      vertex 6.87421 2.65515 -29.01
      vertex 7.52106 2.05103 -20
      vertex 6.87421 2.65515 -20
    endloop
  endfacet
  facet normal -0.682553 -0.730836 -0
    outer loop
      vertex 7.52106 2.05103 -20
      vertex 6.87421 2.65515 -29.01
      vertex 7.52106 2.05103 -29.01
    endloop
  endfacet
  facet normal -0.854419 -0.519584 0
    outer loop
      vertex 7.98094 1.2948 -29.01
      vertex 7.52106 2.05103 -20
      vertex 7.52106 2.05103 -29.01
    endloop
  endfacet
  facet normal -0.854419 -0.519584 0
    outer loop
      vertex 7.52106 2.05103 -20
      vertex 7.98094 1.2948 -29.01
      vertex 7.98094 1.2948 -20
    endloop
  endfacet
  facet normal -0.460065 -0.887885 0
    outer loop
      vertex 6.08836 3.06235 -29.01
      vertex 6.87421 2.65515 -20
      vertex 6.08836 3.06235 -20
    endloop
  endfacet
  facet normal -0.460065 -0.887885 -0
    outer loop
      vertex 6.87421 2.65515 -20
      vertex 6.08836 3.06235 -29.01
      vertex 6.87421 2.65515 -29.01
    endloop
  endfacet
  facet normal -0.460065 0.887885 0
    outer loop
      vertex 6.87421 -2.65515 -29.01
      vertex 6.08836 -3.06235 -20
      vertex 6.87421 -2.65515 -20
    endloop
  endfacet
  facet normal -0.460065 0.887885 0
    outer loop
      vertex 6.08836 -3.06235 -20
      vertex 6.87421 -2.65515 -29.01
      vertex 6.08836 -3.06235 -29.01
    endloop
  endfacet
  facet normal -0.962917 0.269797 0
    outer loop
      vertex 7.98094 -1.2948 -29.01
      vertex 8.21973 -0.442541 -20
      vertex 8.21973 -0.442541 -29.01
    endloop
  endfacet
  facet normal -0.962917 0.269797 0
    outer loop
      vertex 8.21973 -0.442541 -20
      vertex 7.98094 -1.2948 -29.01
      vertex 7.98094 -1.2948 -20
    endloop
  endfacet
  facet normal 0.33488 -0.942261 0
    outer loop
      vertex 3.50479 2.88563 -29.01
      vertex 4 3.06162 -20
      vertex 3.50479 2.88563 -20
    endloop
  endfacet
  facet normal 0.33488 -0.942261 0
    outer loop
      vertex 4 3.06162 -20
      vertex 3.50479 2.88563 -29.01
      vertex 4 3.06162 -29.01
    endloop
  endfacet
  facet normal 0.57668 -0.81697 0
    outer loop
      vertex 2.7817 2.37522 -29.01
      vertex 3.50479 2.88563 -20
      vertex 2.7817 2.37522 -20
    endloop
  endfacet
  facet normal 0.57668 -0.81697 0
    outer loop
      vertex 3.50479 2.88563 -20
      vertex 2.7817 2.37522 -29.01
      vertex 3.50479 2.88563 -29.01
    endloop
  endfacet
  facet normal -0.962917 -0.269797 0
    outer loop
      vertex 8.21973 0.442541 -29.01
      vertex 7.98094 1.2948 -20
      vertex 7.98094 1.2948 -29.01
    endloop
  endfacet
  facet normal -0.962917 -0.269797 0
    outer loop
      vertex 7.98094 1.2948 -20
      vertex 8.21973 0.442541 -29.01
      vertex 8.21973 0.442541 -20
    endloop
  endfacet
  facet normal -0.203457 -0.979084 0
    outer loop
      vertex 6 3.08071 -29.01
      vertex 6.08836 3.06235 -20
      vertex 6 3.08071 -20
    endloop
  endfacet
  facet normal -0.203457 -0.979084 -0
    outer loop
      vertex 6.08836 3.06235 -20
      vertex 6 3.08071 -29.01
      vertex 6.08836 3.06235 -29.01
    endloop
  endfacet
  facet normal 0.990686 0.136168 0
    outer loop
      vertex 1.87052 -0.876839 -20
      vertex 1.75 0 -29.01
      vertex 1.75 0 -20
    endloop
  endfacet
  facet normal 0.990686 0.136168 0
    outer loop
      vertex 1.75 0 -29.01
      vertex 1.87052 -0.876839 -20
      vertex 1.87052 -0.876839 -29.01
    endloop
  endfacet
  facet normal 0.775711 0.631088 0
    outer loop
      vertex 2.7817 -2.37522 -20
      vertex 2.22314 -1.68865 -29.01
      vertex 2.22314 -1.68865 -20
    endloop
  endfacet
  facet normal 0.775711 0.631088 0
    outer loop
      vertex 2.22314 -1.68865 -29.01
      vertex 2.7817 -2.37522 -20
      vertex 2.7817 -2.37522 -29.01
    endloop
  endfacet
  facet normal 0.33488 0.942261 -0
    outer loop
      vertex 4 -3.06162 -29.01
      vertex 3.50479 -2.88563 -20
      vertex 4 -3.06162 -20
    endloop
  endfacet
  facet normal 0.33488 0.942261 0
    outer loop
      vertex 3.50479 -2.88563 -20
      vertex 4 -3.06162 -29.01
      vertex 3.50479 -2.88563 -29.01
    endloop
  endfacet
  facet normal -0.203457 0.979084 0
    outer loop
      vertex 6.08836 -3.06235 -29.01
      vertex 6 -3.08071 -20
      vertex 6.08836 -3.06235 -20
    endloop
  endfacet
  facet normal -0.203457 0.979084 0
    outer loop
      vertex 6 -3.08071 -20
      vertex 6.08836 -3.06235 -29.01
      vertex 6 -3.08071 -29.01
    endloop
  endfacet
  facet normal -0.854419 0.519584 0
    outer loop
      vertex 7.52106 -2.05103 -29.01
      vertex 7.98094 -1.2948 -20
      vertex 7.98094 -1.2948 -29.01
    endloop
  endfacet
  facet normal -0.854419 0.519584 0
    outer loop
      vertex 7.98094 -1.2948 -20
      vertex 7.52106 -2.05103 -29.01
      vertex 7.52106 -2.05103 -20
    endloop
  endfacet
  facet normal 0.917211 0.398401 0
    outer loop
      vertex 2.22314 -1.68865 -20
      vertex 1.87052 -0.876839 -29.01
      vertex 1.87052 -0.876839 -20
    endloop
  endfacet
  facet normal 0.917211 0.398401 0
    outer loop
      vertex 1.87052 -0.876839 -29.01
      vertex 2.22314 -1.68865 -20
      vertex 2.22314 -1.68865 -29.01
    endloop
  endfacet
  facet normal 0.57668 0.81697 -0
    outer loop
      vertex 3.50479 -2.88563 -29.01
      vertex 2.7817 -2.37522 -20
      vertex 3.50479 -2.88563 -20
    endloop
  endfacet
  facet normal 0.57668 0.81697 0
    outer loop
      vertex 2.7817 -2.37522 -20
      vertex 3.50479 -2.88563 -29.01
      vertex 2.7817 -2.37522 -29.01
    endloop
  endfacet
  facet normal -1 0 0
    outer loop
      vertex 6 4.31289 -29.4855
      vertex 6 5 -20
      vertex 6 5 -29.8234
    endloop
  endfacet
  facet normal -1 0 0
    outer loop
      vertex 6 3.34603 -29.01
      vertex 6 5 -20
      vertex 6 4.31289 -29.4855
    endloop
  endfacet
  facet normal -1 0 0
    outer loop
      vertex 6 3.08071 -20
      vertex 6 3.34603 -29.01
      vertex 6 3.08071 -29.01
    endloop
  endfacet
  facet normal -1 0 0
    outer loop
      vertex 6 3.34603 -29.01
      vertex 6 3.08071 -20
      vertex 6 5 -20
    endloop
  endfacet
  facet normal -1 0 0
    outer loop
      vertex 6 -3.34603 -29.01
      vertex 6 -3.08071 -20
      vertex 6 -3.08071 -29.01
    endloop
  endfacet
  facet normal -1 0 0
    outer loop
      vertex 6 -5 -20
      vertex 6 -3.34603 -29.01
      vertex 6 -4.31289 -29.4855
    endloop
  endfacet
  facet normal -1 0 0
    outer loop
      vertex 6 -5 -20
      vertex 6 -4.31289 -29.4855
      vertex 6 -5 -29.8234
    endloop
  endfacet
  facet normal -1 0 0
    outer loop
      vertex 6 -3.34603 -29.01
      vertex 6 -5 -20
      vertex 6 -3.08071 -20
    endloop
  endfacet
  facet normal 1 0 0
    outer loop
      vertex 4 -3.06162 -20
      vertex 4 -3.34603 -29.01
      vertex 4 -3.06162 -29.01
    endloop
  endfacet
  facet normal 1 -0 0
    outer loop
      vertex 4 -5 -20
      vertex 4 -3.34603 -29.01
      vertex 4 -3.06162 -20
    endloop
  endfacet
  facet normal 1 0 0
    outer loop
      vertex 4 -3.34603 -29.01
      vertex 4 -5 -20
      vertex 4 -4.31289 -29.4855
    endloop
  endfacet
  facet normal 1 0 0
    outer loop
      vertex 4 -4.31289 -29.4855
      vertex 4 -5 -20
      vertex 4 -5 -29.8234
    endloop
  endfacet
  facet normal 1 0 0
    outer loop
      vertex 4 5 -20
      vertex 4 4.31289 -29.4855
      vertex 4 5 -29.8234
    endloop
  endfacet
  facet normal 1 0 0
    outer loop
      vertex 4 5 -20
      vertex 4 3.34603 -29.01
      vertex 4 4.31289 -29.4855
    endloop
  endfacet
  facet normal 1 -0 0
    outer loop
      vertex 4 3.06162 -20
      vertex 4 3.34603 -29.01
      vertex 4 5 -20
    endloop
  endfacet
  facet normal 1 0 0
    outer loop
      vertex 4 3.34603 -29.01
      vertex 4 3.06162 -20
      vertex 4 3.06162 -29.01
    endloop
  endfacet
  facet normal 0 -1 0
    outer loop
      vertex 4 5 -20
      vertex 4.47448 5 -29.7738
      vertex 6 5 -20
    endloop
  endfacet
  facet normal -0 -1 0
    outer loop
      vertex 4.47448 5 -29.7738
      vertex 4 5 -20
      vertex 4 5 -29.8234
    endloop
  endfacet
  facet normal 0 -1 0
    outer loop
      vertex 5.52552 5 -29.7738
      vertex 6 5 -20
      vertex 4.47448 5 -29.7738
    endloop
  endfacet
  facet normal 0 -1 -0
    outer loop
      vertex 6 5 -20
      vertex 5.52552 5 -29.7738
      vertex 6 5 -29.8234
    endloop
  endfacet
  facet normal 0 1 0
    outer loop
      vertex 6 -5 -20
      vertex 5.52552 -5 -29.7738
      vertex 4 -5 -20
    endloop
  endfacet
  facet normal -0 1 0
    outer loop
      vertex 5.52552 -5 -29.7738
      vertex 6 -5 -20
      vertex 6 -5 -29.8234
    endloop
  endfacet
  facet normal 0 1 -0
    outer loop
      vertex 4.47448 -5 -29.7738
      vertex 4 -5 -20
      vertex 5.52552 -5 -29.7738
    endloop
  endfacet
  facet normal 0 1 0
    outer loop
      vertex 4 -5 -20
      vertex 4.47448 -5 -29.7738
      vertex 4 -5 -29.8234
    endloop
  endfacet
  facet normal 0.446721 -0.0469525 -0.893441
    outer loop
      vertex 1.5 0 -29.01
      vertex -0.479237 0.00727638 -30
      vertex 1.57648 0.727691 -29.01
    endloop
  endfacet
  facet normal 0.446721 -0.0469528 -0.893441
    outer loop
      vertex -0.479237 0.00727638 -30
      vertex 1.5 0 -29.01
      vertex -0.480001 0 -30
    endloop
  endfacet
  facet normal 0.264022 0.363395 -0.893441
    outer loop
      vertex 1.33908 -4.07674 -30
      vertex 2.65804 -2.60101 -29.01
      vertex 3.25 -3.03109 -29.01
    endloop
  endfacet
  facet normal 0.264023 0.363394 -0.893441
    outer loop
      vertex 2.65804 -2.60101 -29.01
      vertex 1.33908 -4.07674 -30
      vertex 1.33316 -4.07243 -30
    endloop
  endfacet
  facet normal 0.182699 -0.410348 -0.893441
    outer loop
      vertex 3.25 3.03109 -29.01
      vertex 2.26 4.74582 -30
      vertex 3.2999 5.20881 -30
    endloop
  endfacet
  facet normal 0.427197 -0.138805 -0.893441
    outer loop
      vertex -0.36025 1.13936 -30
      vertex -0.00849122 2.22196 -30
      vertex 1.57648 0.727691 -29.01
    endloop
  endfacet
  facet normal 0.182699 0.410348 -0.893441
    outer loop
      vertex 2.26 -4.74582 -30
      vertex 3.25 -3.03109 -29.01
      vertex 3.2999 -5.20881 -30
    endloop
  endfacet
  facet normal -0.446721 0.0469564 -0.89344
    outer loop
      vertex 10.4792 -0.00727638 -30
      vertex 8.5 0 -29.01
      vertex 10.48 0 -30
    endloop
  endfacet
  facet normal -0.446721 0.0469525 -0.893441
    outer loop
      vertex 8.5 0 -29.01
      vertex 10.4792 -0.00727638 -30
      vertex 8.42352 -0.727691 -29.01
    endloop
  endfacet
  facet normal -0.333807 -0.300561 -0.893441
    outer loop
      vertex 7.34196 2.60101 -29.01
      vertex 8.67173 4.067 -30
      vertex 7.83156 2.05725 -29.01
    endloop
  endfacet
  facet normal -0.333782 -0.300585 -0.893442
    outer loop
      vertex 8.67173 4.067 -30
      vertex 7.34196 2.60101 -29.01
      vertex 8.66684 4.07243 -30
    endloop
  endfacet
  facet normal 0.0933904 -0.439367 -0.89344
    outer loop
      vertex 4 5 -29.8234
      vertex 4.42718 5.44998 -30
      vertex 4.47448 5 -29.7738
    endloop
  endfacet
  facet normal 0.0933903 -0.439367 -0.89344
    outer loop
      vertex 4.42718 5.44998 -30
      vertex 4 5 -29.8234
      vertex 3.31374 5.21331 -30
    endloop
  endfacet
  facet normal 0.0933912 -0.439365 -0.893441
    outer loop
      vertex 4 4.31289 -29.4855
      vertex 3.31374 5.21331 -30
      vertex 4 5 -29.8234
    endloop
  endfacet
  facet normal 0.333807 -0.300561 -0.893441
    outer loop
      vertex 1.32827 4.067 -30
      vertex 2.65804 2.60101 -29.01
      vertex 2.16844 2.05725 -29.01
    endloop
  endfacet
  facet normal 0.333797 -0.30057 -0.893441
    outer loop
      vertex 2.65804 2.60101 -29.01
      vertex 1.32827 4.067 -30
      vertex 1.33316 4.07243 -30
    endloop
  endfacet
  facet normal 0.333807 -0.300561 -0.893441
    outer loop
      vertex 0.566587 3.22106 -30
      vertex 1.32827 4.067 -30
      vertex 2.16844 2.05725 -29.01
    endloop
  endfacet
  facet normal 0.446721 -0.0469525 -0.893441
    outer loop
      vertex -0.479237 0.00727638 -30
      vertex -0.36025 1.13936 -30
      vertex 1.57648 0.727691 -29.01
    endloop
  endfacet
  facet normal 0.427197 0.138805 -0.893441
    outer loop
      vertex -0.00849122 -2.22196 -30
      vertex -0.36025 -1.13936 -30
      vertex 1.57648 -0.727691 -29.01
    endloop
  endfacet
  facet normal 0.427198 0.138803 -0.893441
    outer loop
      vertex -0.00849122 -2.22196 -30
      vertex 1.80259 -1.42358 -29.01
      vertex -0.00623031 -2.22892 -30
    endloop
  endfacet
  facet normal 0.427197 0.138805 -0.893441
    outer loop
      vertex 1.80259 -1.42358 -29.01
      vertex -0.00849122 -2.22196 -30
      vertex 1.57648 -0.727691 -29.01
    endloop
  endfacet
  facet normal 0.389003 0.22459 -0.893441
    outer loop
      vertex -0.00257208 -2.23525 -30
      vertex 1.80259 -1.42358 -29.01
      vertex 2.16844 -2.05725 -29.01
    endloop
  endfacet
  facet normal 0.389002 0.224591 -0.893441
    outer loop
      vertex 1.80259 -1.42358 -29.01
      vertex -0.00257208 -2.23525 -30
      vertex -0.00623031 -2.22892 -30
    endloop
  endfacet
  facet normal 0.389002 0.224591 -0.893441
    outer loop
      vertex 0.566587 -3.22106 -30
      vertex -0.00257208 -2.23525 -30
      vertex 2.16844 -2.05725 -29.01
    endloop
  endfacet
  facet normal 0.264022 0.363396 -0.893441
    outer loop
      vertex 2.26 -4.74582 -30
      vertex 1.33908 -4.07674 -30
      vertex 3.25 -3.03109 -29.01
    endloop
  endfacet
  facet normal 0 0.449183 -0.89344
    outer loop
      vertex 5.57282 -5.44998 -30
      vertex 4.47448 -5 -29.7738
      vertex 5.52552 -5 -29.7738
    endloop
  endfacet
  facet normal 0 0.449183 -0.89344
    outer loop
      vertex 4.47448 -5 -29.7738
      vertex 5.57282 -5.44998 -30
      vertex 4.42718 -5.44998 -30
    endloop
  endfacet
  facet normal 0.0933904 0.439367 -0.89344
    outer loop
      vertex 4.42718 -5.44998 -30
      vertex 4 -5 -29.8234
      vertex 4.47448 -5 -29.7738
    endloop
  endfacet
  facet normal 0.0933912 0.439365 -0.893441
    outer loop
      vertex 4 -5 -29.8234
      vertex 3.31374 -5.21331 -30
      vertex 4 -4.31289 -29.4855
    endloop
  endfacet
  facet normal 0.0933903 0.439367 -0.89344
    outer loop
      vertex 3.31374 -5.21331 -30
      vertex 4 -5 -29.8234
      vertex 4.42718 -5.44998 -30
    endloop
  endfacet
  facet normal -0.264022 0.363396 -0.893441
    outer loop
      vertex 7.74 -4.74582 -30
      vertex 6.75 -3.03109 -29.01
      vertex 8.66092 -4.07674 -30
    endloop
  endfacet
  facet normal -0.446721 -0.0469564 -0.89344
    outer loop
      vertex 8.5 0 -29.01
      vertex 10.4792 0.00727638 -30
      vertex 10.48 0 -30
    endloop
  endfacet
  facet normal -0.446721 -0.0469525 -0.893441
    outer loop
      vertex 10.4792 0.00727638 -30
      vertex 8.5 0 -29.01
      vertex 8.42352 0.727691 -29.01
    endloop
  endfacet
  facet normal -0.389002 -0.224591 -0.893441
    outer loop
      vertex 7.83156 2.05725 -29.01
      vertex 9.43341 3.22106 -30
      vertex 10.0026 2.23525 -30
    endloop
  endfacet
  facet normal -0.333807 -0.300561 -0.893441
    outer loop
      vertex 7.83156 2.05725 -29.01
      vertex 8.67173 4.067 -30
      vertex 9.43341 3.22106 -30
    endloop
  endfacet
  facet normal -0.264022 -0.363396 -0.893441
    outer loop
      vertex 6.75 3.03109 -29.01
      vertex 7.74 4.74582 -30
      vertex 8.66092 4.07674 -30
    endloop
  endfacet
  facet normal -0.0933913 -0.439365 -0.893441
    outer loop
      vertex 6 5 -29.8234
      vertex 6.68626 5.21331 -30
      vertex 6 4.31289 -29.4855
    endloop
  endfacet
  facet normal -0.0933903 -0.439367 -0.89344
    outer loop
      vertex 6 5 -29.8234
      vertex 5.57282 5.44998 -30
      vertex 6.68626 5.21331 -30
    endloop
  endfacet
  facet normal -0.0933904 -0.439367 -0.89344
    outer loop
      vertex 5.57282 5.44998 -30
      vertex 6 5 -29.8234
      vertex 5.52552 5 -29.7738
    endloop
  endfacet
  facet normal -0.427197 -0.138805 -0.893441
    outer loop
      vertex 8.19741 1.42358 -29.01
      vertex 10.0085 2.22196 -30
      vertex 8.42352 0.727691 -29.01
    endloop
  endfacet
  facet normal -0.427192 -0.138816 -0.893441
    outer loop
      vertex 10.0085 2.22196 -30
      vertex 8.19741 1.42358 -29.01
      vertex 10.0062 2.22892 -30
    endloop
  endfacet
  facet normal 0.264022 -0.363396 -0.893441
    outer loop
      vertex 1.33908 4.07674 -30
      vertex 2.26 4.74582 -30
      vertex 3.25 3.03109 -29.01
    endloop
  endfacet
  facet normal 0.264022 -0.363395 -0.893441
    outer loop
      vertex 2.65804 2.60101 -29.01
      vertex 1.33908 4.07674 -30
      vertex 3.25 3.03109 -29.01
    endloop
  endfacet
  facet normal 0.264023 -0.363394 -0.893441
    outer loop
      vertex 1.33908 4.07674 -30
      vertex 2.65804 2.60101 -29.01
      vertex 1.33316 4.07243 -30
    endloop
  endfacet
  facet normal 0.389002 -0.224591 -0.893441
    outer loop
      vertex -0.00257208 2.23525 -30
      vertex 0.566587 3.22106 -30
      vertex 2.16844 2.05725 -29.01
    endloop
  endfacet
  facet normal 0.427197 -0.138805 -0.893441
    outer loop
      vertex -0.00849122 2.22196 -30
      vertex 1.80259 1.42358 -29.01
      vertex 1.57648 0.727691 -29.01
    endloop
  endfacet
  facet normal 0.427198 -0.138803 -0.893441
    outer loop
      vertex 1.80259 1.42358 -29.01
      vertex -0.00849122 2.22196 -30
      vertex -0.00623031 2.22892 -30
    endloop
  endfacet
  facet normal 0.446721 0.0469525 -0.893441
    outer loop
      vertex -0.479237 -0.00727638 -30
      vertex 1.5 0 -29.01
      vertex 1.57648 -0.727691 -29.01
    endloop
  endfacet
  facet normal 0.446721 0.0469528 -0.893441
    outer loop
      vertex 1.5 0 -29.01
      vertex -0.479237 -0.00727638 -30
      vertex -0.480001 0 -30
    endloop
  endfacet
  facet normal 0.446721 0.0469525 -0.893441
    outer loop
      vertex -0.36025 -1.13936 -30
      vertex -0.479237 -0.00727638 -30
      vertex 1.57648 -0.727691 -29.01
    endloop
  endfacet
  facet normal 0.333807 0.300561 -0.893441
    outer loop
      vertex 1.32827 -4.067 -30
      vertex 0.566587 -3.22106 -30
      vertex 2.16844 -2.05725 -29.01
    endloop
  endfacet
  facet normal 0.333797 0.30057 -0.893441
    outer loop
      vertex 1.32827 -4.067 -30
      vertex 2.65804 -2.60101 -29.01
      vertex 1.33316 -4.07243 -30
    endloop
  endfacet
  facet normal 0.333807 0.300561 -0.893441
    outer loop
      vertex 2.65804 -2.60101 -29.01
      vertex 1.32827 -4.067 -30
      vertex 2.16844 -2.05725 -29.01
    endloop
  endfacet
  facet normal -0.427197 0.138804 -0.893441
    outer loop
      vertex 10.0085 -2.22196 -30
      vertex 8.42352 -0.727691 -29.01
      vertex 10.3602 -1.13936 -30
    endloop
  endfacet
  facet normal -0.446721 0.0469525 -0.893441
    outer loop
      vertex 10.3602 -1.13936 -30
      vertex 8.42352 -0.727691 -29.01
      vertex 10.4792 -0.00727638 -30
    endloop
  endfacet
  facet normal -0.333782 0.300585 -0.893442
    outer loop
      vertex 7.34196 -2.60101 -29.01
      vertex 8.67173 -4.067 -30
      vertex 8.66684 -4.07243 -30
    endloop
  endfacet
  facet normal -0.333807 0.300561 -0.893441
    outer loop
      vertex 8.67173 -4.067 -30
      vertex 7.34196 -2.60101 -29.01
      vertex 7.83156 -2.05725 -29.01
    endloop
  endfacet
  facet normal -0.0933903 0.439367 -0.89344
    outer loop
      vertex 5.57282 -5.44998 -30
      vertex 6 -5 -29.8234
      vertex 6.68626 -5.21331 -30
    endloop
  endfacet
  facet normal -0.0933904 0.439367 -0.89344
    outer loop
      vertex 6 -5 -29.8234
      vertex 5.57282 -5.44998 -30
      vertex 5.52552 -5 -29.7738
    endloop
  endfacet
  facet normal -0.0933913 0.439365 -0.893441
    outer loop
      vertex 6.68626 -5.21331 -30
      vertex 6 -5 -29.8234
      vertex 6 -4.31289 -29.4855
    endloop
  endfacet
  facet normal -0.389001 -0.224595 -0.89344
    outer loop
      vertex 8.19741 1.42358 -29.01
      vertex 10.0026 2.23525 -30
      vertex 10.0062 2.22892 -30
    endloop
  endfacet
  facet normal -0.389003 -0.22459 -0.893441
    outer loop
      vertex 10.0026 2.23525 -30
      vertex 8.19741 1.42358 -29.01
      vertex 7.83156 2.05725 -29.01
    endloop
  endfacet
  facet normal -0.264043 -0.363378 -0.893442
    outer loop
      vertex 7.34196 2.60101 -29.01
      vertex 8.66092 4.07674 -30
      vertex 8.66684 4.07243 -30
    endloop
  endfacet
  facet normal -0.264022 -0.363395 -0.893441
    outer loop
      vertex 8.66092 4.07674 -30
      vertex 7.34196 2.60101 -29.01
      vertex 6.75 3.03109 -29.01
    endloop
  endfacet
  facet normal -0.446721 -0.0469525 -0.893441
    outer loop
      vertex 8.42352 0.727691 -29.01
      vertex 10.3602 1.13936 -30
      vertex 10.4792 0.00727638 -30
    endloop
  endfacet
  facet normal -0.427197 -0.138804 -0.893441
    outer loop
      vertex 8.42352 0.727691 -29.01
      vertex 10.0085 2.22196 -30
      vertex 10.3602 1.13936 -30
    endloop
  endfacet
  facet normal 0.182704 -0.410346 -0.89344
    outer loop
      vertex 3.91844 3.3287 -29.01
      vertex 3.2999 5.20881 -30
      vertex 3.30659 5.21179 -30
    endloop
  endfacet
  facet normal 0.182698 -0.410348 -0.893441
    outer loop
      vertex 3.2999 5.20881 -30
      vertex 3.91844 3.3287 -29.01
      vertex 3.25 3.03109 -29.01
    endloop
  endfacet
  facet normal 0.389003 -0.22459 -0.893441
    outer loop
      vertex 1.80259 1.42358 -29.01
      vertex -0.00257208 2.23525 -30
      vertex 2.16844 2.05725 -29.01
    endloop
  endfacet
  facet normal 0.389002 -0.224591 -0.893441
    outer loop
      vertex -0.00257208 2.23525 -30
      vertex 1.80259 1.42358 -29.01
      vertex -0.00623031 2.22892 -30
    endloop
  endfacet
  facet normal 0 0 -1
    outer loop
      vertex 3.91844 -3.3287 -29.01
      vertex 4 -3.06162 -29.01
      vertex 4 -3.34603 -29.01
    endloop
  endfacet
  facet normal 0 0 -1
    outer loop
      vertex 3.91844 -3.3287 -29.01
      vertex 3.50479 -2.88563 -29.01
      vertex 4 -3.06162 -29.01
    endloop
  endfacet
  facet normal 0 0 -1
    outer loop
      vertex 3.25 -3.03109 -29.01
      vertex 3.50479 -2.88563 -29.01
      vertex 3.91844 -3.3287 -29.01
    endloop
  endfacet
  facet normal 0 0 -1
    outer loop
      vertex 3.25 -3.03109 -29.01
      vertex 2.7817 -2.37522 -29.01
      vertex 3.50479 -2.88563 -29.01
    endloop
  endfacet
  facet normal 0 0 -1
    outer loop
      vertex 2.65804 -2.60101 -29.01
      vertex 2.7817 -2.37522 -29.01
      vertex 3.25 -3.03109 -29.01
    endloop
  endfacet
  facet normal 0 0 -1
    outer loop
      vertex 2.16844 -2.05725 -29.01
      vertex 2.7817 -2.37522 -29.01
      vertex 2.65804 -2.60101 -29.01
    endloop
  endfacet
  facet normal 0 0 -1
    outer loop
      vertex 2.7817 -2.37522 -29.01
      vertex 2.16844 -2.05725 -29.01
      vertex 2.22314 -1.68865 -29.01
    endloop
  endfacet
  facet normal 0 0 -1
    outer loop
      vertex 1.80259 -1.42358 -29.01
      vertex 2.22314 -1.68865 -29.01
      vertex 2.16844 -2.05725 -29.01
    endloop
  endfacet
  facet normal 0 0 -1
    outer loop
      vertex 2.22314 -1.68865 -29.01
      vertex 1.80259 -1.42358 -29.01
      vertex 1.87052 -0.876839 -29.01
    endloop
  endfacet
  facet normal 0 0 -1
    outer loop
      vertex 1.57648 -0.727691 -29.01
      vertex 1.87052 -0.876839 -29.01
      vertex 1.80259 -1.42358 -29.01
    endloop
  endfacet
  facet normal 0 0 -1
    outer loop
      vertex 1.87052 -0.876839 -29.01
      vertex 1.57648 -0.727691 -29.01
      vertex 1.75 0 -29.01
    endloop
  endfacet
  facet normal 0 0 -1
    outer loop
      vertex 4 3.06162 -29.01
      vertex 3.91844 3.3287 -29.01
      vertex 4 3.34603 -29.01
    endloop
  endfacet
  facet normal 0 0 -1
    outer loop
      vertex 3.50479 2.88563 -29.01
      vertex 3.91844 3.3287 -29.01
      vertex 4 3.06162 -29.01
    endloop
  endfacet
  facet normal 0 0 -1
    outer loop
      vertex 3.50479 2.88563 -29.01
      vertex 3.25 3.03109 -29.01
      vertex 3.91844 3.3287 -29.01
    endloop
  endfacet
  facet normal 0 0 -1
    outer loop
      vertex 2.7817 2.37522 -29.01
      vertex 3.25 3.03109 -29.01
      vertex 3.50479 2.88563 -29.01
    endloop
  endfacet
  facet normal 0 0 -1
    outer loop
      vertex 2.7817 2.37522 -29.01
      vertex 2.65804 2.60101 -29.01
      vertex 3.25 3.03109 -29.01
    endloop
  endfacet
  facet normal 0 0 -1
    outer loop
      vertex 2.16844 2.05725 -29.01
      vertex 2.7817 2.37522 -29.01
      vertex 2.22314 1.68865 -29.01
    endloop
  endfacet
  facet normal -0 0 -1
    outer loop
      vertex 2.7817 2.37522 -29.01
      vertex 2.16844 2.05725 -29.01
      vertex 2.65804 2.60101 -29.01
    endloop
  endfacet
  facet normal 0 0 -1
    outer loop
      vertex 1.80259 1.42358 -29.01
      vertex 2.22314 1.68865 -29.01
      vertex 1.87052 0.876839 -29.01
    endloop
  endfacet
  facet normal -0 0 -1
    outer loop
      vertex 2.22314 1.68865 -29.01
      vertex 1.80259 1.42358 -29.01
      vertex 2.16844 2.05725 -29.01
    endloop
  endfacet
  facet normal 0 0 -1
    outer loop
      vertex 1.57648 0.727691 -29.01
      vertex 1.87052 0.876839 -29.01
      vertex 1.75 0 -29.01
    endloop
  endfacet
  facet normal 0 0 -1
    outer loop
      vertex 1.5 0 -29.01
      vertex 1.75 0 -29.01
      vertex 1.57648 -0.727691 -29.01
    endloop
  endfacet
  facet normal -0 0 -1
    outer loop
      vertex 1.87052 0.876839 -29.01
      vertex 1.57648 0.727691 -29.01
      vertex 1.80259 1.42358 -29.01
    endloop
  endfacet
  facet normal 0 0 -1
    outer loop
      vertex 1.75 0 -29.01
      vertex 1.5 0 -29.01
      vertex 1.57648 0.727691 -29.01
    endloop
  endfacet
  facet normal 0 0 -1
    outer loop
      vertex 8.21973 -0.442541 -29.01
      vertex 8.5 0 -29.01
      vertex 8.42352 -0.727691 -29.01
    endloop
  endfacet
  facet normal 0 0 -1
    outer loop
      vertex 8.21973 0.442541 -29.01
      vertex 8.5 0 -29.01
      vertex 8.21973 -0.442541 -29.01
    endloop
  endfacet
  facet normal 0 0 -1
    outer loop
      vertex 7.98094 -1.2948 -29.01
      vertex 8.42352 -0.727691 -29.01
      vertex 8.19741 -1.42358 -29.01
    endloop
  endfacet
  facet normal -0 0 -1
    outer loop
      vertex 8.42352 -0.727691 -29.01
      vertex 7.98094 -1.2948 -29.01
      vertex 8.21973 -0.442541 -29.01
    endloop
  endfacet
  facet normal 0 0 -1
    outer loop
      vertex 7.83156 -2.05725 -29.01
      vertex 7.98094 -1.2948 -29.01
      vertex 8.19741 -1.42358 -29.01
    endloop
  endfacet
  facet normal 0 0 -1
    outer loop
      vertex 7.83156 -2.05725 -29.01
      vertex 7.52106 -2.05103 -29.01
      vertex 7.98094 -1.2948 -29.01
    endloop
  endfacet
  facet normal 0 0 -1
    outer loop
      vertex 7.34196 -2.60101 -29.01
      vertex 7.52106 -2.05103 -29.01
      vertex 7.83156 -2.05725 -29.01
    endloop
  endfacet
  facet normal -0 0 -1
    outer loop
      vertex 7.34196 -2.60101 -29.01
      vertex 6.87421 -2.65515 -29.01
      vertex 7.52106 -2.05103 -29.01
    endloop
  endfacet
  facet normal 0 0 -1
    outer loop
      vertex 6.75 -3.03109 -29.01
      vertex 6.87421 -2.65515 -29.01
      vertex 7.34196 -2.60101 -29.01
    endloop
  endfacet
  facet normal -0 0 -1
    outer loop
      vertex 6.75 -3.03109 -29.01
      vertex 6.08836 -3.06235 -29.01
      vertex 6.87421 -2.65515 -29.01
    endloop
  endfacet
  facet normal 0 0 -1
    outer loop
      vertex 6.08156 -3.3287 -29.01
      vertex 6.08836 -3.06235 -29.01
      vertex 6.75 -3.03109 -29.01
    endloop
  endfacet
  facet normal 0 0 -1
    outer loop
      vertex 6 -3.08071 -29.01
      vertex 6.08156 -3.3287 -29.01
      vertex 6 -3.34603 -29.01
    endloop
  endfacet
  facet normal 0 0 -1
    outer loop
      vertex 6.08156 -3.3287 -29.01
      vertex 6 -3.08071 -29.01
      vertex 6.08836 -3.06235 -29.01
    endloop
  endfacet
  facet normal 0 0 -1
    outer loop
      vertex 8.5 0 -29.01
      vertex 8.21973 0.442541 -29.01
      vertex 8.42352 0.727691 -29.01
    endloop
  endfacet
  facet normal 0 0 -1
    outer loop
      vertex 7.98094 1.2948 -29.01
      vertex 8.42352 0.727691 -29.01
      vertex 8.21973 0.442541 -29.01
    endloop
  endfacet
  facet normal 0 0 -1
    outer loop
      vertex 8.42352 0.727691 -29.01
      vertex 7.98094 1.2948 -29.01
      vertex 8.19741 1.42358 -29.01
    endloop
  endfacet
  facet normal 0 0 -1
    outer loop
      vertex 7.98094 1.2948 -29.01
      vertex 7.83156 2.05725 -29.01
      vertex 8.19741 1.42358 -29.01
    endloop
  endfacet
  facet normal 0 0 -1
    outer loop
      vertex 7.52106 2.05103 -29.01
      vertex 7.83156 2.05725 -29.01
      vertex 7.98094 1.2948 -29.01
    endloop
  endfacet
  facet normal 0 0 -1
    outer loop
      vertex 7.52106 2.05103 -29.01
      vertex 7.34196 2.60101 -29.01
      vertex 7.83156 2.05725 -29.01
    endloop
  endfacet
  facet normal 0 0 -1
    outer loop
      vertex 6.87421 2.65515 -29.01
      vertex 7.34196 2.60101 -29.01
      vertex 7.52106 2.05103 -29.01
    endloop
  endfacet
  facet normal 0 0 -1
    outer loop
      vertex 6.87421 2.65515 -29.01
      vertex 6.75 3.03109 -29.01
      vertex 7.34196 2.60101 -29.01
    endloop
  endfacet
  facet normal 0 0 -1
    outer loop
      vertex 6.08836 3.06235 -29.01
      vertex 6.75 3.03109 -29.01
      vertex 6.87421 2.65515 -29.01
    endloop
  endfacet
  facet normal 0 0 -1
    outer loop
      vertex 6.08836 3.06235 -29.01
      vertex 6.08156 3.3287 -29.01
      vertex 6.75 3.03109 -29.01
    endloop
  endfacet
  facet normal 0 0 -1
    outer loop
      vertex 6 3.08071 -29.01
      vertex 6.08156 3.3287 -29.01
      vertex 6.08836 3.06235 -29.01
    endloop
  endfacet
  facet normal -0 0 -1
    outer loop
      vertex 6.08156 3.3287 -29.01
      vertex 6 3.08071 -29.01
      vertex 6 3.34603 -29.01
    endloop
  endfacet
  facet normal -0.389002 0.224591 -0.893441
    outer loop
      vertex 9.43341 -3.22106 -30
      vertex 7.83156 -2.05725 -29.01
      vertex 10.0026 -2.23525 -30
    endloop
  endfacet
  facet normal -0.333807 0.300561 -0.893441
    outer loop
      vertex 8.67173 -4.067 -30
      vertex 7.83156 -2.05725 -29.01
      vertex 9.43341 -3.22106 -30
    endloop
  endfacet
  facet normal -0.264043 0.363378 -0.893442
    outer loop
      vertex 8.66092 -4.07674 -30
      vertex 7.34196 -2.60101 -29.01
      vertex 8.66684 -4.07243 -30
    endloop
  endfacet
  facet normal -0.264022 0.363395 -0.893441
    outer loop
      vertex 7.34196 -2.60101 -29.01
      vertex 8.66092 -4.07674 -30
      vertex 6.75 -3.03109 -29.01
    endloop
  endfacet
  facet normal -0.182699 0.410348 -0.893441
    outer loop
      vertex 6.7001 -5.20881 -30
      vertex 6.75 -3.03109 -29.01
      vertex 7.74 -4.74582 -30
    endloop
  endfacet
  facet normal -0.0933833 0.43937 -0.893439
    outer loop
      vertex 6 -4.31289 -29.4855
      vertex 6.69341 -5.21179 -30
      vertex 6.68626 -5.21331 -30
    endloop
  endfacet
  facet normal -0.0933889 0.439366 -0.893441
    outer loop
      vertex 6.69341 -5.21179 -30
      vertex 6 -4.31289 -29.4855
      vertex 6.08156 -3.3287 -29.01
    endloop
  endfacet
  facet normal -0.0933899 0.439366 -0.89344
    outer loop
      vertex 6.08156 -3.3287 -29.01
      vertex 6 -4.31289 -29.4855
      vertex 6 -3.34603 -29.01
    endloop
  endfacet
  facet normal -0.182704 0.410346 -0.89344
    outer loop
      vertex 6.08156 -3.3287 -29.01
      vertex 6.7001 -5.20881 -30
      vertex 6.69341 -5.21179 -30
    endloop
  endfacet
  facet normal -0.182698 0.410348 -0.893441
    outer loop
      vertex 6.7001 -5.20881 -30
      vertex 6.08156 -3.3287 -29.01
      vertex 6.75 -3.03109 -29.01
    endloop
  endfacet
  facet normal -0.182699 -0.410348 -0.893441
    outer loop
      vertex 6.75 3.03109 -29.01
      vertex 6.7001 5.20881 -30
      vertex 7.74 4.74582 -30
    endloop
  endfacet
  facet normal 0 -0.449183 -0.89344
    outer loop
      vertex 4.47448 5 -29.7738
      vertex 5.57282 5.44998 -30
      vertex 5.52552 5 -29.7738
    endloop
  endfacet
  facet normal -0 -0.449183 -0.89344
    outer loop
      vertex 5.57282 5.44998 -30
      vertex 4.47448 5 -29.7738
      vertex 4.42718 5.44998 -30
    endloop
  endfacet
  facet normal 0.0933899 -0.439366 -0.89344
    outer loop
      vertex 3.91844 3.3287 -29.01
      vertex 4 4.31289 -29.4855
      vertex 4 3.34603 -29.01
    endloop
  endfacet
  facet normal 0.0933889 -0.439366 -0.893441
    outer loop
      vertex 3.30659 5.21179 -30
      vertex 4 4.31289 -29.4855
      vertex 3.91844 3.3287 -29.01
    endloop
  endfacet
  facet normal 0.093386 -0.439368 -0.89344
    outer loop
      vertex 4 4.31289 -29.4855
      vertex 3.30659 5.21179 -30
      vertex 3.31374 5.21331 -30
    endloop
  endfacet
  facet normal 0.182704 0.410346 -0.89344
    outer loop
      vertex 3.2999 -5.20881 -30
      vertex 3.91844 -3.3287 -29.01
      vertex 3.30659 -5.21179 -30
    endloop
  endfacet
  facet normal 0.182698 0.410348 -0.893441
    outer loop
      vertex 3.91844 -3.3287 -29.01
      vertex 3.2999 -5.20881 -30
      vertex 3.25 -3.03109 -29.01
    endloop
  endfacet
  facet normal 0.0933899 0.439366 -0.89344
    outer loop
      vertex 4 -4.31289 -29.4855
      vertex 3.91844 -3.3287 -29.01
      vertex 4 -3.34603 -29.01
    endloop
  endfacet
  facet normal 0.093386 0.439368 -0.89344
    outer loop
      vertex 3.30659 -5.21179 -30
      vertex 4 -4.31289 -29.4855
      vertex 3.31374 -5.21331 -30
    endloop
  endfacet
  facet normal 0.0933889 0.439366 -0.893441
    outer loop
      vertex 4 -4.31289 -29.4855
      vertex 3.30659 -5.21179 -30
      vertex 3.91844 -3.3287 -29.01
    endloop
  endfacet
  facet normal -0.389001 0.224595 -0.89344
    outer loop
      vertex 10.0026 -2.23525 -30
      vertex 8.19741 -1.42358 -29.01
      vertex 10.0062 -2.22892 -30
    endloop
  endfacet
  facet normal -0.389003 0.22459 -0.893441
    outer loop
      vertex 8.19741 -1.42358 -29.01
      vertex 10.0026 -2.23525 -30
      vertex 7.83156 -2.05725 -29.01
    endloop
  endfacet
  facet normal -0.427192 0.138816 -0.893441
    outer loop
      vertex 8.19741 -1.42358 -29.01
      vertex 10.0085 -2.22196 -30
      vertex 10.0062 -2.22892 -30
    endloop
  endfacet
  facet normal -0.427197 0.138805 -0.893441
    outer loop
      vertex 10.0085 -2.22196 -30
      vertex 8.19741 -1.42358 -29.01
      vertex 8.42352 -0.727691 -29.01
    endloop
  endfacet
  facet normal -0.182698 -0.410348 -0.893441
    outer loop
      vertex 6.08156 3.3287 -29.01
      vertex 6.7001 5.20881 -30
      vertex 6.75 3.03109 -29.01
    endloop
  endfacet
  facet normal -0.182704 -0.410346 -0.89344
    outer loop
      vertex 6.7001 5.20881 -30
      vertex 6.08156 3.3287 -29.01
      vertex 6.69341 5.21179 -30
    endloop
  endfacet
  facet normal -0.0933889 -0.439366 -0.893441
    outer loop
      vertex 6 4.31289 -29.4855
      vertex 6.69341 5.21179 -30
      vertex 6.08156 3.3287 -29.01
    endloop
  endfacet
  facet normal -0.0933899 -0.439366 -0.89344
    outer loop
      vertex 6 4.31289 -29.4855
      vertex 6.08156 3.3287 -29.01
      vertex 6 3.34603 -29.01
    endloop
  endfacet
  facet normal -0.0933833 -0.43937 -0.893439
    outer loop
      vertex 6.69341 5.21179 -30
      vertex 6 4.31289 -29.4855
      vertex 6.68626 5.21331 -30
    endloop
  endfacet
endsolid OpenSCAD_Model
