solid OpenSCAD_Model
  facet normal -1 0 0
    outer loop
      vertex -28 0 0
      vertex -28 19 15
      vertex -28 19 0
    endloop
  endfacet
  facet normal -1 -0 0
    outer loop
      vertex -28 19 15
      vertex -28 0 0
      vertex -28 0 15
    endloop
  endfacet
  facet normal -0 0 1
    outer loop
      vertex -23.8269 14.1477 15
      vertex -23.55 5 15
      vertex -23.55 15 15
    endloop
  endfacet
  facet normal 0 0 1
    outer loop
      vertex -23.8269 14.1477 15
      vertex -23.8269 5.85229 15
      vertex -23.55 5 15
    endloop
  endfacet
  facet normal -0 0 1
    outer loop
      vertex -24.5519 13.621 15
      vertex -23.8269 5.85229 15
      vertex -23.8269 14.1477 15
    endloop
  endfacet
  facet normal 0 0 1
    outer loop
      vertex -24.5519 13.621 15
      vertex -24.5519 6.37903 15
      vertex -23.8269 5.85229 15
    endloop
  endfacet
  facet normal -0 0 1
    outer loop
      vertex -25.4481 13.621 15
      vertex -24.5519 6.37903 15
      vertex -24.5519 13.621 15
    endloop
  endfacet
  facet normal 0 0 1
    outer loop
      vertex -25.4481 13.621 15
      vertex -25.4481 6.37903 15
      vertex -24.5519 6.37903 15
    endloop
  endfacet
  facet normal 0 0 1
    outer loop
      vertex -26.1731 14.1477 15
      vertex -25.4481 6.37903 15
      vertex -25.4481 13.621 15
    endloop
  endfacet
  facet normal 0 0 1
    outer loop
      vertex -26.1731 14.1477 15
      vertex -26.1731 5.85229 15
      vertex -25.4481 6.37903 15
    endloop
  endfacet
  facet normal 0 0 1
    outer loop
      vertex -26.45 15 15
      vertex -26.1731 5.85229 15
      vertex -26.1731 14.1477 15
    endloop
  endfacet
  facet normal 0 0 1
    outer loop
      vertex -26.1731 5.85229 15
      vertex -26.45 15 15
      vertex -26.45 5 15
    endloop
  endfacet
  facet normal -0 0 1
    outer loop
      vertex 20.5 21 15
      vertex 25.75 19 15
      vertex 25.75 32 15
    endloop
  endfacet
  facet normal 0 -0 1
    outer loop
      vertex 24.5519 16.379 15
      vertex 25.75 19 15
      vertex 20.5 21 15
    endloop
  endfacet
  facet normal 0 0 1
    outer loop
      vertex 25.75 19 15
      vertex 24.5519 16.379 15
      vertex 25.4481 16.379 15
    endloop
  endfacet
  facet normal 0 0 1
    outer loop
      vertex 24.5519 16.379 15
      vertex 20.5 21 15
      vertex 23.8269 15.8523 15
    endloop
  endfacet
  facet normal 0 0 1
    outer loop
      vertex 20.5 0 15
      vertex 23.55 15 15
      vertex 20.5 21 15
    endloop
  endfacet
  facet normal 0 0 1
    outer loop
      vertex 23.8269 15.8523 15
      vertex 20.5 21 15
      vertex 23.55 15 15
    endloop
  endfacet
  facet normal 0 0 1
    outer loop
      vertex 25.75 32 15
      vertex -20.5 21 15
      vertex 20.5 21 15
    endloop
  endfacet
  facet normal 0 0 1
    outer loop
      vertex -20.5 21 15
      vertex -23.55 15 15
      vertex -20.5 0 15
    endloop
  endfacet
  facet normal 0 0 1
    outer loop
      vertex -20.5 21 15
      vertex -23.8269 15.8523 15
      vertex -23.55 15 15
    endloop
  endfacet
  facet normal 0 0 1
    outer loop
      vertex -20.5 21 15
      vertex -24.5519 16.379 15
      vertex -23.8269 15.8523 15
    endloop
  endfacet
  facet normal -0 0 1
    outer loop
      vertex -25.75 19 15
      vertex -24.5519 16.379 15
      vertex -20.5 21 15
    endloop
  endfacet
  facet normal -0 0 1
    outer loop
      vertex -25.75 32 15
      vertex -20.5 21 15
      vertex 25.75 32 15
    endloop
  endfacet
  facet normal 0 0 1
    outer loop
      vertex -25.75 19 15
      vertex -20.5 21 15
      vertex -25.75 32 15
    endloop
  endfacet
  facet normal 0 0 1
    outer loop
      vertex -24.5519 16.379 15
      vertex -25.75 19 15
      vertex -25.4481 16.379 15
    endloop
  endfacet
  facet normal 0 0 1
    outer loop
      vertex -25.75 19 15
      vertex -26.1731 15.8523 15
      vertex -25.4481 16.379 15
    endloop
  endfacet
  facet normal -0 0 1
    outer loop
      vertex -28 19 15
      vertex -26.1731 15.8523 15
      vertex -25.75 19 15
    endloop
  endfacet
  facet normal 0 0 1
    outer loop
      vertex -26.45 15 15
      vertex -28 19 15
      vertex -26.45 5 15
    endloop
  endfacet
  facet normal 0 0 1
    outer loop
      vertex -26.1731 15.8523 15
      vertex -28 19 15
      vertex -26.45 15 15
    endloop
  endfacet
  facet normal -0 0 1
    outer loop
      vertex 26.1731 14.1477 15
      vertex 26.45 5 15
      vertex 26.45 15 15
    endloop
  endfacet
  facet normal 0 0 1
    outer loop
      vertex 26.1731 14.1477 15
      vertex 26.1731 5.85229 15
      vertex 26.45 5 15
    endloop
  endfacet
  facet normal -0 0 1
    outer loop
      vertex 25.4481 13.621 15
      vertex 26.1731 5.85229 15
      vertex 26.1731 14.1477 15
    endloop
  endfacet
  facet normal 0 0 1
    outer loop
      vertex 25.4481 13.621 15
      vertex 25.4481 6.37903 15
      vertex 26.1731 5.85229 15
    endloop
  endfacet
  facet normal -0 0 1
    outer loop
      vertex 24.5519 13.621 15
      vertex 25.4481 6.37903 15
      vertex 25.4481 13.621 15
    endloop
  endfacet
  facet normal 0 0 1
    outer loop
      vertex 24.5519 13.621 15
      vertex 24.5519 6.37903 15
      vertex 25.4481 6.37903 15
    endloop
  endfacet
  facet normal 0 0 1
    outer loop
      vertex 23.8269 14.1477 15
      vertex 24.5519 6.37903 15
      vertex 24.5519 13.621 15
    endloop
  endfacet
  facet normal 0 0 1
    outer loop
      vertex 23.8269 14.1477 15
      vertex 23.8269 5.85229 15
      vertex 24.5519 6.37903 15
    endloop
  endfacet
  facet normal 0 0 1
    outer loop
      vertex 23.55 15 15
      vertex 23.8269 5.85229 15
      vertex 23.8269 14.1477 15
    endloop
  endfacet
  facet normal 0 0 1
    outer loop
      vertex 23.8269 5.85229 15
      vertex 23.55 15 15
      vertex 23.55 5 15
    endloop
  endfacet
  facet normal 0 0 1
    outer loop
      vertex 26.45 5 15
      vertex 28 19 15
      vertex 26.45 15 15
    endloop
  endfacet
  facet normal 0 0 1
    outer loop
      vertex 28 19 15
      vertex 26.1731 15.8523 15
      vertex 26.45 15 15
    endloop
  endfacet
  facet normal -0 0 1
    outer loop
      vertex 25.75 19 15
      vertex 26.1731 15.8523 15
      vertex 28 19 15
    endloop
  endfacet
  facet normal 0 0 1
    outer loop
      vertex 26.1731 15.8523 15
      vertex 25.75 19 15
      vertex 25.4481 16.379 15
    endloop
  endfacet
  facet normal 0 0 1
    outer loop
      vertex 28 19 15
      vertex 26.45 5 15
      vertex 28 0 15
    endloop
  endfacet
  facet normal -0 0 1
    outer loop
      vertex 26.1731 4.14771 15
      vertex 28 0 15
      vertex 26.45 5 15
    endloop
  endfacet
  facet normal -0 0 1
    outer loop
      vertex 25.4481 3.62097 15
      vertex 28 0 15
      vertex 26.1731 4.14771 15
    endloop
  endfacet
  facet normal -0 0 1
    outer loop
      vertex 24.5519 3.62097 15
      vertex 28 0 15
      vertex 25.4481 3.62097 15
    endloop
  endfacet
  facet normal 0 0 1
    outer loop
      vertex 20.5 0 15
      vertex 24.5519 3.62097 15
      vertex 23.8269 4.14771 15
    endloop
  endfacet
  facet normal 0 0 1
    outer loop
      vertex 24.5519 3.62097 15
      vertex 20.5 0 15
      vertex 28 0 15
    endloop
  endfacet
  facet normal 0 0 1
    outer loop
      vertex 23.55 5 15
      vertex 20.5 0 15
      vertex 23.8269 4.14771 15
    endloop
  endfacet
  facet normal 0 0 1
    outer loop
      vertex 23.55 15 15
      vertex 20.5 0 15
      vertex 23.55 5 15
    endloop
  endfacet
  facet normal -0 0 1
    outer loop
      vertex -23.55 5 15
      vertex -20.5 0 15
      vertex -23.55 15 15
    endloop
  endfacet
  facet normal -0 0 1
    outer loop
      vertex -23.8269 4.14771 15
      vertex -20.5 0 15
      vertex -23.55 5 15
    endloop
  endfacet
  facet normal -0 0 1
    outer loop
      vertex -24.5519 3.62097 15
      vertex -20.5 0 15
      vertex -23.8269 4.14771 15
    endloop
  endfacet
  facet normal 0 0 1
    outer loop
      vertex -28 0 15
      vertex -24.5519 3.62097 15
      vertex -25.4481 3.62097 15
    endloop
  endfacet
  facet normal 0 0 1
    outer loop
      vertex -28 0 15
      vertex -25.4481 3.62097 15
      vertex -26.1731 4.14771 15
    endloop
  endfacet
  facet normal 0 0 1
    outer loop
      vertex -24.5519 3.62097 15
      vertex -28 0 15
      vertex -20.5 0 15
    endloop
  endfacet
  facet normal 0 0 1
    outer loop
      vertex -26.45 5 15
      vertex -28 0 15
      vertex -26.1731 4.14771 15
    endloop
  endfacet
  facet normal 0 0 1
    outer loop
      vertex -28 0 15
      vertex -26.45 5 15
      vertex -28 19 15
    endloop
  endfacet
  facet normal 1 -0 0
    outer loop
      vertex 28 0 15
      vertex 28 19 0
      vertex 28 19 15
    endloop
  endfacet
  facet normal 1 0 0
    outer loop
      vertex 28 19 0
      vertex 28 0 15
      vertex 28 0 0
    endloop
  endfacet
  facet normal 0 0 -1
    outer loop
      vertex -26.1731 15.8523 0
      vertex -25.75 19 0
      vertex -25.4481 16.379 0
    endloop
  endfacet
  facet normal 0 0 -1
    outer loop
      vertex -28 19 0
      vertex -26.1731 15.8523 0
      vertex -26.45 15 0
    endloop
  endfacet
  facet normal 0 0 -1
    outer loop
      vertex -26.1731 15.8523 0
      vertex -28 19 0
      vertex -25.75 19 0
    endloop
  endfacet
  facet normal 0 0 -1
    outer loop
      vertex -26.45 5 0
      vertex -28 19 0
      vertex -26.45 15 0
    endloop
  endfacet
  facet normal 0 0 -1
    outer loop
      vertex -23.8269 5.85229 0
      vertex -23.55 15 0
      vertex -23.55 5 0
    endloop
  endfacet
  facet normal 0 0 -1
    outer loop
      vertex -23.8269 5.85229 0
      vertex -23.8269 14.1477 0
      vertex -23.55 15 0
    endloop
  endfacet
  facet normal 0 0 -1
    outer loop
      vertex -24.5519 6.37903 0
      vertex -23.8269 14.1477 0
      vertex -23.8269 5.85229 0
    endloop
  endfacet
  facet normal 0 0 -1
    outer loop
      vertex -24.5519 6.37903 0
      vertex -24.5519 13.621 0
      vertex -23.8269 14.1477 0
    endloop
  endfacet
  facet normal 0 0 -1
    outer loop
      vertex -25.4481 6.37903 0
      vertex -24.5519 13.621 0
      vertex -24.5519 6.37903 0
    endloop
  endfacet
  facet normal 0 0 -1
    outer loop
      vertex -25.4481 6.37903 0
      vertex -25.4481 13.621 0
      vertex -24.5519 13.621 0
    endloop
  endfacet
  facet normal 0 0 -1
    outer loop
      vertex -26.1731 5.85229 0
      vertex -25.4481 13.621 0
      vertex -25.4481 6.37903 0
    endloop
  endfacet
  facet normal 0 0 -1
    outer loop
      vertex -26.1731 5.85229 0
      vertex -26.1731 14.1477 0
      vertex -25.4481 13.621 0
    endloop
  endfacet
  facet normal 0 0 -1
    outer loop
      vertex -26.45 5 0
      vertex -26.1731 14.1477 0
      vertex -26.1731 5.85229 0
    endloop
  endfacet
  facet normal -0 0 -1
    outer loop
      vertex -26.1731 14.1477 0
      vertex -26.45 5 0
      vertex -26.45 15 0
    endloop
  endfacet
  facet normal 0 0 -1
    outer loop
      vertex -23.55 15 0
      vertex -20.5 0 0
      vertex -23.55 5 0
    endloop
  endfacet
  facet normal 0 0 -1
    outer loop
      vertex -20.5 0 0
      vertex -23.8269 4.14771 0
      vertex -23.55 5 0
    endloop
  endfacet
  facet normal 0 0 -1
    outer loop
      vertex -20.5 0 0
      vertex -24.5519 3.62097 0
      vertex -23.8269 4.14771 0
    endloop
  endfacet
  facet normal 0 0 -1
    outer loop
      vertex -28 0 0
      vertex -24.5519 3.62097 0
      vertex -20.5 0 0
    endloop
  endfacet
  facet normal -0 0 -1
    outer loop
      vertex -24.5519 3.62097 0
      vertex -28 0 0
      vertex -25.4481 3.62097 0
    endloop
  endfacet
  facet normal 0 0 -1
    outer loop
      vertex -28 19 0
      vertex -26.45 5 0
      vertex -28 0 0
    endloop
  endfacet
  facet normal -0 0 -1
    outer loop
      vertex -26.1731 4.14771 0
      vertex -28 0 0
      vertex -26.45 5 0
    endloop
  endfacet
  facet normal -0 0 -1
    outer loop
      vertex -25.4481 3.62097 0
      vertex -28 0 0
      vertex -26.1731 4.14771 0
    endloop
  endfacet
  facet normal 0 0 -1
    outer loop
      vertex 26.1731 5.85229 0
      vertex 26.45 15 0
      vertex 26.45 5 0
    endloop
  endfacet
  facet normal 0 0 -1
    outer loop
      vertex 26.1731 5.85229 0
      vertex 26.1731 14.1477 0
      vertex 26.45 15 0
    endloop
  endfacet
  facet normal 0 0 -1
    outer loop
      vertex 25.4481 6.37903 0
      vertex 26.1731 14.1477 0
      vertex 26.1731 5.85229 0
    endloop
  endfacet
  facet normal 0 0 -1
    outer loop
      vertex 25.4481 6.37903 0
      vertex 25.4481 13.621 0
      vertex 26.1731 14.1477 0
    endloop
  endfacet
  facet normal 0 0 -1
    outer loop
      vertex 24.5519 6.37903 0
      vertex 25.4481 13.621 0
      vertex 25.4481 6.37903 0
    endloop
  endfacet
  facet normal 0 0 -1
    outer loop
      vertex 24.5519 6.37903 0
      vertex 24.5519 13.621 0
      vertex 25.4481 13.621 0
    endloop
  endfacet
  facet normal 0 0 -1
    outer loop
      vertex 23.8269 5.85229 0
      vertex 24.5519 13.621 0
      vertex 24.5519 6.37903 0
    endloop
  endfacet
  facet normal 0 0 -1
    outer loop
      vertex 23.8269 5.85229 0
      vertex 23.8269 14.1477 0
      vertex 24.5519 13.621 0
    endloop
  endfacet
  facet normal 0 0 -1
    outer loop
      vertex 23.55 5 0
      vertex 23.8269 14.1477 0
      vertex 23.8269 5.85229 0
    endloop
  endfacet
  facet normal -0 0 -1
    outer loop
      vertex 23.8269 14.1477 0
      vertex 23.55 5 0
      vertex 23.55 15 0
    endloop
  endfacet
  facet normal 0 0 -1
    outer loop
      vertex 28 0 0
      vertex 26.45 5 0
      vertex 28 19 0
    endloop
  endfacet
  facet normal 0 0 -1
    outer loop
      vertex 28 0 0
      vertex 26.1731 4.14771 0
      vertex 26.45 5 0
    endloop
  endfacet
  facet normal 0 0 -1
    outer loop
      vertex 28 0 0
      vertex 25.4481 3.62097 0
      vertex 26.1731 4.14771 0
    endloop
  endfacet
  facet normal 0 0 -1
    outer loop
      vertex 28 0 0
      vertex 24.5519 3.62097 0
      vertex 25.4481 3.62097 0
    endloop
  endfacet
  facet normal 0 0 -1
    outer loop
      vertex 20.5 0 0
      vertex 24.5519 3.62097 0
      vertex 28 0 0
    endloop
  endfacet
  facet normal -0 0 -1
    outer loop
      vertex 23.55 5 0
      vertex 20.5 0 0
      vertex 23.55 15 0
    endloop
  endfacet
  facet normal -0 0 -1
    outer loop
      vertex 23.8269 4.14771 0
      vertex 20.5 0 0
      vertex 23.55 5 0
    endloop
  endfacet
  facet normal -0 0 -1
    outer loop
      vertex 24.5519 3.62097 0
      vertex 20.5 0 0
      vertex 23.8269 4.14771 0
    endloop
  endfacet
  facet normal 0 0 -1
    outer loop
      vertex 26.45 15 0
      vertex 28 19 0
      vertex 26.45 5 0
    endloop
  endfacet
  facet normal 0 0 -1
    outer loop
      vertex 26.1731 15.8523 0
      vertex 28 19 0
      vertex 26.45 15 0
    endloop
  endfacet
  facet normal 0 0 -1
    outer loop
      vertex 26.1731 15.8523 0
      vertex 25.75 19 0
      vertex 28 19 0
    endloop
  endfacet
  facet normal 0 0 -1
    outer loop
      vertex 25.4481 16.379 0
      vertex 25.75 19 0
      vertex 26.1731 15.8523 0
    endloop
  endfacet
  facet normal 0 0 -1
    outer loop
      vertex 24.5519 16.379 0
      vertex 25.75 19 0
      vertex 25.4481 16.379 0
    endloop
  endfacet
  facet normal -0 0 -1
    outer loop
      vertex 25.75 19 0
      vertex 24.5519 16.379 0
      vertex 20.5 21 0
    endloop
  endfacet
  facet normal 0 0 -1
    outer loop
      vertex 20.5 21 0
      vertex 24.5519 16.379 0
      vertex 23.8269 15.8523 0
    endloop
  endfacet
  facet normal 0 0 -1
    outer loop
      vertex 20.5 21 0
      vertex 23.8269 15.8523 0
      vertex 23.55 15 0
    endloop
  endfacet
  facet normal 0 0 -1
    outer loop
      vertex 20.5 21 0
      vertex 23.55 15 0
      vertex 20.5 0 0
    endloop
  endfacet
  facet normal 0 0 -1
    outer loop
      vertex 25.75 19 0
      vertex 20.5 21 0
      vertex 25.75 32 0
    endloop
  endfacet
  facet normal 0 0 -1
    outer loop
      vertex -20.5 21 0
      vertex 25.75 32 0
      vertex 20.5 21 0
    endloop
  endfacet
  facet normal 0 0 -1
    outer loop
      vertex -20.5 0 0
      vertex -23.55 15 0
      vertex -20.5 21 0
    endloop
  endfacet
  facet normal 0 0 -1
    outer loop
      vertex -23.8269 15.8523 0
      vertex -20.5 21 0
      vertex -23.55 15 0
    endloop
  endfacet
  facet normal 0 0 -1
    outer loop
      vertex -24.5519 16.379 0
      vertex -20.5 21 0
      vertex -23.8269 15.8523 0
    endloop
  endfacet
  facet normal 0 0 -1
    outer loop
      vertex -25.75 19 0
      vertex -24.5519 16.379 0
      vertex -25.4481 16.379 0
    endloop
  endfacet
  facet normal 0 0 -1
    outer loop
      vertex -24.5519 16.379 0
      vertex -25.75 19 0
      vertex -20.5 21 0
    endloop
  endfacet
  facet normal 0 0 -1
    outer loop
      vertex -20.5 21 0
      vertex -25.75 32 0
      vertex 25.75 32 0
    endloop
  endfacet
  facet normal 0 0 -1
    outer loop
      vertex -25.75 32 0
      vertex -20.5 21 0
      vertex -25.75 19 0
    endloop
  endfacet
  facet normal 0 -1 0
    outer loop
      vertex -28 0 0
      vertex -20.5 0 15
      vertex -28 0 15
    endloop
  endfacet
  facet normal 0 -1 -0
    outer loop
      vertex -20.5 0 15
      vertex -28 0 0
      vertex -20.5 0 0
    endloop
  endfacet
  facet normal 0 -1 0
    outer loop
      vertex 20.5 0 0
      vertex 28 0 15
      vertex 20.5 0 15
    endloop
  endfacet
  facet normal 0 -1 -0
    outer loop
      vertex 28 0 15
      vertex 20.5 0 0
      vertex 28 0 0
    endloop
  endfacet
  facet normal 0 1 -0
    outer loop
      vertex 25.75 32 0
      vertex -25.75 32 15
      vertex 25.75 32 15
    endloop
  endfacet
  facet normal 0 1 0
    outer loop
      vertex -25.75 32 15
      vertex 25.75 32 0
      vertex -25.75 32 0
    endloop
  endfacet
  facet normal 1 -0 0
    outer loop
      vertex -20.5 0 15
      vertex -20.5 21 0
      vertex -20.5 21 15
    endloop
  endfacet
  facet normal 1 0 0
    outer loop
      vertex -20.5 21 0
      vertex -20.5 0 15
      vertex -20.5 0 0
    endloop
  endfacet
  facet normal -1 0 0
    outer loop
      vertex 20.5 0 0
      vertex 20.5 21 15
      vertex 20.5 21 0
    endloop
  endfacet
  facet normal -1 -0 0
    outer loop
      vertex 20.5 21 15
      vertex 20.5 0 0
      vertex 20.5 0 15
    endloop
  endfacet
  facet normal 0 -1 0
    outer loop
      vertex -20.5 21 0
      vertex 20.5 21 15
      vertex -20.5 21 15
    endloop
  endfacet
  facet normal 0 -1 -0
    outer loop
      vertex 20.5 21 15
      vertex -20.5 21 0
      vertex 20.5 21 0
    endloop
  endfacet
  facet normal -0.951056 -0.30902 0
    outer loop
      vertex 26.45 5 0
      vertex 26.1731 5.85229 15
      vertex 26.1731 5.85229 0
    endloop
  endfacet
  facet normal -0.951056 -0.30902 0
    outer loop
      vertex 26.1731 5.85229 15
      vertex 26.45 5 0
      vertex 26.45 5 15
    endloop
  endfacet
  facet normal -0.587786 0.809017 0
    outer loop
      vertex 26.1731 4.14771 0
      vertex 25.4481 3.62097 15
      vertex 26.1731 4.14771 15
    endloop
  endfacet
  facet normal -0.587786 0.809017 0
    outer loop
      vertex 25.4481 3.62097 15
      vertex 26.1731 4.14771 0
      vertex 25.4481 3.62097 0
    endloop
  endfacet
  facet normal 0.587785 -0.809017 0
    outer loop
      vertex 23.8269 5.85229 0
      vertex 24.5519 6.37903 15
      vertex 23.8269 5.85229 15
    endloop
  endfacet
  facet normal 0.587785 -0.809017 0
    outer loop
      vertex 24.5519 6.37903 15
      vertex 23.8269 5.85229 0
      vertex 24.5519 6.37903 0
    endloop
  endfacet
  facet normal -0.587786 -0.809017 0
    outer loop
      vertex 25.4481 6.37903 0
      vertex 26.1731 5.85229 15
      vertex 25.4481 6.37903 15
    endloop
  endfacet
  facet normal -0.587786 -0.809017 -0
    outer loop
      vertex 26.1731 5.85229 15
      vertex 25.4481 6.37903 0
      vertex 26.1731 5.85229 0
    endloop
  endfacet
  facet normal 0.951056 -0.309018 0
    outer loop
      vertex 23.55 5 15
      vertex 23.8269 5.85229 0
      vertex 23.8269 5.85229 15
    endloop
  endfacet
  facet normal 0.951056 -0.309018 0
    outer loop
      vertex 23.8269 5.85229 0
      vertex 23.55 5 15
      vertex 23.55 5 0
    endloop
  endfacet
  facet normal -0.951056 0.309019 0
    outer loop
      vertex 26.1731 4.14771 0
      vertex 26.45 5 15
      vertex 26.45 5 0
    endloop
  endfacet
  facet normal -0.951056 0.309019 0
    outer loop
      vertex 26.45 5 15
      vertex 26.1731 4.14771 0
      vertex 26.1731 4.14771 15
    endloop
  endfacet
  facet normal 0 -1 0
    outer loop
      vertex 24.5519 6.37903 0
      vertex 25.4481 6.37903 15
      vertex 24.5519 6.37903 15
    endloop
  endfacet
  facet normal 0 -1 -0
    outer loop
      vertex 25.4481 6.37903 15
      vertex 24.5519 6.37903 0
      vertex 25.4481 6.37903 0
    endloop
  endfacet
  facet normal 0.951056 0.309017 0
    outer loop
      vertex 23.8269 4.14771 15
      vertex 23.55 5 0
      vertex 23.55 5 15
    endloop
  endfacet
  facet normal 0.951056 0.309017 0
    outer loop
      vertex 23.55 5 0
      vertex 23.8269 4.14771 15
      vertex 23.8269 4.14771 0
    endloop
  endfacet
  facet normal 0 1 -0
    outer loop
      vertex 25.4481 3.62097 0
      vertex 24.5519 3.62097 15
      vertex 25.4481 3.62097 15
    endloop
  endfacet
  facet normal 0 1 0
    outer loop
      vertex 24.5519 3.62097 15
      vertex 25.4481 3.62097 0
      vertex 24.5519 3.62097 0
    endloop
  endfacet
  facet normal 0.587785 0.809017 -0
    outer loop
      vertex 24.5519 3.62097 0
      vertex 23.8269 4.14771 15
      vertex 24.5519 3.62097 15
    endloop
  endfacet
  facet normal 0.587785 0.809017 0
    outer loop
      vertex 23.8269 4.14771 15
      vertex 24.5519 3.62097 0
      vertex 23.8269 4.14771 0
    endloop
  endfacet
  facet normal -0.951056 -0.30902 0
    outer loop
      vertex 26.45 15 0
      vertex 26.1731 15.8523 15
      vertex 26.1731 15.8523 0
    endloop
  endfacet
  facet normal -0.951056 -0.30902 0
    outer loop
      vertex 26.1731 15.8523 15
      vertex 26.45 15 0
      vertex 26.45 15 15
    endloop
  endfacet
  facet normal 0.587785 -0.809017 0
    outer loop
      vertex 23.8269 15.8523 0
      vertex 24.5519 16.379 15
      vertex 23.8269 15.8523 15
    endloop
  endfacet
  facet normal 0.587785 -0.809017 0
    outer loop
      vertex 24.5519 16.379 15
      vertex 23.8269 15.8523 0
      vertex 24.5519 16.379 0
    endloop
  endfacet
  facet normal -0.587786 -0.809016 0
    outer loop
      vertex 25.4481 16.379 0
      vertex 26.1731 15.8523 15
      vertex 25.4481 16.379 15
    endloop
  endfacet
  facet normal -0.587786 -0.809016 -0
    outer loop
      vertex 26.1731 15.8523 15
      vertex 25.4481 16.379 0
      vertex 26.1731 15.8523 0
    endloop
  endfacet
  facet normal 0.951056 -0.309018 0
    outer loop
      vertex 23.55 15 15
      vertex 23.8269 15.8523 0
      vertex 23.8269 15.8523 15
    endloop
  endfacet
  facet normal 0.951056 -0.309018 0
    outer loop
      vertex 23.8269 15.8523 0
      vertex 23.55 15 15
      vertex 23.55 15 0
    endloop
  endfacet
  facet normal -0.951056 0.309019 0
    outer loop
      vertex 26.1731 14.1477 0
      vertex 26.45 15 15
      vertex 26.45 15 0
    endloop
  endfacet
  facet normal -0.951056 0.309019 0
    outer loop
      vertex 26.45 15 15
      vertex 26.1731 14.1477 0
      vertex 26.1731 14.1477 15
    endloop
  endfacet
  facet normal 0 -1 0
    outer loop
      vertex 24.5519 16.379 0
      vertex 25.4481 16.379 15
      vertex 24.5519 16.379 15
    endloop
  endfacet
  facet normal 0 -1 -0
    outer loop
      vertex 25.4481 16.379 15
      vertex 24.5519 16.379 0
      vertex 25.4481 16.379 0
    endloop
  endfacet
  facet normal 0.951056 0.309017 0
    outer loop
      vertex 23.8269 14.1477 15
      vertex 23.55 15 0
      vertex 23.55 15 15
    endloop
  endfacet
  facet normal 0.951056 0.309017 0
    outer loop
      vertex 23.55 15 0
      vertex 23.8269 14.1477 15
      vertex 23.8269 14.1477 0
    endloop
  endfacet
  facet normal 0.587785 0.809017 -0
    outer loop
      vertex 24.5519 13.621 0
      vertex 23.8269 14.1477 15
      vertex 24.5519 13.621 15
    endloop
  endfacet
  facet normal 0.587785 0.809017 0
    outer loop
      vertex 23.8269 14.1477 15
      vertex 24.5519 13.621 0
      vertex 23.8269 14.1477 0
    endloop
  endfacet
  facet normal -0.587786 0.809017 0
    outer loop
      vertex 26.1731 14.1477 0
      vertex 25.4481 13.621 15
      vertex 26.1731 14.1477 15
    endloop
  endfacet
  facet normal -0.587786 0.809017 0
    outer loop
      vertex 25.4481 13.621 15
      vertex 26.1731 14.1477 0
      vertex 25.4481 13.621 0
    endloop
  endfacet
  facet normal 0 1 -0
    outer loop
      vertex 25.4481 13.621 0
      vertex 24.5519 13.621 15
      vertex 25.4481 13.621 15
    endloop
  endfacet
  facet normal 0 1 0
    outer loop
      vertex 24.5519 13.621 15
      vertex 25.4481 13.621 0
      vertex 24.5519 13.621 0
    endloop
  endfacet
  facet normal -0.951056 -0.309018 0
    outer loop
      vertex -23.55 5 0
      vertex -23.8269 5.85229 15
      vertex -23.8269 5.85229 0
    endloop
  endfacet
  facet normal -0.951056 -0.309018 0
    outer loop
      vertex -23.8269 5.85229 15
      vertex -23.55 5 0
      vertex -23.55 5 15
    endloop
  endfacet
  facet normal -0.587785 0.809017 0
    outer loop
      vertex -23.8269 4.14771 0
      vertex -24.5519 3.62097 15
      vertex -23.8269 4.14771 15
    endloop
  endfacet
  facet normal -0.587785 0.809017 0
    outer loop
      vertex -24.5519 3.62097 15
      vertex -23.8269 4.14771 0
      vertex -24.5519 3.62097 0
    endloop
  endfacet
  facet normal 0.587786 -0.809017 0
    outer loop
      vertex -26.1731 5.85229 0
      vertex -25.4481 6.37903 15
      vertex -26.1731 5.85229 15
    endloop
  endfacet
  facet normal 0.587786 -0.809017 0
    outer loop
      vertex -25.4481 6.37903 15
      vertex -26.1731 5.85229 0
      vertex -25.4481 6.37903 0
    endloop
  endfacet
  facet normal -0.587785 -0.809017 0
    outer loop
      vertex -24.5519 6.37903 0
      vertex -23.8269 5.85229 15
      vertex -24.5519 6.37903 15
    endloop
  endfacet
  facet normal -0.587785 -0.809017 -0
    outer loop
      vertex -23.8269 5.85229 15
      vertex -24.5519 6.37903 0
      vertex -23.8269 5.85229 0
    endloop
  endfacet
  facet normal 0.951056 -0.30902 0
    outer loop
      vertex -26.45 5 15
      vertex -26.1731 5.85229 0
      vertex -26.1731 5.85229 15
    endloop
  endfacet
  facet normal 0.951056 -0.30902 0
    outer loop
      vertex -26.1731 5.85229 0
      vertex -26.45 5 15
      vertex -26.45 5 0
    endloop
  endfacet
  facet normal -0.951056 0.309017 0
    outer loop
      vertex -23.8269 4.14771 0
      vertex -23.55 5 15
      vertex -23.55 5 0
    endloop
  endfacet
  facet normal -0.951056 0.309017 0
    outer loop
      vertex -23.55 5 15
      vertex -23.8269 4.14771 0
      vertex -23.8269 4.14771 15
    endloop
  endfacet
  facet normal 0 -1 0
    outer loop
      vertex -25.4481 6.37903 0
      vertex -24.5519 6.37903 15
      vertex -25.4481 6.37903 15
    endloop
  endfacet
  facet normal 0 -1 -0
    outer loop
      vertex -24.5519 6.37903 15
      vertex -25.4481 6.37903 0
      vertex -24.5519 6.37903 0
    endloop
  endfacet
  facet normal 0.951056 0.309019 0
    outer loop
      vertex -26.1731 4.14771 15
      vertex -26.45 5 0
      vertex -26.45 5 15
    endloop
  endfacet
  facet normal 0.951056 0.309019 0
    outer loop
      vertex -26.45 5 0
      vertex -26.1731 4.14771 15
      vertex -26.1731 4.14771 0
    endloop
  endfacet
  facet normal 0 1 -0
    outer loop
      vertex -24.5519 3.62097 0
      vertex -25.4481 3.62097 15
      vertex -24.5519 3.62097 15
    endloop
  endfacet
  facet normal 0 1 0
    outer loop
      vertex -25.4481 3.62097 15
      vertex -24.5519 3.62097 0
      vertex -25.4481 3.62097 0
    endloop
  endfacet
  facet normal 0.587786 0.809017 -0
    outer loop
      vertex -25.4481 3.62097 0
      vertex -26.1731 4.14771 15
      vertex -25.4481 3.62097 15
    endloop
  endfacet
  facet normal 0.587786 0.809017 0
    outer loop
      vertex -26.1731 4.14771 15
      vertex -25.4481 3.62097 0
      vertex -26.1731 4.14771 0
    endloop
  endfacet
  facet normal -0.951056 -0.309018 0
    outer loop
      vertex -23.55 15 0
      vertex -23.8269 15.8523 15
      vertex -23.8269 15.8523 0
    endloop
  endfacet
  facet normal -0.951056 -0.309018 0
    outer loop
      vertex -23.8269 15.8523 15
      vertex -23.55 15 0
      vertex -23.55 15 15
    endloop
  endfacet
  facet normal -0.587785 0.809017 0
    outer loop
      vertex -23.8269 14.1477 0
      vertex -24.5519 13.621 15
      vertex -23.8269 14.1477 15
    endloop
  endfacet
  facet normal -0.587785 0.809017 0
    outer loop
      vertex -24.5519 13.621 15
      vertex -23.8269 14.1477 0
      vertex -24.5519 13.621 0
    endloop
  endfacet
  facet normal 0.587786 -0.809016 0
    outer loop
      vertex -26.1731 15.8523 0
      vertex -25.4481 16.379 15
      vertex -26.1731 15.8523 15
    endloop
  endfacet
  facet normal 0.587786 -0.809016 0
    outer loop
      vertex -25.4481 16.379 15
      vertex -26.1731 15.8523 0
      vertex -25.4481 16.379 0
    endloop
  endfacet
  facet normal -0.587785 -0.809017 0
    outer loop
      vertex -24.5519 16.379 0
      vertex -23.8269 15.8523 15
      vertex -24.5519 16.379 15
    endloop
  endfacet
  facet normal -0.587785 -0.809017 -0
    outer loop
      vertex -23.8269 15.8523 15
      vertex -24.5519 16.379 0
      vertex -23.8269 15.8523 0
    endloop
  endfacet
  facet normal 0.951056 -0.30902 0
    outer loop
      vertex -26.45 15 15
      vertex -26.1731 15.8523 0
      vertex -26.1731 15.8523 15
    endloop
  endfacet
  facet normal 0.951056 -0.30902 0
    outer loop
      vertex -26.1731 15.8523 0
      vertex -26.45 15 15
      vertex -26.45 15 0
    endloop
  endfacet
  facet normal 0 -1 0
    outer loop
      vertex -25.4481 16.379 0
      vertex -24.5519 16.379 15
      vertex -25.4481 16.379 15
    endloop
  endfacet
  facet normal 0 -1 -0
    outer loop
      vertex -24.5519 16.379 15
      vertex -25.4481 16.379 0
      vertex -24.5519 16.379 0
    endloop
  endfacet
  facet normal 0.951056 0.309019 0
    outer loop
      vertex -26.1731 14.1477 15
      vertex -26.45 15 0
      vertex -26.45 15 15
    endloop
  endfacet
  facet normal 0.951056 0.309019 0
    outer loop
      vertex -26.45 15 0
      vertex -26.1731 14.1477 15
      vertex -26.1731 14.1477 0
    endloop
  endfacet
  facet normal 0.587786 0.809017 -0
    outer loop
      vertex -25.4481 13.621 0
      vertex -26.1731 14.1477 15
      vertex -25.4481 13.621 15
    endloop
  endfacet
  facet normal 0.587786 0.809017 0
    outer loop
      vertex -26.1731 14.1477 15
      vertex -25.4481 13.621 0
      vertex -26.1731 14.1477 0
    endloop
  endfacet
  facet normal -0.951056 0.309017 0
    outer loop
      vertex -23.8269 14.1477 0
      vertex -23.55 15 15
      vertex -23.55 15 0
    endloop
  endfacet
  facet normal -0.951056 0.309017 0
    outer loop
      vertex -23.55 15 15
      vertex -23.8269 14.1477 0
      vertex -23.8269 14.1477 15
    endloop
  endfacet
  facet normal 0 1 -0
    outer loop
      vertex -24.5519 13.621 0
      vertex -25.4481 13.621 15
      vertex -24.5519 13.621 15
    endloop
  endfacet
  facet normal 0 1 0
    outer loop
      vertex -25.4481 13.621 15
      vertex -24.5519 13.621 0
      vertex -25.4481 13.621 0
    endloop
  endfacet
  facet normal 1 -0 0
    outer loop
      vertex 25.75 29.8523 11.3269
      vertex 25.75 30.379 2.94807
      vertex 25.75 30.379 12.0519
    endloop
  endfacet
  facet normal 1 0 0
    outer loop
      vertex 25.75 29.8523 11.3269
      vertex 25.75 29.8523 3.67307
      vertex 25.75 30.379 2.94807
    endloop
  endfacet
  facet normal 1 -0 0
    outer loop
      vertex 25.75 29 11.05
      vertex 25.75 29.8523 3.67307
      vertex 25.75 29.8523 11.3269
    endloop
  endfacet
  facet normal 1 0 0
    outer loop
      vertex 25.75 29 11.05
      vertex 25.75 29 3.95
      vertex 25.75 29.8523 3.67307
    endloop
  endfacet
  facet normal 1 0 0
    outer loop
      vertex 25.75 28.1477 11.3269
      vertex 25.75 29 3.95
      vertex 25.75 29 11.05
    endloop
  endfacet
  facet normal 1 0 0
    outer loop
      vertex 25.75 28.1477 11.3269
      vertex 25.75 28.1477 3.67307
      vertex 25.75 29 3.95
    endloop
  endfacet
  facet normal 1 0 0
    outer loop
      vertex 25.75 27.621 12.0519
      vertex 25.75 28.1477 3.67307
      vertex 25.75 28.1477 11.3269
    endloop
  endfacet
  facet normal 1 0 0
    outer loop
      vertex 25.75 28.1477 3.67307
      vertex 25.75 27.621 12.0519
      vertex 25.75 27.621 2.94807
    endloop
  endfacet
  facet normal 1 0 0
    outer loop
      vertex 25.75 30.379 12.0519
      vertex 25.75 32 15
      vertex 25.75 30.379 12.9481
    endloop
  endfacet
  facet normal 1 0 0
    outer loop
      vertex 25.75 32 15
      vertex 25.75 29.8523 13.6731
      vertex 25.75 30.379 12.9481
    endloop
  endfacet
  facet normal 1 0 0
    outer loop
      vertex 25.75 32 15
      vertex 25.75 29 13.95
      vertex 25.75 29.8523 13.6731
    endloop
  endfacet
  facet normal 1 -0 0
    outer loop
      vertex 25.75 19 15
      vertex 25.75 29 13.95
      vertex 25.75 32 15
    endloop
  endfacet
  facet normal 1 0 0
    outer loop
      vertex 25.75 19 15
      vertex 25.75 27.621 12.0519
      vertex 25.75 27.621 12.9481
    endloop
  endfacet
  facet normal 1 0 0
    outer loop
      vertex 25.75 27.621 12.0519
      vertex 25.75 19 15
      vertex 25.75 27.621 2.94807
    endloop
  endfacet
  facet normal 1 0 0
    outer loop
      vertex 25.75 19 0
      vertex 25.75 27.621 2.94807
      vertex 25.75 19 15
    endloop
  endfacet
  facet normal 1 0 0
    outer loop
      vertex 25.75 28.1477 13.6731
      vertex 25.75 19 15
      vertex 25.75 27.621 12.9481
    endloop
  endfacet
  facet normal 1 0 0
    outer loop
      vertex 25.75 29 13.95
      vertex 25.75 19 15
      vertex 25.75 28.1477 13.6731
    endloop
  endfacet
  facet normal 1 0 0
    outer loop
      vertex 25.75 32 15
      vertex 25.75 30.379 12.0519
      vertex 25.75 32 0
    endloop
  endfacet
  facet normal 1 -0 0
    outer loop
      vertex 25.75 30.379 2.94807
      vertex 25.75 32 0
      vertex 25.75 30.379 12.0519
    endloop
  endfacet
  facet normal 1 -0 0
    outer loop
      vertex 25.75 30.379 2.05192
      vertex 25.75 32 0
      vertex 25.75 30.379 2.94807
    endloop
  endfacet
  facet normal 1 -0 0
    outer loop
      vertex 25.75 29.8523 1.32693
      vertex 25.75 32 0
      vertex 25.75 30.379 2.05192
    endloop
  endfacet
  facet normal 1 -0 0
    outer loop
      vertex 25.75 29 1.05
      vertex 25.75 32 0
      vertex 25.75 29.8523 1.32693
    endloop
  endfacet
  facet normal 1 0 0
    outer loop
      vertex 25.75 19 0
      vertex 25.75 29 1.05
      vertex 25.75 28.1477 1.32693
    endloop
  endfacet
  facet normal 1 0 0
    outer loop
      vertex 25.75 29 1.05
      vertex 25.75 19 0
      vertex 25.75 32 0
    endloop
  endfacet
  facet normal 1 0 0
    outer loop
      vertex 25.75 27.621 2.05192
      vertex 25.75 19 0
      vertex 25.75 28.1477 1.32693
    endloop
  endfacet
  facet normal 1 0 0
    outer loop
      vertex 25.75 27.621 2.94807
      vertex 25.75 19 0
      vertex 25.75 27.621 2.05192
    endloop
  endfacet
  facet normal 0 1 -0
    outer loop
      vertex 28 19 0
      vertex 25.75 19 15
      vertex 28 19 15
    endloop
  endfacet
  facet normal 0 1 0
    outer loop
      vertex 25.75 19 15
      vertex 28 19 0
      vertex 25.75 19 0
    endloop
  endfacet
  facet normal -1 0 0
    outer loop
      vertex -25.75 29.8523 3.67307
      vertex -25.75 30.379 12.0519
      vertex -25.75 30.379 2.94807
    endloop
  endfacet
  facet normal -1 0 0
    outer loop
      vertex -25.75 29.8523 3.67307
      vertex -25.75 29.8523 11.3269
      vertex -25.75 30.379 12.0519
    endloop
  endfacet
  facet normal -1 0 0
    outer loop
      vertex -25.75 29 3.95
      vertex -25.75 29.8523 11.3269
      vertex -25.75 29.8523 3.67307
    endloop
  endfacet
  facet normal -1 0 0
    outer loop
      vertex -25.75 29 3.95
      vertex -25.75 29 11.05
      vertex -25.75 29.8523 11.3269
    endloop
  endfacet
  facet normal -1 0 0
    outer loop
      vertex -25.75 28.1477 3.67307
      vertex -25.75 29 11.05
      vertex -25.75 29 3.95
    endloop
  endfacet
  facet normal -1 0 0
    outer loop
      vertex -25.75 28.1477 3.67307
      vertex -25.75 28.1477 11.3269
      vertex -25.75 29 11.05
    endloop
  endfacet
  facet normal -1 0 0
    outer loop
      vertex -25.75 27.621 2.94807
      vertex -25.75 28.1477 11.3269
      vertex -25.75 28.1477 3.67307
    endloop
  endfacet
  facet normal -1 -0 0
    outer loop
      vertex -25.75 28.1477 11.3269
      vertex -25.75 27.621 2.94807
      vertex -25.75 27.621 12.0519
    endloop
  endfacet
  facet normal -1 0 0
    outer loop
      vertex -25.75 30.379 2.94807
      vertex -25.75 32 0
      vertex -25.75 30.379 2.05192
    endloop
  endfacet
  facet normal -1 0 0
    outer loop
      vertex -25.75 32 0
      vertex -25.75 29.8523 1.32693
      vertex -25.75 30.379 2.05192
    endloop
  endfacet
  facet normal -1 0 0
    outer loop
      vertex -25.75 32 0
      vertex -25.75 29 1.05
      vertex -25.75 29.8523 1.32693
    endloop
  endfacet
  facet normal -1 0 0
    outer loop
      vertex -25.75 19 0
      vertex -25.75 29 1.05
      vertex -25.75 32 0
    endloop
  endfacet
  facet normal -1 0 0
    outer loop
      vertex -25.75 19 0
      vertex -25.75 27.621 2.94807
      vertex -25.75 27.621 2.05192
    endloop
  endfacet
  facet normal -1 -0 0
    outer loop
      vertex -25.75 27.621 2.94807
      vertex -25.75 19 0
      vertex -25.75 27.621 12.0519
    endloop
  endfacet
  facet normal -1 0 0
    outer loop
      vertex -25.75 19 15
      vertex -25.75 27.621 12.0519
      vertex -25.75 19 0
    endloop
  endfacet
  facet normal -1 -0 0
    outer loop
      vertex -25.75 28.1477 1.32693
      vertex -25.75 19 0
      vertex -25.75 27.621 2.05192
    endloop
  endfacet
  facet normal -1 -0 0
    outer loop
      vertex -25.75 29 1.05
      vertex -25.75 19 0
      vertex -25.75 28.1477 1.32693
    endloop
  endfacet
  facet normal -1 0 0
    outer loop
      vertex -25.75 32 0
      vertex -25.75 30.379 2.94807
      vertex -25.75 32 15
    endloop
  endfacet
  facet normal -1 0 0
    outer loop
      vertex -25.75 30.379 12.0519
      vertex -25.75 32 15
      vertex -25.75 30.379 2.94807
    endloop
  endfacet
  facet normal -1 0 0
    outer loop
      vertex -25.75 30.379 12.9481
      vertex -25.75 32 15
      vertex -25.75 30.379 12.0519
    endloop
  endfacet
  facet normal -1 0 0
    outer loop
      vertex -25.75 29.8523 13.6731
      vertex -25.75 32 15
      vertex -25.75 30.379 12.9481
    endloop
  endfacet
  facet normal -1 0 0
    outer loop
      vertex -25.75 29 13.95
      vertex -25.75 32 15
      vertex -25.75 29.8523 13.6731
    endloop
  endfacet
  facet normal -1 0 0
    outer loop
      vertex -25.75 19 15
      vertex -25.75 29 13.95
      vertex -25.75 28.1477 13.6731
    endloop
  endfacet
  facet normal -1 0 0
    outer loop
      vertex -25.75 29 13.95
      vertex -25.75 19 15
      vertex -25.75 32 15
    endloop
  endfacet
  facet normal -1 0 0
    outer loop
      vertex -25.75 27.621 12.9481
      vertex -25.75 19 15
      vertex -25.75 28.1477 13.6731
    endloop
  endfacet
  facet normal -1 0 0
    outer loop
      vertex -25.75 27.621 12.0519
      vertex -25.75 19 15
      vertex -25.75 27.621 12.9481
    endloop
  endfacet
  facet normal 0 1 -0
    outer loop
      vertex -25.75 19 0
      vertex -28 19 15
      vertex -25.75 19 15
    endloop
  endfacet
  facet normal 0 1 0
    outer loop
      vertex -28 19 15
      vertex -25.75 19 0
      vertex -28 19 0
    endloop
  endfacet
  facet normal 0 -0.309018 0.951056
    outer loop
      vertex -25.75 29.8523 11.3269
      vertex 25.75 29 11.05
      vertex 25.75 29.8523 11.3269
    endloop
  endfacet
  facet normal 0 -0.309018 0.951056
    outer loop
      vertex 25.75 29 11.05
      vertex -25.75 29.8523 11.3269
      vertex -25.75 29 11.05
    endloop
  endfacet
  facet normal 0 0.309017 -0.951056
    outer loop
      vertex -25.75 28.1477 13.6731
      vertex 25.75 29 13.95
      vertex 25.75 28.1477 13.6731
    endloop
  endfacet
  facet normal 0 0.309017 -0.951056
    outer loop
      vertex 25.75 29 13.95
      vertex -25.75 28.1477 13.6731
      vertex -25.75 29 13.95
    endloop
  endfacet
  facet normal 0 -0.809016 -0.587787
    outer loop
      vertex -25.75 30.379 12.9481
      vertex 25.75 29.8523 13.6731
      vertex -25.75 29.8523 13.6731
    endloop
  endfacet
  facet normal 0 -0.809016 -0.587787
    outer loop
      vertex 25.75 29.8523 13.6731
      vertex -25.75 30.379 12.9481
      vertex 25.75 30.379 12.9481
    endloop
  endfacet
  facet normal 0 -0.809016 0.587787
    outer loop
      vertex -25.75 29.8523 11.3269
      vertex 25.75 30.379 12.0519
      vertex -25.75 30.379 12.0519
    endloop
  endfacet
  facet normal 0 -0.809016 0.587787
    outer loop
      vertex 25.75 30.379 12.0519
      vertex -25.75 29.8523 11.3269
      vertex 25.75 29.8523 11.3269
    endloop
  endfacet
  facet normal 0 -0.309018 -0.951056
    outer loop
      vertex -25.75 29 13.95
      vertex 25.75 29.8523 13.6731
      vertex 25.75 29 13.95
    endloop
  endfacet
  facet normal -0 -0.309018 -0.951056
    outer loop
      vertex 25.75 29.8523 13.6731
      vertex -25.75 29 13.95
      vertex -25.75 29.8523 13.6731
    endloop
  endfacet
  facet normal -0 0.309017 0.951056
    outer loop
      vertex -25.75 29 11.05
      vertex 25.75 28.1477 11.3269
      vertex 25.75 29 11.05
    endloop
  endfacet
  facet normal 0 0.309017 0.951056
    outer loop
      vertex 25.75 28.1477 11.3269
      vertex -25.75 29 11.05
      vertex -25.75 28.1477 11.3269
    endloop
  endfacet
  facet normal 0 0.809017 -0.587785
    outer loop
      vertex 25.75 27.621 12.9481
      vertex -25.75 28.1477 13.6731
      vertex 25.75 28.1477 13.6731
    endloop
  endfacet
  facet normal 0 0.809017 -0.587785
    outer loop
      vertex -25.75 28.1477 13.6731
      vertex 25.75 27.621 12.9481
      vertex -25.75 27.621 12.9481
    endloop
  endfacet
  facet normal 0 -1 0
    outer loop
      vertex -25.75 30.379 12.0519
      vertex 25.75 30.379 12.9481
      vertex -25.75 30.379 12.9481
    endloop
  endfacet
  facet normal 0 -1 -0
    outer loop
      vertex 25.75 30.379 12.9481
      vertex -25.75 30.379 12.0519
      vertex 25.75 30.379 12.0519
    endloop
  endfacet
  facet normal 0 0.809017 0.587785
    outer loop
      vertex 25.75 28.1477 11.3269
      vertex -25.75 27.621 12.0519
      vertex 25.75 27.621 12.0519
    endloop
  endfacet
  facet normal 0 0.809017 0.587785
    outer loop
      vertex -25.75 27.621 12.0519
      vertex 25.75 28.1477 11.3269
      vertex -25.75 28.1477 11.3269
    endloop
  endfacet
  facet normal 0 1 -0
    outer loop
      vertex 25.75 27.621 12.0519
      vertex -25.75 27.621 12.9481
      vertex 25.75 27.621 12.9481
    endloop
  endfacet
  facet normal 0 1 0
    outer loop
      vertex -25.75 27.621 12.9481
      vertex 25.75 27.621 12.0519
      vertex -25.75 27.621 12.0519
    endloop
  endfacet
  facet normal 0 -0.309018 0.951056
    outer loop
      vertex -25.75 29.8523 1.32693
      vertex 25.75 29 1.05
      vertex 25.75 29.8523 1.32693
    endloop
  endfacet
  facet normal 0 -0.309018 0.951056
    outer loop
      vertex 25.75 29 1.05
      vertex -25.75 29.8523 1.32693
      vertex -25.75 29 1.05
    endloop
  endfacet
  facet normal 0 0.309017 -0.951056
    outer loop
      vertex -25.75 28.1477 3.67307
      vertex 25.75 29 3.95
      vertex 25.75 28.1477 3.67307
    endloop
  endfacet
  facet normal 0 0.309017 -0.951056
    outer loop
      vertex 25.75 29 3.95
      vertex -25.75 28.1477 3.67307
      vertex -25.75 29 3.95
    endloop
  endfacet
  facet normal 0 -0.809016 -0.587787
    outer loop
      vertex -25.75 30.379 2.94807
      vertex 25.75 29.8523 3.67307
      vertex -25.75 29.8523 3.67307
    endloop
  endfacet
  facet normal 0 -0.809016 -0.587787
    outer loop
      vertex 25.75 29.8523 3.67307
      vertex -25.75 30.379 2.94807
      vertex 25.75 30.379 2.94807
    endloop
  endfacet
  facet normal 0 -0.809016 0.587787
    outer loop
      vertex -25.75 29.8523 1.32693
      vertex 25.75 30.379 2.05192
      vertex -25.75 30.379 2.05192
    endloop
  endfacet
  facet normal 0 -0.809016 0.587787
    outer loop
      vertex 25.75 30.379 2.05192
      vertex -25.75 29.8523 1.32693
      vertex 25.75 29.8523 1.32693
    endloop
  endfacet
  facet normal 0 -0.309018 -0.951056
    outer loop
      vertex -25.75 29 3.95
      vertex 25.75 29.8523 3.67307
      vertex 25.75 29 3.95
    endloop
  endfacet
  facet normal -0 -0.309018 -0.951056
    outer loop
      vertex 25.75 29.8523 3.67307
      vertex -25.75 29 3.95
      vertex -25.75 29.8523 3.67307
    endloop
  endfacet
  facet normal -0 0.309017 0.951056
    outer loop
      vertex -25.75 29 1.05
      vertex 25.75 28.1477 1.32693
      vertex 25.75 29 1.05
    endloop
  endfacet
  facet normal 0 0.309017 0.951056
    outer loop
      vertex 25.75 28.1477 1.32693
      vertex -25.75 29 1.05
      vertex -25.75 28.1477 1.32693
    endloop
  endfacet
  facet normal 0 0.809017 -0.587785
    outer loop
      vertex 25.75 27.621 2.94807
      vertex -25.75 28.1477 3.67307
      vertex 25.75 28.1477 3.67307
    endloop
  endfacet
  facet normal 0 0.809017 -0.587785
    outer loop
      vertex -25.75 28.1477 3.67307
      vertex 25.75 27.621 2.94807
      vertex -25.75 27.621 2.94807
    endloop
  endfacet
  facet normal 0 -1 0
    outer loop
      vertex -25.75 30.379 2.05192
      vertex 25.75 30.379 2.94807
      vertex -25.75 30.379 2.94807
    endloop
  endfacet
  facet normal 0 -1 -0
    outer loop
      vertex 25.75 30.379 2.94807
      vertex -25.75 30.379 2.05192
      vertex 25.75 30.379 2.05192
    endloop
  endfacet
  facet normal 0 0.809017 0.587785
    outer loop
      vertex 25.75 28.1477 1.32693
      vertex -25.75 27.621 2.05192
      vertex 25.75 27.621 2.05192
    endloop
  endfacet
  facet normal 0 0.809017 0.587785
    outer loop
      vertex -25.75 27.621 2.05192
      vertex 25.75 28.1477 1.32693
      vertex -25.75 28.1477 1.32693
    endloop
  endfacet
  facet normal 0 1 -0
    outer loop
      vertex 25.75 27.621 2.05192
      vertex -25.75 27.621 2.94807
      vertex 25.75 27.621 2.94807
    endloop
  endfacet
  facet normal 0 1 0
    outer loop
      vertex -25.75 27.621 2.94807
      vertex 25.75 27.621 2.05192
      vertex -25.75 27.621 2.05192
    endloop
  endfacet
endsolid OpenSCAD_Model
