solid OpenSCAD_Model
  facet normal 0.988831 0.149043 0
    outer loop
      vertex 11.2 8.25 2
      vertex 11.0689 9.11953 0
      vertex 11.0689 9.11953 2
    endloop
  endfacet
  facet normal 0.988831 0.149043 0
    outer loop
      vertex 11.0689 9.11953 0
      vertex 11.2 8.25 2
      vertex 11.2 8.25 0
    endloop
  endfacet
  facet normal -1 0 0
    outer loop
      vertex -11.1671 -8.68967 0
      vertex -11.1671 8.68967 2
      vertex -11.1671 8.68967 0
    endloop
  endfacet
  facet normal -1 -0 0
    outer loop
      vertex -11.1671 8.68967 2
      vertex -11.1671 -8.68967 0
      vertex -11.1671 -8.68967 2
    endloop
  endfacet
  facet normal -0.62349 0.781831 0
    outer loop
      vertex -9.725 10.8048 0
      vertex -10.4125 10.2565 2
      vertex -9.725 10.8048 2
    endloop
  endfacet
  facet normal -0.62349 0.781831 0
    outer loop
      vertex -10.4125 10.2565 2
      vertex -9.725 10.8048 0
      vertex -10.4125 10.2565 0
    endloop
  endfacet
  facet normal 0 0 1
    outer loop
      vertex -4.47637 1.99301 2
      vertex -8.45636 6.81476 2
      vertex -4.79292 1.01877 2
    endloop
  endfacet
  facet normal 0 0 1
    outer loop
      vertex -4.9 0 2
      vertex -7.03018 -7.46607 2
      vertex -6.8 -8.25 2
    endloop
  endfacet
  facet normal 0 0 1
    outer loop
      vertex -4.79292 1.01877 2
      vertex -8.45636 6.81476 2
      vertex -4.9 0 2
    endloop
  endfacet
  facet normal 0 0 1
    outer loop
      vertex -4.9 0 2
      vertex -7.64765 -6.93103 2
      vertex -7.03018 -7.46607 2
    endloop
  endfacet
  facet normal 0 0 1
    outer loop
      vertex -9.19955 7.15416 2
      vertex -4.9 0 2
      vertex -8.45636 6.81476 2
    endloop
  endfacet
  facet normal 0 0 1
    outer loop
      vertex -4.9 0 2
      vertex -8.45636 -6.81476 2
      vertex -7.64765 -6.93103 2
    endloop
  endfacet
  facet normal 0 0 1
    outer loop
      vertex -9.19955 -7.15416 2
      vertex -4.9 0 2
      vertex -9.19955 7.15416 2
    endloop
  endfacet
  facet normal 0 0 1
    outer loop
      vertex -4.9 0 2
      vertex -9.19955 -7.15416 2
      vertex -8.45636 -6.81476 2
    endloop
  endfacet
  facet normal 0 0 1
    outer loop
      vertex -11.1671 8.68967 2
      vertex -9.19955 7.15416 2
      vertex -9.64126 7.84149 2
    endloop
  endfacet
  facet normal 0 0 1
    outer loop
      vertex -9.19955 7.15416 2
      vertex -11.1671 8.68967 2
      vertex -9.19955 -7.15416 2
    endloop
  endfacet
  facet normal 0 0 1
    outer loop
      vertex 11.2 8.25 2
      vertex 8.85235 6.93103 2
      vertex 11.2 -8.25 2
    endloop
  endfacet
  facet normal 0 0 1
    outer loop
      vertex 11.2 -8.25 2
      vertex 9.46982 -7.46607 2
      vertex 9.7 -8.25 2
    endloop
  endfacet
  facet normal -0 0 1
    outer loop
      vertex 8.85235 -6.93103 2
      vertex 11.2 -8.25 2
      vertex 8.85235 6.93103 2
    endloop
  endfacet
  facet normal 0 0 1
    outer loop
      vertex 11.2 -8.25 2
      vertex 8.85235 -6.93103 2
      vertex 9.46982 -7.46607 2
    endloop
  endfacet
  facet normal 0 0 1
    outer loop
      vertex 4.79292 1.01877 2
      vertex 8.85235 6.93103 2
      vertex 8.04364 6.81476 2
    endloop
  endfacet
  facet normal 0 0 1
    outer loop
      vertex 8.85235 6.93103 2
      vertex 4.9 0 2
      vertex 8.85235 -6.93103 2
    endloop
  endfacet
  facet normal 0 0 1
    outer loop
      vertex 3.96418 2.88015 2
      vertex 8.04364 6.81476 2
      vertex 7.30045 7.15416 2
    endloop
  endfacet
  facet normal -0 0 1
    outer loop
      vertex 4.79292 -1.01877 2
      vertex 8.85235 -6.93103 2
      vertex 4.9 0 2
    endloop
  endfacet
  facet normal 0 0 1
    outer loop
      vertex 3.27874 3.64141 2
      vertex 7.30045 7.15416 2
      vertex 6.85874 7.84149 2
    endloop
  endfacet
  facet normal 0 0 1
    outer loop
      vertex 8.85235 -6.93103 2
      vertex 4.79292 -1.01877 2
      vertex 8.04364 -6.81476 2
    endloop
  endfacet
  facet normal 0 0 1
    outer loop
      vertex 9.7 8.25 2
      vertex 11.2 8.25 2
      vertex 11.0689 9.11953 2
    endloop
  endfacet
  facet normal 0 0 1
    outer loop
      vertex 9.46982 7.46607 2
      vertex 11.2 8.25 2
      vertex 9.7 8.25 2
    endloop
  endfacet
  facet normal 0 0 1
    outer loop
      vertex 9.46982 9.03393 2
      vertex 11.0689 9.11953 2
      vertex 10.6874 9.91179 2
    endloop
  endfacet
  facet normal 0 0 1
    outer loop
      vertex 8.85235 6.93103 2
      vertex 11.2 8.25 2
      vertex 9.46982 7.46607 2
    endloop
  endfacet
  facet normal 0 0 1
    outer loop
      vertex 9.46982 9.03393 2
      vertex 10.6874 9.91179 2
      vertex 10.0893 10.5564 2
    endloop
  endfacet
  facet normal 0 0 1
    outer loop
      vertex 11.2 -8.25 2
      vertex 9.7 -8.25 2
      vertex 11.0689 -9.11953 2
    endloop
  endfacet
  facet normal -0 0 1
    outer loop
      vertex 9.46982 -9.03393 2
      vertex 11.0689 -9.11953 2
      vertex 9.7 -8.25 2
    endloop
  endfacet
  facet normal 0 0 1
    outer loop
      vertex 11.0689 9.11953 2
      vertex 9.46982 9.03393 2
      vertex 9.7 8.25 2
    endloop
  endfacet
  facet normal 0 0 1
    outer loop
      vertex 8.85235 9.56897 2
      vertex 10.0893 10.5564 2
      vertex 9.32776 10.9961 2
    endloop
  endfacet
  facet normal 0 0 1
    outer loop
      vertex 10.0893 10.5564 2
      vertex 8.85235 9.56897 2
      vertex 9.46982 9.03393 2
    endloop
  endfacet
  facet normal 0 0 1
    outer loop
      vertex 8.47045 11.1918 2
      vertex 8.85235 9.56897 2
      vertex 9.32776 10.9961 2
    endloop
  endfacet
  facet normal 0 0 1
    outer loop
      vertex 8.47045 11.1918 2
      vertex 8.04364 9.68524 2
      vertex 8.85235 9.56897 2
    endloop
  endfacet
  facet normal 0 0 1
    outer loop
      vertex 8.47045 11.1918 2
      vertex 7.30045 9.34584 2
      vertex 8.04364 9.68524 2
    endloop
  endfacet
  facet normal -0 0 1
    outer loop
      vertex -8.02955 11.1918 2
      vertex 7.30045 9.34584 2
      vertex 8.47045 11.1918 2
    endloop
  endfacet
  facet normal 0 0 1
    outer loop
      vertex 1.51418 4.66018 2
      vertex 6.85874 7.84149 2
      vertex 6.85874 8.65851 2
    endloop
  endfacet
  facet normal -0 0 1
    outer loop
      vertex 4.47637 -1.99301 2
      vertex 8.04364 -6.81476 2
      vertex 4.79292 -1.01877 2
    endloop
  endfacet
  facet normal -0 0 1
    outer loop
      vertex 3.96418 -2.88015 2
      vertex 8.04364 -6.81476 2
      vertex 4.47637 -1.99301 2
    endloop
  endfacet
  facet normal 0 0 1
    outer loop
      vertex 8.85235 6.93103 2
      vertex 4.79292 1.01877 2
      vertex 4.9 0 2
    endloop
  endfacet
  facet normal 0 0 1
    outer loop
      vertex 8.04364 6.81476 2
      vertex 4.47637 1.99301 2
      vertex 4.79292 1.01877 2
    endloop
  endfacet
  facet normal 0 0 1
    outer loop
      vertex 8.04364 6.81476 2
      vertex 3.96418 2.88015 2
      vertex 4.47637 1.99301 2
    endloop
  endfacet
  facet normal 0 0 1
    outer loop
      vertex 7.30045 7.15416 2
      vertex 3.27874 3.64141 2
      vertex 3.96418 2.88015 2
    endloop
  endfacet
  facet normal 0 0 1
    outer loop
      vertex 7.30045 9.34584 2
      vertex -8.02955 11.1918 2
      vertex 6.85874 8.65851 2
    endloop
  endfacet
  facet normal 0 0 1
    outer loop
      vertex 6.85874 7.84149 2
      vertex 2.45 4.24352 2
      vertex 3.27874 3.64141 2
    endloop
  endfacet
  facet normal 0 0 1
    outer loop
      vertex 6.85874 7.84149 2
      vertex 1.51418 4.66018 2
      vertex 2.45 4.24352 2
    endloop
  endfacet
  facet normal 0 0 1
    outer loop
      vertex 6.85874 8.65851 2
      vertex 0.512189 4.87316 2
      vertex 1.51418 4.66018 2
    endloop
  endfacet
  facet normal 0 0 1
    outer loop
      vertex 6.85874 8.65851 2
      vertex 0 4.9 2
      vertex 0.512189 4.87316 2
    endloop
  endfacet
  facet normal 0 0 1
    outer loop
      vertex 0.512189 4.87316 2
      vertex 0 4.9 2
      vertex 0.0268431 4.87316 2
    endloop
  endfacet
  facet normal 0 0 1
    outer loop
      vertex 0 4.9 2
      vertex -0.512189 4.87316 2
      vertex -0.0268431 4.87316 2
    endloop
  endfacet
  facet normal 0 0 1
    outer loop
      vertex 6.85874 8.65851 2
      vertex -7.03018 9.03393 2
      vertex 0 4.9 2
    endloop
  endfacet
  facet normal 0 0 1
    outer loop
      vertex 0 4.9 2
      vertex -7.03018 9.03393 2
      vertex -0.512189 4.87316 2
    endloop
  endfacet
  facet normal -0 -0 1
    outer loop
      vertex -6.8 8.25 2
      vertex -0.512189 4.87316 2
      vertex -7.03018 9.03393 2
    endloop
  endfacet
  facet normal 0 0 1
    outer loop
      vertex -3.96418 2.88015 2
      vertex -7.64765 6.93103 2
      vertex -4.47637 1.99301 2
    endloop
  endfacet
  facet normal 0 0 1
    outer loop
      vertex -3.27874 3.64141 2
      vertex -7.64765 6.93103 2
      vertex -3.96418 2.88015 2
    endloop
  endfacet
  facet normal -0 0 1
    outer loop
      vertex -7.64765 6.93103 2
      vertex -3.27874 3.64141 2
      vertex -7.03018 7.46607 2
    endloop
  endfacet
  facet normal 0 0 1
    outer loop
      vertex -2.45 4.24352 2
      vertex -7.03018 7.46607 2
      vertex -3.27874 3.64141 2
    endloop
  endfacet
  facet normal -0 0 1
    outer loop
      vertex -7.03018 7.46607 2
      vertex -2.45 4.24352 2
      vertex -6.8 8.25 2
    endloop
  endfacet
  facet normal 0 0 1
    outer loop
      vertex -0.512189 4.87316 2
      vertex -6.8 8.25 2
      vertex -1.51418 4.66018 2
    endloop
  endfacet
  facet normal 0 0 1
    outer loop
      vertex -1.51418 4.66018 2
      vertex -6.8 8.25 2
      vertex -2.45 4.24352 2
    endloop
  endfacet
  facet normal 0 0 1
    outer loop
      vertex 6.85874 8.65851 2
      vertex -8.02955 11.1918 2
      vertex -7.03018 9.03393 2
    endloop
  endfacet
  facet normal 0 0 1
    outer loop
      vertex -7.03018 9.03393 2
      vertex -8.02955 11.1918 2
      vertex -7.64765 9.56897 2
    endloop
  endfacet
  facet normal 0 0 1
    outer loop
      vertex -8.02955 11.1918 2
      vertex -8.45636 9.68524 2
      vertex -7.64765 9.56897 2
    endloop
  endfacet
  facet normal -0 0 1
    outer loop
      vertex -8.90644 11.126 2
      vertex -8.45636 9.68524 2
      vertex -8.02955 11.1918 2
    endloop
  endfacet
  facet normal -0 0 1
    outer loop
      vertex -9.725 10.8048 2
      vertex -8.45636 9.68524 2
      vertex -8.90644 11.126 2
    endloop
  endfacet
  facet normal 0 0 1
    outer loop
      vertex -8.45636 9.68524 2
      vertex -9.725 10.8048 2
      vertex -9.19955 9.34584 2
    endloop
  endfacet
  facet normal 0 0 1
    outer loop
      vertex -11.1671 8.68967 2
      vertex -9.64126 7.84149 2
      vertex -9.64126 8.65851 2
    endloop
  endfacet
  facet normal 0 0 1
    outer loop
      vertex -11.1671 -8.68967 2
      vertex -9.19955 -7.15416 2
      vertex -11.1671 8.68967 2
    endloop
  endfacet
  facet normal -0 0 1
    outer loop
      vertex -10.9079 9.52996 2
      vertex -9.19955 9.34584 2
      vertex -10.4125 10.2565 2
    endloop
  endfacet
  facet normal -0 0 1
    outer loop
      vertex -10.4125 10.2565 2
      vertex -9.19955 9.34584 2
      vertex -9.725 10.8048 2
    endloop
  endfacet
  facet normal 0 0 1
    outer loop
      vertex 11.0689 -9.11953 2
      vertex 9.46982 -9.03393 2
      vertex 10.6874 -9.91179 2
    endloop
  endfacet
  facet normal 0 0 1
    outer loop
      vertex 10.6874 -9.91179 2
      vertex 9.46982 -9.03393 2
      vertex 10.0893 -10.5564 2
    endloop
  endfacet
  facet normal -0 0 1
    outer loop
      vertex 8.85235 -9.56897 2
      vertex 10.0893 -10.5564 2
      vertex 9.46982 -9.03393 2
    endloop
  endfacet
  facet normal 0 0 1
    outer loop
      vertex 10.0893 -10.5564 2
      vertex 8.85235 -9.56897 2
      vertex 9.32776 -10.9961 2
    endloop
  endfacet
  facet normal 0 0 1
    outer loop
      vertex 8.85235 -9.56897 2
      vertex 8.47045 -11.1918 2
      vertex 9.32776 -10.9961 2
    endloop
  endfacet
  facet normal -0 0 1
    outer loop
      vertex 8.04364 -9.68524 2
      vertex 8.47045 -11.1918 2
      vertex 8.85235 -9.56897 2
    endloop
  endfacet
  facet normal 0 0 1
    outer loop
      vertex 7.30045 -9.34584 2
      vertex 8.47045 -11.1918 2
      vertex 8.04364 -9.68524 2
    endloop
  endfacet
  facet normal 0 0 1
    outer loop
      vertex -8.02955 -11.1918 2
      vertex 7.30045 -9.34584 2
      vertex 6.85874 -8.65851 2
    endloop
  endfacet
  facet normal 0 0 1
    outer loop
      vertex 8.04364 -6.81476 2
      vertex 3.96418 -2.88015 2
      vertex 7.30045 -7.15416 2
    endloop
  endfacet
  facet normal -0 0 1
    outer loop
      vertex 3.27874 -3.64141 2
      vertex 7.30045 -7.15416 2
      vertex 3.96418 -2.88015 2
    endloop
  endfacet
  facet normal 0 0 1
    outer loop
      vertex 7.30045 -7.15416 2
      vertex 3.27874 -3.64141 2
      vertex 6.85874 -7.84149 2
    endloop
  endfacet
  facet normal -0 0 1
    outer loop
      vertex 2.45 -4.24352 2
      vertex 6.85874 -7.84149 2
      vertex 3.27874 -3.64141 2
    endloop
  endfacet
  facet normal -0 0 1
    outer loop
      vertex 1.51418 -4.66018 2
      vertex 6.85874 -7.84149 2
      vertex 2.45 -4.24352 2
    endloop
  endfacet
  facet normal 0 0 1
    outer loop
      vertex 6.85874 -7.84149 2
      vertex 1.51418 -4.66018 2
      vertex 6.85874 -8.65851 2
    endloop
  endfacet
  facet normal -0 0 1
    outer loop
      vertex 0.512189 -4.87316 2
      vertex 6.85874 -8.65851 2
      vertex 1.51418 -4.66018 2
    endloop
  endfacet
  facet normal -0 0 1
    outer loop
      vertex 0 -4.9 2
      vertex 6.85874 -8.65851 2
      vertex 0.512189 -4.87316 2
    endloop
  endfacet
  facet normal 0 0 1
    outer loop
      vertex 0 -4.9 2
      vertex 0.512189 -4.87316 2
      vertex 0.0268431 -4.87316 2
    endloop
  endfacet
  facet normal 0 0 1
    outer loop
      vertex -7.03018 -9.03393 2
      vertex 6.85874 -8.65851 2
      vertex 0 -4.9 2
    endloop
  endfacet
  facet normal -0 0 1
    outer loop
      vertex -0.512189 -4.87316 2
      vertex 0 -4.9 2
      vertex -0.0268431 -4.87316 2
    endloop
  endfacet
  facet normal 0 0 1
    outer loop
      vertex -7.03018 -9.03393 2
      vertex 0 -4.9 2
      vertex -0.512189 -4.87316 2
    endloop
  endfacet
  facet normal 0 0 1
    outer loop
      vertex -6.8 -8.25 2
      vertex -0.512189 -4.87316 2
      vertex -1.51418 -4.66018 2
    endloop
  endfacet
  facet normal 0 0 1
    outer loop
      vertex -6.8 -8.25 2
      vertex -1.51418 -4.66018 2
      vertex -2.45 -4.24352 2
    endloop
  endfacet
  facet normal -0 0 1
    outer loop
      vertex -8.45636 6.81476 2
      vertex -4.47637 1.99301 2
      vertex -7.64765 6.93103 2
    endloop
  endfacet
  facet normal 0 0 1
    outer loop
      vertex -4.9 0 2
      vertex -6.8 -8.25 2
      vertex -4.79292 -1.01877 2
    endloop
  endfacet
  facet normal 0 0 1
    outer loop
      vertex -6.8 -8.25 2
      vertex -4.47637 -1.99301 2
      vertex -4.79292 -1.01877 2
    endloop
  endfacet
  facet normal 0 0 1
    outer loop
      vertex -6.8 -8.25 2
      vertex -3.96418 -2.88015 2
      vertex -4.47637 -1.99301 2
    endloop
  endfacet
  facet normal 0 0 1
    outer loop
      vertex -6.8 -8.25 2
      vertex -3.27874 -3.64141 2
      vertex -3.96418 -2.88015 2
    endloop
  endfacet
  facet normal 0 0 1
    outer loop
      vertex -6.8 -8.25 2
      vertex -2.45 -4.24352 2
      vertex -3.27874 -3.64141 2
    endloop
  endfacet
  facet normal 0 0 1
    outer loop
      vertex -0.512189 -4.87316 2
      vertex -6.8 -8.25 2
      vertex -7.03018 -9.03393 2
    endloop
  endfacet
  facet normal 0 0 1
    outer loop
      vertex -8.02955 -11.1918 2
      vertex 6.85874 -8.65851 2
      vertex -7.03018 -9.03393 2
    endloop
  endfacet
  facet normal 0 0 1
    outer loop
      vertex -8.02955 -11.1918 2
      vertex -7.03018 -9.03393 2
      vertex -7.64765 -9.56897 2
    endloop
  endfacet
  facet normal 0 0 1
    outer loop
      vertex 7.30045 -9.34584 2
      vertex -8.02955 -11.1918 2
      vertex 8.47045 -11.1918 2
    endloop
  endfacet
  facet normal -0 0 1
    outer loop
      vertex -8.45636 -9.68524 2
      vertex -8.02955 -11.1918 2
      vertex -7.64765 -9.56897 2
    endloop
  endfacet
  facet normal 0 0 1
    outer loop
      vertex -8.45636 -9.68524 2
      vertex -8.90644 -11.126 2
      vertex -8.02955 -11.1918 2
    endloop
  endfacet
  facet normal 0 0 1
    outer loop
      vertex -9.725 -10.8048 2
      vertex -8.45636 -9.68524 2
      vertex -9.19955 -9.34584 2
    endloop
  endfacet
  facet normal 0 0 1
    outer loop
      vertex -10.9079 -9.52996 2
      vertex -9.19955 -9.34584 2
      vertex -9.64126 -8.65851 2
    endloop
  endfacet
  facet normal 0 0 1
    outer loop
      vertex -8.45636 -9.68524 2
      vertex -9.725 -10.8048 2
      vertex -8.90644 -11.126 2
    endloop
  endfacet
  facet normal 0 0 1
    outer loop
      vertex -9.19955 -7.15416 2
      vertex -11.1671 -8.68967 2
      vertex -9.64126 -7.84149 2
    endloop
  endfacet
  facet normal 0 0 1
    outer loop
      vertex -9.19955 9.34584 2
      vertex -10.9079 9.52996 2
      vertex -9.64126 8.65851 2
    endloop
  endfacet
  facet normal 0 0 1
    outer loop
      vertex -9.64126 -7.84149 2
      vertex -11.1671 -8.68967 2
      vertex -9.64126 -8.65851 2
    endloop
  endfacet
  facet normal 0 0 1
    outer loop
      vertex -9.64126 8.65851 2
      vertex -10.9079 9.52996 2
      vertex -11.1671 8.68967 2
    endloop
  endfacet
  facet normal 0 -0 1
    outer loop
      vertex -10.9079 -9.52996 2
      vertex -9.64126 -8.65851 2
      vertex -11.1671 -8.68967 2
    endloop
  endfacet
  facet normal 0 0 1
    outer loop
      vertex -9.19955 -9.34584 2
      vertex -10.4125 -10.2565 2
      vertex -9.725 -10.8048 2
    endloop
  endfacet
  facet normal 0 0 1
    outer loop
      vertex -9.19955 -9.34584 2
      vertex -10.9079 -9.52996 2
      vertex -10.4125 -10.2565 2
    endloop
  endfacet
  facet normal 0.500001 -0.866025 0
    outer loop
      vertex 9.32776 -10.9961 0
      vertex 10.0893 -10.5564 2
      vertex 9.32776 -10.9961 2
    endloop
  endfacet
  facet normal 0.500001 -0.866025 0
    outer loop
      vertex 10.0893 -10.5564 2
      vertex 9.32776 -10.9961 0
      vertex 10.0893 -10.5564 0
    endloop
  endfacet
  facet normal -0.365341 -0.930874 0
    outer loop
      vertex -9.725 -10.8048 0
      vertex -8.90644 -11.126 2
      vertex -9.725 -10.8048 2
    endloop
  endfacet
  facet normal -0.365341 -0.930874 -0
    outer loop
      vertex -8.90644 -11.126 2
      vertex -9.725 -10.8048 0
      vertex -8.90644 -11.126 0
    endloop
  endfacet
  facet normal 0.22252 0.974928 -0
    outer loop
      vertex 9.32776 10.9961 0
      vertex 8.47045 11.1918 2
      vertex 9.32776 10.9961 2
    endloop
  endfacet
  facet normal 0.22252 0.974928 0
    outer loop
      vertex 8.47045 11.1918 2
      vertex 9.32776 10.9961 0
      vertex 8.47045 11.1918 0
    endloop
  endfacet
  facet normal 0 1 -0
    outer loop
      vertex 8.47045 11.1918 0
      vertex -8.02955 11.1918 2
      vertex 8.47045 11.1918 2
    endloop
  endfacet
  facet normal 0 1 0
    outer loop
      vertex -8.02955 11.1918 2
      vertex 8.47045 11.1918 0
      vertex -8.02955 11.1918 0
    endloop
  endfacet
  facet normal -0.955573 0.294755 0
    outer loop
      vertex -11.1671 8.68967 0
      vertex -10.9079 9.52996 2
      vertex -10.9079 9.52996 0
    endloop
  endfacet
  facet normal -0.955573 0.294755 0
    outer loop
      vertex -10.9079 9.52996 2
      vertex -11.1671 8.68967 0
      vertex -11.1671 8.68967 2
    endloop
  endfacet
  facet normal -0.826238 0.563321 0
    outer loop
      vertex -10.9079 9.52996 0
      vertex -10.4125 10.2565 2
      vertex -10.4125 10.2565 0
    endloop
  endfacet
  facet normal -0.826238 0.563321 0
    outer loop
      vertex -10.4125 10.2565 2
      vertex -10.9079 9.52996 0
      vertex -10.9079 9.52996 2
    endloop
  endfacet
  facet normal 1 -0 0
    outer loop
      vertex 11.2 -8.25 2
      vertex 11.2 8.25 0
      vertex 11.2 8.25 2
    endloop
  endfacet
  facet normal 1 0 0
    outer loop
      vertex 11.2 8.25 0
      vertex 11.2 -8.25 2
      vertex 11.2 -8.25 0
    endloop
  endfacet
  facet normal 0.733052 -0.680173 0
    outer loop
      vertex 10.0893 -10.5564 2
      vertex 10.6874 -9.91179 0
      vertex 10.6874 -9.91179 2
    endloop
  endfacet
  facet normal 0.733052 -0.680173 0
    outer loop
      vertex 10.6874 -9.91179 0
      vertex 10.0893 -10.5564 2
      vertex 10.0893 -10.5564 0
    endloop
  endfacet
  facet normal 0.988831 -0.149043 0
    outer loop
      vertex 11.0689 -9.11953 2
      vertex 11.2 -8.25 0
      vertex 11.2 -8.25 2
    endloop
  endfacet
  facet normal 0.988831 -0.149043 0
    outer loop
      vertex 11.2 -8.25 0
      vertex 11.0689 -9.11953 2
      vertex 11.0689 -9.11953 0
    endloop
  endfacet
  facet normal 0 0 -1
    outer loop
      vertex -7.03018 7.46607 0
      vertex 7.30045 7.15416 0
      vertex -7.03018 -7.46607 0
    endloop
  endfacet
  facet normal 0 0 -1
    outer loop
      vertex 7.30045 7.15416 0
      vertex -7.03018 7.46607 0
      vertex -6.8 8.25 0
    endloop
  endfacet
  facet normal 0 0 -1
    outer loop
      vertex -7.64765 -6.93103 0
      vertex -7.03018 7.46607 0
      vertex -7.03018 -7.46607 0
    endloop
  endfacet
  facet normal 0 0 -1
    outer loop
      vertex -7.64765 -6.93103 0
      vertex -7.64765 6.93103 0
      vertex -7.03018 7.46607 0
    endloop
  endfacet
  facet normal 0 0 -1
    outer loop
      vertex -8.45636 -6.81476 0
      vertex -7.64765 6.93103 0
      vertex -7.64765 -6.93103 0
    endloop
  endfacet
  facet normal 0 0 -1
    outer loop
      vertex -8.45636 -6.81476 0
      vertex -8.45636 6.81476 0
      vertex -7.64765 6.93103 0
    endloop
  endfacet
  facet normal 0 0 -1
    outer loop
      vertex -9.19955 -7.15416 0
      vertex -8.45636 6.81476 0
      vertex -8.45636 -6.81476 0
    endloop
  endfacet
  facet normal 0 0 -1
    outer loop
      vertex -9.19955 -7.15416 0
      vertex -9.19955 7.15416 0
      vertex -8.45636 6.81476 0
    endloop
  endfacet
  facet normal 0 0 -1
    outer loop
      vertex -11.1671 -8.68967 0
      vertex -9.19955 -7.15416 0
      vertex -9.64126 -7.84149 0
    endloop
  endfacet
  facet normal -0 0 -1
    outer loop
      vertex -9.19955 -7.15416 0
      vertex -11.1671 -8.68967 0
      vertex -9.19955 7.15416 0
    endloop
  endfacet
  facet normal 0 0 -1
    outer loop
      vertex 11.2 -8.25 0
      vertex 8.85235 -6.93103 0
      vertex 11.2 8.25 0
    endloop
  endfacet
  facet normal -0 0 -1
    outer loop
      vertex 11.2 8.25 0
      vertex 9.46982 7.46607 0
      vertex 9.7 8.25 0
    endloop
  endfacet
  facet normal 0 0 -1
    outer loop
      vertex 8.85235 6.93103 0
      vertex 11.2 8.25 0
      vertex 8.85235 -6.93103 0
    endloop
  endfacet
  facet normal 0 0 -1
    outer loop
      vertex 11.2 8.25 0
      vertex 8.85235 6.93103 0
      vertex 9.46982 7.46607 0
    endloop
  endfacet
  facet normal 0 0 -1
    outer loop
      vertex 8.04364 -6.81476 0
      vertex 8.85235 6.93103 0
      vertex 8.85235 -6.93103 0
    endloop
  endfacet
  facet normal 0 0 -1
    outer loop
      vertex 8.04364 -6.81476 0
      vertex 8.04364 6.81476 0
      vertex 8.85235 6.93103 0
    endloop
  endfacet
  facet normal 0 0 -1
    outer loop
      vertex 7.30045 -7.15416 0
      vertex 8.04364 6.81476 0
      vertex 8.04364 -6.81476 0
    endloop
  endfacet
  facet normal 0 0 -1
    outer loop
      vertex 7.30045 -7.15416 0
      vertex 7.30045 7.15416 0
      vertex 8.04364 6.81476 0
    endloop
  endfacet
  facet normal 0 0 -1
    outer loop
      vertex -7.03018 -7.46607 0
      vertex 6.85874 -7.84149 0
      vertex -6.8 -8.25 0
    endloop
  endfacet
  facet normal 0 0 -1
    outer loop
      vertex 6.85874 -7.84149 0
      vertex -7.03018 -7.46607 0
      vertex 7.30045 -7.15416 0
    endloop
  endfacet
  facet normal 0 0 -1
    outer loop
      vertex 9.7 -8.25 0
      vertex 11.2 -8.25 0
      vertex 11.0689 -9.11953 0
    endloop
  endfacet
  facet normal 0 0 -1
    outer loop
      vertex 9.46982 -7.46607 0
      vertex 11.2 -8.25 0
      vertex 9.7 -8.25 0
    endloop
  endfacet
  facet normal 0 0 -1
    outer loop
      vertex 9.46982 -9.03393 0
      vertex 11.0689 -9.11953 0
      vertex 10.6874 -9.91179 0
    endloop
  endfacet
  facet normal 0 0 -1
    outer loop
      vertex 8.85235 -6.93103 0
      vertex 11.2 -8.25 0
      vertex 9.46982 -7.46607 0
    endloop
  endfacet
  facet normal 0 0 -1
    outer loop
      vertex 9.46982 -9.03393 0
      vertex 10.6874 -9.91179 0
      vertex 10.0893 -10.5564 0
    endloop
  endfacet
  facet normal 0 0 -1
    outer loop
      vertex 11.2 8.25 0
      vertex 9.7 8.25 0
      vertex 11.0689 9.11953 0
    endloop
  endfacet
  facet normal 0 0 -1
    outer loop
      vertex 9.46982 9.03393 0
      vertex 11.0689 9.11953 0
      vertex 9.7 8.25 0
    endloop
  endfacet
  facet normal 0 0 -1
    outer loop
      vertex 11.0689 -9.11953 0
      vertex 9.46982 -9.03393 0
      vertex 9.7 -8.25 0
    endloop
  endfacet
  facet normal 0 0 -1
    outer loop
      vertex 8.85235 -9.56897 0
      vertex 10.0893 -10.5564 0
      vertex 9.32776 -10.9961 0
    endloop
  endfacet
  facet normal 0 0 -1
    outer loop
      vertex 10.0893 -10.5564 0
      vertex 8.85235 -9.56897 0
      vertex 9.46982 -9.03393 0
    endloop
  endfacet
  facet normal 0 0 -1
    outer loop
      vertex 8.47045 -11.1918 0
      vertex 8.85235 -9.56897 0
      vertex 9.32776 -10.9961 0
    endloop
  endfacet
  facet normal 0 0 -1
    outer loop
      vertex 8.47045 -11.1918 0
      vertex 8.04364 -9.68524 0
      vertex 8.85235 -9.56897 0
    endloop
  endfacet
  facet normal 0 0 -1
    outer loop
      vertex 8.47045 -11.1918 0
      vertex 7.30045 -9.34584 0
      vertex 8.04364 -9.68524 0
    endloop
  endfacet
  facet normal 0 0 -1
    outer loop
      vertex -8.02955 -11.1918 0
      vertex 7.30045 -9.34584 0
      vertex 8.47045 -11.1918 0
    endloop
  endfacet
  facet normal 0 0 -1
    outer loop
      vertex -6.8 -8.25 0
      vertex 6.85874 -7.84149 0
      vertex 6.85874 -8.65851 0
    endloop
  endfacet
  facet normal -0 0 -1
    outer loop
      vertex 7.30045 -7.15416 0
      vertex -7.03018 -7.46607 0
      vertex 7.30045 7.15416 0
    endloop
  endfacet
  facet normal 0 0 -1
    outer loop
      vertex 7.30045 7.15416 0
      vertex -6.8 8.25 0
      vertex 6.85874 7.84149 0
    endloop
  endfacet
  facet normal -0 0 -1
    outer loop
      vertex 7.30045 -9.34584 0
      vertex -8.02955 -11.1918 0
      vertex 6.85874 -8.65851 0
    endloop
  endfacet
  facet normal -0 0 -1
    outer loop
      vertex 6.85874 -8.65851 0
      vertex -7.03018 -9.03393 0
      vertex -6.8 -8.25 0
    endloop
  endfacet
  facet normal 0 0 -1
    outer loop
      vertex 6.85874 -8.65851 0
      vertex -8.02955 -11.1918 0
      vertex -7.03018 -9.03393 0
    endloop
  endfacet
  facet normal 0 0 -1
    outer loop
      vertex -7.03018 -9.03393 0
      vertex -8.02955 -11.1918 0
      vertex -7.64765 -9.56897 0
    endloop
  endfacet
  facet normal 0 0 -1
    outer loop
      vertex -8.02955 -11.1918 0
      vertex -8.45636 -9.68524 0
      vertex -7.64765 -9.56897 0
    endloop
  endfacet
  facet normal 0 0 -1
    outer loop
      vertex -8.90644 -11.126 0
      vertex -8.45636 -9.68524 0
      vertex -8.02955 -11.1918 0
    endloop
  endfacet
  facet normal 0 0 -1
    outer loop
      vertex -9.725 -10.8048 0
      vertex -8.45636 -9.68524 0
      vertex -8.90644 -11.126 0
    endloop
  endfacet
  facet normal -0 0 -1
    outer loop
      vertex -8.45636 -9.68524 0
      vertex -9.725 -10.8048 0
      vertex -9.19955 -9.34584 0
    endloop
  endfacet
  facet normal 0 0 -1
    outer loop
      vertex -11.1671 -8.68967 0
      vertex -9.64126 -7.84149 0
      vertex -9.64126 -8.65851 0
    endloop
  endfacet
  facet normal 0 0 -1
    outer loop
      vertex -11.1671 8.68967 0
      vertex -9.19955 7.15416 0
      vertex -11.1671 -8.68967 0
    endloop
  endfacet
  facet normal 0 0 -1
    outer loop
      vertex -10.9079 -9.52996 0
      vertex -9.19955 -9.34584 0
      vertex -10.4125 -10.2565 0
    endloop
  endfacet
  facet normal 0 0 -1
    outer loop
      vertex -10.4125 -10.2565 0
      vertex -9.19955 -9.34584 0
      vertex -9.725 -10.8048 0
    endloop
  endfacet
  facet normal -0 0 -1
    outer loop
      vertex 11.0689 9.11953 0
      vertex 9.46982 9.03393 0
      vertex 10.6874 9.91179 0
    endloop
  endfacet
  facet normal -0 0 -1
    outer loop
      vertex 10.6874 9.91179 0
      vertex 9.46982 9.03393 0
      vertex 10.0893 10.5564 0
    endloop
  endfacet
  facet normal 0 0 -1
    outer loop
      vertex 8.85235 9.56897 0
      vertex 10.0893 10.5564 0
      vertex 9.46982 9.03393 0
    endloop
  endfacet
  facet normal -0 0 -1
    outer loop
      vertex 10.0893 10.5564 0
      vertex 8.85235 9.56897 0
      vertex 9.32776 10.9961 0
    endloop
  endfacet
  facet normal 0 0 -1
    outer loop
      vertex 8.85235 9.56897 0
      vertex 8.47045 11.1918 0
      vertex 9.32776 10.9961 0
    endloop
  endfacet
  facet normal 0 0 -1
    outer loop
      vertex 8.04364 9.68524 0
      vertex 8.47045 11.1918 0
      vertex 8.85235 9.56897 0
    endloop
  endfacet
  facet normal 0 0 -1
    outer loop
      vertex 7.30045 9.34584 0
      vertex 8.47045 11.1918 0
      vertex 8.04364 9.68524 0
    endloop
  endfacet
  facet normal 0 0 -1
    outer loop
      vertex -8.02955 11.1918 0
      vertex 7.30045 9.34584 0
      vertex 6.85874 8.65851 0
    endloop
  endfacet
  facet normal 0 0 -1
    outer loop
      vertex 6.85874 7.84149 0
      vertex -6.8 8.25 0
      vertex 6.85874 8.65851 0
    endloop
  endfacet
  facet normal 0 0 -1
    outer loop
      vertex -7.03018 9.03393 0
      vertex 6.85874 8.65851 0
      vertex -6.8 8.25 0
    endloop
  endfacet
  facet normal 0 0 -1
    outer loop
      vertex -8.02955 11.1918 0
      vertex 6.85874 8.65851 0
      vertex -7.03018 9.03393 0
    endloop
  endfacet
  facet normal 0 0 -1
    outer loop
      vertex -8.02955 11.1918 0
      vertex -7.03018 9.03393 0
      vertex -7.64765 9.56897 0
    endloop
  endfacet
  facet normal 0 0 -1
    outer loop
      vertex 7.30045 9.34584 0
      vertex -8.02955 11.1918 0
      vertex 8.47045 11.1918 0
    endloop
  endfacet
  facet normal 0 0 -1
    outer loop
      vertex -8.45636 9.68524 0
      vertex -8.02955 11.1918 0
      vertex -7.64765 9.56897 0
    endloop
  endfacet
  facet normal 0 0 -1
    outer loop
      vertex -8.45636 9.68524 0
      vertex -8.90644 11.126 0
      vertex -8.02955 11.1918 0
    endloop
  endfacet
  facet normal 0 0 -1
    outer loop
      vertex -9.725 10.8048 0
      vertex -8.45636 9.68524 0
      vertex -9.19955 9.34584 0
    endloop
  endfacet
  facet normal 0 0 -1
    outer loop
      vertex -10.9079 9.52996 0
      vertex -9.19955 9.34584 0
      vertex -9.64126 8.65851 0
    endloop
  endfacet
  facet normal 0 0 -1
    outer loop
      vertex -8.45636 9.68524 0
      vertex -9.725 10.8048 0
      vertex -8.90644 11.126 0
    endloop
  endfacet
  facet normal 0 0 -1
    outer loop
      vertex -9.19955 7.15416 0
      vertex -11.1671 8.68967 0
      vertex -9.64126 7.84149 0
    endloop
  endfacet
  facet normal -0 0 -1
    outer loop
      vertex -9.19955 -9.34584 0
      vertex -10.9079 -9.52996 0
      vertex -9.64126 -8.65851 0
    endloop
  endfacet
  facet normal 0 0 -1
    outer loop
      vertex -9.64126 7.84149 0
      vertex -11.1671 8.68967 0
      vertex -9.64126 8.65851 0
    endloop
  endfacet
  facet normal 0 0 -1
    outer loop
      vertex -9.64126 -8.65851 0
      vertex -10.9079 -9.52996 0
      vertex -11.1671 -8.68967 0
    endloop
  endfacet
  facet normal 0 -0 -1
    outer loop
      vertex -10.9079 9.52996 0
      vertex -9.64126 8.65851 0
      vertex -11.1671 8.68967 0
    endloop
  endfacet
  facet normal 0 0 -1
    outer loop
      vertex -9.19955 9.34584 0
      vertex -10.4125 10.2565 0
      vertex -9.725 10.8048 0
    endloop
  endfacet
  facet normal 0 0 -1
    outer loop
      vertex -9.19955 9.34584 0
      vertex -10.9079 9.52996 0
      vertex -10.4125 10.2565 0
    endloop
  endfacet
  facet normal 0.733052 0.680173 0
    outer loop
      vertex 10.6874 9.91179 2
      vertex 10.0893 10.5564 0
      vertex 10.0893 10.5564 2
    endloop
  endfacet
  facet normal 0.733052 0.680173 0
    outer loop
      vertex 10.0893 10.5564 0
      vertex 10.6874 9.91179 2
      vertex 10.6874 9.91179 0
    endloop
  endfacet
  facet normal 0.900969 0.433884 0
    outer loop
      vertex 11.0689 9.11953 2
      vertex 10.6874 9.91179 0
      vertex 10.6874 9.91179 2
    endloop
  endfacet
  facet normal 0.900969 0.433884 0
    outer loop
      vertex 10.6874 9.91179 0
      vertex 11.0689 9.11953 2
      vertex 11.0689 9.11953 0
    endloop
  endfacet
  facet normal 0.500001 0.866025 -0
    outer loop
      vertex 10.0893 10.5564 0
      vertex 9.32776 10.9961 2
      vertex 10.0893 10.5564 2
    endloop
  endfacet
  facet normal 0.500001 0.866025 0
    outer loop
      vertex 9.32776 10.9961 2
      vertex 10.0893 10.5564 0
      vertex 9.32776 10.9961 0
    endloop
  endfacet
  facet normal 0.900969 -0.433884 0
    outer loop
      vertex 10.6874 -9.91179 2
      vertex 11.0689 -9.11953 0
      vertex 11.0689 -9.11953 2
    endloop
  endfacet
  facet normal 0.900969 -0.433884 0
    outer loop
      vertex 11.0689 -9.11953 0
      vertex 10.6874 -9.91179 2
      vertex 10.6874 -9.91179 0
    endloop
  endfacet
  facet normal -0.0747301 -0.997204 0
    outer loop
      vertex -8.90644 -11.126 0
      vertex -8.02955 -11.1918 2
      vertex -8.90644 -11.126 2
    endloop
  endfacet
  facet normal -0.0747301 -0.997204 -0
    outer loop
      vertex -8.02955 -11.1918 2
      vertex -8.90644 -11.126 0
      vertex -8.02955 -11.1918 0
    endloop
  endfacet
  facet normal 0.22252 -0.974928 0
    outer loop
      vertex 8.47045 -11.1918 0
      vertex 9.32776 -10.9961 2
      vertex 8.47045 -11.1918 2
    endloop
  endfacet
  facet normal 0.22252 -0.974928 0
    outer loop
      vertex 9.32776 -10.9961 2
      vertex 8.47045 -11.1918 0
      vertex 9.32776 -10.9961 0
    endloop
  endfacet
  facet normal -0.62349 -0.781831 0
    outer loop
      vertex -10.4125 -10.2565 0
      vertex -9.725 -10.8048 2
      vertex -10.4125 -10.2565 2
    endloop
  endfacet
  facet normal -0.62349 -0.781831 -0
    outer loop
      vertex -9.725 -10.8048 2
      vertex -10.4125 -10.2565 0
      vertex -9.725 -10.8048 0
    endloop
  endfacet
  facet normal -0.955573 -0.294755 0
    outer loop
      vertex -10.9079 -9.52996 0
      vertex -11.1671 -8.68967 2
      vertex -11.1671 -8.68967 0
    endloop
  endfacet
  facet normal -0.955573 -0.294755 0
    outer loop
      vertex -11.1671 -8.68967 2
      vertex -10.9079 -9.52996 0
      vertex -10.9079 -9.52996 2
    endloop
  endfacet
  facet normal -0.0747301 0.997204 0
    outer loop
      vertex -8.02955 11.1918 0
      vertex -8.90644 11.126 2
      vertex -8.02955 11.1918 2
    endloop
  endfacet
  facet normal -0.0747301 0.997204 0
    outer loop
      vertex -8.90644 11.126 2
      vertex -8.02955 11.1918 0
      vertex -8.90644 11.126 0
    endloop
  endfacet
  facet normal -0.365341 0.930874 0
    outer loop
      vertex -8.90644 11.126 0
      vertex -9.725 10.8048 2
      vertex -8.90644 11.126 2
    endloop
  endfacet
  facet normal -0.365341 0.930874 0
    outer loop
      vertex -9.725 10.8048 2
      vertex -8.90644 11.126 0
      vertex -9.725 10.8048 0
    endloop
  endfacet
  facet normal 0 -1 0
    outer loop
      vertex -8.02955 -11.1918 0
      vertex 8.47045 -11.1918 2
      vertex -8.02955 -11.1918 2
    endloop
  endfacet
  facet normal 0 -1 -0
    outer loop
      vertex 8.47045 -11.1918 2
      vertex -8.02955 -11.1918 0
      vertex 8.47045 -11.1918 0
    endloop
  endfacet
  facet normal -0.826238 -0.563321 0
    outer loop
      vertex -10.4125 -10.2565 0
      vertex -10.9079 -9.52996 2
      vertex -10.9079 -9.52996 0
    endloop
  endfacet
  facet normal -0.826238 -0.563321 0
    outer loop
      vertex -10.9079 -9.52996 2
      vertex -10.4125 -10.2565 0
      vertex -10.4125 -10.2565 2
    endloop
  endfacet
  facet normal 0.994522 0.104528 0
    outer loop
      vertex 4.9 0 20
      vertex 4.79292 1.01877 2
      vertex 4.79292 1.01877 20
    endloop
  endfacet
  facet normal 0.994522 0.104528 0
    outer loop
      vertex 4.79292 1.01877 2
      vertex 4.9 0 20
      vertex 4.9 0 2
    endloop
  endfacet
  facet normal -0.994522 0.104528 0
    outer loop
      vertex -4.9 0 2
      vertex -4.79292 1.01877 20
      vertex -4.79292 1.01877 2
    endloop
  endfacet
  facet normal -0.994522 0.104528 0
    outer loop
      vertex -4.79292 1.01877 20
      vertex -4.9 0 2
      vertex -4.9 0 20
    endloop
  endfacet
  facet normal 0 1 -0
    outer loop
      vertex -0.0268431 4.87316 2
      vertex -0.512189 4.87316 20
      vertex -0.0268431 4.87316 20
    endloop
  endfacet
  facet normal 0 1 0
    outer loop
      vertex -0.512189 4.87316 20
      vertex -0.0268431 4.87316 2
      vertex -0.512189 4.87316 2
    endloop
  endfacet
  facet normal 0 1 -0
    outer loop
      vertex 0.512189 4.87316 2
      vertex 0.0268431 4.87316 20
      vertex 0.512189 4.87316 20
    endloop
  endfacet
  facet normal 0 1 0
    outer loop
      vertex 0.0268431 4.87316 20
      vertex 0.512189 4.87316 2
      vertex 0.0268431 4.87316 2
    endloop
  endfacet
  facet normal 0.743145 0.66913 0
    outer loop
      vertex 3.96418 2.88015 20
      vertex 3.27874 3.64141 2
      vertex 3.27874 3.64141 20
    endloop
  endfacet
  facet normal 0.743145 0.66913 0
    outer loop
      vertex 3.27874 3.64141 2
      vertex 3.96418 2.88015 20
      vertex 3.96418 2.88015 2
    endloop
  endfacet
  facet normal 0.951057 0.309017 0
    outer loop
      vertex 4.79292 1.01877 20
      vertex 4.47637 1.99301 2
      vertex 4.47637 1.99301 20
    endloop
  endfacet
  facet normal 0.951057 0.309017 0
    outer loop
      vertex 4.47637 1.99301 2
      vertex 4.79292 1.01877 20
      vertex 4.79292 1.01877 2
    endloop
  endfacet
  facet normal -0.587785 0.809017 0
    outer loop
      vertex -2.45 4.24352 2
      vertex -3.27874 3.64141 20
      vertex -2.45 4.24352 20
    endloop
  endfacet
  facet normal -0.587785 0.809017 0
    outer loop
      vertex -3.27874 3.64141 20
      vertex -2.45 4.24352 2
      vertex -3.27874 3.64141 2
    endloop
  endfacet
  facet normal -0.207912 0.978148 0
    outer loop
      vertex -0.512189 4.87316 2
      vertex -1.51418 4.66018 20
      vertex -0.512189 4.87316 20
    endloop
  endfacet
  facet normal -0.207912 0.978148 0
    outer loop
      vertex -1.51418 4.66018 20
      vertex -0.512189 4.87316 2
      vertex -1.51418 4.66018 2
    endloop
  endfacet
  facet normal 0.866025 -0.5 0
    outer loop
      vertex 3.96418 -2.88015 20
      vertex 4.47637 -1.99301 2
      vertex 4.47637 -1.99301 20
    endloop
  endfacet
  facet normal 0.866025 -0.5 0
    outer loop
      vertex 4.47637 -1.99301 2
      vertex 3.96418 -2.88015 20
      vertex 3.96418 -2.88015 2
    endloop
  endfacet
  facet normal 0.866025 0.5 0
    outer loop
      vertex 4.47637 1.99301 20
      vertex 3.96418 2.88015 2
      vertex 3.96418 2.88015 20
    endloop
  endfacet
  facet normal 0.866025 0.5 0
    outer loop
      vertex 3.96418 2.88015 2
      vertex 4.47637 1.99301 20
      vertex 4.47637 1.99301 2
    endloop
  endfacet
  facet normal 0.406737 0.913545 -0
    outer loop
      vertex 2.45 4.24352 2
      vertex 1.51418 4.66018 20
      vertex 2.45 4.24352 20
    endloop
  endfacet
  facet normal 0.406737 0.913545 0
    outer loop
      vertex 1.51418 4.66018 20
      vertex 2.45 4.24352 2
      vertex 1.51418 4.66018 2
    endloop
  endfacet
  facet normal 0.207912 0.978148 -0
    outer loop
      vertex 1.51418 4.66018 2
      vertex 0.512189 4.87316 20
      vertex 1.51418 4.66018 20
    endloop
  endfacet
  facet normal 0.207912 0.978148 0
    outer loop
      vertex 0.512189 4.87316 20
      vertex 1.51418 4.66018 2
      vertex 0.512189 4.87316 2
    endloop
  endfacet
  facet normal 0.587785 0.809017 -0
    outer loop
      vertex 3.27874 3.64141 2
      vertex 2.45 4.24352 20
      vertex 3.27874 3.64141 20
    endloop
  endfacet
  facet normal 0.587785 0.809017 0
    outer loop
      vertex 2.45 4.24352 20
      vertex 3.27874 3.64141 2
      vertex 2.45 4.24352 2
    endloop
  endfacet
  facet normal -0.866025 0.5 0
    outer loop
      vertex -4.47637 1.99301 2
      vertex -3.96418 2.88015 20
      vertex -3.96418 2.88015 2
    endloop
  endfacet
  facet normal -0.866025 0.5 0
    outer loop
      vertex -3.96418 2.88015 20
      vertex -4.47637 1.99301 2
      vertex -4.47637 1.99301 20
    endloop
  endfacet
  facet normal -0.743145 0.66913 0
    outer loop
      vertex -3.96418 2.88015 2
      vertex -3.27874 3.64141 20
      vertex -3.27874 3.64141 2
    endloop
  endfacet
  facet normal -0.743145 0.66913 0
    outer loop
      vertex -3.27874 3.64141 20
      vertex -3.96418 2.88015 2
      vertex -3.96418 2.88015 20
    endloop
  endfacet
  facet normal -0.951057 0.309017 0
    outer loop
      vertex -4.79292 1.01877 2
      vertex -4.47637 1.99301 20
      vertex -4.47637 1.99301 2
    endloop
  endfacet
  facet normal -0.951057 0.309017 0
    outer loop
      vertex -4.47637 1.99301 20
      vertex -4.79292 1.01877 2
      vertex -4.79292 1.01877 20
    endloop
  endfacet
  facet normal 0 0 1
    outer loop
      vertex 4.47637 1.99301 20
      vertex 4.9 0 20
      vertex 4.79292 1.01877 20
    endloop
  endfacet
  facet normal 0 0 1
    outer loop
      vertex 3.96418 2.88015 20
      vertex 4.9 0 20
      vertex 4.47637 1.99301 20
    endloop
  endfacet
  facet normal 0 0 1
    outer loop
      vertex 3.27874 3.64141 20
      vertex 4.9 0 20
      vertex 3.96418 2.88015 20
    endloop
  endfacet
  facet normal 0 0 1
    outer loop
      vertex 2.45 4.24352 20
      vertex 4.9 0 20
      vertex 3.27874 3.64141 20
    endloop
  endfacet
  facet normal 0 0 1
    outer loop
      vertex 0.0268431 4.87316 20
      vertex 2.45 4.24352 20
      vertex 1.51418 4.66018 20
    endloop
  endfacet
  facet normal -0 0 1
    outer loop
      vertex 0.0268431 4.87316 20
      vertex 1.51418 4.66018 20
      vertex 0.512189 4.87316 20
    endloop
  endfacet
  facet normal 0 0 1
    outer loop
      vertex 2.45 4.24352 20
      vertex 0.0268431 4.87316 20
      vertex 4.9 0 20
    endloop
  endfacet
  facet normal 0 0 1
    outer loop
      vertex 4.9 0 20
      vertex 4.47637 -1.99301 20
      vertex 4.79292 -1.01877 20
    endloop
  endfacet
  facet normal 0 0 1
    outer loop
      vertex 4.9 0 20
      vertex 3.96418 -2.88015 20
      vertex 4.47637 -1.99301 20
    endloop
  endfacet
  facet normal 0 0 1
    outer loop
      vertex 4.9 0 20
      vertex 3.27874 -3.64141 20
      vertex 3.96418 -2.88015 20
    endloop
  endfacet
  facet normal 0 0 1
    outer loop
      vertex 4.9 0 20
      vertex 2.45 -4.24352 20
      vertex 3.27874 -3.64141 20
    endloop
  endfacet
  facet normal 0 0 1
    outer loop
      vertex 0.0268431 -4.87316 20
      vertex 2.45 -4.24352 20
      vertex 4.9 0 20
    endloop
  endfacet
  facet normal 0 0 1
    outer loop
      vertex 2.45 -4.24352 20
      vertex 0.0268431 -4.87316 20
      vertex 1.51418 -4.66018 20
    endloop
  endfacet
  facet normal 0 0 1
    outer loop
      vertex 1.51418 -4.66018 20
      vertex 0.0268431 -4.87316 20
      vertex 0.512189 -4.87316 20
    endloop
  endfacet
  facet normal 0 0 1
    outer loop
      vertex -0.0268431 -4.87316 20
      vertex -1.51418 -4.66018 20
      vertex -0.512189 -4.87316 20
    endloop
  endfacet
  facet normal 0 0 1
    outer loop
      vertex -0.0268431 -4.87316 20
      vertex -2.45 -4.24352 20
      vertex -1.51418 -4.66018 20
    endloop
  endfacet
  facet normal 0 0 1
    outer loop
      vertex -0.0268431 -4.87316 20
      vertex -3.27874 -3.64141 20
      vertex -2.45 -4.24352 20
    endloop
  endfacet
  facet normal 0 0 1
    outer loop
      vertex -0.0268431 -4.87316 20
      vertex -3.96418 -2.88015 20
      vertex -3.27874 -3.64141 20
    endloop
  endfacet
  facet normal 0 0 1
    outer loop
      vertex -0.0268431 -4.87316 20
      vertex -4.47637 -1.99301 20
      vertex -3.96418 -2.88015 20
    endloop
  endfacet
  facet normal 0 0 1
    outer loop
      vertex -0.0268431 -4.87316 20
      vertex -4.79292 -1.01877 20
      vertex -4.47637 -1.99301 20
    endloop
  endfacet
  facet normal -0 -0 1
    outer loop
      vertex -4.79292 -1.01877 20
      vertex -0.0268431 -4.87316 20
      vertex -4.9 0 20
    endloop
  endfacet
  facet normal 0 0 1
    outer loop
      vertex -1.51418 4.66018 20
      vertex -0.0268431 4.87316 20
      vertex -0.512189 4.87316 20
    endloop
  endfacet
  facet normal 0 0 1
    outer loop
      vertex -2.45 4.24352 20
      vertex -0.0268431 4.87316 20
      vertex -1.51418 4.66018 20
    endloop
  endfacet
  facet normal 0 0 1
    outer loop
      vertex -3.27874 3.64141 20
      vertex -0.0268431 4.87316 20
      vertex -2.45 4.24352 20
    endloop
  endfacet
  facet normal 0 0 1
    outer loop
      vertex -3.96418 2.88015 20
      vertex -0.0268431 4.87316 20
      vertex -3.27874 3.64141 20
    endloop
  endfacet
  facet normal 0 0 1
    outer loop
      vertex -4.47637 1.99301 20
      vertex -0.0268431 4.87316 20
      vertex -3.96418 2.88015 20
    endloop
  endfacet
  facet normal 0 0 1
    outer loop
      vertex -4.79292 1.01877 20
      vertex -0.0268431 4.87316 20
      vertex -4.47637 1.99301 20
    endloop
  endfacet
  facet normal 0 0 1
    outer loop
      vertex -0.0268431 4.87316 20
      vertex -4.79292 1.01877 20
      vertex -4.9 0 20
    endloop
  endfacet
  facet normal -0.406737 0.913545 0
    outer loop
      vertex -1.51418 4.66018 2
      vertex -2.45 4.24352 20
      vertex -1.51418 4.66018 20
    endloop
  endfacet
  facet normal -0.406737 0.913545 0
    outer loop
      vertex -2.45 4.24352 20
      vertex -1.51418 4.66018 2
      vertex -2.45 4.24352 2
    endloop
  endfacet
  facet normal 0.994522 -0.104528 0
    outer loop
      vertex 4.79292 -1.01877 20
      vertex 4.9 0 2
      vertex 4.9 0 20
    endloop
  endfacet
  facet normal 0.994522 -0.104528 0
    outer loop
      vertex 4.9 0 2
      vertex 4.79292 -1.01877 20
      vertex 4.79292 -1.01877 2
    endloop
  endfacet
  facet normal -0.207912 -0.978148 0
    outer loop
      vertex -1.51418 -4.66018 2
      vertex -0.512189 -4.87316 20
      vertex -1.51418 -4.66018 20
    endloop
  endfacet
  facet normal -0.207912 -0.978148 -0
    outer loop
      vertex -0.512189 -4.87316 20
      vertex -1.51418 -4.66018 2
      vertex -0.512189 -4.87316 2
    endloop
  endfacet
  facet normal 0.207912 -0.978148 0
    outer loop
      vertex 0.512189 -4.87316 2
      vertex 1.51418 -4.66018 20
      vertex 0.512189 -4.87316 20
    endloop
  endfacet
  facet normal 0.207912 -0.978148 0
    outer loop
      vertex 1.51418 -4.66018 20
      vertex 0.512189 -4.87316 2
      vertex 1.51418 -4.66018 2
    endloop
  endfacet
  facet normal 0.587785 -0.809017 0
    outer loop
      vertex 2.45 -4.24352 2
      vertex 3.27874 -3.64141 20
      vertex 2.45 -4.24352 20
    endloop
  endfacet
  facet normal 0.587785 -0.809017 0
    outer loop
      vertex 3.27874 -3.64141 20
      vertex 2.45 -4.24352 2
      vertex 3.27874 -3.64141 2
    endloop
  endfacet
  facet normal 0.743145 -0.66913 0
    outer loop
      vertex 3.27874 -3.64141 20
      vertex 3.96418 -2.88015 2
      vertex 3.96418 -2.88015 20
    endloop
  endfacet
  facet normal 0.743145 -0.66913 0
    outer loop
      vertex 3.96418 -2.88015 2
      vertex 3.27874 -3.64141 20
      vertex 3.27874 -3.64141 2
    endloop
  endfacet
  facet normal 0.951057 -0.309017 0
    outer loop
      vertex 4.47637 -1.99301 20
      vertex 4.79292 -1.01877 2
      vertex 4.79292 -1.01877 20
    endloop
  endfacet
  facet normal 0.951057 -0.309017 0
    outer loop
      vertex 4.79292 -1.01877 2
      vertex 4.47637 -1.99301 20
      vertex 4.47637 -1.99301 2
    endloop
  endfacet
  facet normal -0.406737 -0.913545 0
    outer loop
      vertex -2.45 -4.24352 2
      vertex -1.51418 -4.66018 20
      vertex -2.45 -4.24352 20
    endloop
  endfacet
  facet normal -0.406737 -0.913545 -0
    outer loop
      vertex -1.51418 -4.66018 20
      vertex -2.45 -4.24352 2
      vertex -1.51418 -4.66018 2
    endloop
  endfacet
  facet normal -0.866025 -0.5 0
    outer loop
      vertex -3.96418 -2.88015 2
      vertex -4.47637 -1.99301 20
      vertex -4.47637 -1.99301 2
    endloop
  endfacet
  facet normal -0.866025 -0.5 0
    outer loop
      vertex -4.47637 -1.99301 20
      vertex -3.96418 -2.88015 2
      vertex -3.96418 -2.88015 20
    endloop
  endfacet
  facet normal -0.994522 -0.104528 0
    outer loop
      vertex -4.79292 -1.01877 2
      vertex -4.9 0 20
      vertex -4.9 0 2
    endloop
  endfacet
  facet normal -0.994522 -0.104528 0
    outer loop
      vertex -4.9 0 20
      vertex -4.79292 -1.01877 2
      vertex -4.79292 -1.01877 20
    endloop
  endfacet
  facet normal -0.951057 -0.309017 0
    outer loop
      vertex -4.47637 -1.99301 2
      vertex -4.79292 -1.01877 20
      vertex -4.79292 -1.01877 2
    endloop
  endfacet
  facet normal -0.951057 -0.309017 0
    outer loop
      vertex -4.79292 -1.01877 20
      vertex -4.47637 -1.99301 2
      vertex -4.47637 -1.99301 20
    endloop
  endfacet
  facet normal 0.406737 -0.913545 0
    outer loop
      vertex 1.51418 -4.66018 2
      vertex 2.45 -4.24352 20
      vertex 1.51418 -4.66018 20
    endloop
  endfacet
  facet normal 0.406737 -0.913545 0
    outer loop
      vertex 2.45 -4.24352 20
      vertex 1.51418 -4.66018 2
      vertex 2.45 -4.24352 2
    endloop
  endfacet
  facet normal 0 -1 0
    outer loop
      vertex -0.512189 -4.87316 2
      vertex -0.0268431 -4.87316 20
      vertex -0.512189 -4.87316 20
    endloop
  endfacet
  facet normal 0 -1 -0
    outer loop
      vertex -0.0268431 -4.87316 20
      vertex -0.512189 -4.87316 2
      vertex -0.0268431 -4.87316 2
    endloop
  endfacet
  facet normal 0 -1 0
    outer loop
      vertex 0.0268431 -4.87316 2
      vertex 0.512189 -4.87316 20
      vertex 0.0268431 -4.87316 20
    endloop
  endfacet
  facet normal 0 -1 -0
    outer loop
      vertex 0.512189 -4.87316 20
      vertex 0.0268431 -4.87316 2
      vertex 0.512189 -4.87316 2
    endloop
  endfacet
  facet normal -0.587785 -0.809017 0
    outer loop
      vertex -3.27874 -3.64141 2
      vertex -2.45 -4.24352 20
      vertex -3.27874 -3.64141 20
    endloop
  endfacet
  facet normal -0.587785 -0.809017 -0
    outer loop
      vertex -2.45 -4.24352 20
      vertex -3.27874 -3.64141 2
      vertex -2.45 -4.24352 2
    endloop
  endfacet
  facet normal -0.743145 -0.66913 0
    outer loop
      vertex -3.27874 -3.64141 2
      vertex -3.96418 -2.88015 20
      vertex -3.96418 -2.88015 2
    endloop
  endfacet
  facet normal -0.743145 -0.66913 0
    outer loop
      vertex -3.96418 -2.88015 20
      vertex -3.27874 -3.64141 2
      vertex -3.27874 -3.64141 20
    endloop
  endfacet
  facet normal -0.707107 0.707107 0
    outer loop
      vertex -0.0268431 4.87316 20
      vertex 0 4.9 2
      vertex -0.0268431 4.87316 2
    endloop
  endfacet
  facet normal -0.707107 0.707107 0
    outer loop
      vertex 0 4.9 2
      vertex -0.0268431 4.87316 20
      vertex 0 4.9 30
    endloop
  endfacet
  facet normal -0.707107 0.707107 0
    outer loop
      vertex -4.9 0 20
      vertex 0 4.9 30
      vertex -0.0268431 4.87316 20
    endloop
  endfacet
  facet normal -0.707107 0.707107 0
    outer loop
      vertex 0 4.9 30
      vertex -4.9 0 20
      vertex -4.9 0 30
    endloop
  endfacet
  facet normal 0.707107 0.707107 0
    outer loop
      vertex 0 4.9 30
      vertex 0.0268431 4.87316 20
      vertex 0 4.9 2
    endloop
  endfacet
  facet normal 0.707107 0.707107 0
    outer loop
      vertex 4.9 0 30
      vertex 0.0268431 4.87316 20
      vertex 0 4.9 30
    endloop
  endfacet
  facet normal 0.707107 0.707107 0
    outer loop
      vertex 0.0268431 4.87316 20
      vertex 4.9 0 30
      vertex 4.9 0 20
    endloop
  endfacet
  facet normal 0.707107 0.707107 0
    outer loop
      vertex 0 4.9 2
      vertex 0.0268431 4.87316 20
      vertex 0.0268431 4.87316 2
    endloop
  endfacet
  facet normal 0 0 1
    outer loop
      vertex 0 4.9 30
      vertex 0 -4.9 30
      vertex 4.9 0 30
    endloop
  endfacet
  facet normal 0 -0 1
    outer loop
      vertex 0 -4.9 30
      vertex 0 4.9 30
      vertex -4.9 0 30
    endloop
  endfacet
  facet normal -0.707107 -0.707107 0
    outer loop
      vertex -0.0268431 -4.87316 2
      vertex 0 -4.9 2
      vertex -0.0268431 -4.87316 20
    endloop
  endfacet
  facet normal -0.707107 -0.707107 0
    outer loop
      vertex -0.0268431 -4.87316 20
      vertex -4.9 0 30
      vertex -4.9 0 20
    endloop
  endfacet
  facet normal -0.707107 -0.707107 0
    outer loop
      vertex -0.0268431 -4.87316 20
      vertex 0 -4.9 30
      vertex -4.9 0 30
    endloop
  endfacet
  facet normal -0.707107 -0.707107 -0
    outer loop
      vertex 0 -4.9 30
      vertex -0.0268431 -4.87316 20
      vertex 0 -4.9 2
    endloop
  endfacet
  facet normal 0.707107 -0.707107 0
    outer loop
      vertex 4.9 0 30
      vertex 0.0268431 -4.87316 20
      vertex 4.9 0 20
    endloop
  endfacet
  facet normal 0.707107 -0.707107 0
    outer loop
      vertex 0 -4.9 30
      vertex 0.0268431 -4.87316 20
      vertex 4.9 0 30
    endloop
  endfacet
  facet normal 0.707107 -0.707107 0
    outer loop
      vertex 0 -4.9 2
      vertex 0.0268431 -4.87316 20
      vertex 0 -4.9 30
    endloop
  endfacet
  facet normal 0.707107 -0.707107 0
    outer loop
      vertex 0.0268431 -4.87316 20
      vertex 0 -4.9 2
      vertex 0.0268431 -4.87316 2
    endloop
  endfacet
  facet normal -0.959493 -0.281733 0
    outer loop
      vertex 9.7 8.25 0
      vertex 9.46982 9.03393 2
      vertex 9.46982 9.03393 0
    endloop
  endfacet
  facet normal -0.959493 -0.281733 0
    outer loop
      vertex 9.46982 9.03393 2
      vertex 9.7 8.25 0
      vertex 9.7 8.25 2
    endloop
  endfacet
  facet normal 1 -0 0
    outer loop
      vertex 6.85874 7.84149 2
      vertex 6.85874 8.65851 0
      vertex 6.85874 8.65851 2
    endloop
  endfacet
  facet normal 1 0 0
    outer loop
      vertex 6.85874 8.65851 0
      vertex 6.85874 7.84149 2
      vertex 6.85874 7.84149 0
    endloop
  endfacet
  facet normal 0.415415 -0.909632 0
    outer loop
      vertex 7.30045 9.34584 0
      vertex 8.04364 9.68524 2
      vertex 7.30045 9.34584 2
    endloop
  endfacet
  facet normal 0.415415 -0.909632 0
    outer loop
      vertex 8.04364 9.68524 2
      vertex 7.30045 9.34584 0
      vertex 8.04364 9.68524 0
    endloop
  endfacet
  facet normal 0.841254 -0.54064 0
    outer loop
      vertex 6.85874 8.65851 2
      vertex 7.30045 9.34584 0
      vertex 7.30045 9.34584 2
    endloop
  endfacet
  facet normal 0.841254 -0.54064 0
    outer loop
      vertex 7.30045 9.34584 0
      vertex 6.85874 8.65851 2
      vertex 6.85874 8.65851 0
    endloop
  endfacet
  facet normal -0.959493 0.281733 0
    outer loop
      vertex 9.46982 7.46607 0
      vertex 9.7 8.25 2
      vertex 9.7 8.25 0
    endloop
  endfacet
  facet normal -0.959493 0.281733 0
    outer loop
      vertex 9.7 8.25 2
      vertex 9.46982 7.46607 0
      vertex 9.46982 7.46607 2
    endloop
  endfacet
  facet normal -0.654861 0.75575 0
    outer loop
      vertex 9.46982 7.46607 0
      vertex 8.85235 6.93103 2
      vertex 9.46982 7.46607 2
    endloop
  endfacet
  facet normal -0.654861 0.75575 0
    outer loop
      vertex 8.85235 6.93103 2
      vertex 9.46982 7.46607 0
      vertex 8.85235 6.93103 0
    endloop
  endfacet
  facet normal -0.142315 0.989821 0
    outer loop
      vertex 8.85235 6.93103 0
      vertex 8.04364 6.81476 2
      vertex 8.85235 6.93103 2
    endloop
  endfacet
  facet normal -0.142315 0.989821 0
    outer loop
      vertex 8.04364 6.81476 2
      vertex 8.85235 6.93103 0
      vertex 8.04364 6.81476 0
    endloop
  endfacet
  facet normal 0.841254 0.54064 0
    outer loop
      vertex 7.30045 7.15416 2
      vertex 6.85874 7.84149 0
      vertex 6.85874 7.84149 2
    endloop
  endfacet
  facet normal 0.841254 0.54064 0
    outer loop
      vertex 6.85874 7.84149 0
      vertex 7.30045 7.15416 2
      vertex 7.30045 7.15416 0
    endloop
  endfacet
  facet normal -0.142315 -0.989821 0
    outer loop
      vertex 8.04364 9.68524 0
      vertex 8.85235 9.56897 2
      vertex 8.04364 9.68524 2
    endloop
  endfacet
  facet normal -0.142315 -0.989821 -0
    outer loop
      vertex 8.85235 9.56897 2
      vertex 8.04364 9.68524 0
      vertex 8.85235 9.56897 0
    endloop
  endfacet
  facet normal -0.654861 -0.75575 0
    outer loop
      vertex 8.85235 9.56897 0
      vertex 9.46982 9.03393 2
      vertex 8.85235 9.56897 2
    endloop
  endfacet
  facet normal -0.654861 -0.75575 -0
    outer loop
      vertex 9.46982 9.03393 2
      vertex 8.85235 9.56897 0
      vertex 9.46982 9.03393 0
    endloop
  endfacet
  facet normal 0.415415 0.909632 -0
    outer loop
      vertex 8.04364 6.81476 0
      vertex 7.30045 7.15416 2
      vertex 8.04364 6.81476 2
    endloop
  endfacet
  facet normal 0.415415 0.909632 0
    outer loop
      vertex 7.30045 7.15416 2
      vertex 8.04364 6.81476 0
      vertex 7.30045 7.15416 0
    endloop
  endfacet
  facet normal -0.959493 -0.281733 0
    outer loop
      vertex -6.8 8.25 0
      vertex -7.03018 9.03393 2
      vertex -7.03018 9.03393 0
    endloop
  endfacet
  facet normal -0.959493 -0.281733 0
    outer loop
      vertex -7.03018 9.03393 2
      vertex -6.8 8.25 0
      vertex -6.8 8.25 2
    endloop
  endfacet
  facet normal 1 -0 0
    outer loop
      vertex -9.64126 7.84149 2
      vertex -9.64126 8.65851 0
      vertex -9.64126 8.65851 2
    endloop
  endfacet
  facet normal 1 0 0
    outer loop
      vertex -9.64126 8.65851 0
      vertex -9.64126 7.84149 2
      vertex -9.64126 7.84149 0
    endloop
  endfacet
  facet normal 0.415415 -0.909632 0
    outer loop
      vertex -9.19955 9.34584 0
      vertex -8.45636 9.68524 2
      vertex -9.19955 9.34584 2
    endloop
  endfacet
  facet normal 0.415415 -0.909632 0
    outer loop
      vertex -8.45636 9.68524 2
      vertex -9.19955 9.34584 0
      vertex -8.45636 9.68524 0
    endloop
  endfacet
  facet normal 0.841254 -0.54064 0
    outer loop
      vertex -9.64126 8.65851 2
      vertex -9.19955 9.34584 0
      vertex -9.19955 9.34584 2
    endloop
  endfacet
  facet normal 0.841254 -0.54064 0
    outer loop
      vertex -9.19955 9.34584 0
      vertex -9.64126 8.65851 2
      vertex -9.64126 8.65851 0
    endloop
  endfacet
  facet normal -0.959493 0.281733 0
    outer loop
      vertex -7.03018 7.46607 0
      vertex -6.8 8.25 2
      vertex -6.8 8.25 0
    endloop
  endfacet
  facet normal -0.959493 0.281733 0
    outer loop
      vertex -6.8 8.25 2
      vertex -7.03018 7.46607 0
      vertex -7.03018 7.46607 2
    endloop
  endfacet
  facet normal -0.654861 0.75575 0
    outer loop
      vertex -7.03018 7.46607 0
      vertex -7.64765 6.93103 2
      vertex -7.03018 7.46607 2
    endloop
  endfacet
  facet normal -0.654861 0.75575 0
    outer loop
      vertex -7.64765 6.93103 2
      vertex -7.03018 7.46607 0
      vertex -7.64765 6.93103 0
    endloop
  endfacet
  facet normal -0.142315 0.989821 0
    outer loop
      vertex -7.64765 6.93103 0
      vertex -8.45636 6.81476 2
      vertex -7.64765 6.93103 2
    endloop
  endfacet
  facet normal -0.142315 0.989821 0
    outer loop
      vertex -8.45636 6.81476 2
      vertex -7.64765 6.93103 0
      vertex -8.45636 6.81476 0
    endloop
  endfacet
  facet normal 0.841254 0.54064 0
    outer loop
      vertex -9.19955 7.15416 2
      vertex -9.64126 7.84149 0
      vertex -9.64126 7.84149 2
    endloop
  endfacet
  facet normal 0.841254 0.54064 0
    outer loop
      vertex -9.64126 7.84149 0
      vertex -9.19955 7.15416 2
      vertex -9.19955 7.15416 0
    endloop
  endfacet
  facet normal -0.142315 -0.989821 0
    outer loop
      vertex -8.45636 9.68524 0
      vertex -7.64765 9.56897 2
      vertex -8.45636 9.68524 2
    endloop
  endfacet
  facet normal -0.142315 -0.989821 -0
    outer loop
      vertex -7.64765 9.56897 2
      vertex -8.45636 9.68524 0
      vertex -7.64765 9.56897 0
    endloop
  endfacet
  facet normal -0.654861 -0.75575 0
    outer loop
      vertex -7.64765 9.56897 0
      vertex -7.03018 9.03393 2
      vertex -7.64765 9.56897 2
    endloop
  endfacet
  facet normal -0.654861 -0.75575 -0
    outer loop
      vertex -7.03018 9.03393 2
      vertex -7.64765 9.56897 0
      vertex -7.03018 9.03393 0
    endloop
  endfacet
  facet normal 0.415415 0.909632 -0
    outer loop
      vertex -8.45636 6.81476 0
      vertex -9.19955 7.15416 2
      vertex -8.45636 6.81476 2
    endloop
  endfacet
  facet normal 0.415415 0.909632 0
    outer loop
      vertex -9.19955 7.15416 2
      vertex -8.45636 6.81476 0
      vertex -9.19955 7.15416 0
    endloop
  endfacet
  facet normal -0.959493 -0.281733 0
    outer loop
      vertex 9.7 -8.25 0
      vertex 9.46982 -7.46607 2
      vertex 9.46982 -7.46607 0
    endloop
  endfacet
  facet normal -0.959493 -0.281733 0
    outer loop
      vertex 9.46982 -7.46607 2
      vertex 9.7 -8.25 0
      vertex 9.7 -8.25 2
    endloop
  endfacet
  facet normal 1 -0 0
    outer loop
      vertex 6.85874 -8.65851 2
      vertex 6.85874 -7.84149 0
      vertex 6.85874 -7.84149 2
    endloop
  endfacet
  facet normal 1 0 0
    outer loop
      vertex 6.85874 -7.84149 0
      vertex 6.85874 -8.65851 2
      vertex 6.85874 -8.65851 0
    endloop
  endfacet
  facet normal 0.415415 -0.909632 0
    outer loop
      vertex 7.30045 -7.15416 0
      vertex 8.04364 -6.81476 2
      vertex 7.30045 -7.15416 2
    endloop
  endfacet
  facet normal 0.415415 -0.909632 0
    outer loop
      vertex 8.04364 -6.81476 2
      vertex 7.30045 -7.15416 0
      vertex 8.04364 -6.81476 0
    endloop
  endfacet
  facet normal 0.841254 -0.54064 0
    outer loop
      vertex 6.85874 -7.84149 2
      vertex 7.30045 -7.15416 0
      vertex 7.30045 -7.15416 2
    endloop
  endfacet
  facet normal 0.841254 -0.54064 0
    outer loop
      vertex 7.30045 -7.15416 0
      vertex 6.85874 -7.84149 2
      vertex 6.85874 -7.84149 0
    endloop
  endfacet
  facet normal -0.959493 0.281733 0
    outer loop
      vertex 9.46982 -9.03393 0
      vertex 9.7 -8.25 2
      vertex 9.7 -8.25 0
    endloop
  endfacet
  facet normal -0.959493 0.281733 0
    outer loop
      vertex 9.7 -8.25 2
      vertex 9.46982 -9.03393 0
      vertex 9.46982 -9.03393 2
    endloop
  endfacet
  facet normal -0.142315 -0.989821 0
    outer loop
      vertex 8.04364 -6.81476 0
      vertex 8.85235 -6.93103 2
      vertex 8.04364 -6.81476 2
    endloop
  endfacet
  facet normal -0.142315 -0.989821 -0
    outer loop
      vertex 8.85235 -6.93103 2
      vertex 8.04364 -6.81476 0
      vertex 8.85235 -6.93103 0
    endloop
  endfacet
  facet normal -0.654861 -0.75575 0
    outer loop
      vertex 8.85235 -6.93103 0
      vertex 9.46982 -7.46607 2
      vertex 8.85235 -6.93103 2
    endloop
  endfacet
  facet normal -0.654861 -0.75575 -0
    outer loop
      vertex 9.46982 -7.46607 2
      vertex 8.85235 -6.93103 0
      vertex 9.46982 -7.46607 0
    endloop
  endfacet
  facet normal 0.841254 0.54064 0
    outer loop
      vertex 7.30045 -9.34584 2
      vertex 6.85874 -8.65851 0
      vertex 6.85874 -8.65851 2
    endloop
  endfacet
  facet normal 0.841254 0.54064 0
    outer loop
      vertex 6.85874 -8.65851 0
      vertex 7.30045 -9.34584 2
      vertex 7.30045 -9.34584 0
    endloop
  endfacet
  facet normal -0.654861 0.75575 0
    outer loop
      vertex 9.46982 -9.03393 0
      vertex 8.85235 -9.56897 2
      vertex 9.46982 -9.03393 2
    endloop
  endfacet
  facet normal -0.654861 0.75575 0
    outer loop
      vertex 8.85235 -9.56897 2
      vertex 9.46982 -9.03393 0
      vertex 8.85235 -9.56897 0
    endloop
  endfacet
  facet normal -0.142315 0.989821 0
    outer loop
      vertex 8.85235 -9.56897 0
      vertex 8.04364 -9.68524 2
      vertex 8.85235 -9.56897 2
    endloop
  endfacet
  facet normal -0.142315 0.989821 0
    outer loop
      vertex 8.04364 -9.68524 2
      vertex 8.85235 -9.56897 0
      vertex 8.04364 -9.68524 0
    endloop
  endfacet
  facet normal 0.415415 0.909632 -0
    outer loop
      vertex 8.04364 -9.68524 0
      vertex 7.30045 -9.34584 2
      vertex 8.04364 -9.68524 2
    endloop
  endfacet
  facet normal 0.415415 0.909632 0
    outer loop
      vertex 7.30045 -9.34584 2
      vertex 8.04364 -9.68524 0
      vertex 7.30045 -9.34584 0
    endloop
  endfacet
  facet normal -0.959493 -0.281733 0
    outer loop
      vertex -6.8 -8.25 0
      vertex -7.03018 -7.46607 2
      vertex -7.03018 -7.46607 0
    endloop
  endfacet
  facet normal -0.959493 -0.281733 0
    outer loop
      vertex -7.03018 -7.46607 2
      vertex -6.8 -8.25 0
      vertex -6.8 -8.25 2
    endloop
  endfacet
  facet normal 1 -0 0
    outer loop
      vertex -9.64126 -8.65851 2
      vertex -9.64126 -7.84149 0
      vertex -9.64126 -7.84149 2
    endloop
  endfacet
  facet normal 1 0 0
    outer loop
      vertex -9.64126 -7.84149 0
      vertex -9.64126 -8.65851 2
      vertex -9.64126 -8.65851 0
    endloop
  endfacet
  facet normal 0.415415 -0.909632 0
    outer loop
      vertex -9.19955 -7.15416 0
      vertex -8.45636 -6.81476 2
      vertex -9.19955 -7.15416 2
    endloop
  endfacet
  facet normal 0.415415 -0.909632 0
    outer loop
      vertex -8.45636 -6.81476 2
      vertex -9.19955 -7.15416 0
      vertex -8.45636 -6.81476 0
    endloop
  endfacet
  facet normal 0.841254 -0.54064 0
    outer loop
      vertex -9.64126 -7.84149 2
      vertex -9.19955 -7.15416 0
      vertex -9.19955 -7.15416 2
    endloop
  endfacet
  facet normal 0.841254 -0.54064 0
    outer loop
      vertex -9.19955 -7.15416 0
      vertex -9.64126 -7.84149 2
      vertex -9.64126 -7.84149 0
    endloop
  endfacet
  facet normal -0.959493 0.281733 0
    outer loop
      vertex -7.03018 -9.03393 0
      vertex -6.8 -8.25 2
      vertex -6.8 -8.25 0
    endloop
  endfacet
  facet normal -0.959493 0.281733 0
    outer loop
      vertex -6.8 -8.25 2
      vertex -7.03018 -9.03393 0
      vertex -7.03018 -9.03393 2
    endloop
  endfacet
  facet normal -0.142315 -0.989821 0
    outer loop
      vertex -8.45636 -6.81476 0
      vertex -7.64765 -6.93103 2
      vertex -8.45636 -6.81476 2
    endloop
  endfacet
  facet normal -0.142315 -0.989821 -0
    outer loop
      vertex -7.64765 -6.93103 2
      vertex -8.45636 -6.81476 0
      vertex -7.64765 -6.93103 0
    endloop
  endfacet
  facet normal -0.654861 -0.75575 0
    outer loop
      vertex -7.64765 -6.93103 0
      vertex -7.03018 -7.46607 2
      vertex -7.64765 -6.93103 2
    endloop
  endfacet
  facet normal -0.654861 -0.75575 -0
    outer loop
      vertex -7.03018 -7.46607 2
      vertex -7.64765 -6.93103 0
      vertex -7.03018 -7.46607 0
    endloop
  endfacet
  facet normal 0.841254 0.54064 0
    outer loop
      vertex -9.19955 -9.34584 2
      vertex -9.64126 -8.65851 0
      vertex -9.64126 -8.65851 2
    endloop
  endfacet
  facet normal 0.841254 0.54064 0
    outer loop
      vertex -9.64126 -8.65851 0
      vertex -9.19955 -9.34584 2
      vertex -9.19955 -9.34584 0
    endloop
  endfacet
  facet normal 0.415415 0.909632 -0
    outer loop
      vertex -8.45636 -9.68524 0
      vertex -9.19955 -9.34584 2
      vertex -8.45636 -9.68524 2
    endloop
  endfacet
  facet normal 0.415415 0.909632 0
    outer loop
      vertex -9.19955 -9.34584 2
      vertex -8.45636 -9.68524 0
      vertex -9.19955 -9.34584 0
    endloop
  endfacet
  facet normal -0.654861 0.75575 0
    outer loop
      vertex -7.03018 -9.03393 0
      vertex -7.64765 -9.56897 2
      vertex -7.03018 -9.03393 2
    endloop
  endfacet
  facet normal -0.654861 0.75575 0
    outer loop
      vertex -7.64765 -9.56897 2
      vertex -7.03018 -9.03393 0
      vertex -7.64765 -9.56897 0
    endloop
  endfacet
  facet normal -0.142315 0.989821 0
    outer loop
      vertex -7.64765 -9.56897 0
      vertex -8.45636 -9.68524 2
      vertex -7.64765 -9.56897 2
    endloop
  endfacet
  facet normal -0.142315 0.989821 0
    outer loop
      vertex -8.45636 -9.68524 2
      vertex -7.64765 -9.56897 0
      vertex -8.45636 -9.68524 0
    endloop
  endfacet
endsolid OpenSCAD_Model
