solid OpenSCAD_Model
  facet normal -0.993712 0.111965 0
    outer loop
      vertex -4 0 0
      vertex -3.89971 0.890083 3
      vertex -3.89971 0.890083 0
    endloop
  endfacet
  facet normal -0.993712 0.111965 0
    outer loop
      vertex -3.89971 0.890083 3
      vertex -4 0 0
      vertex -4 0 3
    endloop
  endfacet
  facet normal 0.111965 0.993712 -0
    outer loop
      vertex 0.890083 3.89971 0
      vertex 0 4 3
      vertex 0.890083 3.89971 3
    endloop
  endfacet
  facet normal 0.111965 0.993712 0
    outer loop
      vertex 0 4 3
      vertex 0.890083 3.89971 0
      vertex 0 4 0
    endloop
  endfacet
  facet normal -0.111965 -0.993712 0
    outer loop
      vertex -0.890083 -3.89971 0
      vertex 0 -4 3
      vertex -0.890083 -3.89971 3
    endloop
  endfacet
  facet normal -0.111965 -0.993712 -0
    outer loop
      vertex 0 -4 3
      vertex -0.890083 -3.89971 0
      vertex 0 -4 0
    endloop
  endfacet
  facet normal 0.707107 0.707107 0
    outer loop
      vertex 3.12733 2.49396 3
      vertex 2.49396 3.12733 0
      vertex 2.49396 3.12733 3
    endloop
  endfacet
  facet normal 0.707107 0.707107 0
    outer loop
      vertex 2.49396 3.12733 0
      vertex 3.12733 2.49396 3
      vertex 3.12733 2.49396 0
    endloop
  endfacet
  facet normal 0.532033 0.846724 -0
    outer loop
      vertex 2.49396 3.12733 0
      vertex 1.73553 3.60388 3
      vertex 2.49396 3.12733 3
    endloop
  endfacet
  facet normal 0.532033 0.846724 0
    outer loop
      vertex 1.73553 3.60388 3
      vertex 2.49396 3.12733 0
      vertex 1.73553 3.60388 0
    endloop
  endfacet
  facet normal -0.532033 0.846724 0
    outer loop
      vertex -1.73553 3.60388 0
      vertex -2.49396 3.12733 3
      vertex -1.73553 3.60388 3
    endloop
  endfacet
  facet normal -0.532033 0.846724 0
    outer loop
      vertex -2.49396 3.12733 3
      vertex -1.73553 3.60388 0
      vertex -2.49396 3.12733 0
    endloop
  endfacet
  facet normal -0.330279 0.943883 0
    outer loop
      vertex -0.890083 3.89971 0
      vertex -1.73553 3.60388 3
      vertex -0.890083 3.89971 3
    endloop
  endfacet
  facet normal -0.330279 0.943883 0
    outer loop
      vertex -1.73553 3.60388 3
      vertex -0.890083 3.89971 0
      vertex -1.73553 3.60388 0
    endloop
  endfacet
  facet normal 0.707107 -0.707107 0
    outer loop
      vertex 2.49396 -3.12733 3
      vertex 3.12733 -2.49396 0
      vertex 3.12733 -2.49396 3
    endloop
  endfacet
  facet normal 0.707107 -0.707107 0
    outer loop
      vertex 3.12733 -2.49396 0
      vertex 2.49396 -3.12733 3
      vertex 2.49396 -3.12733 0
    endloop
  endfacet
  facet normal 0.846724 -0.532033 0
    outer loop
      vertex 3.12733 -2.49396 3
      vertex 3.4377 -2 0
      vertex 3.4377 -2 3
    endloop
  endfacet
  facet normal 0.846724 -0.532033 0
    outer loop
      vertex 3.4377 -2 0
      vertex 3.12733 -2.49396 3
      vertex 3.12733 -2.49396 0
    endloop
  endfacet
  facet normal 0 0 -1
    outer loop
      vertex 0 -4 0
      vertex -0.445042 -1.94986 0
      vertex 0 -1.94986 0
    endloop
  endfacet
  facet normal 0 0 -1
    outer loop
      vertex -0.890083 -3.89971 0
      vertex -0.445042 -1.94986 0
      vertex 0 -4 0
    endloop
  endfacet
  facet normal 0 0 -1
    outer loop
      vertex -1.73553 -3.60388 0
      vertex -0.445042 -1.94986 0
      vertex -0.890083 -3.89971 0
    endloop
  endfacet
  facet normal -0 0 -1
    outer loop
      vertex -0.445042 -1.94986 0
      vertex -1.73553 -3.60388 0
      vertex -1.24698 -1.56366 0
    endloop
  endfacet
  facet normal 0 0 -1
    outer loop
      vertex -2.49396 -3.12733 0
      vertex -1.24698 -1.56366 0
      vertex -1.73553 -3.60388 0
    endloop
  endfacet
  facet normal 0 0 -1
    outer loop
      vertex -3.12733 -2.49396 0
      vertex -1.24698 -1.56366 0
      vertex -2.49396 -3.12733 0
    endloop
  endfacet
  facet normal -0 0 -1
    outer loop
      vertex -1.24698 -1.56366 0
      vertex -3.12733 -2.49396 0
      vertex -1.80194 -0.867767 0
    endloop
  endfacet
  facet normal -0 0 -1
    outer loop
      vertex 3.12733 2.49396 0
      vertex 1.24698 1.56366 0
      vertex 2.49396 3.12733 0
    endloop
  endfacet
  facet normal -0 0 -1
    outer loop
      vertex 2.49396 3.12733 0
      vertex 1.24698 1.56366 0
      vertex 1.73553 3.60388 0
    endloop
  endfacet
  facet normal 0 0 -1
    outer loop
      vertex 1.24698 1.56366 0
      vertex 0.890083 3.89971 0
      vertex 1.73553 3.60388 0
    endloop
  endfacet
  facet normal 0 0 -1
    outer loop
      vertex 0 1.94986 0
      vertex 1.24698 1.56366 0
      vertex 0 1.84828 0
    endloop
  endfacet
  facet normal 0 0 -1
    outer loop
      vertex 1.24698 1.56366 0
      vertex 0 1.94986 0
      vertex 0.890083 3.89971 0
    endloop
  endfacet
  facet normal 0 0 -1
    outer loop
      vertex 0 1.94986 0
      vertex 0 4 0
      vertex 0.890083 3.89971 0
    endloop
  endfacet
  facet normal 0 0 -1
    outer loop
      vertex -0.445042 1.94986 0
      vertex 0 4 0
      vertex 0 1.94986 0
    endloop
  endfacet
  facet normal 0 0 -1
    outer loop
      vertex -0.445042 1.94986 0
      vertex -0.890083 3.89971 0
      vertex 0 4 0
    endloop
  endfacet
  facet normal 0 0 -1
    outer loop
      vertex -1.73553 3.60388 0
      vertex -0.445042 1.94986 0
      vertex -1.24698 1.56366 0
    endloop
  endfacet
  facet normal 0 0 -1
    outer loop
      vertex -0.445042 1.94986 0
      vertex -1.73553 3.60388 0
      vertex -0.890083 3.89971 0
    endloop
  endfacet
  facet normal 0 0 -1
    outer loop
      vertex -3.12733 2.49396 0
      vertex -1.24698 1.56366 0
      vertex -1.80194 0.867767 0
    endloop
  endfacet
  facet normal 0 0 -1
    outer loop
      vertex -3.89971 0.890083 0
      vertex -1.80194 0.867767 0
      vertex -2 0 0
    endloop
  endfacet
  facet normal 0 0 -1
    outer loop
      vertex -3.60388 -1.73553 0
      vertex -1.80194 -0.867767 0
      vertex -3.12733 -2.49396 0
    endloop
  endfacet
  facet normal 0 0 -1
    outer loop
      vertex -1.24698 1.56366 0
      vertex -2.49396 3.12733 0
      vertex -1.73553 3.60388 0
    endloop
  endfacet
  facet normal 0 0 -1
    outer loop
      vertex -3.89971 -0.890083 0
      vertex -1.80194 -0.867767 0
      vertex -3.60388 -1.73553 0
    endloop
  endfacet
  facet normal 0 0 -1
    outer loop
      vertex -1.24698 1.56366 0
      vertex -3.12733 2.49396 0
      vertex -2.49396 3.12733 0
    endloop
  endfacet
  facet normal -0 0 -1
    outer loop
      vertex -1.80194 -0.867767 0
      vertex -3.89971 -0.890083 0
      vertex -2 0 0
    endloop
  endfacet
  facet normal 0 0 -1
    outer loop
      vertex -1.80194 0.867767 0
      vertex -3.60388 1.73553 0
      vertex -3.12733 2.49396 0
    endloop
  endfacet
  facet normal 0 0 -1
    outer loop
      vertex -4 0 0
      vertex -2 0 0
      vertex -3.89971 -0.890083 0
    endloop
  endfacet
  facet normal 0 0 -1
    outer loop
      vertex -1.80194 0.867767 0
      vertex -3.89971 0.890083 0
      vertex -3.60388 1.73553 0
    endloop
  endfacet
  facet normal 0 0 -1
    outer loop
      vertex -2 0 0
      vertex -4 0 0
      vertex -3.89971 0.890083 0
    endloop
  endfacet
  facet normal 0 0 -1
    outer loop
      vertex 135.555 1.94986 0
      vertex 136 1.94986 0
      vertex 136 1.84828 0
    endloop
  endfacet
  facet normal 0 0 -1
    outer loop
      vertex 136 1.94986 0
      vertex 135.555 1.94986 0
      vertex 136 4 0
    endloop
  endfacet
  facet normal 0 0 -1
    outer loop
      vertex 135.555 1.94986 0
      vertex 135.11 3.89971 0
      vertex 136 4 0
    endloop
  endfacet
  facet normal 0 0 -1
    outer loop
      vertex 135.555 1.94986 0
      vertex 134.264 3.60388 0
      vertex 135.11 3.89971 0
    endloop
  endfacet
  facet normal 0 0 -1
    outer loop
      vertex 133.506 3.12733 0
      vertex 135.555 1.94986 0
      vertex 134.198 0.867767 0
    endloop
  endfacet
  facet normal 0 0 -1
    outer loop
      vertex 132.562 -2 0
      vertex 134.198 -0.867767 0
      vertex 132.873 -2.49396 0
    endloop
  endfacet
  facet normal 0 0 -1
    outer loop
      vertex 132.562 2 0
      vertex 134.198 0.867767 0
      vertex 132.562 -2 0
    endloop
  endfacet
  facet normal -0 0 -1
    outer loop
      vertex 134.198 -0.867767 0
      vertex 132.562 -2 0
      vertex 134.198 0.867767 0
    endloop
  endfacet
  facet normal 0 -0 -1
    outer loop
      vertex 132.873 2.49396 0
      vertex 134.198 0.867767 0
      vertex 132.562 2 0
    endloop
  endfacet
  facet normal 0 0 -1
    outer loop
      vertex 135.555 1.94986 0
      vertex 133.506 3.12733 0
      vertex 134.264 3.60388 0
    endloop
  endfacet
  facet normal 0 0 -1
    outer loop
      vertex 134.198 0.867767 0
      vertex 132.873 2.49396 0
      vertex 133.506 3.12733 0
    endloop
  endfacet
  facet normal 0 0 -1
    outer loop
      vertex 3.4377 -2 0
      vertex 132.562 2 0
      vertex 132.562 -2 0
    endloop
  endfacet
  facet normal 0 0 -1
    outer loop
      vertex 3.4377 -2 0
      vertex 3.4377 2 0
      vertex 132.562 2 0
    endloop
  endfacet
  facet normal 0 0 -1
    outer loop
      vertex 1.24698 -1.56366 0
      vertex 3.4377 -2 0
      vertex 3.12733 -2.49396 0
    endloop
  endfacet
  facet normal 0 0 -1
    outer loop
      vertex 3.4377 -2 0
      vertex 2 0 0
      vertex 3.4377 2 0
    endloop
  endfacet
  facet normal 0 0 -1
    outer loop
      vertex 1.24698 -1.56366 0
      vertex 3.12733 -2.49396 0
      vertex 2.49396 -3.12733 0
    endloop
  endfacet
  facet normal 0 0 -1
    outer loop
      vertex 1.24698 1.56366 0
      vertex 3.4377 2 0
      vertex 2 0 0
    endloop
  endfacet
  facet normal -0 0 -1
    outer loop
      vertex 3.4377 2 0
      vertex 1.24698 1.56366 0
      vertex 3.12733 2.49396 0
    endloop
  endfacet
  facet normal 0 0 -1
    outer loop
      vertex 1.24698 -1.56366 0
      vertex 2.49396 -3.12733 0
      vertex 1.73553 -3.60388 0
    endloop
  endfacet
  facet normal 0 0 -1
    outer loop
      vertex 3.4377 -2 0
      vertex 1.24698 -1.56366 0
      vertex 2 0 0
    endloop
  endfacet
  facet normal 0 0 -1
    outer loop
      vertex 0.890083 -3.89971 0
      vertex 1.24698 -1.56366 0
      vertex 1.73553 -3.60388 0
    endloop
  endfacet
  facet normal 0 0 -1
    outer loop
      vertex 0 -1.94986 0
      vertex 0.890083 -3.89971 0
      vertex 0 -4 0
    endloop
  endfacet
  facet normal 0 0 -1
    outer loop
      vertex 0.890083 -3.89971 0
      vertex 0 -1.94986 0
      vertex 1.24698 -1.56366 0
    endloop
  endfacet
  facet normal 0 0 -1
    outer loop
      vertex 1.24698 -1.56366 0
      vertex 0 -1.94986 0
      vertex 0 -1.84828 0
    endloop
  endfacet
  facet normal 0 0 -1
    outer loop
      vertex 138 0 0
      vertex 140 0 0
      vertex 139.9 -0.890083 0
    endloop
  endfacet
  facet normal 0 0 -1
    outer loop
      vertex 137.802 -0.867767 0
      vertex 139.9 -0.890083 0
      vertex 139.604 -1.73553 0
    endloop
  endfacet
  facet normal 0 0 -1
    outer loop
      vertex 140 0 0
      vertex 138 0 0
      vertex 139.9 0.890083 0
    endloop
  endfacet
  facet normal 0 0 -1
    outer loop
      vertex 137.802 -0.867767 0
      vertex 139.604 -1.73553 0
      vertex 139.127 -2.49396 0
    endloop
  endfacet
  facet normal 0 0 -1
    outer loop
      vertex 137.802 0.867767 0
      vertex 139.9 0.890083 0
      vertex 138 0 0
    endloop
  endfacet
  facet normal 0 0 -1
    outer loop
      vertex 137.247 -1.56366 0
      vertex 139.127 -2.49396 0
      vertex 138.494 -3.12733 0
    endloop
  endfacet
  facet normal -0 0 -1
    outer loop
      vertex 139.9 0.890083 0
      vertex 137.802 0.867767 0
      vertex 139.604 1.73553 0
    endloop
  endfacet
  facet normal -0 0 -1
    outer loop
      vertex 139.604 1.73553 0
      vertex 137.802 0.867767 0
      vertex 139.127 2.49396 0
    endloop
  endfacet
  facet normal 0 0 -1
    outer loop
      vertex 139.9 -0.890083 0
      vertex 137.802 -0.867767 0
      vertex 138 0 0
    endloop
  endfacet
  facet normal 0 0 -1
    outer loop
      vertex 137.247 -1.56366 0
      vertex 138.494 -3.12733 0
      vertex 137.736 -3.60388 0
    endloop
  endfacet
  facet normal 0 0 -1
    outer loop
      vertex 139.127 -2.49396 0
      vertex 137.247 -1.56366 0
      vertex 137.802 -0.867767 0
    endloop
  endfacet
  facet normal 0 0 -1
    outer loop
      vertex 136.445 -1.94986 0
      vertex 137.736 -3.60388 0
      vertex 136.89 -3.89971 0
    endloop
  endfacet
  facet normal 0 0 -1
    outer loop
      vertex 137.736 -3.60388 0
      vertex 136.445 -1.94986 0
      vertex 137.247 -1.56366 0
    endloop
  endfacet
  facet normal 0 0 -1
    outer loop
      vertex 136 -4 0
      vertex 136.445 -1.94986 0
      vertex 136.89 -3.89971 0
    endloop
  endfacet
  facet normal 0 0 -1
    outer loop
      vertex 136 -4 0
      vertex 136 -1.94986 0
      vertex 136.445 -1.94986 0
    endloop
  endfacet
  facet normal 0 0 -1
    outer loop
      vertex 135.555 -1.94986 0
      vertex 136 -1.94986 0
      vertex 136 -4 0
    endloop
  endfacet
  facet normal 0 0 -1
    outer loop
      vertex 136 -1.94986 0
      vertex 135.555 -1.94986 0
      vertex 136 -1.84828 0
    endloop
  endfacet
  facet normal 0 0 -1
    outer loop
      vertex 135.11 -3.89971 0
      vertex 135.555 -1.94986 0
      vertex 136 -4 0
    endloop
  endfacet
  facet normal 0 0 -1
    outer loop
      vertex 134.264 -3.60388 0
      vertex 135.555 -1.94986 0
      vertex 135.11 -3.89971 0
    endloop
  endfacet
  facet normal 0 0 -1
    outer loop
      vertex 133.506 -3.12733 0
      vertex 135.555 -1.94986 0
      vertex 134.264 -3.60388 0
    endloop
  endfacet
  facet normal 0 0 -1
    outer loop
      vertex 132.873 -2.49396 0
      vertex 134.198 -0.867767 0
      vertex 133.506 -3.12733 0
    endloop
  endfacet
  facet normal -0 0 -1
    outer loop
      vertex 135.555 -1.94986 0
      vertex 133.506 -3.12733 0
      vertex 134.198 -0.867767 0
    endloop
  endfacet
  facet normal 0 0 -1
    outer loop
      vertex 137.247 1.56366 0
      vertex 139.127 2.49396 0
      vertex 137.802 0.867767 0
    endloop
  endfacet
  facet normal -0 0 -1
    outer loop
      vertex 139.127 2.49396 0
      vertex 137.247 1.56366 0
      vertex 138.494 3.12733 0
    endloop
  endfacet
  facet normal -0 0 -1
    outer loop
      vertex 138.494 3.12733 0
      vertex 137.247 1.56366 0
      vertex 137.736 3.60388 0
    endloop
  endfacet
  facet normal 0 0 -1
    outer loop
      vertex 136.445 1.94986 0
      vertex 137.736 3.60388 0
      vertex 137.247 1.56366 0
    endloop
  endfacet
  facet normal -0 0 -1
    outer loop
      vertex 137.736 3.60388 0
      vertex 136.445 1.94986 0
      vertex 136.89 3.89971 0
    endloop
  endfacet
  facet normal 0 0 -1
    outer loop
      vertex 136 4 0
      vertex 136.445 1.94986 0
      vertex 136 1.94986 0
    endloop
  endfacet
  facet normal 0 0 -1
    outer loop
      vertex 136.445 1.94986 0
      vertex 136 4 0
      vertex 136.89 3.89971 0
    endloop
  endfacet
  facet normal 0.846724 0.532033 0
    outer loop
      vertex 3.4377 2 3
      vertex 3.12733 2.49396 0
      vertex 3.12733 2.49396 3
    endloop
  endfacet
  facet normal 0.846724 0.532033 0
    outer loop
      vertex 3.12733 2.49396 0
      vertex 3.4377 2 3
      vertex 3.4377 2 0
    endloop
  endfacet
  facet normal 0.330279 0.943883 -0
    outer loop
      vertex 1.73553 3.60388 0
      vertex 0.890083 3.89971 3
      vertex 1.73553 3.60388 3
    endloop
  endfacet
  facet normal 0.330279 0.943883 0
    outer loop
      vertex 0.890083 3.89971 3
      vertex 1.73553 3.60388 0
      vertex 0.890083 3.89971 0
    endloop
  endfacet
  facet normal -0.846724 0.532033 0
    outer loop
      vertex -3.60388 1.73553 0
      vertex -3.12733 2.49396 3
      vertex -3.12733 2.49396 0
    endloop
  endfacet
  facet normal -0.846724 0.532033 0
    outer loop
      vertex -3.12733 2.49396 3
      vertex -3.60388 1.73553 0
      vertex -3.60388 1.73553 3
    endloop
  endfacet
  facet normal -0.707107 0.707107 0
    outer loop
      vertex -3.12733 2.49396 0
      vertex -2.49396 3.12733 3
      vertex -2.49396 3.12733 0
    endloop
  endfacet
  facet normal -0.707107 0.707107 0
    outer loop
      vertex -2.49396 3.12733 3
      vertex -3.12733 2.49396 0
      vertex -3.12733 2.49396 3
    endloop
  endfacet
  facet normal -0.943883 0.330279 0
    outer loop
      vertex -3.89971 0.890083 0
      vertex -3.60388 1.73553 3
      vertex -3.60388 1.73553 0
    endloop
  endfacet
  facet normal -0.943883 0.330279 0
    outer loop
      vertex -3.60388 1.73553 3
      vertex -3.89971 0.890083 0
      vertex -3.89971 0.890083 3
    endloop
  endfacet
  facet normal 0 0 1
    outer loop
      vertex 0 4 3
      vertex -0.445042 1.94986 3
      vertex 0 1.94986 3
    endloop
  endfacet
  facet normal -0 0 1
    outer loop
      vertex -0.890083 3.89971 3
      vertex -0.445042 1.94986 3
      vertex 0 4 3
    endloop
  endfacet
  facet normal -0 0 1
    outer loop
      vertex -1.73553 3.60388 3
      vertex -0.445042 1.94986 3
      vertex -0.890083 3.89971 3
    endloop
  endfacet
  facet normal 0 0 1
    outer loop
      vertex -0.445042 1.94986 3
      vertex -1.73553 3.60388 3
      vertex -1.24698 1.56366 3
    endloop
  endfacet
  facet normal -0 0 1
    outer loop
      vertex -2.49396 3.12733 3
      vertex -1.24698 1.56366 3
      vertex -1.73553 3.60388 3
    endloop
  endfacet
  facet normal -0 0 1
    outer loop
      vertex -3.12733 2.49396 3
      vertex -1.24698 1.56366 3
      vertex -2.49396 3.12733 3
    endloop
  endfacet
  facet normal 0 0 1
    outer loop
      vertex -1.24698 1.56366 3
      vertex -3.12733 2.49396 3
      vertex -1.80194 0.867767 3
    endloop
  endfacet
  facet normal 0 0 1
    outer loop
      vertex 3.12733 -2.49396 3
      vertex 1.24698 -1.56366 3
      vertex 2.49396 -3.12733 3
    endloop
  endfacet
  facet normal 0 0 1
    outer loop
      vertex 2.49396 -3.12733 3
      vertex 1.24698 -1.56366 3
      vertex 1.73553 -3.60388 3
    endloop
  endfacet
  facet normal 0 0 1
    outer loop
      vertex 1.24698 -1.56366 3
      vertex 0.890083 -3.89971 3
      vertex 1.73553 -3.60388 3
    endloop
  endfacet
  facet normal 0 0 1
    outer loop
      vertex 0 -1.94986 3
      vertex 1.24698 -1.56366 3
      vertex 0 -1.84828 3
    endloop
  endfacet
  facet normal 0 0 1
    outer loop
      vertex 1.24698 -1.56366 3
      vertex 0 -1.94986 3
      vertex 0.890083 -3.89971 3
    endloop
  endfacet
  facet normal 0 0 1
    outer loop
      vertex 0 -1.94986 3
      vertex 0 -4 3
      vertex 0.890083 -3.89971 3
    endloop
  endfacet
  facet normal -0 0 1
    outer loop
      vertex -0.445042 -1.94986 3
      vertex 0 -4 3
      vertex 0 -1.94986 3
    endloop
  endfacet
  facet normal 0 0 1
    outer loop
      vertex -0.445042 -1.94986 3
      vertex -0.890083 -3.89971 3
      vertex 0 -4 3
    endloop
  endfacet
  facet normal 0 0 1
    outer loop
      vertex -1.73553 -3.60388 3
      vertex -0.445042 -1.94986 3
      vertex -1.24698 -1.56366 3
    endloop
  endfacet
  facet normal 0 0 1
    outer loop
      vertex -0.445042 -1.94986 3
      vertex -1.73553 -3.60388 3
      vertex -0.890083 -3.89971 3
    endloop
  endfacet
  facet normal 0 0 1
    outer loop
      vertex -3.12733 -2.49396 3
      vertex -1.24698 -1.56366 3
      vertex -1.80194 -0.867767 3
    endloop
  endfacet
  facet normal 0 0 1
    outer loop
      vertex -3.89971 -0.890083 3
      vertex -1.80194 -0.867767 3
      vertex -2 0 3
    endloop
  endfacet
  facet normal -0 0 1
    outer loop
      vertex -3.60388 1.73553 3
      vertex -1.80194 0.867767 3
      vertex -3.12733 2.49396 3
    endloop
  endfacet
  facet normal 0 0 1
    outer loop
      vertex -1.24698 -1.56366 3
      vertex -2.49396 -3.12733 3
      vertex -1.73553 -3.60388 3
    endloop
  endfacet
  facet normal -0 0 1
    outer loop
      vertex -3.89971 0.890083 3
      vertex -1.80194 0.867767 3
      vertex -3.60388 1.73553 3
    endloop
  endfacet
  facet normal 0 0 1
    outer loop
      vertex -1.24698 -1.56366 3
      vertex -3.12733 -2.49396 3
      vertex -2.49396 -3.12733 3
    endloop
  endfacet
  facet normal 0 0 1
    outer loop
      vertex -1.80194 0.867767 3
      vertex -3.89971 0.890083 3
      vertex -2 0 3
    endloop
  endfacet
  facet normal 0 0 1
    outer loop
      vertex -1.80194 -0.867767 3
      vertex -3.60388 -1.73553 3
      vertex -3.12733 -2.49396 3
    endloop
  endfacet
  facet normal 0 0 1
    outer loop
      vertex -4 0 3
      vertex -2 0 3
      vertex -3.89971 0.890083 3
    endloop
  endfacet
  facet normal 0 0 1
    outer loop
      vertex -1.80194 -0.867767 3
      vertex -3.89971 -0.890083 3
      vertex -3.60388 -1.73553 3
    endloop
  endfacet
  facet normal 0 0 1
    outer loop
      vertex -2 0 3
      vertex -4 0 3
      vertex -3.89971 -0.890083 3
    endloop
  endfacet
  facet normal 0 0 1
    outer loop
      vertex 135.555 -1.94986 3
      vertex 136 -1.94986 3
      vertex 136 -1.84828 3
    endloop
  endfacet
  facet normal 0 0 1
    outer loop
      vertex 136 -1.94986 3
      vertex 135.555 -1.94986 3
      vertex 136 -4 3
    endloop
  endfacet
  facet normal 0 0 1
    outer loop
      vertex 135.555 -1.94986 3
      vertex 135.11 -3.89971 3
      vertex 136 -4 3
    endloop
  endfacet
  facet normal 0 0 1
    outer loop
      vertex 135.555 -1.94986 3
      vertex 134.264 -3.60388 3
      vertex 135.11 -3.89971 3
    endloop
  endfacet
  facet normal 0 0 1
    outer loop
      vertex 133.506 -3.12733 3
      vertex 135.555 -1.94986 3
      vertex 134.198 -0.867767 3
    endloop
  endfacet
  facet normal -0 0 1
    outer loop
      vertex 132.562 2 3
      vertex 134.198 0.867767 3
      vertex 132.873 2.49396 3
    endloop
  endfacet
  facet normal 0 0 1
    outer loop
      vertex 132.562 -2 3
      vertex 134.198 -0.867767 3
      vertex 132.562 2 3
    endloop
  endfacet
  facet normal 0 0 1
    outer loop
      vertex 134.198 0.867767 3
      vertex 132.562 2 3
      vertex 134.198 -0.867767 3
    endloop
  endfacet
  facet normal 0 -0 1
    outer loop
      vertex 132.873 -2.49396 3
      vertex 134.198 -0.867767 3
      vertex 132.562 -2 3
    endloop
  endfacet
  facet normal 0 0 1
    outer loop
      vertex 135.555 -1.94986 3
      vertex 133.506 -3.12733 3
      vertex 134.264 -3.60388 3
    endloop
  endfacet
  facet normal 0 0 1
    outer loop
      vertex 134.198 -0.867767 3
      vertex 132.873 -2.49396 3
      vertex 133.506 -3.12733 3
    endloop
  endfacet
  facet normal -0 0 1
    outer loop
      vertex 3.4377 2 3
      vertex 132.562 -2 3
      vertex 132.562 2 3
    endloop
  endfacet
  facet normal 0 0 1
    outer loop
      vertex 3.4377 2 3
      vertex 3.4377 -2 3
      vertex 132.562 -2 3
    endloop
  endfacet
  facet normal 0 0 1
    outer loop
      vertex 1.24698 1.56366 3
      vertex 3.4377 2 3
      vertex 3.12733 2.49396 3
    endloop
  endfacet
  facet normal 0 0 1
    outer loop
      vertex 3.4377 2 3
      vertex 2 0 3
      vertex 3.4377 -2 3
    endloop
  endfacet
  facet normal 0 0 1
    outer loop
      vertex 1.24698 1.56366 3
      vertex 3.12733 2.49396 3
      vertex 2.49396 3.12733 3
    endloop
  endfacet
  facet normal -0 0 1
    outer loop
      vertex 1.24698 -1.56366 3
      vertex 3.4377 -2 3
      vertex 2 0 3
    endloop
  endfacet
  facet normal 0 0 1
    outer loop
      vertex 3.4377 -2 3
      vertex 1.24698 -1.56366 3
      vertex 3.12733 -2.49396 3
    endloop
  endfacet
  facet normal 0 0 1
    outer loop
      vertex 1.24698 1.56366 3
      vertex 2.49396 3.12733 3
      vertex 1.73553 3.60388 3
    endloop
  endfacet
  facet normal 0 0 1
    outer loop
      vertex 3.4377 2 3
      vertex 1.24698 1.56366 3
      vertex 2 0 3
    endloop
  endfacet
  facet normal 0 0 1
    outer loop
      vertex 0.890083 3.89971 3
      vertex 1.24698 1.56366 3
      vertex 1.73553 3.60388 3
    endloop
  endfacet
  facet normal 0 0 1
    outer loop
      vertex 0 1.94986 3
      vertex 0.890083 3.89971 3
      vertex 0 4 3
    endloop
  endfacet
  facet normal 0 0 1
    outer loop
      vertex 0.890083 3.89971 3
      vertex 0 1.94986 3
      vertex 1.24698 1.56366 3
    endloop
  endfacet
  facet normal 0 0 1
    outer loop
      vertex 1.24698 1.56366 3
      vertex 0 1.94986 3
      vertex 0 1.84828 3
    endloop
  endfacet
  facet normal 0 0 1
    outer loop
      vertex 138 0 3
      vertex 140 0 3
      vertex 139.9 0.890083 3
    endloop
  endfacet
  facet normal 0 0 1
    outer loop
      vertex 137.802 0.867767 3
      vertex 139.9 0.890083 3
      vertex 139.604 1.73553 3
    endloop
  endfacet
  facet normal 0 0 1
    outer loop
      vertex 140 0 3
      vertex 138 0 3
      vertex 139.9 -0.890083 3
    endloop
  endfacet
  facet normal 0 0 1
    outer loop
      vertex 137.802 0.867767 3
      vertex 139.604 1.73553 3
      vertex 139.127 2.49396 3
    endloop
  endfacet
  facet normal -0 0 1
    outer loop
      vertex 137.802 -0.867767 3
      vertex 139.9 -0.890083 3
      vertex 138 0 3
    endloop
  endfacet
  facet normal 0 0 1
    outer loop
      vertex 137.247 1.56366 3
      vertex 139.127 2.49396 3
      vertex 138.494 3.12733 3
    endloop
  endfacet
  facet normal 0 0 1
    outer loop
      vertex 139.9 -0.890083 3
      vertex 137.802 -0.867767 3
      vertex 139.604 -1.73553 3
    endloop
  endfacet
  facet normal 0 0 1
    outer loop
      vertex 139.604 -1.73553 3
      vertex 137.802 -0.867767 3
      vertex 139.127 -2.49396 3
    endloop
  endfacet
  facet normal 0 0 1
    outer loop
      vertex 139.9 0.890083 3
      vertex 137.802 0.867767 3
      vertex 138 0 3
    endloop
  endfacet
  facet normal 0 0 1
    outer loop
      vertex 137.247 1.56366 3
      vertex 138.494 3.12733 3
      vertex 137.736 3.60388 3
    endloop
  endfacet
  facet normal 0 0 1
    outer loop
      vertex 139.127 2.49396 3
      vertex 137.247 1.56366 3
      vertex 137.802 0.867767 3
    endloop
  endfacet
  facet normal 0 0 1
    outer loop
      vertex 136.445 1.94986 3
      vertex 137.736 3.60388 3
      vertex 136.89 3.89971 3
    endloop
  endfacet
  facet normal 0 0 1
    outer loop
      vertex 137.736 3.60388 3
      vertex 136.445 1.94986 3
      vertex 137.247 1.56366 3
    endloop
  endfacet
  facet normal 0 0 1
    outer loop
      vertex 136 4 3
      vertex 136.445 1.94986 3
      vertex 136.89 3.89971 3
    endloop
  endfacet
  facet normal 0 0 1
    outer loop
      vertex 136 4 3
      vertex 136 1.94986 3
      vertex 136.445 1.94986 3
    endloop
  endfacet
  facet normal 0 0 1
    outer loop
      vertex 135.555 1.94986 3
      vertex 136 1.94986 3
      vertex 136 4 3
    endloop
  endfacet
  facet normal 0 0 1
    outer loop
      vertex 136 1.94986 3
      vertex 135.555 1.94986 3
      vertex 136 1.84828 3
    endloop
  endfacet
  facet normal -0 0 1
    outer loop
      vertex 135.11 3.89971 3
      vertex 135.555 1.94986 3
      vertex 136 4 3
    endloop
  endfacet
  facet normal -0 0 1
    outer loop
      vertex 134.264 3.60388 3
      vertex 135.555 1.94986 3
      vertex 135.11 3.89971 3
    endloop
  endfacet
  facet normal -0 0 1
    outer loop
      vertex 133.506 3.12733 3
      vertex 135.555 1.94986 3
      vertex 134.264 3.60388 3
    endloop
  endfacet
  facet normal -0 0 1
    outer loop
      vertex 132.873 2.49396 3
      vertex 134.198 0.867767 3
      vertex 133.506 3.12733 3
    endloop
  endfacet
  facet normal 0 0 1
    outer loop
      vertex 135.555 1.94986 3
      vertex 133.506 3.12733 3
      vertex 134.198 0.867767 3
    endloop
  endfacet
  facet normal -0 0 1
    outer loop
      vertex 137.247 -1.56366 3
      vertex 139.127 -2.49396 3
      vertex 137.802 -0.867767 3
    endloop
  endfacet
  facet normal 0 0 1
    outer loop
      vertex 139.127 -2.49396 3
      vertex 137.247 -1.56366 3
      vertex 138.494 -3.12733 3
    endloop
  endfacet
  facet normal 0 0 1
    outer loop
      vertex 138.494 -3.12733 3
      vertex 137.247 -1.56366 3
      vertex 137.736 -3.60388 3
    endloop
  endfacet
  facet normal -0 0 1
    outer loop
      vertex 136.445 -1.94986 3
      vertex 137.736 -3.60388 3
      vertex 137.247 -1.56366 3
    endloop
  endfacet
  facet normal 0 0 1
    outer loop
      vertex 137.736 -3.60388 3
      vertex 136.445 -1.94986 3
      vertex 136.89 -3.89971 3
    endloop
  endfacet
  facet normal 0 0 1
    outer loop
      vertex 136 -4 3
      vertex 136.445 -1.94986 3
      vertex 136 -1.94986 3
    endloop
  endfacet
  facet normal 0 0 1
    outer loop
      vertex 136.445 -1.94986 3
      vertex 136 -4 3
      vertex 136.89 -3.89971 3
    endloop
  endfacet
  facet normal -0.111965 0.993712 0
    outer loop
      vertex 0 4 0
      vertex -0.890083 3.89971 3
      vertex 0 4 3
    endloop
  endfacet
  facet normal -0.111965 0.993712 0
    outer loop
      vertex -0.890083 3.89971 3
      vertex 0 4 0
      vertex -0.890083 3.89971 0
    endloop
  endfacet
  facet normal 0.111965 -0.993712 0
    outer loop
      vertex 0 -4 0
      vertex 0.890083 -3.89971 3
      vertex 0 -4 3
    endloop
  endfacet
  facet normal 0.111965 -0.993712 0
    outer loop
      vertex 0.890083 -3.89971 3
      vertex 0 -4 0
      vertex 0.890083 -3.89971 0
    endloop
  endfacet
  facet normal 0.532033 -0.846724 0
    outer loop
      vertex 1.73553 -3.60388 0
      vertex 2.49396 -3.12733 3
      vertex 1.73553 -3.60388 3
    endloop
  endfacet
  facet normal 0.532033 -0.846724 0
    outer loop
      vertex 2.49396 -3.12733 3
      vertex 1.73553 -3.60388 0
      vertex 2.49396 -3.12733 0
    endloop
  endfacet
  facet normal -0.707107 -0.707107 0
    outer loop
      vertex -2.49396 -3.12733 0
      vertex -3.12733 -2.49396 3
      vertex -3.12733 -2.49396 0
    endloop
  endfacet
  facet normal -0.707107 -0.707107 0
    outer loop
      vertex -3.12733 -2.49396 3
      vertex -2.49396 -3.12733 0
      vertex -2.49396 -3.12733 3
    endloop
  endfacet
  facet normal -0.330279 -0.943883 0
    outer loop
      vertex -1.73553 -3.60388 0
      vertex -0.890083 -3.89971 3
      vertex -1.73553 -3.60388 3
    endloop
  endfacet
  facet normal -0.330279 -0.943883 -0
    outer loop
      vertex -0.890083 -3.89971 3
      vertex -1.73553 -3.60388 0
      vertex -0.890083 -3.89971 0
    endloop
  endfacet
  facet normal -0.846724 -0.532033 0
    outer loop
      vertex -3.12733 -2.49396 0
      vertex -3.60388 -1.73553 3
      vertex -3.60388 -1.73553 0
    endloop
  endfacet
  facet normal -0.846724 -0.532033 0
    outer loop
      vertex -3.60388 -1.73553 3
      vertex -3.12733 -2.49396 0
      vertex -3.12733 -2.49396 3
    endloop
  endfacet
  facet normal -0.993712 -0.111965 0
    outer loop
      vertex -3.89971 -0.890083 0
      vertex -4 0 3
      vertex -4 0 0
    endloop
  endfacet
  facet normal -0.993712 -0.111965 0
    outer loop
      vertex -4 0 3
      vertex -3.89971 -0.890083 0
      vertex -3.89971 -0.890083 3
    endloop
  endfacet
  facet normal 0.330279 -0.943883 0
    outer loop
      vertex 0.890083 -3.89971 0
      vertex 1.73553 -3.60388 3
      vertex 0.890083 -3.89971 3
    endloop
  endfacet
  facet normal 0.330279 -0.943883 0
    outer loop
      vertex 1.73553 -3.60388 3
      vertex 0.890083 -3.89971 0
      vertex 1.73553 -3.60388 0
    endloop
  endfacet
  facet normal -0.532033 -0.846724 0
    outer loop
      vertex -2.49396 -3.12733 0
      vertex -1.73553 -3.60388 3
      vertex -2.49396 -3.12733 3
    endloop
  endfacet
  facet normal -0.532033 -0.846724 -0
    outer loop
      vertex -1.73553 -3.60388 3
      vertex -2.49396 -3.12733 0
      vertex -1.73553 -3.60388 0
    endloop
  endfacet
  facet normal -0.943883 -0.330279 0
    outer loop
      vertex -3.60388 -1.73553 0
      vertex -3.89971 -0.890083 3
      vertex -3.89971 -0.890083 0
    endloop
  endfacet
  facet normal -0.943883 -0.330279 0
    outer loop
      vertex -3.89971 -0.890083 3
      vertex -3.60388 -1.73553 0
      vertex -3.60388 -1.73553 3
    endloop
  endfacet
  facet normal 0.974928 -0.222522 0
    outer loop
      vertex -2 0 3
      vertex -1.80194 0.867767 0
      vertex -1.80194 0.867767 3
    endloop
  endfacet
  facet normal 0.974928 -0.222522 0
    outer loop
      vertex -1.80194 0.867767 0
      vertex -2 0 3
      vertex -2 0 0
    endloop
  endfacet
  facet normal 0 -1 0
    outer loop
      vertex -0.445042 1.94986 0
      vertex 0 1.94986 3
      vertex -0.445042 1.94986 3
    endloop
  endfacet
  facet normal 0 -1 -0
    outer loop
      vertex 0 1.94986 3
      vertex -0.445042 1.94986 0
      vertex 0 1.94986 0
    endloop
  endfacet
  facet normal 0.433884 -0.900969 0
    outer loop
      vertex -1.24698 1.56366 0
      vertex -0.445042 1.94986 3
      vertex -1.24698 1.56366 3
    endloop
  endfacet
  facet normal 0.433884 -0.900969 0
    outer loop
      vertex -0.445042 1.94986 3
      vertex -1.24698 1.56366 0
      vertex -0.445042 1.94986 0
    endloop
  endfacet
  facet normal 0.781831 -0.62349 0
    outer loop
      vertex -1.80194 0.867767 3
      vertex -1.24698 1.56366 0
      vertex -1.24698 1.56366 3
    endloop
  endfacet
  facet normal 0.781831 -0.62349 0
    outer loop
      vertex -1.24698 1.56366 0
      vertex -1.80194 0.867767 3
      vertex -1.80194 0.867767 0
    endloop
  endfacet
  facet normal 0.974928 0.222522 0
    outer loop
      vertex -1.80194 -0.867767 3
      vertex -2 0 0
      vertex -2 0 3
    endloop
  endfacet
  facet normal 0.974928 0.222522 0
    outer loop
      vertex -2 0 0
      vertex -1.80194 -0.867767 3
      vertex -1.80194 -0.867767 0
    endloop
  endfacet
  facet normal 0 1 -0
    outer loop
      vertex 0 -1.94986 0
      vertex -0.445042 -1.94986 3
      vertex 0 -1.94986 3
    endloop
  endfacet
  facet normal 0 1 0
    outer loop
      vertex -0.445042 -1.94986 3
      vertex 0 -1.94986 0
      vertex -0.445042 -1.94986 0
    endloop
  endfacet
  facet normal 0.781831 0.62349 0
    outer loop
      vertex -1.24698 -1.56366 3
      vertex -1.80194 -0.867767 0
      vertex -1.80194 -0.867767 3
    endloop
  endfacet
  facet normal 0.781831 0.62349 0
    outer loop
      vertex -1.80194 -0.867767 0
      vertex -1.24698 -1.56366 3
      vertex -1.24698 -1.56366 0
    endloop
  endfacet
  facet normal 0.433884 0.900969 -0
    outer loop
      vertex -0.445042 -1.94986 0
      vertex -1.24698 -1.56366 3
      vertex -0.445042 -1.94986 3
    endloop
  endfacet
  facet normal 0.433884 0.900969 0
    outer loop
      vertex -1.24698 -1.56366 3
      vertex -0.445042 -1.94986 0
      vertex -1.24698 -1.56366 0
    endloop
  endfacet
  facet normal 0.993713 0.111956 0
    outer loop
      vertex 140 0 3
      vertex 139.9 0.890083 0
      vertex 139.9 0.890083 3
    endloop
  endfacet
  facet normal 0.993713 0.111956 0
    outer loop
      vertex 139.9 0.890083 0
      vertex 140 0 3
      vertex 140 0 0
    endloop
  endfacet
  facet normal 0.111966 0.993712 -0
    outer loop
      vertex 136.89 3.89971 0
      vertex 136 4 3
      vertex 136.89 3.89971 3
    endloop
  endfacet
  facet normal 0.111966 0.993712 0
    outer loop
      vertex 136 4 3
      vertex 136.89 3.89971 0
      vertex 136 4 0
    endloop
  endfacet
  facet normal -0.111966 -0.993712 0
    outer loop
      vertex 135.11 -3.89971 0
      vertex 136 -4 3
      vertex 135.11 -3.89971 3
    endloop
  endfacet
  facet normal -0.111966 -0.993712 -0
    outer loop
      vertex 136 -4 3
      vertex 135.11 -3.89971 0
      vertex 136 -4 0
    endloop
  endfacet
  facet normal 0.707109 0.707104 0
    outer loop
      vertex 139.127 2.49396 3
      vertex 138.494 3.12733 0
      vertex 138.494 3.12733 3
    endloop
  endfacet
  facet normal 0.707109 0.707104 0
    outer loop
      vertex 138.494 3.12733 0
      vertex 139.127 2.49396 3
      vertex 139.127 2.49396 0
    endloop
  endfacet
  facet normal 0.943883 0.33028 0
    outer loop
      vertex 139.9 0.890083 3
      vertex 139.604 1.73553 0
      vertex 139.604 1.73553 3
    endloop
  endfacet
  facet normal 0.943883 0.33028 0
    outer loop
      vertex 139.604 1.73553 0
      vertex 139.9 0.890083 3
      vertex 139.9 0.890083 0
    endloop
  endfacet
  facet normal 0.532033 0.846723 -0
    outer loop
      vertex 138.494 3.12733 0
      vertex 137.736 3.60388 3
      vertex 138.494 3.12733 3
    endloop
  endfacet
  facet normal 0.532033 0.846723 0
    outer loop
      vertex 137.736 3.60388 3
      vertex 138.494 3.12733 0
      vertex 137.736 3.60388 0
    endloop
  endfacet
  facet normal -0.532033 0.846723 0
    outer loop
      vertex 134.264 3.60388 0
      vertex 133.506 3.12733 3
      vertex 134.264 3.60388 3
    endloop
  endfacet
  facet normal -0.532033 0.846723 0
    outer loop
      vertex 133.506 3.12733 3
      vertex 134.264 3.60388 0
      vertex 133.506 3.12733 0
    endloop
  endfacet
  facet normal -0.330277 0.943884 0
    outer loop
      vertex 135.11 3.89971 0
      vertex 134.264 3.60388 3
      vertex 135.11 3.89971 3
    endloop
  endfacet
  facet normal -0.330277 0.943884 0
    outer loop
      vertex 134.264 3.60388 3
      vertex 135.11 3.89971 0
      vertex 134.264 3.60388 0
    endloop
  endfacet
  facet normal 0.707109 -0.707104 0
    outer loop
      vertex 138.494 -3.12733 3
      vertex 139.127 -2.49396 0
      vertex 139.127 -2.49396 3
    endloop
  endfacet
  facet normal 0.707109 -0.707104 0
    outer loop
      vertex 139.127 -2.49396 0
      vertex 138.494 -3.12733 3
      vertex 138.494 -3.12733 0
    endloop
  endfacet
  facet normal 0.846718 -0.532043 0
    outer loop
      vertex 139.127 -2.49396 3
      vertex 139.604 -1.73553 0
      vertex 139.604 -1.73553 3
    endloop
  endfacet
  facet normal 0.846718 -0.532043 0
    outer loop
      vertex 139.604 -1.73553 0
      vertex 139.127 -2.49396 3
      vertex 139.127 -2.49396 0
    endloop
  endfacet
  facet normal 0.846718 0.532043 0
    outer loop
      vertex 139.604 1.73553 3
      vertex 139.127 2.49396 0
      vertex 139.127 2.49396 3
    endloop
  endfacet
  facet normal 0.846718 0.532043 0
    outer loop
      vertex 139.127 2.49396 0
      vertex 139.604 1.73553 3
      vertex 139.604 1.73553 0
    endloop
  endfacet
  facet normal 0.330277 0.943884 -0
    outer loop
      vertex 137.736 3.60388 0
      vertex 136.89 3.89971 3
      vertex 137.736 3.60388 3
    endloop
  endfacet
  facet normal 0.330277 0.943884 0
    outer loop
      vertex 136.89 3.89971 3
      vertex 137.736 3.60388 0
      vertex 136.89 3.89971 0
    endloop
  endfacet
  facet normal -0.846721 0.532037 0
    outer loop
      vertex 132.562 2 0
      vertex 132.873 2.49396 3
      vertex 132.873 2.49396 0
    endloop
  endfacet
  facet normal -0.846721 0.532037 0
    outer loop
      vertex 132.873 2.49396 3
      vertex 132.562 2 0
      vertex 132.562 2 3
    endloop
  endfacet
  facet normal -0.707109 0.707104 0
    outer loop
      vertex 132.873 2.49396 0
      vertex 133.506 3.12733 3
      vertex 133.506 3.12733 0
    endloop
  endfacet
  facet normal -0.707109 0.707104 0
    outer loop
      vertex 133.506 3.12733 3
      vertex 132.873 2.49396 0
      vertex 132.873 2.49396 3
    endloop
  endfacet
  facet normal -0.111966 0.993712 0
    outer loop
      vertex 136 4 0
      vertex 135.11 3.89971 3
      vertex 136 4 3
    endloop
  endfacet
  facet normal -0.111966 0.993712 0
    outer loop
      vertex 135.11 3.89971 3
      vertex 136 4 0
      vertex 135.11 3.89971 0
    endloop
  endfacet
  facet normal 0.993713 -0.111956 0
    outer loop
      vertex 139.9 -0.890083 3
      vertex 140 0 0
      vertex 140 0 3
    endloop
  endfacet
  facet normal 0.993713 -0.111956 0
    outer loop
      vertex 140 0 0
      vertex 139.9 -0.890083 3
      vertex 139.9 -0.890083 0
    endloop
  endfacet
  facet normal 0.111966 -0.993712 0
    outer loop
      vertex 136 -4 0
      vertex 136.89 -3.89971 3
      vertex 136 -4 3
    endloop
  endfacet
  facet normal 0.111966 -0.993712 0
    outer loop
      vertex 136.89 -3.89971 3
      vertex 136 -4 0
      vertex 136.89 -3.89971 0
    endloop
  endfacet
  facet normal 0.532033 -0.846723 0
    outer loop
      vertex 137.736 -3.60388 0
      vertex 138.494 -3.12733 3
      vertex 137.736 -3.60388 3
    endloop
  endfacet
  facet normal 0.532033 -0.846723 0
    outer loop
      vertex 138.494 -3.12733 3
      vertex 137.736 -3.60388 0
      vertex 138.494 -3.12733 0
    endloop
  endfacet
  facet normal -0.707109 -0.707104 0
    outer loop
      vertex 133.506 -3.12733 0
      vertex 132.873 -2.49396 3
      vertex 132.873 -2.49396 0
    endloop
  endfacet
  facet normal -0.707109 -0.707104 0
    outer loop
      vertex 132.873 -2.49396 3
      vertex 133.506 -3.12733 0
      vertex 133.506 -3.12733 3
    endloop
  endfacet
  facet normal -0.330277 -0.943884 0
    outer loop
      vertex 134.264 -3.60388 0
      vertex 135.11 -3.89971 3
      vertex 134.264 -3.60388 3
    endloop
  endfacet
  facet normal -0.330277 -0.943884 -0
    outer loop
      vertex 135.11 -3.89971 3
      vertex 134.264 -3.60388 0
      vertex 135.11 -3.89971 0
    endloop
  endfacet
  facet normal -0.846721 -0.532037 0
    outer loop
      vertex 132.873 -2.49396 0
      vertex 132.562 -2 3
      vertex 132.562 -2 0
    endloop
  endfacet
  facet normal -0.846721 -0.532037 0
    outer loop
      vertex 132.562 -2 3
      vertex 132.873 -2.49396 0
      vertex 132.873 -2.49396 3
    endloop
  endfacet
  facet normal 0.330277 -0.943884 0
    outer loop
      vertex 136.89 -3.89971 0
      vertex 137.736 -3.60388 3
      vertex 136.89 -3.89971 3
    endloop
  endfacet
  facet normal 0.330277 -0.943884 0
    outer loop
      vertex 137.736 -3.60388 3
      vertex 136.89 -3.89971 0
      vertex 137.736 -3.60388 0
    endloop
  endfacet
  facet normal 0.943883 -0.33028 0
    outer loop
      vertex 139.604 -1.73553 3
      vertex 139.9 -0.890083 0
      vertex 139.9 -0.890083 3
    endloop
  endfacet
  facet normal 0.943883 -0.33028 0
    outer loop
      vertex 139.9 -0.890083 0
      vertex 139.604 -1.73553 3
      vertex 139.604 -1.73553 0
    endloop
  endfacet
  facet normal -0.532033 -0.846723 0
    outer loop
      vertex 133.506 -3.12733 0
      vertex 134.264 -3.60388 3
      vertex 133.506 -3.12733 3
    endloop
  endfacet
  facet normal -0.532033 -0.846723 -0
    outer loop
      vertex 134.264 -3.60388 3
      vertex 133.506 -3.12733 0
      vertex 134.264 -3.60388 0
    endloop
  endfacet
  facet normal -0.974929 -0.222518 0
    outer loop
      vertex 138 0 0
      vertex 137.802 0.867767 3
      vertex 137.802 0.867767 0
    endloop
  endfacet
  facet normal -0.974929 -0.222518 0
    outer loop
      vertex 137.802 0.867767 3
      vertex 138 0 0
      vertex 138 0 3
    endloop
  endfacet
  facet normal 0 -1 0
    outer loop
      vertex 136 1.94986 0
      vertex 136.445 1.94986 3
      vertex 136 1.94986 3
    endloop
  endfacet
  facet normal 0 -1 -0
    outer loop
      vertex 136.445 1.94986 3
      vertex 136 1.94986 0
      vertex 136.445 1.94986 0
    endloop
  endfacet
  facet normal -0.433883 -0.900969 0
    outer loop
      vertex 136.445 1.94986 0
      vertex 137.247 1.56366 3
      vertex 136.445 1.94986 3
    endloop
  endfacet
  facet normal -0.433883 -0.900969 -0
    outer loop
      vertex 137.247 1.56366 3
      vertex 136.445 1.94986 0
      vertex 137.247 1.56366 0
    endloop
  endfacet
  facet normal -0.781829 -0.623493 0
    outer loop
      vertex 137.802 0.867767 0
      vertex 137.247 1.56366 3
      vertex 137.247 1.56366 0
    endloop
  endfacet
  facet normal -0.781829 -0.623493 0
    outer loop
      vertex 137.247 1.56366 3
      vertex 137.802 0.867767 0
      vertex 137.802 0.867767 3
    endloop
  endfacet
  facet normal -0.974929 0.222518 0
    outer loop
      vertex 137.802 -0.867767 0
      vertex 138 0 3
      vertex 138 0 0
    endloop
  endfacet
  facet normal -0.974929 0.222518 0
    outer loop
      vertex 138 0 3
      vertex 137.802 -0.867767 0
      vertex 137.802 -0.867767 3
    endloop
  endfacet
  facet normal 0 1 -0
    outer loop
      vertex 136.445 -1.94986 0
      vertex 136 -1.94986 3
      vertex 136.445 -1.94986 3
    endloop
  endfacet
  facet normal 0 1 0
    outer loop
      vertex 136 -1.94986 3
      vertex 136.445 -1.94986 0
      vertex 136 -1.94986 0
    endloop
  endfacet
  facet normal -0.433883 0.900969 0
    outer loop
      vertex 137.247 -1.56366 0
      vertex 136.445 -1.94986 3
      vertex 137.247 -1.56366 3
    endloop
  endfacet
  facet normal -0.433883 0.900969 0
    outer loop
      vertex 136.445 -1.94986 3
      vertex 137.247 -1.56366 0
      vertex 136.445 -1.94986 0
    endloop
  endfacet
  facet normal -0.781829 0.623493 0
    outer loop
      vertex 137.247 -1.56366 0
      vertex 137.802 -0.867767 3
      vertex 137.802 -0.867767 0
    endloop
  endfacet
  facet normal -0.781829 0.623493 0
    outer loop
      vertex 137.802 -0.867767 3
      vertex 137.247 -1.56366 0
      vertex 137.247 -1.56366 3
    endloop
  endfacet
  facet normal -1 0 0
    outer loop
      vertex 0 1.84828 0
      vertex 0 1.94986 3
      vertex 0 1.94986 0
    endloop
  endfacet
  facet normal -1 -0 0
    outer loop
      vertex 0 1.94986 3
      vertex 0 1.84828 0
      vertex 0 1.84828 3
    endloop
  endfacet
  facet normal -1 0 0
    outer loop
      vertex 0 -1.94986 0
      vertex 0 -1.84828 3
      vertex 0 -1.84828 0
    endloop
  endfacet
  facet normal -1 -0 0
    outer loop
      vertex 0 -1.84828 3
      vertex 0 -1.94986 0
      vertex 0 -1.94986 3
    endloop
  endfacet
  facet normal 1 -0 0
    outer loop
      vertex 136 -1.94986 3
      vertex 136 -1.84828 0
      vertex 136 -1.84828 3
    endloop
  endfacet
  facet normal 1 0 0
    outer loop
      vertex 136 -1.84828 0
      vertex 136 -1.94986 3
      vertex 136 -1.94986 0
    endloop
  endfacet
  facet normal 1 -0 0
    outer loop
      vertex 136 1.84828 3
      vertex 136 1.94986 0
      vertex 136 1.94986 3
    endloop
  endfacet
  facet normal 1 0 0
    outer loop
      vertex 136 1.94986 0
      vertex 136 1.84828 3
      vertex 136 1.84828 0
    endloop
  endfacet
  facet normal 0 1 -0
    outer loop
      vertex 132.562 2 0
      vertex 3.4377 2 3
      vertex 132.562 2 3
    endloop
  endfacet
  facet normal 0 1 0
    outer loop
      vertex 3.4377 2 3
      vertex 132.562 2 0
      vertex 3.4377 2 0
    endloop
  endfacet
  facet normal 0 -1 0
    outer loop
      vertex 3.4377 -2 0
      vertex 132.562 -2 3
      vertex 3.4377 -2 3
    endloop
  endfacet
  facet normal 0 -1 -0
    outer loop
      vertex 132.562 -2 3
      vertex 3.4377 -2 0
      vertex 132.562 -2 0
    endloop
  endfacet
  facet normal -0.900969 -0.433884 0
    outer loop
      vertex 2 0 0
      vertex 1.24698 1.56366 3
      vertex 1.24698 1.56366 0
    endloop
  endfacet
  facet normal -0.900969 -0.433884 0
    outer loop
      vertex 1.24698 1.56366 3
      vertex 2 0 0
      vertex 2 0 3
    endloop
  endfacet
  facet normal -0.222521 -0.974928 0
    outer loop
      vertex 0 1.84828 0
      vertex 1.24698 1.56366 3
      vertex 0 1.84828 3
    endloop
  endfacet
  facet normal -0.222521 -0.974928 -0
    outer loop
      vertex 1.24698 1.56366 3
      vertex 0 1.84828 0
      vertex 1.24698 1.56366 0
    endloop
  endfacet
  facet normal -0.900969 0.433884 0
    outer loop
      vertex 1.24698 -1.56366 0
      vertex 2 0 3
      vertex 2 0 0
    endloop
  endfacet
  facet normal -0.900969 0.433884 0
    outer loop
      vertex 2 0 3
      vertex 1.24698 -1.56366 0
      vertex 1.24698 -1.56366 3
    endloop
  endfacet
  facet normal -0.222521 0.974928 0
    outer loop
      vertex 1.24698 -1.56366 0
      vertex 0 -1.84828 3
      vertex 1.24698 -1.56366 3
    endloop
  endfacet
  facet normal -0.222521 0.974928 0
    outer loop
      vertex 0 -1.84828 3
      vertex 1.24698 -1.56366 0
      vertex 0 -1.84828 0
    endloop
  endfacet
  facet normal 1 -0 0
    outer loop
      vertex 134.198 -0.867767 3
      vertex 134.198 0.867767 0
      vertex 134.198 0.867767 3
    endloop
  endfacet
  facet normal 1 0 0
    outer loop
      vertex 134.198 0.867767 0
      vertex 134.198 -0.867767 3
      vertex 134.198 -0.867767 0
    endloop
  endfacet
  facet normal -0.222524 -0.974927 0
    outer loop
      vertex 135.555 1.94986 0
      vertex 136 1.84828 3
      vertex 135.555 1.94986 3
    endloop
  endfacet
  facet normal -0.222524 -0.974927 -0
    outer loop
      vertex 136 1.84828 3
      vertex 135.555 1.94986 0
      vertex 136 1.84828 0
    endloop
  endfacet
  facet normal 0.623488 -0.781833 0
    outer loop
      vertex 134.198 0.867767 0
      vertex 135.555 1.94986 3
      vertex 134.198 0.867767 3
    endloop
  endfacet
  facet normal 0.623488 -0.781833 0
    outer loop
      vertex 135.555 1.94986 3
      vertex 134.198 0.867767 0
      vertex 135.555 1.94986 0
    endloop
  endfacet
  facet normal -0.222524 0.974927 0
    outer loop
      vertex 136 -1.84828 0
      vertex 135.555 -1.94986 3
      vertex 136 -1.84828 3
    endloop
  endfacet
  facet normal -0.222524 0.974927 0
    outer loop
      vertex 135.555 -1.94986 3
      vertex 136 -1.84828 0
      vertex 135.555 -1.94986 0
    endloop
  endfacet
  facet normal 0.623488 0.781833 -0
    outer loop
      vertex 135.555 -1.94986 0
      vertex 134.198 -0.867767 3
      vertex 135.555 -1.94986 3
    endloop
  endfacet
  facet normal 0.623488 0.781833 0
    outer loop
      vertex 134.198 -0.867767 3
      vertex 135.555 -1.94986 0
      vertex 134.198 -0.867767 0
    endloop
  endfacet
endsolid OpenSCAD_Model
