solid OpenSCAD_Model
  facet normal -1 0 0
    outer loop
      vertex 8 15 0
      vertex 8 13.4847 3.21347
      vertex 8 15 6
    endloop
  endfacet
  facet normal -1 0 0
    outer loop
      vertex 8 15 0
      vertex 8 13.3644 2.37688
      vertex 8 13.4847 3.21347
    endloop
  endfacet
  facet normal -1 0 0
    outer loop
      vertex 8 15 0
      vertex 8 12.811 1.73812
      vertex 8 13.3644 2.37688
    endloop
  endfacet
  facet normal -1 0 0
    outer loop
      vertex 8 15 0
      vertex 8 12 1.5
      vertex 8 12.811 1.73812
    endloop
  endfacet
  facet normal -1 0 0
    outer loop
      vertex 8 7.46429 0
      vertex 8 12 1.5
      vertex 8 15 0
    endloop
  endfacet
  facet normal -1 -0 0
    outer loop
      vertex 8 10.6356 2.37688
      vertex 8 7.46429 0
      vertex 8 10.5153 3.21347
    endloop
  endfacet
  facet normal -1 -0 0
    outer loop
      vertex 8 11.189 1.73812
      vertex 8 7.46429 0
      vertex 8 10.6356 2.37688
    endloop
  endfacet
  facet normal -1 -0 0
    outer loop
      vertex 8 12 1.5
      vertex 8 7.46429 0
      vertex 8 11.189 1.73812
    endloop
  endfacet
  facet normal -1 0 0
    outer loop
      vertex 8 13.1336 3.98229
      vertex 8 15 6
      vertex 8 13.4847 3.21347
    endloop
  endfacet
  facet normal -1 0 0
    outer loop
      vertex 8 12.4226 4.43924
      vertex 8 15 6
      vertex 8 13.1336 3.98229
    endloop
  endfacet
  facet normal -1 0 0
    outer loop
      vertex 8 11.5774 4.43924
      vertex 8 15 6
      vertex 8 12.4226 4.43924
    endloop
  endfacet
  facet normal -1 0 0
    outer loop
      vertex 8 7.46429 6
      vertex 8 10.5153 3.21347
      vertex 8 7.46429 0
    endloop
  endfacet
  facet normal -1 0 0
    outer loop
      vertex 8 11.5774 4.43924
      vertex 8 7.46429 6
      vertex 8 15 6
    endloop
  endfacet
  facet normal -1 0 0
    outer loop
      vertex 8 10.8664 3.98229
      vertex 8 7.46429 6
      vertex 8 11.5774 4.43924
    endloop
  endfacet
  facet normal -1 0 0
    outer loop
      vertex 8 10.5153 3.21347
      vertex 8 7.46429 6
      vertex 8 10.8664 3.98229
    endloop
  endfacet
  facet normal -0 0 1
    outer loop
      vertex 10.049 4.4741 6
      vertex 16 0 6
      vertex 16 15 6
    endloop
  endfacet
  facet normal 0 0 1
    outer loop
      vertex 16 0 6
      vertex 10.7596 2.28703 6
      vertex 11 0 6
    endloop
  endfacet
  facet normal 0 0 1
    outer loop
      vertex 16 0 6
      vertex 10.049 4.4741 6
      vertex 10.7596 2.28703 6
    endloop
  endfacet
  facet normal 0 0 1
    outer loop
      vertex 16 15 6
      vertex 8.89919 6.46564 6
      vertex 10.049 4.4741 6
    endloop
  endfacet
  facet normal 0 0 1
    outer loop
      vertex 8 7.46429 6
      vertex 16 15 6
      vertex 8 15 6
    endloop
  endfacet
  facet normal 0 0 1
    outer loop
      vertex 16 15 6
      vertex 8 7.46429 6
      vertex 8.89919 6.46564 6
    endloop
  endfacet
  facet normal 0 0 1
    outer loop
      vertex 50.3798 -98.8565 6
      vertex 50.3798 -101.144 6
      vertex 50.5 -100 6
    endloop
  endfacet
  facet normal 0 0 1
    outer loop
      vertex 50.0245 -97.7629 6
      vertex 50.3798 -101.144 6
      vertex 50.3798 -98.8565 6
    endloop
  endfacet
  facet normal 0 0 1
    outer loop
      vertex 50.0245 -97.7629 6
      vertex 50.0245 -102.237 6
      vertex 50.3798 -101.144 6
    endloop
  endfacet
  facet normal 0 0 1
    outer loop
      vertex 50.0245 -97.7629 6
      vertex 49.4496 -103.233 6
      vertex 50.0245 -102.237 6
    endloop
  endfacet
  facet normal 0 0 1
    outer loop
      vertex 50.0245 -97.7629 6
      vertex 48.6802 -104.087 6
      vertex 49.4496 -103.233 6
    endloop
  endfacet
  facet normal 0 0 1
    outer loop
      vertex 50.0245 -97.7629 6
      vertex 47.75 -104.763 6
      vertex 48.6802 -104.087 6
    endloop
  endfacet
  facet normal 0 0 1
    outer loop
      vertex 50.0245 -97.7629 6
      vertex 46.6996 -105.231 6
      vertex 47.75 -104.763 6
    endloop
  endfacet
  facet normal 0 0 1
    outer loop
      vertex 50.0245 -97.7629 6
      vertex 45.5749 -105.47 6
      vertex 46.6996 -105.231 6
    endloop
  endfacet
  facet normal 0 0 1
    outer loop
      vertex 50.0245 -97.7629 6
      vertex 44.4251 -105.47 6
      vertex 45.5749 -105.47 6
    endloop
  endfacet
  facet normal 0 0 1
    outer loop
      vertex 50.0245 -97.7629 6
      vertex 43.3004 -105.231 6
      vertex 44.4251 -105.47 6
    endloop
  endfacet
  facet normal 0 0 1
    outer loop
      vertex 50.0245 -97.7629 6
      vertex 42.25 -104.763 6
      vertex 43.3004 -105.231 6
    endloop
  endfacet
  facet normal 0 0 1
    outer loop
      vertex 50.0245 -97.7629 6
      vertex 41.3198 -104.087 6
      vertex 42.25 -104.763 6
    endloop
  endfacet
  facet normal 0 0 1
    outer loop
      vertex 50.0245 -97.7629 6
      vertex 40.5504 -103.233 6
      vertex 41.3198 -104.087 6
    endloop
  endfacet
  facet normal 0 0 1
    outer loop
      vertex 50.0245 -97.7629 6
      vertex 39.9755 -102.237 6
      vertex 40.5504 -103.233 6
    endloop
  endfacet
  facet normal -0 0 1
    outer loop
      vertex 8 -15 6
      vertex 50.0245 -97.7629 6
      vertex 16 0 6
    endloop
  endfacet
  facet normal 0 0 1
    outer loop
      vertex 10.7596 -2.28703 6
      vertex 16 0 6
      vertex 11 0 6
    endloop
  endfacet
  facet normal 0 0 1
    outer loop
      vertex 10.049 -4.4741 6
      vertex 16 0 6
      vertex 10.7596 -2.28703 6
    endloop
  endfacet
  facet normal 0 0 1
    outer loop
      vertex 8.89919 -6.46564 6
      vertex 16 0 6
      vertex 10.049 -4.4741 6
    endloop
  endfacet
  facet normal 0 0 1
    outer loop
      vertex 16 0 6
      vertex 8.89919 -6.46564 6
      vertex 8 -15 6
    endloop
  endfacet
  facet normal 0 0 1
    outer loop
      vertex 8 -15 6
      vertex 8.89919 -6.46564 6
      vertex 8 -7.46429 6
    endloop
  endfacet
  facet normal 0 0 1
    outer loop
      vertex 50.0245 -97.7629 6
      vertex 8 -15 6
      vertex 39.9755 -102.237 6
    endloop
  endfacet
  facet normal 1 0 0
    outer loop
      vertex 16 15 6
      vertex 16 13.4847 3.21347
      vertex 16 15 0
    endloop
  endfacet
  facet normal 1 0 0
    outer loop
      vertex 16 15 6
      vertex 16 13.1336 3.98229
      vertex 16 13.4847 3.21347
    endloop
  endfacet
  facet normal 1 0 0
    outer loop
      vertex 16 15 6
      vertex 16 12.4226 4.43924
      vertex 16 13.1336 3.98229
    endloop
  endfacet
  facet normal 1 0 0
    outer loop
      vertex 16 15 6
      vertex 16 11.5774 4.43924
      vertex 16 12.4226 4.43924
    endloop
  endfacet
  facet normal 1 0 0
    outer loop
      vertex 16 10.8664 3.98229
      vertex 16 0 6
      vertex 16 10.5153 3.21347
    endloop
  endfacet
  facet normal 1 0 0
    outer loop
      vertex 16 11.5774 4.43924
      vertex 16 0 6
      vertex 16 10.8664 3.98229
    endloop
  endfacet
  facet normal 1 -0 0
    outer loop
      vertex 16 0 6
      vertex 16 11.5774 4.43924
      vertex 16 15 6
    endloop
  endfacet
  facet normal 1 -0 0
    outer loop
      vertex 16 13.3644 2.37688
      vertex 16 15 0
      vertex 16 13.4847 3.21347
    endloop
  endfacet
  facet normal 1 -0 0
    outer loop
      vertex 16 12.811 1.73812
      vertex 16 15 0
      vertex 16 13.3644 2.37688
    endloop
  endfacet
  facet normal 1 -0 0
    outer loop
      vertex 16 12 1.5
      vertex 16 15 0
      vertex 16 12.811 1.73812
    endloop
  endfacet
  facet normal 1 0 0
    outer loop
      vertex 16 11.189 1.73812
      vertex 16 15 0
      vertex 16 12 1.5
    endloop
  endfacet
  facet normal 1 0 0
    outer loop
      vertex 16 0 0
      vertex 16 10.5153 3.21347
      vertex 16 0 6
    endloop
  endfacet
  facet normal 1 0 0
    outer loop
      vertex 16 10.5153 3.21347
      vertex 16 0 0
      vertex 16 10.6356 2.37688
    endloop
  endfacet
  facet normal 1 0 0
    outer loop
      vertex 16 10.6356 2.37688
      vertex 16 0 0
      vertex 16 11.189 1.73812
    endloop
  endfacet
  facet normal 1 0 0
    outer loop
      vertex 16 11.189 1.73812
      vertex 16 0 0
      vertex 16 15 0
    endloop
  endfacet
  facet normal 0 1 -0
    outer loop
      vertex 16 15 0
      vertex 8 15 6
      vertex 16 15 6
    endloop
  endfacet
  facet normal 0 1 0
    outer loop
      vertex 8 15 6
      vertex 16 15 0
      vertex 8 15 0
    endloop
  endfacet
  facet normal 0 0 -1
    outer loop
      vertex 50.3798 -101.144 0
      vertex 50.3798 -98.8565 0
      vertex 50.5 -100 0
    endloop
  endfacet
  facet normal 0 0 -1
    outer loop
      vertex 50.0245 -102.237 0
      vertex 50.3798 -98.8565 0
      vertex 50.3798 -101.144 0
    endloop
  endfacet
  facet normal 0 0 -1
    outer loop
      vertex 50.0245 -102.237 0
      vertex 50.0245 -97.7629 0
      vertex 50.3798 -98.8565 0
    endloop
  endfacet
  facet normal 0 0 -1
    outer loop
      vertex 49.4496 -103.233 0
      vertex 50.0245 -97.7629 0
      vertex 50.0245 -102.237 0
    endloop
  endfacet
  facet normal 0 0 -1
    outer loop
      vertex 48.6802 -104.087 0
      vertex 50.0245 -97.7629 0
      vertex 49.4496 -103.233 0
    endloop
  endfacet
  facet normal 0 0 -1
    outer loop
      vertex 47.75 -104.763 0
      vertex 50.0245 -97.7629 0
      vertex 48.6802 -104.087 0
    endloop
  endfacet
  facet normal 0 0 -1
    outer loop
      vertex 46.6996 -105.231 0
      vertex 50.0245 -97.7629 0
      vertex 47.75 -104.763 0
    endloop
  endfacet
  facet normal 0 0 -1
    outer loop
      vertex 45.5749 -105.47 0
      vertex 50.0245 -97.7629 0
      vertex 46.6996 -105.231 0
    endloop
  endfacet
  facet normal 0 0 -1
    outer loop
      vertex 44.4251 -105.47 0
      vertex 50.0245 -97.7629 0
      vertex 45.5749 -105.47 0
    endloop
  endfacet
  facet normal 0 0 -1
    outer loop
      vertex 43.3004 -105.231 0
      vertex 50.0245 -97.7629 0
      vertex 44.4251 -105.47 0
    endloop
  endfacet
  facet normal 0 0 -1
    outer loop
      vertex 42.25 -104.763 0
      vertex 50.0245 -97.7629 0
      vertex 43.3004 -105.231 0
    endloop
  endfacet
  facet normal 0 0 -1
    outer loop
      vertex 41.3198 -104.087 0
      vertex 50.0245 -97.7629 0
      vertex 42.25 -104.763 0
    endloop
  endfacet
  facet normal 0 0 -1
    outer loop
      vertex 40.5504 -103.233 0
      vertex 50.0245 -97.7629 0
      vertex 41.3198 -104.087 0
    endloop
  endfacet
  facet normal 0 0 -1
    outer loop
      vertex 39.9755 -102.237 0
      vertex 50.0245 -97.7629 0
      vertex 40.5504 -103.233 0
    endloop
  endfacet
  facet normal 0 0 -1
    outer loop
      vertex 8 -15 0
      vertex 50.0245 -97.7629 0
      vertex 39.9755 -102.237 0
    endloop
  endfacet
  facet normal 0 0 -1
    outer loop
      vertex 10.7596 2.28703 0
      vertex 16 0 0
      vertex 11 0 0
    endloop
  endfacet
  facet normal 0 0 -1
    outer loop
      vertex 50.0245 -97.7629 0
      vertex 8 -15 0
      vertex 16 0 0
    endloop
  endfacet
  facet normal -0 0 -1
    outer loop
      vertex 16 0 0
      vertex 10.7596 -2.28703 0
      vertex 11 0 0
    endloop
  endfacet
  facet normal 0 -0 -1
    outer loop
      vertex 8.89919 -6.46564 0
      vertex 16 0 0
      vertex 8 -15 0
    endloop
  endfacet
  facet normal 0 0 -1
    outer loop
      vertex 16 0 0
      vertex 10.049 -4.4741 0
      vertex 10.7596 -2.28703 0
    endloop
  endfacet
  facet normal 0 0 -1
    outer loop
      vertex 16 0 0
      vertex 8.89919 -6.46564 0
      vertex 10.049 -4.4741 0
    endloop
  endfacet
  facet normal 0 0 -1
    outer loop
      vertex 8.89919 -6.46564 0
      vertex 8 -15 0
      vertex 8 -7.46429 0
    endloop
  endfacet
  facet normal 0 0 -1
    outer loop
      vertex 10.049 4.4741 0
      vertex 16 0 0
      vertex 10.7596 2.28703 0
    endloop
  endfacet
  facet normal 0 0 -1
    outer loop
      vertex 16 0 0
      vertex 10.049 4.4741 0
      vertex 16 15 0
    endloop
  endfacet
  facet normal 0 0 -1
    outer loop
      vertex 8.89919 6.46564 0
      vertex 16 15 0
      vertex 10.049 4.4741 0
    endloop
  endfacet
  facet normal 0 0 -1
    outer loop
      vertex 8 7.46429 0
      vertex 16 15 0
      vertex 8.89919 6.46564 0
    endloop
  endfacet
  facet normal -0 0 -1
    outer loop
      vertex 16 15 0
      vertex 8 7.46429 0
      vertex 8 15 0
    endloop
  endfacet
  facet normal 0 -0.281732 0.959493
    outer loop
      vertex 8 12.811 1.73812
      vertex 16 12 1.5
      vertex 16 12.811 1.73812
    endloop
  endfacet
  facet normal 0 -0.281732 0.959493
    outer loop
      vertex 16 12 1.5
      vertex 8 12.811 1.73812
      vertex 8 12 1.5
    endloop
  endfacet
  facet normal 0 0 -1
    outer loop
      vertex 8 11.5774 4.43924
      vertex 16 12.4226 4.43924
      vertex 16 11.5774 4.43924
    endloop
  endfacet
  facet normal -0 0 -1
    outer loop
      vertex 16 12.4226 4.43924
      vertex 8 11.5774 4.43924
      vertex 8 12.4226 4.43924
    endloop
  endfacet
  facet normal 0 -0.909632 -0.415415
    outer loop
      vertex 8 13.4847 3.21347
      vertex 16 13.1336 3.98229
      vertex 8 13.1336 3.98229
    endloop
  endfacet
  facet normal 0 -0.909632 -0.415415
    outer loop
      vertex 16 13.1336 3.98229
      vertex 8 13.4847 3.21347
      vertex 16 13.4847 3.21347
    endloop
  endfacet
  facet normal 0 -0.75575 0.654861
    outer loop
      vertex 8 12.811 1.73812
      vertex 16 13.3644 2.37688
      vertex 8 13.3644 2.37688
    endloop
  endfacet
  facet normal 0 -0.75575 0.654861
    outer loop
      vertex 16 13.3644 2.37688
      vertex 8 12.811 1.73812
      vertex 16 12.811 1.73812
    endloop
  endfacet
  facet normal 0 -0.54064 -0.841254
    outer loop
      vertex 8 12.4226 4.43924
      vertex 16 13.1336 3.98229
      vertex 16 12.4226 4.43924
    endloop
  endfacet
  facet normal -0 -0.54064 -0.841254
    outer loop
      vertex 16 13.1336 3.98229
      vertex 8 12.4226 4.43924
      vertex 8 13.1336 3.98229
    endloop
  endfacet
  facet normal 0 0.75575 0.654861
    outer loop
      vertex 16 11.189 1.73812
      vertex 8 10.6356 2.37688
      vertex 16 10.6356 2.37688
    endloop
  endfacet
  facet normal 0 0.75575 0.654861
    outer loop
      vertex 8 10.6356 2.37688
      vertex 16 11.189 1.73812
      vertex 8 11.189 1.73812
    endloop
  endfacet
  facet normal 0 0.54064 -0.841254
    outer loop
      vertex 8 10.8664 3.98229
      vertex 16 11.5774 4.43924
      vertex 16 10.8664 3.98229
    endloop
  endfacet
  facet normal 0 0.54064 -0.841254
    outer loop
      vertex 16 11.5774 4.43924
      vertex 8 10.8664 3.98229
      vertex 8 11.5774 4.43924
    endloop
  endfacet
  facet normal 0 -0.989821 0.142315
    outer loop
      vertex 8 13.3644 2.37688
      vertex 16 13.4847 3.21347
      vertex 8 13.4847 3.21347
    endloop
  endfacet
  facet normal 0 -0.989821 0.142315
    outer loop
      vertex 16 13.4847 3.21347
      vertex 8 13.3644 2.37688
      vertex 16 13.3644 2.37688
    endloop
  endfacet
  facet normal -0 0.281732 0.959493
    outer loop
      vertex 8 12 1.5
      vertex 16 11.189 1.73812
      vertex 16 12 1.5
    endloop
  endfacet
  facet normal 0 0.281732 0.959493
    outer loop
      vertex 16 11.189 1.73812
      vertex 8 12 1.5
      vertex 8 11.189 1.73812
    endloop
  endfacet
  facet normal 0 0.909632 -0.415415
    outer loop
      vertex 16 10.5153 3.21347
      vertex 8 10.8664 3.98229
      vertex 16 10.8664 3.98229
    endloop
  endfacet
  facet normal 0 0.909632 -0.415415
    outer loop
      vertex 8 10.8664 3.98229
      vertex 16 10.5153 3.21347
      vertex 8 10.5153 3.21347
    endloop
  endfacet
  facet normal 0 0.989821 0.142315
    outer loop
      vertex 16 10.6356 2.37688
      vertex 8 10.5153 3.21347
      vertex 16 10.5153 3.21347
    endloop
  endfacet
  facet normal 0 0.989821 0.142315
    outer loop
      vertex 8 10.5153 3.21347
      vertex 16 10.6356 2.37688
      vertex 8 10.6356 2.37688
    endloop
  endfacet
  facet normal -0.866025 -0.5 0
    outer loop
      vertex 10.049 4.4741 0
      vertex 8.89919 6.46564 6
      vertex 8.89919 6.46564 0
    endloop
  endfacet
  facet normal -0.866025 -0.5 0
    outer loop
      vertex 8.89919 6.46564 6
      vertex 10.049 4.4741 0
      vertex 10.049 4.4741 6
    endloop
  endfacet
  facet normal -0.951057 -0.309017 0
    outer loop
      vertex 10.7596 2.28703 0
      vertex 10.049 4.4741 6
      vertex 10.049 4.4741 0
    endloop
  endfacet
  facet normal -0.951057 -0.309017 0
    outer loop
      vertex 10.049 4.4741 6
      vertex 10.7596 2.28703 0
      vertex 10.7596 2.28703 6
    endloop
  endfacet
  facet normal -0.743145 -0.66913 0
    outer loop
      vertex 8.89919 6.46564 0
      vertex 8 7.46429 6
      vertex 8 7.46429 0
    endloop
  endfacet
  facet normal -0.743145 -0.66913 0
    outer loop
      vertex 8 7.46429 6
      vertex 8.89919 6.46564 0
      vertex 8.89919 6.46564 6
    endloop
  endfacet
  facet normal -0.994522 -0.104529 0
    outer loop
      vertex 11 0 0
      vertex 10.7596 2.28703 6
      vertex 10.7596 2.28703 0
    endloop
  endfacet
  facet normal -0.994522 -0.104529 0
    outer loop
      vertex 10.7596 2.28703 6
      vertex 11 0 0
      vertex 11 0 6
    endloop
  endfacet
  facet normal -1 0 0
    outer loop
      vertex 8 -7.46429 0
      vertex 8 -10.5153 3.21347
      vertex 8 -7.46429 6
    endloop
  endfacet
  facet normal -1 0 0
    outer loop
      vertex 8 -7.46429 0
      vertex 8 -10.6356 2.37688
      vertex 8 -10.5153 3.21347
    endloop
  endfacet
  facet normal -1 0 0
    outer loop
      vertex 8 -7.46429 0
      vertex 8 -11.189 1.73812
      vertex 8 -10.6356 2.37688
    endloop
  endfacet
  facet normal -1 0 0
    outer loop
      vertex 8 -7.46429 0
      vertex 8 -12 1.5
      vertex 8 -11.189 1.73812
    endloop
  endfacet
  facet normal -1 0 0
    outer loop
      vertex 8 -15 0
      vertex 8 -12 1.5
      vertex 8 -7.46429 0
    endloop
  endfacet
  facet normal -1 -0 0
    outer loop
      vertex 8 -13.3644 2.37688
      vertex 8 -15 0
      vertex 8 -13.4847 3.21347
    endloop
  endfacet
  facet normal -1 -0 0
    outer loop
      vertex 8 -12.811 1.73812
      vertex 8 -15 0
      vertex 8 -13.3644 2.37688
    endloop
  endfacet
  facet normal -1 -0 0
    outer loop
      vertex 8 -12 1.5
      vertex 8 -15 0
      vertex 8 -12.811 1.73812
    endloop
  endfacet
  facet normal -1 0 0
    outer loop
      vertex 8 -10.8664 3.98229
      vertex 8 -7.46429 6
      vertex 8 -10.5153 3.21347
    endloop
  endfacet
  facet normal -1 0 0
    outer loop
      vertex 8 -11.5774 4.43924
      vertex 8 -7.46429 6
      vertex 8 -10.8664 3.98229
    endloop
  endfacet
  facet normal -1 0 0
    outer loop
      vertex 8 -15 6
      vertex 8 -11.5774 4.43924
      vertex 8 -12.4226 4.43924
    endloop
  endfacet
  facet normal -1 0 0
    outer loop
      vertex 8 -15 6
      vertex 8 -13.4847 3.21347
      vertex 8 -15 0
    endloop
  endfacet
  facet normal -1 0 0
    outer loop
      vertex 8 -11.5774 4.43924
      vertex 8 -15 6
      vertex 8 -7.46429 6
    endloop
  endfacet
  facet normal -1 0 0
    outer loop
      vertex 8 -13.1336 3.98229
      vertex 8 -15 6
      vertex 8 -12.4226 4.43924
    endloop
  endfacet
  facet normal -1 0 0
    outer loop
      vertex 8 -13.4847 3.21347
      vertex 8 -15 6
      vertex 8 -13.1336 3.98229
    endloop
  endfacet
  facet normal -0.938916 -0.344146 0
    outer loop
      vertex 39.9755 -102.237 0
      vertex 8 -15 6
      vertex 8 -15 0
    endloop
  endfacet
  facet normal -0.938916 -0.344146 0
    outer loop
      vertex 8 -15 6
      vertex 39.9755 -102.237 0
      vertex 39.9755 -102.237 6
    endloop
  endfacet
  facet normal 0.944437 0.328693 0
    outer loop
      vertex 16 0 6
      vertex 19.6596 -10.5153 3.21347
      vertex 16 0 0
    endloop
  endfacet
  facet normal 0.944437 0.328693 1.60797e-08
    outer loop
      vertex 16 0 6
      vertex 19.7818 -10.8664 3.98229
      vertex 19.6596 -10.5153 3.21347
    endloop
  endfacet
  facet normal 0.944437 0.328693 2.27111e-06
    outer loop
      vertex 16 0 6
      vertex 20.0293 -11.5774 4.43924
      vertex 19.7818 -10.8664 3.98229
    endloop
  endfacet
  facet normal 0.944437 0.328694 -6.99298e-06
    outer loop
      vertex 16 0 6
      vertex 20.3234 -12.4226 4.43924
      vertex 20.0293 -11.5774 4.43924
    endloop
  endfacet
  facet normal 0.944437 0.328693 1.11064e-08
    outer loop
      vertex 20.5709 -13.1336 3.98229
      vertex 50.0245 -97.7629 6
      vertex 20.6931 -13.4847 3.21347
    endloop
  endfacet
  facet normal 0.944437 0.328693 1.07276e-06
    outer loop
      vertex 20.3234 -12.4226 4.43924
      vertex 50.0245 -97.7629 6
      vertex 20.5709 -13.1336 3.98229
    endloop
  endfacet
  facet normal 0.944437 0.328693 3.76971e-08
    outer loop
      vertex 50.0245 -97.7629 6
      vertex 20.3234 -12.4226 4.43924
      vertex 16 0 6
    endloop
  endfacet
  facet normal 0.944437 0.328693 -6.62669e-08
    outer loop
      vertex 19.7015 -10.6356 2.37688
      vertex 16 0 0
      vertex 19.6596 -10.5153 3.21347
    endloop
  endfacet
  facet normal 0.944437 0.328693 4.72019e-07
    outer loop
      vertex 19.8941 -11.189 1.73812
      vertex 16 0 0
      vertex 19.7015 -10.6356 2.37688
    endloop
  endfacet
  facet normal 0.944437 0.328692 -4.06699e-06
    outer loop
      vertex 20.1764 -12 1.5
      vertex 16 0 0
      vertex 19.8941 -11.189 1.73812
    endloop
  endfacet
  facet normal 0.944437 0.328693 -0
    outer loop
      vertex 50.0245 -97.7629 0
      vertex 20.6931 -13.4847 3.21347
      vertex 50.0245 -97.7629 6
    endloop
  endfacet
  facet normal 0.944437 0.328693 5.96272e-08
    outer loop
      vertex 20.6931 -13.4847 3.21347
      vertex 50.0245 -97.7629 0
      vertex 20.6512 -13.3644 2.37688
    endloop
  endfacet
  facet normal 0.944437 0.328693 -6.00172e-07
    outer loop
      vertex 20.6512 -13.3644 2.37688
      vertex 50.0245 -97.7629 0
      vertex 20.4586 -12.811 1.73812
    endloop
  endfacet
  facet normal 0.944437 0.328693 -2.76587e-06
    outer loop
      vertex 20.4586 -12.811 1.73812
      vertex 50.0245 -97.7629 0
      vertex 20.1764 -12 1.5
    endloop
  endfacet
  facet normal 0.944437 0.328693 3.14126e-07
    outer loop
      vertex 20.1764 -12 1.5
      vertex 50.0245 -97.7629 0
      vertex 16 0 0
    endloop
  endfacet
  facet normal 0.951056 0.309018 0
    outer loop
      vertex 50.3798 -98.8565 6
      vertex 50.0245 -97.7629 0
      vertex 50.0245 -97.7629 6
    endloop
  endfacet
  facet normal 0.951056 0.309018 0
    outer loop
      vertex 50.0245 -97.7629 0
      vertex 50.3798 -98.8565 6
      vertex 50.3798 -98.8565 0
    endloop
  endfacet
  facet normal 0.994522 0.10453 0
    outer loop
      vertex 50.5 -100 6
      vertex 50.3798 -98.8565 0
      vertex 50.3798 -98.8565 6
    endloop
  endfacet
  facet normal 0.994522 0.10453 0
    outer loop
      vertex 50.3798 -98.8565 0
      vertex 50.5 -100 6
      vertex 50.5 -100 0
    endloop
  endfacet
  facet normal -0.406739 -0.913545 0
    outer loop
      vertex 42.25 -104.763 0
      vertex 43.3004 -105.231 6
      vertex 42.25 -104.763 6
    endloop
  endfacet
  facet normal -0.406739 -0.913545 -0
    outer loop
      vertex 43.3004 -105.231 6
      vertex 42.25 -104.763 0
      vertex 43.3004 -105.231 0
    endloop
  endfacet
  facet normal 0.207912 -0.978148 0
    outer loop
      vertex 45.5749 -105.47 0
      vertex 46.6996 -105.231 6
      vertex 45.5749 -105.47 6
    endloop
  endfacet
  facet normal 0.207912 -0.978148 0
    outer loop
      vertex 46.6996 -105.231 6
      vertex 45.5749 -105.47 0
      vertex 46.6996 -105.231 0
    endloop
  endfacet
  facet normal -0.207912 -0.978148 0
    outer loop
      vertex 43.3004 -105.231 0
      vertex 44.4251 -105.47 6
      vertex 43.3004 -105.231 6
    endloop
  endfacet
  facet normal -0.207912 -0.978148 -0
    outer loop
      vertex 44.4251 -105.47 6
      vertex 43.3004 -105.231 0
      vertex 44.4251 -105.47 0
    endloop
  endfacet
  facet normal -0.587785 -0.809017 0
    outer loop
      vertex 41.3198 -104.087 0
      vertex 42.25 -104.763 6
      vertex 41.3198 -104.087 6
    endloop
  endfacet
  facet normal -0.587785 -0.809017 -0
    outer loop
      vertex 42.25 -104.763 6
      vertex 41.3198 -104.087 0
      vertex 42.25 -104.763 0
    endloop
  endfacet
  facet normal -0.866025 -0.5 0
    outer loop
      vertex 40.5504 -103.233 0
      vertex 39.9755 -102.237 6
      vertex 39.9755 -102.237 0
    endloop
  endfacet
  facet normal -0.866025 -0.5 0
    outer loop
      vertex 39.9755 -102.237 6
      vertex 40.5504 -103.233 0
      vertex 40.5504 -103.233 6
    endloop
  endfacet
  facet normal 0.406739 -0.913545 0
    outer loop
      vertex 46.6996 -105.231 0
      vertex 47.75 -104.763 6
      vertex 46.6996 -105.231 6
    endloop
  endfacet
  facet normal 0.406739 -0.913545 0
    outer loop
      vertex 47.75 -104.763 6
      vertex 46.6996 -105.231 0
      vertex 47.75 -104.763 0
    endloop
  endfacet
  facet normal 0.951056 -0.309018 0
    outer loop
      vertex 50.0245 -102.237 6
      vertex 50.3798 -101.144 0
      vertex 50.3798 -101.144 6
    endloop
  endfacet
  facet normal 0.951056 -0.309018 0
    outer loop
      vertex 50.3798 -101.144 0
      vertex 50.0245 -102.237 6
      vertex 50.0245 -102.237 0
    endloop
  endfacet
  facet normal 0.743145 -0.669131 0
    outer loop
      vertex 48.6802 -104.087 6
      vertex 49.4496 -103.233 0
      vertex 49.4496 -103.233 6
    endloop
  endfacet
  facet normal 0.743145 -0.669131 0
    outer loop
      vertex 49.4496 -103.233 0
      vertex 48.6802 -104.087 6
      vertex 48.6802 -104.087 0
    endloop
  endfacet
  facet normal 0 -1 0
    outer loop
      vertex 44.4251 -105.47 0
      vertex 45.5749 -105.47 6
      vertex 44.4251 -105.47 6
    endloop
  endfacet
  facet normal 0 -1 -0
    outer loop
      vertex 45.5749 -105.47 6
      vertex 44.4251 -105.47 0
      vertex 45.5749 -105.47 0
    endloop
  endfacet
  facet normal -0.743145 -0.669131 0
    outer loop
      vertex 41.3198 -104.087 0
      vertex 40.5504 -103.233 6
      vertex 40.5504 -103.233 0
    endloop
  endfacet
  facet normal -0.743145 -0.669131 0
    outer loop
      vertex 40.5504 -103.233 6
      vertex 41.3198 -104.087 0
      vertex 41.3198 -104.087 6
    endloop
  endfacet
  facet normal 0.587785 -0.809017 0
    outer loop
      vertex 47.75 -104.763 0
      vertex 48.6802 -104.087 6
      vertex 47.75 -104.763 6
    endloop
  endfacet
  facet normal 0.587785 -0.809017 0
    outer loop
      vertex 48.6802 -104.087 6
      vertex 47.75 -104.763 0
      vertex 48.6802 -104.087 0
    endloop
  endfacet
  facet normal 0.866025 -0.5 0
    outer loop
      vertex 49.4496 -103.233 6
      vertex 50.0245 -102.237 0
      vertex 50.0245 -102.237 6
    endloop
  endfacet
  facet normal 0.866025 -0.5 0
    outer loop
      vertex 50.0245 -102.237 0
      vertex 49.4496 -103.233 6
      vertex 49.4496 -103.233 0
    endloop
  endfacet
  facet normal 0.994522 -0.10453 0
    outer loop
      vertex 50.3798 -101.144 6
      vertex 50.5 -100 0
      vertex 50.5 -100 6
    endloop
  endfacet
  facet normal 0.994522 -0.10453 0
    outer loop
      vertex 50.5 -100 0
      vertex 50.3798 -101.144 6
      vertex 50.3798 -101.144 0
    endloop
  endfacet
  facet normal 0 0.281732 0.959493
    outer loop
      vertex 8 -12.811 1.73812
      vertex 20.1764 -12 1.5
      vertex 8 -12 1.5
    endloop
  endfacet
  facet normal 0 0.281732 0.959493
    outer loop
      vertex 20.1764 -12 1.5
      vertex 8 -12.811 1.73812
      vertex 20.4586 -12.811 1.73812
    endloop
  endfacet
  facet normal -0 -0.909632 -0.415415
    outer loop
      vertex 19.6596 -10.5153 3.21347
      vertex 8 -10.8664 3.98229
      vertex 8 -10.5153 3.21347
    endloop
  endfacet
  facet normal 0 -0.909632 -0.415415
    outer loop
      vertex 8 -10.8664 3.98229
      vertex 19.6596 -10.5153 3.21347
      vertex 19.7818 -10.8664 3.98229
    endloop
  endfacet
  facet normal 0 -0.54064 -0.841254
    outer loop
      vertex 8 -11.5774 4.43924
      vertex 19.7818 -10.8664 3.98229
      vertex 20.0293 -11.5774 4.43924
    endloop
  endfacet
  facet normal -0 -0.54064 -0.841254
    outer loop
      vertex 19.7818 -10.8664 3.98229
      vertex 8 -11.5774 4.43924
      vertex 8 -10.8664 3.98229
    endloop
  endfacet
  facet normal 0 -0.281732 0.959493
    outer loop
      vertex 8 -12 1.5
      vertex 19.8941 -11.189 1.73812
      vertex 8 -11.189 1.73812
    endloop
  endfacet
  facet normal 0 -0.281732 0.959493
    outer loop
      vertex 19.8941 -11.189 1.73812
      vertex 8 -12 1.5
      vertex 20.1764 -12 1.5
    endloop
  endfacet
  facet normal 0 0.54064 -0.841254
    outer loop
      vertex 8 -13.1336 3.98229
      vertex 20.3234 -12.4226 4.43924
      vertex 20.5709 -13.1336 3.98229
    endloop
  endfacet
  facet normal 0 0.54064 -0.841254
    outer loop
      vertex 20.3234 -12.4226 4.43924
      vertex 8 -13.1336 3.98229
      vertex 8 -12.4226 4.43924
    endloop
  endfacet
  facet normal 0 -0.989821 0.142315
    outer loop
      vertex 8 -10.6356 2.37688
      vertex 19.6596 -10.5153 3.21347
      vertex 8 -10.5153 3.21347
    endloop
  endfacet
  facet normal 0 -0.989821 0.142315
    outer loop
      vertex 19.6596 -10.5153 3.21347
      vertex 8 -10.6356 2.37688
      vertex 19.7015 -10.6356 2.37688
    endloop
  endfacet
  facet normal 0 0.989821 0.142315
    outer loop
      vertex 20.6512 -13.3644 2.37688
      vertex 8 -13.4847 3.21347
      vertex 20.6931 -13.4847 3.21347
    endloop
  endfacet
  facet normal 0 0.989821 0.142315
    outer loop
      vertex 8 -13.4847 3.21347
      vertex 20.6512 -13.3644 2.37688
      vertex 8 -13.3644 2.37688
    endloop
  endfacet
  facet normal 0 0.909632 -0.415415
    outer loop
      vertex 8 -13.4847 3.21347
      vertex 20.5709 -13.1336 3.98229
      vertex 20.6931 -13.4847 3.21347
    endloop
  endfacet
  facet normal 0 0.909632 -0.415415
    outer loop
      vertex 20.5709 -13.1336 3.98229
      vertex 8 -13.4847 3.21347
      vertex 8 -13.1336 3.98229
    endloop
  endfacet
  facet normal 0 0.75575 0.654861
    outer loop
      vertex 20.4586 -12.811 1.73812
      vertex 8 -13.3644 2.37688
      vertex 20.6512 -13.3644 2.37688
    endloop
  endfacet
  facet normal 0 0.75575 0.654861
    outer loop
      vertex 8 -13.3644 2.37688
      vertex 20.4586 -12.811 1.73812
      vertex 8 -12.811 1.73812
    endloop
  endfacet
  facet normal 0 0 -1
    outer loop
      vertex 8 -12.4226 4.43924
      vertex 20.0293 -11.5774 4.43924
      vertex 20.3234 -12.4226 4.43924
    endloop
  endfacet
  facet normal -0 0 -1
    outer loop
      vertex 20.0293 -11.5774 4.43924
      vertex 8 -12.4226 4.43924
      vertex 8 -11.5774 4.43924
    endloop
  endfacet
  facet normal 0 -0.75575 0.654861
    outer loop
      vertex 8 -11.189 1.73812
      vertex 19.7015 -10.6356 2.37688
      vertex 8 -10.6356 2.37688
    endloop
  endfacet
  facet normal 0 -0.75575 0.654861
    outer loop
      vertex 19.7015 -10.6356 2.37688
      vertex 8 -11.189 1.73812
      vertex 19.8941 -11.189 1.73812
    endloop
  endfacet
  facet normal -0.994522 0.104529 0
    outer loop
      vertex 10.7596 -2.28703 0
      vertex 11 0 6
      vertex 11 0 0
    endloop
  endfacet
  facet normal -0.994522 0.104529 0
    outer loop
      vertex 11 0 6
      vertex 10.7596 -2.28703 0
      vertex 10.7596 -2.28703 6
    endloop
  endfacet
  facet normal -0.951057 0.309017 0
    outer loop
      vertex 10.049 -4.4741 0
      vertex 10.7596 -2.28703 6
      vertex 10.7596 -2.28703 0
    endloop
  endfacet
  facet normal -0.951057 0.309017 0
    outer loop
      vertex 10.7596 -2.28703 6
      vertex 10.049 -4.4741 0
      vertex 10.049 -4.4741 6
    endloop
  endfacet
  facet normal -0.866025 0.5 0
    outer loop
      vertex 8.89919 -6.46564 0
      vertex 10.049 -4.4741 6
      vertex 10.049 -4.4741 0
    endloop
  endfacet
  facet normal -0.866025 0.5 0
    outer loop
      vertex 10.049 -4.4741 6
      vertex 8.89919 -6.46564 0
      vertex 8.89919 -6.46564 6
    endloop
  endfacet
  facet normal -0.743145 0.66913 0
    outer loop
      vertex 8 -7.46429 0
      vertex 8.89919 -6.46564 6
      vertex 8.89919 -6.46564 0
    endloop
  endfacet
  facet normal -0.743145 0.66913 0
    outer loop
      vertex 8.89919 -6.46564 6
      vertex 8 -7.46429 0
      vertex 8 -7.46429 6
    endloop
  endfacet
endsolid OpenSCAD_Model
