solid OpenSCAD_Model
  facet normal 0.992115 0.125334 0
    outer loop
      vertex 15.5 4 3
      vertex 15.39 4.87041 0
      vertex 15.39 4.87041 3
    endloop
  endfacet
  facet normal 0.992115 0.125334 0
    outer loop
      vertex 15.39 4.87041 0
      vertex 15.5 4 3
      vertex 15.5 4 0
    endloop
  endfacet
  facet normal -1 0 0
    outer loop
      vertex -15.4724 3.56133 0
      vertex -15.4724 4.43867 3
      vertex -15.4724 4.43867 0
    endloop
  endfacet
  facet normal -1 -0 0
    outer loop
      vertex -15.4724 4.43867 3
      vertex -15.4724 3.56133 0
      vertex -15.4724 3.56133 3
    endloop
  endfacet
  facet normal 0.187382 0.982287 -0
    outer loop
      vertex 1.08156 18.3287 0
      vertex 0.219767 18.4931 3
      vertex 1.08156 18.3287 3
    endloop
  endfacet
  facet normal 0.187382 0.982287 0
    outer loop
      vertex 0.219767 18.4931 3
      vertex 1.08156 18.3287 0
      vertex 0.219767 18.4931 0
    endloop
  endfacet
  facet normal -0.309017 -0.951057 0
    outer loop
      vertex -13.4902 0.833106 0
      vertex -12.6558 0.561996 3
      vertex -13.4902 0.833106 3
    endloop
  endfacet
  facet normal -0.309017 -0.951057 -0
    outer loop
      vertex -12.6558 0.561996 3
      vertex -13.4902 0.833106 0
      vertex -12.6558 0.561996 0
    endloop
  endfacet
  facet normal 0.675725 0.737154 -0
    outer loop
      vertex 14.5514 6.39591 0
      vertex 2.55139 17.3959 3
      vertex 14.5514 6.39591 3
    endloop
  endfacet
  facet normal 0.675725 0.737154 0
    outer loop
      vertex 2.55139 17.3959 3
      vertex 14.5514 6.39591 0
      vertex 2.55139 17.3959 0
    endloop
  endfacet
  facet normal -0.675725 0.737154 0
    outer loop
      vertex -2.23098 17.6968 0
      vertex -14.231 6.6968 3
      vertex -2.23098 17.6968 3
    endloop
  endfacet
  facet normal -0.675725 0.737154 0
    outer loop
      vertex -14.231 6.6968 3
      vertex -2.23098 17.6968 0
      vertex -14.231 6.6968 0
    endloop
  endfacet
  facet normal -0.535825 0.844329 0
    outer loop
      vertex -1.49023 18.1669 0
      vertex -2.23098 17.6968 3
      vertex -1.49023 18.1669 3
    endloop
  endfacet
  facet normal -0.535825 0.844329 0
    outer loop
      vertex -2.23098 17.6968 3
      vertex -1.49023 18.1669 0
      vertex -2.23098 17.6968 0
    endloop
  endfacet
  facet normal 0.809017 -0.587785 0
    outer loop
      vertex 14.5514 1.60409 3
      vertex 15.0671 2.31386 0
      vertex 15.0671 2.31386 3
    endloop
  endfacet
  facet normal 0.809017 -0.587785 0
    outer loop
      vertex 15.0671 2.31386 0
      vertex 14.5514 1.60409 3
      vertex 14.5514 1.60409 0
    endloop
  endfacet
  facet normal 0.929777 -0.368124 0
    outer loop
      vertex 15.0671 2.31386 3
      vertex 15.39 3.12959 0
      vertex 15.39 3.12959 3
    endloop
  endfacet
  facet normal 0.929777 -0.368124 0
    outer loop
      vertex 15.39 3.12959 0
      vertex 15.0671 2.31386 3
      vertex 15.0671 2.31386 0
    endloop
  endfacet
  facet normal -0.0627915 -0.998027 0
    outer loop
      vertex -12.6558 0.561996 0
      vertex -11.7802 0.506907 3
      vertex -12.6558 0.561996 3
    endloop
  endfacet
  facet normal -0.0627915 -0.998027 -0
    outer loop
      vertex -11.7802 0.506907 3
      vertex -12.6558 0.561996 0
      vertex -11.7802 0.506907 0
    endloop
  endfacet
  facet normal -0 0 -1
    outer loop
      vertex -8.67868 3.864 0
      vertex -10.7381 3.18904 0
      vertex -10.5 4 0
    endloop
  endfacet
  facet normal 0 0 -1
    outer loop
      vertex -9.2924 1.97516 0
      vertex -11.3769 2.63555 0
      vertex -10.7381 3.18904 0
    endloop
  endfacet
  facet normal -0 0 -1
    outer loop
      vertex -9.2924 1.97516 0
      vertex -11.7802 0.506907 0
      vertex -11.3769 2.63555 0
    endloop
  endfacet
  facet normal 0 0 -1
    outer loop
      vertex -11.7802 0.506907 0
      vertex -12.2135 2.51527 0
      vertex -11.3769 2.63555 0
    endloop
  endfacet
  facet normal 0 0 -1
    outer loop
      vertex -12.6558 0.561996 0
      vertex -12.2135 2.51527 0
      vertex -11.7802 0.506907 0
    endloop
  endfacet
  facet normal 0 0 -1
    outer loop
      vertex -13.4902 0.833106 0
      vertex -12.2135 2.51527 0
      vertex -12.6558 0.561996 0
    endloop
  endfacet
  facet normal -0 0 -1
    outer loop
      vertex -12.2135 2.51527 0
      vertex -13.4902 0.833106 0
      vertex -12.9823 2.86637 0
    endloop
  endfacet
  facet normal 0 0 -1
    outer loop
      vertex -14.8316 1.94275 0
      vertex -12.9823 2.86637 0
      vertex -14.231 1.3032 0
    endloop
  endfacet
  facet normal 0 0 -1
    outer loop
      vertex -14.231 1.3032 0
      vertex -12.9823 2.86637 0
      vertex -13.4902 0.833106 0
    endloop
  endfacet
  facet normal 0 0 -1
    outer loop
      vertex 0.623122 16.3644 0
      vertex 2.55139 17.3959 0
      vertex 1.26188 15.811 0
    endloop
  endfacet
  facet normal -0 0 -1
    outer loop
      vertex 2.55139 17.3959 0
      vertex 0.623122 16.3644 0
      vertex 1.87539 17.9551 0
    endloop
  endfacet
  facet normal -0 0 -1
    outer loop
      vertex 1.87539 17.9551 0
      vertex 0.623122 16.3644 0
      vertex 1.08156 18.3287 0
    endloop
  endfacet
  facet normal 0 0 -1
    outer loop
      vertex 0.623122 16.3644 0
      vertex 0.219767 18.4931 0
      vertex 1.08156 18.3287 0
    endloop
  endfacet
  facet normal 0 0 -1
    outer loop
      vertex -0.213471 16.4847 0
      vertex 0.219767 18.4931 0
      vertex 0.623122 16.3644 0
    endloop
  endfacet
  facet normal 0 0 -1
    outer loop
      vertex -0.213471 16.4847 0
      vertex -0.655834 18.438 0
      vertex 0.219767 18.4931 0
    endloop
  endfacet
  facet normal 0 0 -1
    outer loop
      vertex -1.49023 18.1669 0
      vertex -0.213471 16.4847 0
      vertex -0.98229 16.1336 0
    endloop
  endfacet
  facet normal 0 0 -1
    outer loop
      vertex -2.23098 17.6968 0
      vertex -0.98229 16.1336 0
      vertex -1.43924 15.4226 0
    endloop
  endfacet
  facet normal 0 0 -1
    outer loop
      vertex -0.213471 16.4847 0
      vertex -1.49023 18.1669 0
      vertex -0.655834 18.438 0
    endloop
  endfacet
  facet normal 0 0 -1
    outer loop
      vertex 15.39 3.12959 0
      vertex 13.2619 3.18904 0
      vertex 13.5 4 0
    endloop
  endfacet
  facet normal 0 0 -1
    outer loop
      vertex 12.6231 2.63555 0
      vertex 13.8754 1.04485 0
      vertex 13.0816 0.671303 0
    endloop
  endfacet
  facet normal 0 0 -1
    outer loop
      vertex 14.5514 1.60409 0
      vertex 12.6231 2.63555 0
      vertex 13.2619 3.18904 0
    endloop
  endfacet
  facet normal 0 0 -1
    outer loop
      vertex 12.2198 0.506907 0
      vertex 12.6231 2.63555 0
      vertex 13.0816 0.671303 0
    endloop
  endfacet
  facet normal 0 0 -1
    outer loop
      vertex 12.2198 0.506907 0
      vertex 11.7865 2.51527 0
      vertex 12.6231 2.63555 0
    endloop
  endfacet
  facet normal 0 0 -1
    outer loop
      vertex 9.44672 0.506907 0
      vertex 11.7865 2.51527 0
      vertex 12.2198 0.506907 0
    endloop
  endfacet
  facet normal -0 0 -1
    outer loop
      vertex 11.7865 2.51527 0
      vertex 9.44672 0.506907 0
      vertex 11.0177 2.86637 0
    endloop
  endfacet
  facet normal -0 0 -1
    outer loop
      vertex 11.0177 2.86637 0
      vertex 9.2924 1.97516 0
      vertex 10.5608 3.5774 0
    endloop
  endfacet
  facet normal 0 0 -1
    outer loop
      vertex 11.0177 2.86637 0
      vertex 9.44672 0.506907 0
      vertex 9.2924 1.97516 0
    endloop
  endfacet
  facet normal 0 0 -1
    outer loop
      vertex 13.5 4 0
      vertex 15.5 4 0
      vertex 15.39 3.12959 0
    endloop
  endfacet
  facet normal 0 0 -1
    outer loop
      vertex 13.2619 3.18904 0
      vertex 15.39 3.12959 0
      vertex 15.0671 2.31386 0
    endloop
  endfacet
  facet normal 0 0 -1
    outer loop
      vertex 15.5 4 0
      vertex 13.5 4 0
      vertex 15.39 4.87041 0
    endloop
  endfacet
  facet normal 0 0 -1
    outer loop
      vertex 13.2619 3.18904 0
      vertex 15.0671 2.31386 0
      vertex 14.5514 1.60409 0
    endloop
  endfacet
  facet normal 0 0 -1
    outer loop
      vertex 13.2619 4.81096 0
      vertex 15.39 4.87041 0
      vertex 13.5 4 0
    endloop
  endfacet
  facet normal 0 0 -1
    outer loop
      vertex 12.6231 2.63555 0
      vertex 14.5514 1.60409 0
      vertex 13.8754 1.04485 0
    endloop
  endfacet
  facet normal -0 0 -1
    outer loop
      vertex 15.39 4.87041 0
      vertex 13.2619 4.81096 0
      vertex 15.0671 5.68614 0
    endloop
  endfacet
  facet normal -0 0 -1
    outer loop
      vertex 15.0671 5.68614 0
      vertex 13.2619 4.81096 0
      vertex 14.5514 6.39591 0
    endloop
  endfacet
  facet normal 0 0 -1
    outer loop
      vertex 12.6231 5.36445 0
      vertex 14.5514 6.39591 0
      vertex 13.2619 4.81096 0
    endloop
  endfacet
  facet normal 0 0 -1
    outer loop
      vertex 11.7865 5.48473 0
      vertex 14.5514 6.39591 0
      vertex 12.6231 5.36445 0
    endloop
  endfacet
  facet normal 0 0 -1
    outer loop
      vertex 8.67868 3.864 0
      vertex 10.5608 3.5774 0
      vertex 9.2924 1.97516 0
    endloop
  endfacet
  facet normal 0 0 -1
    outer loop
      vertex 10.5608 3.5774 0
      vertex 8.67868 3.864 0
      vertex 10.5608 4.4226 0
    endloop
  endfacet
  facet normal 0 0 -1
    outer loop
      vertex 7.68566 5.58396 0
      vertex 10.5608 4.4226 0
      vertex 8.67868 3.864 0
    endloop
  endfacet
  facet normal 0 0 -1
    outer loop
      vertex 10.5608 4.4226 0
      vertex 7.68566 5.58396 0
      vertex 11.0177 5.13362 0
    endloop
  endfacet
  facet normal 0 0 -1
    outer loop
      vertex 7.68566 5.58396 0
      vertex 11.7865 5.48473 0
      vertex 11.0177 5.13362 0
    endloop
  endfacet
  facet normal 0 0 -1
    outer loop
      vertex 6.35674 7.05988 0
      vertex 11.7865 5.48473 0
      vertex 7.68566 5.58396 0
    endloop
  endfacet
  facet normal 0 0 -1
    outer loop
      vertex 11.7865 5.48473 0
      vertex 6.35674 7.05988 0
      vertex 14.5514 6.39591 0
    endloop
  endfacet
  facet normal 0 0 -1
    outer loop
      vertex 2.55139 17.3959 0
      vertex 6.35674 7.05988 0
      vertex 4.75 8.22724 0
    endloop
  endfacet
  facet normal 0 0 -1
    outer loop
      vertex 1.26188 14.189 0
      vertex 4.75 8.22724 0
      vertex 2.93566 9.03504 0
    endloop
  endfacet
  facet normal 0 0 -1
    outer loop
      vertex 6.35674 7.05988 0
      vertex 2.55139 17.3959 0
      vertex 14.5514 6.39591 0
    endloop
  endfacet
  facet normal 0 0 -1
    outer loop
      vertex 4.75 8.22724 0
      vertex 1.5 15 0
      vertex 2.55139 17.3959 0
    endloop
  endfacet
  facet normal 0 0 -1
    outer loop
      vertex 1.26188 15.811 0
      vertex 2.55139 17.3959 0
      vertex 1.5 15 0
    endloop
  endfacet
  facet normal 0 0 -1
    outer loop
      vertex 4.75 8.22724 0
      vertex 1.26188 14.189 0
      vertex 1.5 15 0
    endloop
  endfacet
  facet normal 0 0 -1
    outer loop
      vertex 0.623122 13.6356 0
      vertex 2.93566 9.03504 0
      vertex 0.99302 9.44796 0
    endloop
  endfacet
  facet normal 0 0 -1
    outer loop
      vertex 2.93566 9.03504 0
      vertex 0.623122 13.6356 0
      vertex 1.26188 14.189 0
    endloop
  endfacet
  facet normal 0 0 -1
    outer loop
      vertex 0.99302 9.44796 0
      vertex -0.213471 13.5153 0
      vertex 0.623122 13.6356 0
    endloop
  endfacet
  facet normal 0 0 -1
    outer loop
      vertex -0.99302 9.44796 0
      vertex -0.213471 13.5153 0
      vertex 0.99302 9.44796 0
    endloop
  endfacet
  facet normal -0 0 -1
    outer loop
      vertex -0.213471 13.5153 0
      vertex -0.99302 9.44796 0
      vertex -0.98229 13.8664 0
    endloop
  endfacet
  facet normal 0 0 -1
    outer loop
      vertex -2.93566 9.03504 0
      vertex -0.98229 13.8664 0
      vertex -0.99302 9.44796 0
    endloop
  endfacet
  facet normal 0 0 -1
    outer loop
      vertex -2.23098 17.6968 0
      vertex -1.43924 15.4226 0
      vertex -1.43924 14.5774 0
    endloop
  endfacet
  facet normal 0 0 -1
    outer loop
      vertex -0.98229 16.1336 0
      vertex -2.23098 17.6968 0
      vertex -1.49023 18.1669 0
    endloop
  endfacet
  facet normal -0 0 -1
    outer loop
      vertex -0.98229 13.8664 0
      vertex -2.93566 9.03504 0
      vertex -1.43924 14.5774 0
    endloop
  endfacet
  facet normal 0 0 -1
    outer loop
      vertex -4.75 8.22724 0
      vertex -1.43924 14.5774 0
      vertex -2.93566 9.03504 0
    endloop
  endfacet
  facet normal -0 0 -1
    outer loop
      vertex -1.43924 14.5774 0
      vertex -4.75 8.22724 0
      vertex -2.23098 17.6968 0
    endloop
  endfacet
  facet normal 0 0 -1
    outer loop
      vertex -14.231 6.6968 0
      vertex -4.75 8.22724 0
      vertex -6.35674 7.05988 0
    endloop
  endfacet
  facet normal 0 0 -1
    outer loop
      vertex -11.3769 5.36445 0
      vertex -6.35674 7.05988 0
      vertex -7.68566 5.58396 0
    endloop
  endfacet
  facet normal 0 0 -1
    outer loop
      vertex -10.7381 4.81096 0
      vertex -7.68566 5.58396 0
      vertex -8.67868 3.864 0
    endloop
  endfacet
  facet normal 0 0 -1
    outer loop
      vertex -11.7802 0.506907 0
      vertex -9.2924 1.97516 0
      vertex -9.44672 0.506907 0
    endloop
  endfacet
  facet normal 0 0 -1
    outer loop
      vertex -10.7381 3.18904 0
      vertex -8.67868 3.864 0
      vertex -9.2924 1.97516 0
    endloop
  endfacet
  facet normal 0 0 -1
    outer loop
      vertex -10.7381 4.81096 0
      vertex -8.67868 3.864 0
      vertex -10.5 4 0
    endloop
  endfacet
  facet normal 0 0 -1
    outer loop
      vertex -7.68566 5.58396 0
      vertex -10.7381 4.81096 0
      vertex -11.3769 5.36445 0
    endloop
  endfacet
  facet normal 0 0 -1
    outer loop
      vertex -6.35674 7.05988 0
      vertex -11.3769 5.36445 0
      vertex -14.231 6.6968 0
    endloop
  endfacet
  facet normal 0 0 -1
    outer loop
      vertex -14.231 6.6968 0
      vertex -11.3769 5.36445 0
      vertex -12.2135 5.48473 0
    endloop
  endfacet
  facet normal 0 0 -1
    outer loop
      vertex -14.231 6.6968 0
      vertex -12.2135 5.48473 0
      vertex -12.9823 5.13362 0
    endloop
  endfacet
  facet normal -0 0 -1
    outer loop
      vertex -12.9823 2.86637 0
      vertex -14.8316 1.94275 0
      vertex -13.4392 3.5774 0
    endloop
  endfacet
  facet normal -0 0 -1
    outer loop
      vertex -4.75 8.22724 0
      vertex -14.231 6.6968 0
      vertex -2.23098 17.6968 0
    endloop
  endfacet
  facet normal 0 0 -1
    outer loop
      vertex -14.8316 6.05725 0
      vertex -12.9823 5.13362 0
      vertex -13.4392 4.4226 0
    endloop
  endfacet
  facet normal 0 0 -1
    outer loop
      vertex -15.2542 2.71157 0
      vertex -13.4392 3.5774 0
      vertex -14.8316 1.94275 0
    endloop
  endfacet
  facet normal 0 0 -1
    outer loop
      vertex -15.4724 3.56133 0
      vertex -13.4392 3.5774 0
      vertex -15.2542 2.71157 0
    endloop
  endfacet
  facet normal 0 0 -1
    outer loop
      vertex -12.9823 5.13362 0
      vertex -14.8316 6.05725 0
      vertex -14.231 6.6968 0
    endloop
  endfacet
  facet normal -0 0 -1
    outer loop
      vertex -13.4392 3.5774 0
      vertex -15.4724 3.56133 0
      vertex -13.4392 4.4226 0
    endloop
  endfacet
  facet normal 0 0 -1
    outer loop
      vertex -13.4392 4.4226 0
      vertex -15.2542 5.28843 0
      vertex -14.8316 6.05725 0
    endloop
  endfacet
  facet normal 0 0 -1
    outer loop
      vertex -15.4724 4.43867 0
      vertex -13.4392 4.4226 0
      vertex -15.4724 3.56133 0
    endloop
  endfacet
  facet normal 0 0 -1
    outer loop
      vertex -13.4392 4.4226 0
      vertex -15.4724 4.43867 0
      vertex -15.2542 5.28843 0
    endloop
  endfacet
  facet normal 0.809017 0.587785 0
    outer loop
      vertex 15.0671 5.68614 3
      vertex 14.5514 6.39591 0
      vertex 14.5514 6.39591 3
    endloop
  endfacet
  facet normal 0.809017 0.587785 0
    outer loop
      vertex 14.5514 6.39591 0
      vertex 15.0671 5.68614 3
      vertex 15.0671 5.68614 0
    endloop
  endfacet
  facet normal 0.929777 0.368124 0
    outer loop
      vertex 15.39 4.87041 3
      vertex 15.0671 5.68614 0
      vertex 15.0671 5.68614 3
    endloop
  endfacet
  facet normal 0.929777 0.368124 0
    outer loop
      vertex 15.0671 5.68614 0
      vertex 15.39 4.87041 3
      vertex 15.39 4.87041 0
    endloop
  endfacet
  facet normal 0.42578 0.904827 -0
    outer loop
      vertex 1.87539 17.9551 0
      vertex 1.08156 18.3287 3
      vertex 1.87539 17.9551 3
    endloop
  endfacet
  facet normal 0.42578 0.904827 0
    outer loop
      vertex 1.08156 18.3287 3
      vertex 1.87539 17.9551 0
      vertex 1.08156 18.3287 0
    endloop
  endfacet
  facet normal 0.637424 0.770514 -0
    outer loop
      vertex 2.55139 17.3959 0
      vertex 1.87539 17.9551 3
      vertex 2.55139 17.3959 3
    endloop
  endfacet
  facet normal 0.637424 0.770514 0
    outer loop
      vertex 1.87539 17.9551 3
      vertex 2.55139 17.3959 0
      vertex 1.87539 17.9551 0
    endloop
  endfacet
  facet normal -0.876307 0.481753 0
    outer loop
      vertex -15.2542 5.28843 0
      vertex -14.8316 6.05725 3
      vertex -14.8316 6.05725 0
    endloop
  endfacet
  facet normal -0.876307 0.481753 0
    outer loop
      vertex -14.8316 6.05725 3
      vertex -15.2542 5.28843 0
      vertex -15.2542 5.28843 3
    endloop
  endfacet
  facet normal -0.728968 0.684547 0
    outer loop
      vertex -14.8316 6.05725 0
      vertex -14.231 6.6968 3
      vertex -14.231 6.6968 0
    endloop
  endfacet
  facet normal -0.728968 0.684547 0
    outer loop
      vertex -14.231 6.6968 3
      vertex -14.8316 6.05725 0
      vertex -14.8316 6.05725 3
    endloop
  endfacet
  facet normal -0.968583 0.24869 0
    outer loop
      vertex -15.4724 4.43867 0
      vertex -15.2542 5.28843 3
      vertex -15.2542 5.28843 0
    endloop
  endfacet
  facet normal -0.968583 0.24869 0
    outer loop
      vertex -15.2542 5.28843 3
      vertex -15.4724 4.43867 0
      vertex -15.4724 4.43867 3
    endloop
  endfacet
  facet normal -0 0 1
    outer loop
      vertex -11.3769 2.63555 3
      vertex -9.2924 1.97516 3
      vertex -10.7381 3.18904 3
    endloop
  endfacet
  facet normal 0 0 1
    outer loop
      vertex -11.7802 0.506907 3
      vertex -9.2924 1.97516 3
      vertex -11.3769 2.63555 3
    endloop
  endfacet
  facet normal 0 0 1
    outer loop
      vertex -9.2924 1.97516 3
      vertex -11.7802 0.506907 3
      vertex -9.44672 0.506907 3
    endloop
  endfacet
  facet normal -0 0 1
    outer loop
      vertex -12.2135 2.51527 3
      vertex -11.7802 0.506907 3
      vertex -11.3769 2.63555 3
    endloop
  endfacet
  facet normal 0 0 1
    outer loop
      vertex -12.2135 2.51527 3
      vertex -12.6558 0.561996 3
      vertex -11.7802 0.506907 3
    endloop
  endfacet
  facet normal 0 0 1
    outer loop
      vertex -13.4902 0.833106 3
      vertex -12.2135 2.51527 3
      vertex -12.9823 2.86637 3
    endloop
  endfacet
  facet normal 0 0 1
    outer loop
      vertex -14.8316 1.94275 3
      vertex -12.9823 2.86637 3
      vertex -13.4392 3.5774 3
    endloop
  endfacet
  facet normal 0 0 1
    outer loop
      vertex -12.2135 2.51527 3
      vertex -13.4902 0.833106 3
      vertex -12.6558 0.561996 3
    endloop
  endfacet
  facet normal 0 0 1
    outer loop
      vertex 2.55139 17.3959 3
      vertex 1.26188 15.811 3
      vertex 1.5 15 3
    endloop
  endfacet
  facet normal 0 0 1
    outer loop
      vertex 0.623122 16.3644 3
      vertex 1.87539 17.9551 3
      vertex 1.08156 18.3287 3
    endloop
  endfacet
  facet normal 0 0 1
    outer loop
      vertex 2.55139 17.3959 3
      vertex 0.623122 16.3644 3
      vertex 1.26188 15.811 3
    endloop
  endfacet
  facet normal 0 0 1
    outer loop
      vertex 0.219767 18.4931 3
      vertex 0.623122 16.3644 3
      vertex 1.08156 18.3287 3
    endloop
  endfacet
  facet normal 0 0 1
    outer loop
      vertex 0.219767 18.4931 3
      vertex -0.213471 16.4847 3
      vertex 0.623122 16.3644 3
    endloop
  endfacet
  facet normal -0 0 1
    outer loop
      vertex -0.655834 18.438 3
      vertex -0.213471 16.4847 3
      vertex 0.219767 18.4931 3
    endloop
  endfacet
  facet normal -0 0 1
    outer loop
      vertex -1.49023 18.1669 3
      vertex -0.213471 16.4847 3
      vertex -0.655834 18.438 3
    endloop
  endfacet
  facet normal 0 0 1
    outer loop
      vertex -0.213471 16.4847 3
      vertex -1.49023 18.1669 3
      vertex -0.98229 16.1336 3
    endloop
  endfacet
  facet normal 0 0 1
    outer loop
      vertex -0.98229 16.1336 3
      vertex -2.23098 17.6968 3
      vertex -1.43924 15.4226 3
    endloop
  endfacet
  facet normal -0 0 1
    outer loop
      vertex -2.23098 17.6968 3
      vertex -0.98229 16.1336 3
      vertex -1.49023 18.1669 3
    endloop
  endfacet
  facet normal 0 0 1
    outer loop
      vertex 13.5 4 3
      vertex 15.5 4 3
      vertex 15.39 4.87041 3
    endloop
  endfacet
  facet normal 0 0 1
    outer loop
      vertex 13.2619 4.81096 3
      vertex 15.39 4.87041 3
      vertex 15.0671 5.68614 3
    endloop
  endfacet
  facet normal 0 0 1
    outer loop
      vertex 15.5 4 3
      vertex 13.5 4 3
      vertex 15.39 3.12959 3
    endloop
  endfacet
  facet normal 0 0 1
    outer loop
      vertex 13.2619 4.81096 3
      vertex 15.0671 5.68614 3
      vertex 14.5514 6.39591 3
    endloop
  endfacet
  facet normal -0 0 1
    outer loop
      vertex 13.2619 3.18904 3
      vertex 15.39 3.12959 3
      vertex 13.5 4 3
    endloop
  endfacet
  facet normal 0 0 1
    outer loop
      vertex 15.39 3.12959 3
      vertex 13.2619 3.18904 3
      vertex 15.0671 2.31386 3
    endloop
  endfacet
  facet normal 0 0 1
    outer loop
      vertex 15.0671 2.31386 3
      vertex 13.2619 3.18904 3
      vertex 14.5514 1.60409 3
    endloop
  endfacet
  facet normal 0 0 1
    outer loop
      vertex 15.39 4.87041 3
      vertex 13.2619 4.81096 3
      vertex 13.5 4 3
    endloop
  endfacet
  facet normal 0 0 1
    outer loop
      vertex 14.5514 6.39591 3
      vertex 12.6231 5.36445 3
      vertex 13.2619 4.81096 3
    endloop
  endfacet
  facet normal 0 0 1
    outer loop
      vertex 14.5514 6.39591 3
      vertex 11.7865 5.48473 3
      vertex 12.6231 5.36445 3
    endloop
  endfacet
  facet normal -0 0 1
    outer loop
      vertex 8.67868 3.864 3
      vertex 10.5608 3.5774 3
      vertex 10.5608 4.4226 3
    endloop
  endfacet
  facet normal 0 0 1
    outer loop
      vertex 10.5608 3.5774 3
      vertex 9.2924 1.97516 3
      vertex 9.44672 0.506907 3
    endloop
  endfacet
  facet normal 0 0 1
    outer loop
      vertex 10.5608 3.5774 3
      vertex 8.67868 3.864 3
      vertex 9.2924 1.97516 3
    endloop
  endfacet
  facet normal 0 0 1
    outer loop
      vertex 7.68566 5.58396 3
      vertex 10.5608 4.4226 3
      vertex 11.0177 5.13362 3
    endloop
  endfacet
  facet normal 0 0 1
    outer loop
      vertex 10.5608 4.4226 3
      vertex 7.68566 5.58396 3
      vertex 8.67868 3.864 3
    endloop
  endfacet
  facet normal 0 0 1
    outer loop
      vertex 11.7865 5.48473 3
      vertex 7.68566 5.58396 3
      vertex 11.0177 5.13362 3
    endloop
  endfacet
  facet normal 0 0 1
    outer loop
      vertex 6.35674 7.05988 3
      vertex 11.7865 5.48473 3
      vertex 14.5514 6.39591 3
    endloop
  endfacet
  facet normal 0 0 1
    outer loop
      vertex 11.7865 5.48473 3
      vertex 6.35674 7.05988 3
      vertex 7.68566 5.58396 3
    endloop
  endfacet
  facet normal 0 0 1
    outer loop
      vertex 2.55139 17.3959 3
      vertex 6.35674 7.05988 3
      vertex 14.5514 6.39591 3
    endloop
  endfacet
  facet normal 0 0 1
    outer loop
      vertex 6.35674 7.05988 3
      vertex 2.55139 17.3959 3
      vertex 4.75 8.22724 3
    endloop
  endfacet
  facet normal -0 0 1
    outer loop
      vertex 1.5 15 3
      vertex 4.75 8.22724 3
      vertex 2.55139 17.3959 3
    endloop
  endfacet
  facet normal 0 0 1
    outer loop
      vertex 0.623122 16.3644 3
      vertex 2.55139 17.3959 3
      vertex 1.87539 17.9551 3
    endloop
  endfacet
  facet normal -0 0 1
    outer loop
      vertex 1.26188 14.189 3
      vertex 4.75 8.22724 3
      vertex 1.5 15 3
    endloop
  endfacet
  facet normal 0 0 1
    outer loop
      vertex 4.75 8.22724 3
      vertex 1.26188 14.189 3
      vertex 2.93566 9.03504 3
    endloop
  endfacet
  facet normal -0 0 1
    outer loop
      vertex 0.623122 13.6356 3
      vertex 2.93566 9.03504 3
      vertex 1.26188 14.189 3
    endloop
  endfacet
  facet normal 0 0 1
    outer loop
      vertex 2.93566 9.03504 3
      vertex 0.623122 13.6356 3
      vertex 0.99302 9.44796 3
    endloop
  endfacet
  facet normal -0 0 1
    outer loop
      vertex -0.213471 13.5153 3
      vertex 0.99302 9.44796 3
      vertex 0.623122 13.6356 3
    endloop
  endfacet
  facet normal 0 0 1
    outer loop
      vertex -0.99302 9.44796 3
      vertex -0.213471 13.5153 3
      vertex -0.98229 13.8664 3
    endloop
  endfacet
  facet normal 0 0 1
    outer loop
      vertex -0.213471 13.5153 3
      vertex -0.99302 9.44796 3
      vertex 0.99302 9.44796 3
    endloop
  endfacet
  facet normal 0 0 1
    outer loop
      vertex -2.93566 9.03504 3
      vertex -0.98229 13.8664 3
      vertex -1.43924 14.5774 3
    endloop
  endfacet
  facet normal 0 0 1
    outer loop
      vertex -1.43924 15.4226 3
      vertex -2.23098 17.6968 3
      vertex -1.43924 14.5774 3
    endloop
  endfacet
  facet normal 0 0 1
    outer loop
      vertex -4.75 8.22724 3
      vertex -1.43924 14.5774 3
      vertex -2.23098 17.6968 3
    endloop
  endfacet
  facet normal 0 0 1
    outer loop
      vertex -0.98229 13.8664 3
      vertex -2.93566 9.03504 3
      vertex -0.99302 9.44796 3
    endloop
  endfacet
  facet normal 0 0 1
    outer loop
      vertex -1.43924 14.5774 3
      vertex -4.75 8.22724 3
      vertex -2.93566 9.03504 3
    endloop
  endfacet
  facet normal 0 0 1
    outer loop
      vertex -14.231 6.6968 3
      vertex -4.75 8.22724 3
      vertex -2.23098 17.6968 3
    endloop
  endfacet
  facet normal 0 0 1
    outer loop
      vertex -4.75 8.22724 3
      vertex -14.231 6.6968 3
      vertex -6.35674 7.05988 3
    endloop
  endfacet
  facet normal 0 -0 1
    outer loop
      vertex -11.3769 5.36445 3
      vertex -6.35674 7.05988 3
      vertex -14.231 6.6968 3
    endloop
  endfacet
  facet normal 0 0 1
    outer loop
      vertex -8.67868 3.864 3
      vertex -10.7381 3.18904 3
      vertex -9.2924 1.97516 3
    endloop
  endfacet
  facet normal 0 0 1
    outer loop
      vertex -10.7381 3.18904 3
      vertex -8.67868 3.864 3
      vertex -10.5 4 3
    endloop
  endfacet
  facet normal 0 -0 1
    outer loop
      vertex -10.7381 4.81096 3
      vertex -7.68566 5.58396 3
      vertex -11.3769 5.36445 3
    endloop
  endfacet
  facet normal 0 0 1
    outer loop
      vertex -8.67868 3.864 3
      vertex -10.7381 4.81096 3
      vertex -10.5 4 3
    endloop
  endfacet
  facet normal 0 0 1
    outer loop
      vertex -7.68566 5.58396 3
      vertex -10.7381 4.81096 3
      vertex -8.67868 3.864 3
    endloop
  endfacet
  facet normal 0 0 1
    outer loop
      vertex -6.35674 7.05988 3
      vertex -11.3769 5.36445 3
      vertex -7.68566 5.58396 3
    endloop
  endfacet
  facet normal 0 0 1
    outer loop
      vertex -11.3769 5.36445 3
      vertex -14.231 6.6968 3
      vertex -12.2135 5.48473 3
    endloop
  endfacet
  facet normal 0 0 1
    outer loop
      vertex -15.4724 3.56133 3
      vertex -13.4392 3.5774 3
      vertex -13.4392 4.4226 3
    endloop
  endfacet
  facet normal 0 0 1
    outer loop
      vertex -12.2135 5.48473 3
      vertex -14.231 6.6968 3
      vertex -12.9823 5.13362 3
    endloop
  endfacet
  facet normal -0 0 1
    outer loop
      vertex -14.8316 6.05725 3
      vertex -12.9823 5.13362 3
      vertex -14.231 6.6968 3
    endloop
  endfacet
  facet normal 0 0 1
    outer loop
      vertex -12.9823 5.13362 3
      vertex -14.8316 6.05725 3
      vertex -13.4392 4.4226 3
    endloop
  endfacet
  facet normal 0 0 1
    outer loop
      vertex -12.9823 2.86637 3
      vertex -14.231 1.3032 3
      vertex -13.4902 0.833106 3
    endloop
  endfacet
  facet normal -0 0 1
    outer loop
      vertex -15.2542 5.28843 3
      vertex -13.4392 4.4226 3
      vertex -14.8316 6.05725 3
    endloop
  endfacet
  facet normal 0 0 1
    outer loop
      vertex -12.9823 2.86637 3
      vertex -14.8316 1.94275 3
      vertex -14.231 1.3032 3
    endloop
  endfacet
  facet normal -0 0 1
    outer loop
      vertex -15.4724 4.43867 3
      vertex -13.4392 4.4226 3
      vertex -15.2542 5.28843 3
    endloop
  endfacet
  facet normal 0 0 1
    outer loop
      vertex -13.4392 3.5774 3
      vertex -15.2542 2.71157 3
      vertex -14.8316 1.94275 3
    endloop
  endfacet
  facet normal 0 0 1
    outer loop
      vertex -15.4724 3.56133 3
      vertex -13.4392 4.4226 3
      vertex -15.4724 4.43867 3
    endloop
  endfacet
  facet normal 0 0 1
    outer loop
      vertex -13.4392 3.5774 3
      vertex -15.4724 3.56133 3
      vertex -15.2542 2.71157 3
    endloop
  endfacet
  facet normal -0 0 1
    outer loop
      vertex 12.6231 2.63555 3
      vertex 14.5514 1.60409 3
      vertex 13.2619 3.18904 3
    endloop
  endfacet
  facet normal 0 0 1
    outer loop
      vertex 14.5514 1.60409 3
      vertex 12.6231 2.63555 3
      vertex 13.8754 1.04485 3
    endloop
  endfacet
  facet normal 0 0 1
    outer loop
      vertex 13.8754 1.04485 3
      vertex 12.6231 2.63555 3
      vertex 13.0816 0.671303 3
    endloop
  endfacet
  facet normal 0 0 1
    outer loop
      vertex 12.6231 2.63555 3
      vertex 12.2198 0.506907 3
      vertex 13.0816 0.671303 3
    endloop
  endfacet
  facet normal -0 0 1
    outer loop
      vertex 11.7865 2.51527 3
      vertex 12.2198 0.506907 3
      vertex 12.6231 2.63555 3
    endloop
  endfacet
  facet normal 0 0 1
    outer loop
      vertex 9.44672 0.506907 3
      vertex 11.7865 2.51527 3
      vertex 11.0177 2.86637 3
    endloop
  endfacet
  facet normal 0 0 1
    outer loop
      vertex 9.44672 0.506907 3
      vertex 11.0177 2.86637 3
      vertex 10.5608 3.5774 3
    endloop
  endfacet
  facet normal 0 0 1
    outer loop
      vertex 11.7865 2.51527 3
      vertex 9.44672 0.506907 3
      vertex 12.2198 0.506907 3
    endloop
  endfacet
  facet normal -0.309017 0.951057 0
    outer loop
      vertex -0.655834 18.438 0
      vertex -1.49023 18.1669 3
      vertex -0.655834 18.438 3
    endloop
  endfacet
  facet normal -0.309017 0.951057 0
    outer loop
      vertex -1.49023 18.1669 3
      vertex -0.655834 18.438 0
      vertex -1.49023 18.1669 0
    endloop
  endfacet
  facet normal 0.992115 -0.125334 0
    outer loop
      vertex 15.39 3.12959 3
      vertex 15.5 4 0
      vertex 15.5 4 3
    endloop
  endfacet
  facet normal 0.992115 -0.125334 0
    outer loop
      vertex 15.5 4 0
      vertex 15.39 3.12959 3
      vertex 15.39 3.12959 0
    endloop
  endfacet
  facet normal 0.187382 -0.982287 0
    outer loop
      vertex 12.2198 0.506907 0
      vertex 13.0816 0.671303 3
      vertex 12.2198 0.506907 3
    endloop
  endfacet
  facet normal 0.187382 -0.982287 0
    outer loop
      vertex 13.0816 0.671303 3
      vertex 12.2198 0.506907 0
      vertex 13.0816 0.671303 0
    endloop
  endfacet
  facet normal 0.637424 -0.770514 0
    outer loop
      vertex 13.8754 1.04485 0
      vertex 14.5514 1.60409 3
      vertex 13.8754 1.04485 3
    endloop
  endfacet
  facet normal 0.637424 -0.770514 0
    outer loop
      vertex 14.5514 1.60409 3
      vertex 13.8754 1.04485 0
      vertex 14.5514 1.60409 0
    endloop
  endfacet
  facet normal 0 -1 0
    outer loop
      vertex 9.44672 0.506907 0
      vertex 12.2198 0.506907 3
      vertex 9.44672 0.506907 3
    endloop
  endfacet
  facet normal 0 -1 -0
    outer loop
      vertex 12.2198 0.506907 3
      vertex 9.44672 0.506907 0
      vertex 12.2198 0.506907 0
    endloop
  endfacet
  facet normal 0 -1 0
    outer loop
      vertex -11.7802 0.506907 0
      vertex -9.44672 0.506907 3
      vertex -11.7802 0.506907 3
    endloop
  endfacet
  facet normal 0 -1 -0
    outer loop
      vertex -9.44672 0.506907 3
      vertex -11.7802 0.506907 0
      vertex -9.44672 0.506907 0
    endloop
  endfacet
  facet normal -0.968583 -0.24869 0
    outer loop
      vertex -15.2542 2.71157 0
      vertex -15.4724 3.56133 3
      vertex -15.4724 3.56133 0
    endloop
  endfacet
  facet normal -0.968583 -0.24869 0
    outer loop
      vertex -15.4724 3.56133 3
      vertex -15.2542 2.71157 0
      vertex -15.2542 2.71157 3
    endloop
  endfacet
  facet normal -0.0627926 0.998027 0
    outer loop
      vertex 0.219767 18.4931 0
      vertex -0.655834 18.438 3
      vertex 0.219767 18.4931 3
    endloop
  endfacet
  facet normal -0.0627926 0.998027 0
    outer loop
      vertex -0.655834 18.438 3
      vertex 0.219767 18.4931 0
      vertex -0.655834 18.438 0
    endloop
  endfacet
  facet normal 0.42578 -0.904827 0
    outer loop
      vertex 13.0816 0.671303 0
      vertex 13.8754 1.04485 3
      vertex 13.0816 0.671303 3
    endloop
  endfacet
  facet normal 0.42578 -0.904827 0
    outer loop
      vertex 13.8754 1.04485 3
      vertex 13.0816 0.671303 0
      vertex 13.8754 1.04485 0
    endloop
  endfacet
  facet normal -0.728968 -0.684547 0
    outer loop
      vertex -14.231 1.3032 0
      vertex -14.8316 1.94275 3
      vertex -14.8316 1.94275 0
    endloop
  endfacet
  facet normal -0.728968 -0.684547 0
    outer loop
      vertex -14.8316 1.94275 3
      vertex -14.231 1.3032 0
      vertex -14.231 1.3032 3
    endloop
  endfacet
  facet normal -0.876307 -0.481753 0
    outer loop
      vertex -14.8316 1.94275 0
      vertex -15.2542 2.71157 3
      vertex -15.2542 2.71157 0
    endloop
  endfacet
  facet normal -0.876307 -0.481753 0
    outer loop
      vertex -15.2542 2.71157 3
      vertex -14.8316 1.94275 0
      vertex -14.8316 1.94275 3
    endloop
  endfacet
  facet normal -0.535827 -0.844328 0
    outer loop
      vertex -14.231 1.3032 0
      vertex -13.4902 0.833106 3
      vertex -14.231 1.3032 3
    endloop
  endfacet
  facet normal -0.535827 -0.844328 -0
    outer loop
      vertex -13.4902 0.833106 3
      vertex -14.231 1.3032 0
      vertex -13.4902 0.833106 0
    endloop
  endfacet
  facet normal -0.866026 -0.5 0
    outer loop
      vertex 8.67868 3.864 0
      vertex 7.68566 5.58396 3
      vertex 7.68566 5.58396 0
    endloop
  endfacet
  facet normal -0.866026 -0.5 0
    outer loop
      vertex 7.68566 5.58396 3
      vertex 8.67868 3.864 0
      vertex 8.67868 3.864 3
    endloop
  endfacet
  facet normal -0.743145 -0.669131 0
    outer loop
      vertex 7.68566 5.58396 0
      vertex 6.35674 7.05988 3
      vertex 6.35674 7.05988 0
    endloop
  endfacet
  facet normal -0.743145 -0.669131 0
    outer loop
      vertex 6.35674 7.05988 3
      vertex 7.68566 5.58396 0
      vertex 7.68566 5.58396 3
    endloop
  endfacet
  facet normal -0.406737 -0.913545 0
    outer loop
      vertex 2.93566 9.03504 0
      vertex 4.75 8.22724 3
      vertex 2.93566 9.03504 3
    endloop
  endfacet
  facet normal -0.406737 -0.913545 -0
    outer loop
      vertex 4.75 8.22724 3
      vertex 2.93566 9.03504 0
      vertex 4.75 8.22724 0
    endloop
  endfacet
  facet normal 0.406737 -0.913545 0
    outer loop
      vertex -4.75 8.22724 0
      vertex -2.93566 9.03504 3
      vertex -4.75 8.22724 3
    endloop
  endfacet
  facet normal 0.406737 -0.913545 0
    outer loop
      vertex -2.93566 9.03504 3
      vertex -4.75 8.22724 0
      vertex -2.93566 9.03504 0
    endloop
  endfacet
  facet normal 0.866026 -0.5 0
    outer loop
      vertex -8.67868 3.864 3
      vertex -7.68566 5.58396 0
      vertex -7.68566 5.58396 3
    endloop
  endfacet
  facet normal 0.866026 -0.5 0
    outer loop
      vertex -7.68566 5.58396 0
      vertex -8.67868 3.864 3
      vertex -8.67868 3.864 0
    endloop
  endfacet
  facet normal 0 -1 0
    outer loop
      vertex -0.99302 9.44796 0
      vertex 0.99302 9.44796 3
      vertex -0.99302 9.44796 3
    endloop
  endfacet
  facet normal 0 -1 -0
    outer loop
      vertex 0.99302 9.44796 3
      vertex -0.99302 9.44796 0
      vertex 0.99302 9.44796 0
    endloop
  endfacet
  facet normal -0.587785 -0.809017 0
    outer loop
      vertex 4.75 8.22724 0
      vertex 6.35674 7.05988 3
      vertex 4.75 8.22724 3
    endloop
  endfacet
  facet normal -0.587785 -0.809017 -0
    outer loop
      vertex 6.35674 7.05988 3
      vertex 4.75 8.22724 0
      vertex 6.35674 7.05988 0
    endloop
  endfacet
  facet normal 0.994522 -0.104529 0
    outer loop
      vertex -9.44672 0.506907 3
      vertex -9.2924 1.97516 0
      vertex -9.2924 1.97516 3
    endloop
  endfacet
  facet normal 0.994522 -0.104529 0
    outer loop
      vertex -9.2924 1.97516 0
      vertex -9.44672 0.506907 3
      vertex -9.44672 0.506907 0
    endloop
  endfacet
  facet normal 0.587785 -0.809017 0
    outer loop
      vertex -6.35674 7.05988 0
      vertex -4.75 8.22724 3
      vertex -6.35674 7.05988 3
    endloop
  endfacet
  facet normal 0.587785 -0.809017 0
    outer loop
      vertex -4.75 8.22724 3
      vertex -6.35674 7.05988 0
      vertex -4.75 8.22724 0
    endloop
  endfacet
  facet normal 0.207912 -0.978148 0
    outer loop
      vertex -2.93566 9.03504 0
      vertex -0.99302 9.44796 3
      vertex -2.93566 9.03504 3
    endloop
  endfacet
  facet normal 0.207912 -0.978148 0
    outer loop
      vertex -0.99302 9.44796 3
      vertex -2.93566 9.03504 0
      vertex -0.99302 9.44796 0
    endloop
  endfacet
  facet normal 0.743145 -0.669131 0
    outer loop
      vertex -7.68566 5.58396 3
      vertex -6.35674 7.05988 0
      vertex -6.35674 7.05988 3
    endloop
  endfacet
  facet normal 0.743145 -0.669131 0
    outer loop
      vertex -6.35674 7.05988 0
      vertex -7.68566 5.58396 3
      vertex -7.68566 5.58396 0
    endloop
  endfacet
  facet normal -0.994522 -0.104529 0
    outer loop
      vertex 9.44672 0.506907 0
      vertex 9.2924 1.97516 3
      vertex 9.2924 1.97516 0
    endloop
  endfacet
  facet normal -0.994522 -0.104529 0
    outer loop
      vertex 9.2924 1.97516 3
      vertex 9.44672 0.506907 0
      vertex 9.44672 0.506907 3
    endloop
  endfacet
  facet normal -0.951057 -0.309017 0
    outer loop
      vertex 9.2924 1.97516 0
      vertex 8.67868 3.864 3
      vertex 8.67868 3.864 0
    endloop
  endfacet
  facet normal -0.951057 -0.309017 0
    outer loop
      vertex 8.67868 3.864 3
      vertex 9.2924 1.97516 0
      vertex 9.2924 1.97516 3
    endloop
  endfacet
  facet normal -0.207912 -0.978148 0
    outer loop
      vertex 0.99302 9.44796 0
      vertex 2.93566 9.03504 3
      vertex 0.99302 9.44796 3
    endloop
  endfacet
  facet normal -0.207912 -0.978148 -0
    outer loop
      vertex 2.93566 9.03504 3
      vertex 0.99302 9.44796 0
      vertex 2.93566 9.03504 0
    endloop
  endfacet
  facet normal 0.951057 -0.309017 0
    outer loop
      vertex -9.2924 1.97516 3
      vertex -8.67868 3.864 0
      vertex -8.67868 3.864 3
    endloop
  endfacet
  facet normal 0.951057 -0.309017 0
    outer loop
      vertex -8.67868 3.864 0
      vertex -9.2924 1.97516 3
      vertex -9.2924 1.97516 0
    endloop
  endfacet
  facet normal -0.959493 -0.281733 0
    outer loop
      vertex 13.5 4 0
      vertex 13.2619 4.81096 3
      vertex 13.2619 4.81096 0
    endloop
  endfacet
  facet normal -0.959493 -0.281733 0
    outer loop
      vertex 13.2619 4.81096 3
      vertex 13.5 4 0
      vertex 13.5 4 3
    endloop
  endfacet
  facet normal 1 -0 0
    outer loop
      vertex 10.5608 3.5774 3
      vertex 10.5608 4.4226 0
      vertex 10.5608 4.4226 3
    endloop
  endfacet
  facet normal 1 0 0
    outer loop
      vertex 10.5608 4.4226 0
      vertex 10.5608 3.5774 3
      vertex 10.5608 3.5774 0
    endloop
  endfacet
  facet normal 0.415415 -0.909632 0
    outer loop
      vertex 11.0177 5.13362 0
      vertex 11.7865 5.48473 3
      vertex 11.0177 5.13362 3
    endloop
  endfacet
  facet normal 0.415415 -0.909632 0
    outer loop
      vertex 11.7865 5.48473 3
      vertex 11.0177 5.13362 0
      vertex 11.7865 5.48473 0
    endloop
  endfacet
  facet normal -0.654861 -0.75575 0
    outer loop
      vertex 12.6231 5.36445 0
      vertex 13.2619 4.81096 3
      vertex 12.6231 5.36445 3
    endloop
  endfacet
  facet normal -0.654861 -0.75575 -0
    outer loop
      vertex 13.2619 4.81096 3
      vertex 12.6231 5.36445 0
      vertex 13.2619 4.81096 0
    endloop
  endfacet
  facet normal 0.841254 -0.54064 0
    outer loop
      vertex 10.5608 4.4226 3
      vertex 11.0177 5.13362 0
      vertex 11.0177 5.13362 3
    endloop
  endfacet
  facet normal 0.841254 -0.54064 0
    outer loop
      vertex 11.0177 5.13362 0
      vertex 10.5608 4.4226 3
      vertex 10.5608 4.4226 0
    endloop
  endfacet
  facet normal -0.959493 0.281733 0
    outer loop
      vertex 13.2619 3.18904 0
      vertex 13.5 4 3
      vertex 13.5 4 0
    endloop
  endfacet
  facet normal -0.959493 0.281733 0
    outer loop
      vertex 13.5 4 3
      vertex 13.2619 3.18904 0
      vertex 13.2619 3.18904 3
    endloop
  endfacet
  facet normal -0.654861 0.75575 0
    outer loop
      vertex 13.2619 3.18904 0
      vertex 12.6231 2.63555 3
      vertex 13.2619 3.18904 3
    endloop
  endfacet
  facet normal -0.654861 0.75575 0
    outer loop
      vertex 12.6231 2.63555 3
      vertex 13.2619 3.18904 0
      vertex 12.6231 2.63555 0
    endloop
  endfacet
  facet normal -0.142315 0.989821 0
    outer loop
      vertex 12.6231 2.63555 0
      vertex 11.7865 2.51527 3
      vertex 12.6231 2.63555 3
    endloop
  endfacet
  facet normal -0.142315 0.989821 0
    outer loop
      vertex 11.7865 2.51527 3
      vertex 12.6231 2.63555 0
      vertex 11.7865 2.51527 0
    endloop
  endfacet
  facet normal 0.841254 0.54064 0
    outer loop
      vertex 11.0177 2.86637 3
      vertex 10.5608 3.5774 0
      vertex 10.5608 3.5774 3
    endloop
  endfacet
  facet normal 0.841254 0.54064 0
    outer loop
      vertex 10.5608 3.5774 0
      vertex 11.0177 2.86637 3
      vertex 11.0177 2.86637 0
    endloop
  endfacet
  facet normal -0.142315 -0.989821 0
    outer loop
      vertex 11.7865 5.48473 0
      vertex 12.6231 5.36445 3
      vertex 11.7865 5.48473 3
    endloop
  endfacet
  facet normal -0.142315 -0.989821 -0
    outer loop
      vertex 12.6231 5.36445 3
      vertex 11.7865 5.48473 0
      vertex 12.6231 5.36445 0
    endloop
  endfacet
  facet normal 0.415415 0.909632 -0
    outer loop
      vertex 11.7865 2.51527 0
      vertex 11.0177 2.86637 3
      vertex 11.7865 2.51527 3
    endloop
  endfacet
  facet normal 0.415415 0.909632 0
    outer loop
      vertex 11.0177 2.86637 3
      vertex 11.7865 2.51527 0
      vertex 11.0177 2.86637 0
    endloop
  endfacet
  facet normal -0.959493 -0.281732 0
    outer loop
      vertex -10.5 4 0
      vertex -10.7381 4.81096 3
      vertex -10.7381 4.81096 0
    endloop
  endfacet
  facet normal -0.959493 -0.281732 0
    outer loop
      vertex -10.7381 4.81096 3
      vertex -10.5 4 0
      vertex -10.5 4 3
    endloop
  endfacet
  facet normal 1 -0 0
    outer loop
      vertex -13.4392 3.5774 3
      vertex -13.4392 4.4226 0
      vertex -13.4392 4.4226 3
    endloop
  endfacet
  facet normal 1 0 0
    outer loop
      vertex -13.4392 4.4226 0
      vertex -13.4392 3.5774 3
      vertex -13.4392 3.5774 0
    endloop
  endfacet
  facet normal 0.415415 -0.909632 0
    outer loop
      vertex -12.9823 5.13362 0
      vertex -12.2135 5.48473 3
      vertex -12.9823 5.13362 3
    endloop
  endfacet
  facet normal 0.415415 -0.909632 0
    outer loop
      vertex -12.2135 5.48473 3
      vertex -12.9823 5.13362 0
      vertex -12.2135 5.48473 0
    endloop
  endfacet
  facet normal -0.654861 -0.75575 0
    outer loop
      vertex -11.3769 5.36445 0
      vertex -10.7381 4.81096 3
      vertex -11.3769 5.36445 3
    endloop
  endfacet
  facet normal -0.654861 -0.75575 -0
    outer loop
      vertex -10.7381 4.81096 3
      vertex -11.3769 5.36445 0
      vertex -10.7381 4.81096 0
    endloop
  endfacet
  facet normal 0.841254 -0.54064 0
    outer loop
      vertex -13.4392 4.4226 3
      vertex -12.9823 5.13362 0
      vertex -12.9823 5.13362 3
    endloop
  endfacet
  facet normal 0.841254 -0.54064 0
    outer loop
      vertex -12.9823 5.13362 0
      vertex -13.4392 4.4226 3
      vertex -13.4392 4.4226 0
    endloop
  endfacet
  facet normal -0.654861 0.75575 0
    outer loop
      vertex -10.7381 3.18904 0
      vertex -11.3769 2.63555 3
      vertex -10.7381 3.18904 3
    endloop
  endfacet
  facet normal -0.654861 0.75575 0
    outer loop
      vertex -11.3769 2.63555 3
      vertex -10.7381 3.18904 0
      vertex -11.3769 2.63555 0
    endloop
  endfacet
  facet normal -0.142315 0.989821 0
    outer loop
      vertex -11.3769 2.63555 0
      vertex -12.2135 2.51527 3
      vertex -11.3769 2.63555 3
    endloop
  endfacet
  facet normal -0.142315 0.989821 0
    outer loop
      vertex -12.2135 2.51527 3
      vertex -11.3769 2.63555 0
      vertex -12.2135 2.51527 0
    endloop
  endfacet
  facet normal 0.841254 0.54064 0
    outer loop
      vertex -12.9823 2.86637 3
      vertex -13.4392 3.5774 0
      vertex -13.4392 3.5774 3
    endloop
  endfacet
  facet normal 0.841254 0.54064 0
    outer loop
      vertex -13.4392 3.5774 0
      vertex -12.9823 2.86637 3
      vertex -12.9823 2.86637 0
    endloop
  endfacet
  facet normal -0.142315 -0.989821 0
    outer loop
      vertex -12.2135 5.48473 0
      vertex -11.3769 5.36445 3
      vertex -12.2135 5.48473 3
    endloop
  endfacet
  facet normal -0.142315 -0.989821 -0
    outer loop
      vertex -11.3769 5.36445 3
      vertex -12.2135 5.48473 0
      vertex -11.3769 5.36445 0
    endloop
  endfacet
  facet normal -0.959493 0.281732 0
    outer loop
      vertex -10.7381 3.18904 0
      vertex -10.5 4 3
      vertex -10.5 4 0
    endloop
  endfacet
  facet normal -0.959493 0.281732 0
    outer loop
      vertex -10.5 4 3
      vertex -10.7381 3.18904 0
      vertex -10.7381 3.18904 3
    endloop
  endfacet
  facet normal 0.415415 0.909632 -0
    outer loop
      vertex -12.2135 2.51527 0
      vertex -12.9823 2.86637 3
      vertex -12.2135 2.51527 3
    endloop
  endfacet
  facet normal 0.415415 0.909632 0
    outer loop
      vertex -12.9823 2.86637 3
      vertex -12.2135 2.51527 0
      vertex -12.9823 2.86637 0
    endloop
  endfacet
  facet normal -0.959493 -0.281733 0
    outer loop
      vertex 1.5 15 0
      vertex 1.26188 15.811 3
      vertex 1.26188 15.811 0
    endloop
  endfacet
  facet normal -0.959493 -0.281733 0
    outer loop
      vertex 1.26188 15.811 3
      vertex 1.5 15 0
      vertex 1.5 15 3
    endloop
  endfacet
  facet normal 1 -0 0
    outer loop
      vertex -1.43924 14.5774 3
      vertex -1.43924 15.4226 0
      vertex -1.43924 15.4226 3
    endloop
  endfacet
  facet normal 1 0 0
    outer loop
      vertex -1.43924 15.4226 0
      vertex -1.43924 14.5774 3
      vertex -1.43924 14.5774 0
    endloop
  endfacet
  facet normal 0.415414 -0.909633 0
    outer loop
      vertex -0.98229 16.1336 0
      vertex -0.213471 16.4847 3
      vertex -0.98229 16.1336 3
    endloop
  endfacet
  facet normal 0.415414 -0.909633 0
    outer loop
      vertex -0.213471 16.4847 3
      vertex -0.98229 16.1336 0
      vertex -0.213471 16.4847 0
    endloop
  endfacet
  facet normal -0.654861 -0.755749 0
    outer loop
      vertex 0.623122 16.3644 0
      vertex 1.26188 15.811 3
      vertex 0.623122 16.3644 3
    endloop
  endfacet
  facet normal -0.654861 -0.755749 -0
    outer loop
      vertex 1.26188 15.811 3
      vertex 0.623122 16.3644 0
      vertex 1.26188 15.811 0
    endloop
  endfacet
  facet normal 0.841254 -0.54064 0
    outer loop
      vertex -1.43924 15.4226 3
      vertex -0.98229 16.1336 0
      vertex -0.98229 16.1336 3
    endloop
  endfacet
  facet normal 0.841254 -0.54064 0
    outer loop
      vertex -0.98229 16.1336 0
      vertex -1.43924 15.4226 3
      vertex -1.43924 15.4226 0
    endloop
  endfacet
  facet normal -0.959493 0.281733 0
    outer loop
      vertex 1.26188 14.189 0
      vertex 1.5 15 3
      vertex 1.5 15 0
    endloop
  endfacet
  facet normal -0.959493 0.281733 0
    outer loop
      vertex 1.5 15 3
      vertex 1.26188 14.189 0
      vertex 1.26188 14.189 3
    endloop
  endfacet
  facet normal -0.142314 -0.989822 0
    outer loop
      vertex -0.213471 16.4847 0
      vertex 0.623122 16.3644 3
      vertex -0.213471 16.4847 3
    endloop
  endfacet
  facet normal -0.142314 -0.989822 -0
    outer loop
      vertex 0.623122 16.3644 3
      vertex -0.213471 16.4847 0
      vertex 0.623122 16.3644 0
    endloop
  endfacet
  facet normal 0.841254 0.54064 0
    outer loop
      vertex -0.98229 13.8664 3
      vertex -1.43924 14.5774 0
      vertex -1.43924 14.5774 3
    endloop
  endfacet
  facet normal 0.841254 0.54064 0
    outer loop
      vertex -1.43924 14.5774 0
      vertex -0.98229 13.8664 3
      vertex -0.98229 13.8664 0
    endloop
  endfacet
  facet normal -0.654861 0.75575 0
    outer loop
      vertex 1.26188 14.189 0
      vertex 0.623122 13.6356 3
      vertex 1.26188 14.189 3
    endloop
  endfacet
  facet normal -0.654861 0.75575 0
    outer loop
      vertex 0.623122 13.6356 3
      vertex 1.26188 14.189 0
      vertex 0.623122 13.6356 0
    endloop
  endfacet
  facet normal -0.142315 0.989821 0
    outer loop
      vertex 0.623122 13.6356 0
      vertex -0.213471 13.5153 3
      vertex 0.623122 13.6356 3
    endloop
  endfacet
  facet normal -0.142315 0.989821 0
    outer loop
      vertex -0.213471 13.5153 3
      vertex 0.623122 13.6356 0
      vertex -0.213471 13.5153 0
    endloop
  endfacet
  facet normal 0.415415 0.909632 -0
    outer loop
      vertex -0.213471 13.5153 0
      vertex -0.98229 13.8664 3
      vertex -0.213471 13.5153 3
    endloop
  endfacet
  facet normal 0.415415 0.909632 0
    outer loop
      vertex -0.98229 13.8664 3
      vertex -0.213471 13.5153 0
      vertex -0.98229 13.8664 0
    endloop
  endfacet
endsolid OpenSCAD_Model
