solid OpenSCAD_Model
  facet normal 0.992115 0.125334 0
    outer loop
      vertex 13.5 4 3
      vertex 13.39 4.87041 0
      vertex 13.39 4.87041 3
    endloop
  endfacet
  facet normal 0.992115 0.125334 0
    outer loop
      vertex 13.39 4.87041 0
      vertex 13.5 4 3
      vertex 13.5 4 0
    endloop
  endfacet
  facet normal -1 0 0
    outer loop
      vertex -13.4724 3.56133 0
      vertex -13.4724 4.43867 3
      vertex -13.4724 4.43867 0
    endloop
  endfacet
  facet normal -1 -0 0
    outer loop
      vertex -13.4724 4.43867 3
      vertex -13.4724 3.56133 0
      vertex -13.4724 3.56133 3
    endloop
  endfacet
  facet normal 0.187384 0.982287 -0
    outer loop
      vertex 1.08156 53.3287 0
      vertex 0.219767 53.4931 16
      vertex 1.08156 53.3287 16
    endloop
  endfacet
  facet normal 0.187384 0.982287 0
    outer loop
      vertex 0.219767 53.4931 16
      vertex 1.08156 53.3287 0
      vertex 0.219767 53.4931 0
    endloop
  endfacet
  facet normal 0.977176 0.21243 0
    outer loop
      vertex 13.39 4.87041 3
      vertex 3.39004 50.8704 0
      vertex 3.39004 50.8704 3
    endloop
  endfacet
  facet normal 0.977176 0.21243 0
    outer loop
      vertex 3.39004 50.8704 0
      vertex 13.39 4.87041 3
      vertex 13.39 4.87041 0
    endloop
  endfacet
  facet normal -0.309017 -0.951057 0
    outer loop
      vertex -11.4902 0.833106 0
      vertex -10.6558 0.561996 3
      vertex -11.4902 0.833106 3
    endloop
  endfacet
  facet normal -0.309017 -0.951057 -0
    outer loop
      vertex -10.6558 0.561996 3
      vertex -11.4902 0.833106 0
      vertex -10.6558 0.561996 0
    endloop
  endfacet
  facet normal -0.876306 0.481754 0
    outer loop
      vertex -3.25422 51.2884 0
      vertex -2.83156 52.0572 16
      vertex -2.83156 52.0572 0
    endloop
  endfacet
  facet normal -0.876306 0.481754 0
    outer loop
      vertex -2.83156 52.0572 16
      vertex -3.25422 51.2884 0
      vertex -3.25422 51.2884 16
    endloop
  endfacet
  facet normal 0 0 1
    outer loop
      vertex -13.4724 4.43867 3
      vertex -3.4724 49.5613 3
      vertex -3.4724 50.4387 3
    endloop
  endfacet
  facet normal 0 0 1
    outer loop
      vertex -3.4724 49.5613 3
      vertex -8.73812 4.81096 3
      vertex -8.5 4 3
    endloop
  endfacet
  facet normal 0 0 1
    outer loop
      vertex -3.4724 49.5613 3
      vertex -9.37688 5.36445 3
      vertex -8.73812 4.81096 3
    endloop
  endfacet
  facet normal 0 0 1
    outer loop
      vertex -3.4724 49.5613 3
      vertex -10.2135 5.48473 3
      vertex -9.37688 5.36445 3
    endloop
  endfacet
  facet normal 0 0 1
    outer loop
      vertex -3.4724 49.5613 3
      vertex -13.4724 4.43867 3
      vertex -10.2135 5.48473 3
    endloop
  endfacet
  facet normal 0 0 1
    outer loop
      vertex -10.2135 5.48473 3
      vertex -13.4724 4.43867 3
      vertex -10.9823 5.13362 3
    endloop
  endfacet
  facet normal 0 0 1
    outer loop
      vertex -13.4724 3.56133 3
      vertex -11.4392 3.5774 3
      vertex -11.4392 4.4226 3
    endloop
  endfacet
  facet normal 0 0 1
    outer loop
      vertex -11.4392 3.5774 3
      vertex -12.231 1.3032 3
      vertex -11.4902 0.833106 3
    endloop
  endfacet
  facet normal 0 0 1
    outer loop
      vertex -10.9823 5.13362 3
      vertex -13.4724 4.43867 3
      vertex -11.4392 4.4226 3
    endloop
  endfacet
  facet normal 0 0 1
    outer loop
      vertex -13.4724 3.56133 3
      vertex -11.4392 4.4226 3
      vertex -13.4724 4.43867 3
    endloop
  endfacet
  facet normal 0 0 1
    outer loop
      vertex -11.4392 3.5774 3
      vertex -12.8316 1.94275 3
      vertex -12.231 1.3032 3
    endloop
  endfacet
  facet normal 0 0 1
    outer loop
      vertex -11.4392 3.5774 3
      vertex -13.2542 2.71157 3
      vertex -12.8316 1.94275 3
    endloop
  endfacet
  facet normal 0 0 1
    outer loop
      vertex -11.4392 3.5774 3
      vertex -13.4724 3.56133 3
      vertex -13.2542 2.71157 3
    endloop
  endfacet
  facet normal 0 0 1
    outer loop
      vertex 11.5 4 3
      vertex 13.5 4 3
      vertex 13.39 4.87041 3
    endloop
  endfacet
  facet normal 0 0 1
    outer loop
      vertex 13.5 4 3
      vertex 11.5 4 3
      vertex 13.39 3.12959 3
    endloop
  endfacet
  facet normal -0 0 1
    outer loop
      vertex 11.2619 3.18904 3
      vertex 13.39 3.12959 3
      vertex 11.5 4 3
    endloop
  endfacet
  facet normal 0 0 1
    outer loop
      vertex 13.39 3.12959 3
      vertex 11.2619 3.18904 3
      vertex 13.0671 2.31386 3
    endloop
  endfacet
  facet normal 0 0 1
    outer loop
      vertex 13.0671 2.31386 3
      vertex 11.2619 3.18904 3
      vertex 12.5514 1.60409 3
    endloop
  endfacet
  facet normal 0 0 1
    outer loop
      vertex 13.39 4.87041 3
      vertex 11.2619 4.81096 3
      vertex 11.5 4 3
    endloop
  endfacet
  facet normal 0 0 1
    outer loop
      vertex 13.39 4.87041 3
      vertex 10.6231 5.36445 3
      vertex 11.2619 4.81096 3
    endloop
  endfacet
  facet normal 0 0 1
    outer loop
      vertex 13.39 4.87041 3
      vertex 1.87539 47.0449 3
      vertex 10.6231 5.36445 3
    endloop
  endfacet
  facet normal -0 0 1
    outer loop
      vertex 1.87539 47.0449 3
      vertex 13.39 4.87041 3
      vertex 2.55139 47.6041 3
    endloop
  endfacet
  facet normal -0 0 1
    outer loop
      vertex 2.55139 47.6041 3
      vertex 13.39 4.87041 3
      vertex 3.06707 48.3139 3
    endloop
  endfacet
  facet normal -0 0 1
    outer loop
      vertex 3.06707 48.3139 3
      vertex 13.39 4.87041 3
      vertex 3.39004 49.1296 3
    endloop
  endfacet
  facet normal -0 0 1
    outer loop
      vertex 3.39004 49.1296 3
      vertex 13.39 4.87041 3
      vertex 3.5 50 3
    endloop
  endfacet
  facet normal -0 -0 1
    outer loop
      vertex 3.5 50 3
      vertex 13.39 4.87041 3
      vertex 3.39004 50.8704 3
    endloop
  endfacet
  facet normal -0 0 1
    outer loop
      vertex 10.6231 2.63555 3
      vertex 12.5514 1.60409 3
      vertex 11.2619 3.18904 3
    endloop
  endfacet
  facet normal 0 0 1
    outer loop
      vertex 12.5514 1.60409 3
      vertex 10.6231 2.63555 3
      vertex 11.8754 1.04485 3
    endloop
  endfacet
  facet normal 0 0 1
    outer loop
      vertex 11.8754 1.04485 3
      vertex 10.6231 2.63555 3
      vertex 11.0816 0.671303 3
    endloop
  endfacet
  facet normal 0 0 1
    outer loop
      vertex 10.6231 2.63555 3
      vertex 10.2198 0.506907 3
      vertex 11.0816 0.671303 3
    endloop
  endfacet
  facet normal -0 0 1
    outer loop
      vertex 9.78653 2.51527 3
      vertex 10.2198 0.506907 3
      vertex 10.6231 2.63555 3
    endloop
  endfacet
  facet normal 0 0 1
    outer loop
      vertex 9.01771 2.86637 3
      vertex 10.2198 0.506907 3
      vertex 9.78653 2.51527 3
    endloop
  endfacet
  facet normal 0 0 1
    outer loop
      vertex -9.78023 0.506907 3
      vertex 9.01771 2.86637 3
      vertex 8.56076 3.5774 3
    endloop
  endfacet
  facet normal 0 0 1
    outer loop
      vertex 10.6231 5.36445 3
      vertex 1.87539 47.0449 3
      vertex 9.78653 5.48473 3
    endloop
  endfacet
  facet normal -0 0 1
    outer loop
      vertex 1.08156 46.6713 3
      vertex 9.78653 5.48473 3
      vertex 1.87539 47.0449 3
    endloop
  endfacet
  facet normal -0 0 1
    outer loop
      vertex 0.219767 46.5069 3
      vertex 9.78653 5.48473 3
      vertex 1.08156 46.6713 3
    endloop
  endfacet
  facet normal 0 0 1
    outer loop
      vertex 9.78653 5.48473 3
      vertex 0.219767 46.5069 3
      vertex 9.01771 5.13362 3
    endloop
  endfacet
  facet normal 0 0 1
    outer loop
      vertex -8.5 4 3
      vertex 9.01771 5.13362 3
      vertex 0.219767 46.5069 3
    endloop
  endfacet
  facet normal 0 0 1
    outer loop
      vertex 9.01771 5.13362 3
      vertex -8.5 4 3
      vertex 8.56076 4.4226 3
    endloop
  endfacet
  facet normal 0 0 1
    outer loop
      vertex -8.5 4 3
      vertex 0.219767 46.5069 3
      vertex -0.655834 46.562 3
    endloop
  endfacet
  facet normal 0 0 1
    outer loop
      vertex -8.5 4 3
      vertex -0.655834 46.562 3
      vertex -1.49023 46.8331 3
    endloop
  endfacet
  facet normal 0 0 1
    outer loop
      vertex -8.5 4 3
      vertex -1.49023 46.8331 3
      vertex -2.23098 47.3032 3
    endloop
  endfacet
  facet normal 0 0 1
    outer loop
      vertex -8.5 4 3
      vertex -2.23098 47.3032 3
      vertex -2.83156 47.9428 3
    endloop
  endfacet
  facet normal 0 0 1
    outer loop
      vertex -8.5 4 3
      vertex -2.83156 47.9428 3
      vertex -3.25422 48.7116 3
    endloop
  endfacet
  facet normal 0 0 1
    outer loop
      vertex -8.5 4 3
      vertex -3.25422 48.7116 3
      vertex -3.4724 49.5613 3
    endloop
  endfacet
  facet normal 0 0 1
    outer loop
      vertex 8.56076 4.4226 3
      vertex -8.5 4 3
      vertex 8.56076 3.5774 3
    endloop
  endfacet
  facet normal 0 0 1
    outer loop
      vertex -8.73812 3.18904 3
      vertex 8.56076 3.5774 3
      vertex -8.5 4 3
    endloop
  endfacet
  facet normal 0 0 1
    outer loop
      vertex -9.78023 0.506907 3
      vertex 8.56076 3.5774 3
      vertex -8.73812 3.18904 3
    endloop
  endfacet
  facet normal 0 0 1
    outer loop
      vertex -9.78023 0.506907 3
      vertex -8.73812 3.18904 3
      vertex -9.37688 2.63555 3
    endloop
  endfacet
  facet normal 0 0 1
    outer loop
      vertex 9.01771 2.86637 3
      vertex -9.78023 0.506907 3
      vertex 10.2198 0.506907 3
    endloop
  endfacet
  facet normal -0 0 1
    outer loop
      vertex -10.2135 2.51527 3
      vertex -9.78023 0.506907 3
      vertex -9.37688 2.63555 3
    endloop
  endfacet
  facet normal 0 0 1
    outer loop
      vertex -10.2135 2.51527 3
      vertex -10.6558 0.561996 3
      vertex -9.78023 0.506907 3
    endloop
  endfacet
  facet normal 0 0 1
    outer loop
      vertex -11.4902 0.833106 3
      vertex -10.2135 2.51527 3
      vertex -10.9823 2.86637 3
    endloop
  endfacet
  facet normal 0 0 1
    outer loop
      vertex -11.4902 0.833106 3
      vertex -10.9823 2.86637 3
      vertex -11.4392 3.5774 3
    endloop
  endfacet
  facet normal 0 0 1
    outer loop
      vertex -10.2135 2.51527 3
      vertex -11.4902 0.833106 3
      vertex -10.6558 0.561996 3
    endloop
  endfacet
  facet normal -0.535825 0.844329 0
    outer loop
      vertex -1.49023 53.1669 0
      vertex -2.23098 52.6968 16
      vertex -1.49023 53.1669 16
    endloop
  endfacet
  facet normal -0.535825 0.844329 0
    outer loop
      vertex -2.23098 52.6968 16
      vertex -1.49023 53.1669 0
      vertex -2.23098 52.6968 0
    endloop
  endfacet
  facet normal 0.929777 -0.368124 0
    outer loop
      vertex 13.0671 2.31386 3
      vertex 13.39 3.12959 0
      vertex 13.39 3.12959 3
    endloop
  endfacet
  facet normal 0.929777 -0.368124 0
    outer loop
      vertex 13.39 3.12959 0
      vertex 13.0671 2.31386 3
      vertex 13.0671 2.31386 0
    endloop
  endfacet
  facet normal -0.0627915 -0.998027 0
    outer loop
      vertex -10.6558 0.561996 0
      vertex -9.78023 0.506907 3
      vertex -10.6558 0.561996 3
    endloop
  endfacet
  facet normal -0.0627915 -0.998027 -0
    outer loop
      vertex -9.78023 0.506907 3
      vertex -10.6558 0.561996 0
      vertex -9.78023 0.506907 0
    endloop
  endfacet
  facet normal 0 0 -1
    outer loop
      vertex 13.39 3.12959 0
      vertex 11.2619 3.18904 0
      vertex 11.5 4 0
    endloop
  endfacet
  facet normal 0 0 -1
    outer loop
      vertex 10.6231 2.63555 0
      vertex 11.8754 1.04485 0
      vertex 11.0816 0.671303 0
    endloop
  endfacet
  facet normal 0 0 -1
    outer loop
      vertex 12.5514 1.60409 0
      vertex 10.6231 2.63555 0
      vertex 11.2619 3.18904 0
    endloop
  endfacet
  facet normal 0 0 -1
    outer loop
      vertex 10.2198 0.506907 0
      vertex 10.6231 2.63555 0
      vertex 11.0816 0.671303 0
    endloop
  endfacet
  facet normal 0 0 -1
    outer loop
      vertex 10.2198 0.506907 0
      vertex 9.78653 2.51527 0
      vertex 10.6231 2.63555 0
    endloop
  endfacet
  facet normal 0 0 -1
    outer loop
      vertex 10.2198 0.506907 0
      vertex 9.01771 2.86637 0
      vertex 9.78653 2.51527 0
    endloop
  endfacet
  facet normal 0 0 -1
    outer loop
      vertex -9.78023 0.506907 0
      vertex 9.01771 2.86637 0
      vertex 10.2198 0.506907 0
    endloop
  endfacet
  facet normal 0 0 -1
    outer loop
      vertex -8.5 4 0
      vertex 8.56076 4.4226 0
      vertex 8.56076 3.5774 0
    endloop
  endfacet
  facet normal 0 0 -1
    outer loop
      vertex 8.56076 4.4226 0
      vertex 1.26188 49.189 0
      vertex 3.39004 50.8704 0
    endloop
  endfacet
  facet normal 0 -0 -1
    outer loop
      vertex 1.5 50 0
      vertex 3.39004 50.8704 0
      vertex 1.26188 49.189 0
    endloop
  endfacet
  facet normal 0 0 -1
    outer loop
      vertex 1.26188 50.811 0
      vertex 3.39004 50.8704 0
      vertex 1.5 50 0
    endloop
  endfacet
  facet normal -0 0 -1
    outer loop
      vertex 3.06707 51.6861 0
      vertex 1.26188 50.811 0
      vertex 2.55139 52.3959 0
    endloop
  endfacet
  facet normal -0 0 -1
    outer loop
      vertex 3.39004 50.8704 0
      vertex 1.26188 50.811 0
      vertex 3.06707 51.6861 0
    endloop
  endfacet
  facet normal 0 0 -1
    outer loop
      vertex 8.56076 4.4226 0
      vertex 0.623122 48.6356 0
      vertex 1.26188 49.189 0
    endloop
  endfacet
  facet normal 0 0 -1
    outer loop
      vertex 8.56076 4.4226 0
      vertex -0.213471 48.5153 0
      vertex 0.623122 48.6356 0
    endloop
  endfacet
  facet normal 0 0 -1
    outer loop
      vertex 8.56076 4.4226 0
      vertex -9.37688 5.36445 0
      vertex -0.213471 48.5153 0
    endloop
  endfacet
  facet normal 0 0 -1
    outer loop
      vertex -10.2135 5.48473 0
      vertex -0.213471 48.5153 0
      vertex -9.37688 5.36445 0
    endloop
  endfacet
  facet normal 0 0 -1
    outer loop
      vertex -3.4724 50.4387 0
      vertex -1.43924 50.4226 0
      vertex -1.43924 49.5774 0
    endloop
  endfacet
  facet normal 0 0 -1
    outer loop
      vertex -1.43924 50.4226 0
      vertex -2.23098 52.6968 0
      vertex -1.49023 53.1669 0
    endloop
  endfacet
  facet normal -0 0 -1
    outer loop
      vertex -0.213471 48.5153 0
      vertex -10.2135 5.48473 0
      vertex -0.98229 48.8664 0
    endloop
  endfacet
  facet normal 0 0 -1
    outer loop
      vertex -1.43924 50.4226 0
      vertex -3.4724 50.4387 0
      vertex -3.25422 51.2884 0
    endloop
  endfacet
  facet normal 0 0 -1
    outer loop
      vertex -1.43924 50.4226 0
      vertex -2.83156 52.0572 0
      vertex -2.23098 52.6968 0
    endloop
  endfacet
  facet normal 0 0 -1
    outer loop
      vertex -1.43924 50.4226 0
      vertex -3.25422 51.2884 0
      vertex -2.83156 52.0572 0
    endloop
  endfacet
  facet normal -0 0 -1
    outer loop
      vertex 8.56076 4.4226 0
      vertex -8.5 4 0
      vertex -8.73812 4.81096 0
    endloop
  endfacet
  facet normal -0 0 -1
    outer loop
      vertex 9.01771 2.86637 0
      vertex -9.78023 0.506907 0
      vertex 8.56076 3.5774 0
    endloop
  endfacet
  facet normal -0 0 -1
    outer loop
      vertex 8.56076 3.5774 0
      vertex -8.73812 3.18904 0
      vertex -8.5 4 0
    endloop
  endfacet
  facet normal 0 0 -1
    outer loop
      vertex 8.56076 3.5774 0
      vertex -9.78023 0.506907 0
      vertex -8.73812 3.18904 0
    endloop
  endfacet
  facet normal 0 0 -1
    outer loop
      vertex -8.73812 3.18904 0
      vertex -9.78023 0.506907 0
      vertex -9.37688 2.63555 0
    endloop
  endfacet
  facet normal 0 0 -1
    outer loop
      vertex -9.78023 0.506907 0
      vertex -10.2135 2.51527 0
      vertex -9.37688 2.63555 0
    endloop
  endfacet
  facet normal 0 0 -1
    outer loop
      vertex -10.6558 0.561996 0
      vertex -10.2135 2.51527 0
      vertex -9.78023 0.506907 0
    endloop
  endfacet
  facet normal 0 0 -1
    outer loop
      vertex -11.4902 0.833106 0
      vertex -10.2135 2.51527 0
      vertex -10.6558 0.561996 0
    endloop
  endfacet
  facet normal -0 0 -1
    outer loop
      vertex -10.2135 2.51527 0
      vertex -11.4902 0.833106 0
      vertex -10.9823 2.86637 0
    endloop
  endfacet
  facet normal 0 0 -1
    outer loop
      vertex -12.8316 1.94275 0
      vertex -10.9823 2.86637 0
      vertex -12.231 1.3032 0
    endloop
  endfacet
  facet normal 0 0 -1
    outer loop
      vertex -12.231 1.3032 0
      vertex -10.9823 2.86637 0
      vertex -11.4902 0.833106 0
    endloop
  endfacet
  facet normal 0 0 -1
    outer loop
      vertex 11.5 4 0
      vertex 13.5 4 0
      vertex 13.39 3.12959 0
    endloop
  endfacet
  facet normal 0 0 -1
    outer loop
      vertex 11.2619 3.18904 0
      vertex 13.39 3.12959 0
      vertex 13.0671 2.31386 0
    endloop
  endfacet
  facet normal 0 0 -1
    outer loop
      vertex 11.2619 3.18904 0
      vertex 13.0671 2.31386 0
      vertex 12.5514 1.60409 0
    endloop
  endfacet
  facet normal 0 0 -1
    outer loop
      vertex 10.6231 2.63555 0
      vertex 12.5514 1.60409 0
      vertex 11.8754 1.04485 0
    endloop
  endfacet
  facet normal 0 0 -1
    outer loop
      vertex 13.5 4 0
      vertex 11.5 4 0
      vertex 13.39 4.87041 0
    endloop
  endfacet
  facet normal 0 0 -1
    outer loop
      vertex 11.2619 4.81096 0
      vertex 13.39 4.87041 0
      vertex 11.5 4 0
    endloop
  endfacet
  facet normal 0 0 -1
    outer loop
      vertex 10.6231 5.36445 0
      vertex 13.39 4.87041 0
      vertex 11.2619 4.81096 0
    endloop
  endfacet
  facet normal 0 0 -1
    outer loop
      vertex 10.6231 5.36445 0
      vertex 3.39004 50.8704 0
      vertex 13.39 4.87041 0
    endloop
  endfacet
  facet normal 0 0 -1
    outer loop
      vertex 9.78653 5.48473 0
      vertex 3.39004 50.8704 0
      vertex 10.6231 5.36445 0
    endloop
  endfacet
  facet normal 0 0 -1
    outer loop
      vertex 9.01771 5.13362 0
      vertex 3.39004 50.8704 0
      vertex 9.78653 5.48473 0
    endloop
  endfacet
  facet normal 0 0 -1
    outer loop
      vertex 3.39004 50.8704 0
      vertex 9.01771 5.13362 0
      vertex 8.56076 4.4226 0
    endloop
  endfacet
  facet normal 0 0 -1
    outer loop
      vertex 0.623122 51.3644 0
      vertex 2.55139 52.3959 0
      vertex 1.26188 50.811 0
    endloop
  endfacet
  facet normal -0 0 -1
    outer loop
      vertex 2.55139 52.3959 0
      vertex 0.623122 51.3644 0
      vertex 1.87539 52.9551 0
    endloop
  endfacet
  facet normal -0 0 -1
    outer loop
      vertex 1.87539 52.9551 0
      vertex 0.623122 51.3644 0
      vertex 1.08156 53.3287 0
    endloop
  endfacet
  facet normal 0 0 -1
    outer loop
      vertex 0.623122 51.3644 0
      vertex 0.219767 53.4931 0
      vertex 1.08156 53.3287 0
    endloop
  endfacet
  facet normal 0 0 -1
    outer loop
      vertex -0.213471 51.4847 0
      vertex 0.219767 53.4931 0
      vertex 0.623122 51.3644 0
    endloop
  endfacet
  facet normal 0 0 -1
    outer loop
      vertex -0.213471 51.4847 0
      vertex -0.655834 53.438 0
      vertex 0.219767 53.4931 0
    endloop
  endfacet
  facet normal 0 0 -1
    outer loop
      vertex -1.49023 53.1669 0
      vertex -0.213471 51.4847 0
      vertex -0.98229 51.1336 0
    endloop
  endfacet
  facet normal 0 0 -1
    outer loop
      vertex -1.49023 53.1669 0
      vertex -0.98229 51.1336 0
      vertex -1.43924 50.4226 0
    endloop
  endfacet
  facet normal 0 0 -1
    outer loop
      vertex -0.213471 51.4847 0
      vertex -1.49023 53.1669 0
      vertex -0.655834 53.438 0
    endloop
  endfacet
  facet normal 0 0 -1
    outer loop
      vertex 8.56076 4.4226 0
      vertex -8.73812 4.81096 0
      vertex -9.37688 5.36445 0
    endloop
  endfacet
  facet normal 0 -0 -1
    outer loop
      vertex -3.4724 50.4387 0
      vertex -0.98229 48.8664 0
      vertex -10.2135 5.48473 0
    endloop
  endfacet
  facet normal 0 0 -1
    outer loop
      vertex -0.98229 48.8664 0
      vertex -3.4724 50.4387 0
      vertex -1.43924 49.5774 0
    endloop
  endfacet
  facet normal 0 0 -1
    outer loop
      vertex -13.4724 4.43867 0
      vertex -10.2135 5.48473 0
      vertex -10.9823 5.13362 0
    endloop
  endfacet
  facet normal 0 0 -1
    outer loop
      vertex -13.4724 4.43867 0
      vertex -10.9823 5.13362 0
      vertex -11.4392 4.4226 0
    endloop
  endfacet
  facet normal -0 0 -1
    outer loop
      vertex -10.9823 2.86637 0
      vertex -12.8316 1.94275 0
      vertex -11.4392 3.5774 0
    endloop
  endfacet
  facet normal 0 0 -1
    outer loop
      vertex -13.2542 2.71157 0
      vertex -11.4392 3.5774 0
      vertex -12.8316 1.94275 0
    endloop
  endfacet
  facet normal 0 0 -1
    outer loop
      vertex -13.4724 3.56133 0
      vertex -11.4392 3.5774 0
      vertex -13.2542 2.71157 0
    endloop
  endfacet
  facet normal -0 0 -1
    outer loop
      vertex -11.4392 3.5774 0
      vertex -13.4724 3.56133 0
      vertex -11.4392 4.4226 0
    endloop
  endfacet
  facet normal -0 0 -1
    outer loop
      vertex -11.4392 4.4226 0
      vertex -13.4724 3.56133 0
      vertex -13.4724 4.43867 0
    endloop
  endfacet
  facet normal -0 0 -1
    outer loop
      vertex -10.2135 5.48473 0
      vertex -13.4724 4.43867 0
      vertex -3.4724 50.4387 0
    endloop
  endfacet
  facet normal 0.809016 0.587787 0
    outer loop
      vertex 3.06707 51.6861 16
      vertex 2.55139 52.3959 0
      vertex 2.55139 52.3959 16
    endloop
  endfacet
  facet normal 0.809016 0.587787 0
    outer loop
      vertex 2.55139 52.3959 0
      vertex 3.06707 51.6861 16
      vertex 3.06707 51.6861 0
    endloop
  endfacet
  facet normal 0.929777 0.368124 -0
    outer loop
      vertex 3.39004 50.8704 3
      vertex 3.06707 51.6861 16
      vertex 3.39004 50.8704 16
    endloop
  endfacet
  facet normal 0.929777 0.368124 0
    outer loop
      vertex 3.06707 51.6861 16
      vertex 3.39004 50.8704 3
      vertex 3.06707 51.6861 0
    endloop
  endfacet
  facet normal 0.929777 0.368124 0
    outer loop
      vertex 3.06707 51.6861 0
      vertex 3.39004 50.8704 3
      vertex 3.39004 50.8704 0
    endloop
  endfacet
  facet normal -0.968583 0.24869 0
    outer loop
      vertex -3.4724 50.4387 3
      vertex -3.25422 51.2884 0
      vertex -3.4724 50.4387 0
    endloop
  endfacet
  facet normal -0.968583 0.24869 0
    outer loop
      vertex -3.25422 51.2884 0
      vertex -3.4724 50.4387 3
      vertex -3.25422 51.2884 16
    endloop
  endfacet
  facet normal -0.968583 0.24869 0
    outer loop
      vertex -3.25422 51.2884 16
      vertex -3.4724 50.4387 3
      vertex -3.4724 50.4387 16
    endloop
  endfacet
  facet normal -0.977176 0.21243 0
    outer loop
      vertex -13.4724 4.43867 0
      vertex -3.4724 50.4387 3
      vertex -3.4724 50.4387 0
    endloop
  endfacet
  facet normal -0.977176 0.21243 0
    outer loop
      vertex -3.4724 50.4387 3
      vertex -13.4724 4.43867 0
      vertex -13.4724 4.43867 3
    endloop
  endfacet
  facet normal -0.728969 0.684546 0
    outer loop
      vertex -2.83156 52.0572 0
      vertex -2.23098 52.6968 16
      vertex -2.23098 52.6968 0
    endloop
  endfacet
  facet normal -0.728969 0.684546 0
    outer loop
      vertex -2.23098 52.6968 16
      vertex -2.83156 52.0572 0
      vertex -2.83156 52.0572 16
    endloop
  endfacet
  facet normal -0.309017 0.951057 0
    outer loop
      vertex -0.655834 53.438 0
      vertex -1.49023 53.1669 16
      vertex -0.655834 53.438 16
    endloop
  endfacet
  facet normal -0.309017 0.951057 0
    outer loop
      vertex -1.49023 53.1669 16
      vertex -0.655834 53.438 0
      vertex -1.49023 53.1669 0
    endloop
  endfacet
  facet normal 0.187382 -0.982287 0
    outer loop
      vertex 10.2198 0.506907 0
      vertex 11.0816 0.671303 3
      vertex 10.2198 0.506907 3
    endloop
  endfacet
  facet normal 0.187382 -0.982287 0
    outer loop
      vertex 11.0816 0.671303 3
      vertex 10.2198 0.506907 0
      vertex 11.0816 0.671303 0
    endloop
  endfacet
  facet normal 0.637424 -0.770514 0
    outer loop
      vertex 11.8754 1.04485 0
      vertex 12.5514 1.60409 3
      vertex 11.8754 1.04485 3
    endloop
  endfacet
  facet normal 0.637424 -0.770514 0
    outer loop
      vertex 12.5514 1.60409 3
      vertex 11.8754 1.04485 0
      vertex 12.5514 1.60409 0
    endloop
  endfacet
  facet normal 0 -1 0
    outer loop
      vertex -9.78023 0.506907 0
      vertex 10.2198 0.506907 3
      vertex -9.78023 0.506907 3
    endloop
  endfacet
  facet normal 0 -1 -0
    outer loop
      vertex 10.2198 0.506907 3
      vertex -9.78023 0.506907 0
      vertex 10.2198 0.506907 0
    endloop
  endfacet
  facet normal -0.968583 -0.24869 0
    outer loop
      vertex -13.2542 2.71157 0
      vertex -13.4724 3.56133 3
      vertex -13.4724 3.56133 0
    endloop
  endfacet
  facet normal -0.968583 -0.24869 0
    outer loop
      vertex -13.4724 3.56133 3
      vertex -13.2542 2.71157 0
      vertex -13.2542 2.71157 3
    endloop
  endfacet
  facet normal 0.637425 0.770512 -0
    outer loop
      vertex 2.55139 52.3959 0
      vertex 1.87539 52.9551 16
      vertex 2.55139 52.3959 16
    endloop
  endfacet
  facet normal 0.637425 0.770512 0
    outer loop
      vertex 1.87539 52.9551 16
      vertex 2.55139 52.3959 0
      vertex 1.87539 52.9551 0
    endloop
  endfacet
  facet normal 0.42578 0.904827 -0
    outer loop
      vertex 1.87539 52.9551 0
      vertex 1.08156 53.3287 16
      vertex 1.87539 52.9551 16
    endloop
  endfacet
  facet normal 0.42578 0.904827 0
    outer loop
      vertex 1.08156 53.3287 16
      vertex 1.87539 52.9551 0
      vertex 1.08156 53.3287 0
    endloop
  endfacet
  facet normal -0.0627947 0.998026 0
    outer loop
      vertex 0.219767 53.4931 0
      vertex -0.655834 53.438 16
      vertex 0.219767 53.4931 16
    endloop
  endfacet
  facet normal -0.0627947 0.998026 0
    outer loop
      vertex -0.655834 53.438 16
      vertex 0.219767 53.4931 0
      vertex -0.655834 53.438 0
    endloop
  endfacet
  facet normal 0.992115 -0.125334 0
    outer loop
      vertex 13.39 3.12959 3
      vertex 13.5 4 0
      vertex 13.5 4 3
    endloop
  endfacet
  facet normal 0.992115 -0.125334 0
    outer loop
      vertex 13.5 4 0
      vertex 13.39 3.12959 3
      vertex 13.39 3.12959 0
    endloop
  endfacet
  facet normal 0.42578 -0.904827 0
    outer loop
      vertex 11.0816 0.671303 0
      vertex 11.8754 1.04485 3
      vertex 11.0816 0.671303 3
    endloop
  endfacet
  facet normal 0.42578 -0.904827 0
    outer loop
      vertex 11.8754 1.04485 3
      vertex 11.0816 0.671303 0
      vertex 11.8754 1.04485 0
    endloop
  endfacet
  facet normal 0.809017 -0.587785 0
    outer loop
      vertex 12.5514 1.60409 3
      vertex 13.0671 2.31386 0
      vertex 13.0671 2.31386 3
    endloop
  endfacet
  facet normal 0.809017 -0.587785 0
    outer loop
      vertex 13.0671 2.31386 0
      vertex 12.5514 1.60409 3
      vertex 12.5514 1.60409 0
    endloop
  endfacet
  facet normal -0.728968 -0.684547 0
    outer loop
      vertex -12.231 1.3032 0
      vertex -12.8316 1.94275 3
      vertex -12.8316 1.94275 0
    endloop
  endfacet
  facet normal -0.728968 -0.684547 0
    outer loop
      vertex -12.8316 1.94275 3
      vertex -12.231 1.3032 0
      vertex -12.231 1.3032 3
    endloop
  endfacet
  facet normal -0.876307 -0.481753 0
    outer loop
      vertex -12.8316 1.94275 0
      vertex -13.2542 2.71157 3
      vertex -13.2542 2.71157 0
    endloop
  endfacet
  facet normal -0.876307 -0.481753 0
    outer loop
      vertex -13.2542 2.71157 3
      vertex -12.8316 1.94275 0
      vertex -12.8316 1.94275 3
    endloop
  endfacet
  facet normal -0.535827 -0.844328 0
    outer loop
      vertex -12.231 1.3032 0
      vertex -11.4902 0.833106 3
      vertex -12.231 1.3032 3
    endloop
  endfacet
  facet normal -0.535827 -0.844328 -0
    outer loop
      vertex -11.4902 0.833106 3
      vertex -12.231 1.3032 0
      vertex -11.4902 0.833106 0
    endloop
  endfacet
  facet normal -0.959493 -0.281733 0
    outer loop
      vertex 11.5 4 0
      vertex 11.2619 4.81096 3
      vertex 11.2619 4.81096 0
    endloop
  endfacet
  facet normal -0.959493 -0.281733 0
    outer loop
      vertex 11.2619 4.81096 3
      vertex 11.5 4 0
      vertex 11.5 4 3
    endloop
  endfacet
  facet normal 1 -0 0
    outer loop
      vertex 8.56076 3.5774 3
      vertex 8.56076 4.4226 0
      vertex 8.56076 4.4226 3
    endloop
  endfacet
  facet normal 1 0 0
    outer loop
      vertex 8.56076 4.4226 0
      vertex 8.56076 3.5774 3
      vertex 8.56076 3.5774 0
    endloop
  endfacet
  facet normal 0.415415 -0.909632 0
    outer loop
      vertex 9.01771 5.13362 0
      vertex 9.78653 5.48473 3
      vertex 9.01771 5.13362 3
    endloop
  endfacet
  facet normal 0.415415 -0.909632 0
    outer loop
      vertex 9.78653 5.48473 3
      vertex 9.01771 5.13362 0
      vertex 9.78653 5.48473 0
    endloop
  endfacet
  facet normal -0.654861 -0.75575 0
    outer loop
      vertex 10.6231 5.36445 0
      vertex 11.2619 4.81096 3
      vertex 10.6231 5.36445 3
    endloop
  endfacet
  facet normal -0.654861 -0.75575 -0
    outer loop
      vertex 11.2619 4.81096 3
      vertex 10.6231 5.36445 0
      vertex 11.2619 4.81096 0
    endloop
  endfacet
  facet normal 0.841254 -0.54064 0
    outer loop
      vertex 8.56076 4.4226 3
      vertex 9.01771 5.13362 0
      vertex 9.01771 5.13362 3
    endloop
  endfacet
  facet normal 0.841254 -0.54064 0
    outer loop
      vertex 9.01771 5.13362 0
      vertex 8.56076 4.4226 3
      vertex 8.56076 4.4226 0
    endloop
  endfacet
  facet normal -0.654861 0.75575 0
    outer loop
      vertex 11.2619 3.18904 0
      vertex 10.6231 2.63555 3
      vertex 11.2619 3.18904 3
    endloop
  endfacet
  facet normal -0.654861 0.75575 0
    outer loop
      vertex 10.6231 2.63555 3
      vertex 11.2619 3.18904 0
      vertex 10.6231 2.63555 0
    endloop
  endfacet
  facet normal 0.841254 0.54064 0
    outer loop
      vertex 9.01771 2.86637 3
      vertex 8.56076 3.5774 0
      vertex 8.56076 3.5774 3
    endloop
  endfacet
  facet normal 0.841254 0.54064 0
    outer loop
      vertex 8.56076 3.5774 0
      vertex 9.01771 2.86637 3
      vertex 9.01771 2.86637 0
    endloop
  endfacet
  facet normal -0.142315 -0.989821 0
    outer loop
      vertex 9.78653 5.48473 0
      vertex 10.6231 5.36445 3
      vertex 9.78653 5.48473 3
    endloop
  endfacet
  facet normal -0.142315 -0.989821 -0
    outer loop
      vertex 10.6231 5.36445 3
      vertex 9.78653 5.48473 0
      vertex 10.6231 5.36445 0
    endloop
  endfacet
  facet normal -0.959493 0.281733 0
    outer loop
      vertex 11.2619 3.18904 0
      vertex 11.5 4 3
      vertex 11.5 4 0
    endloop
  endfacet
  facet normal -0.959493 0.281733 0
    outer loop
      vertex 11.5 4 3
      vertex 11.2619 3.18904 0
      vertex 11.2619 3.18904 3
    endloop
  endfacet
  facet normal 0.415415 0.909632 -0
    outer loop
      vertex 9.78653 2.51527 0
      vertex 9.01771 2.86637 3
      vertex 9.78653 2.51527 3
    endloop
  endfacet
  facet normal 0.415415 0.909632 0
    outer loop
      vertex 9.01771 2.86637 3
      vertex 9.78653 2.51527 0
      vertex 9.01771 2.86637 0
    endloop
  endfacet
  facet normal -0.142315 0.989821 0
    outer loop
      vertex 10.6231 2.63555 0
      vertex 9.78653 2.51527 3
      vertex 10.6231 2.63555 3
    endloop
  endfacet
  facet normal -0.142315 0.989821 0
    outer loop
      vertex 9.78653 2.51527 3
      vertex 10.6231 2.63555 0
      vertex 9.78653 2.51527 0
    endloop
  endfacet
  facet normal -0.959493 -0.281732 0
    outer loop
      vertex -8.5 4 0
      vertex -8.73812 4.81096 3
      vertex -8.73812 4.81096 0
    endloop
  endfacet
  facet normal -0.959493 -0.281732 0
    outer loop
      vertex -8.73812 4.81096 3
      vertex -8.5 4 0
      vertex -8.5 4 3
    endloop
  endfacet
  facet normal 1 -0 0
    outer loop
      vertex -11.4392 3.5774 3
      vertex -11.4392 4.4226 0
      vertex -11.4392 4.4226 3
    endloop
  endfacet
  facet normal 1 0 0
    outer loop
      vertex -11.4392 4.4226 0
      vertex -11.4392 3.5774 3
      vertex -11.4392 3.5774 0
    endloop
  endfacet
  facet normal 0.415415 -0.909632 0
    outer loop
      vertex -10.9823 5.13362 0
      vertex -10.2135 5.48473 3
      vertex -10.9823 5.13362 3
    endloop
  endfacet
  facet normal 0.415415 -0.909632 0
    outer loop
      vertex -10.2135 5.48473 3
      vertex -10.9823 5.13362 0
      vertex -10.2135 5.48473 0
    endloop
  endfacet
  facet normal -0.654861 -0.75575 0
    outer loop
      vertex -9.37688 5.36445 0
      vertex -8.73812 4.81096 3
      vertex -9.37688 5.36445 3
    endloop
  endfacet
  facet normal -0.654861 -0.75575 -0
    outer loop
      vertex -8.73812 4.81096 3
      vertex -9.37688 5.36445 0
      vertex -8.73812 4.81096 0
    endloop
  endfacet
  facet normal 0.841254 -0.54064 0
    outer loop
      vertex -11.4392 4.4226 3
      vertex -10.9823 5.13362 0
      vertex -10.9823 5.13362 3
    endloop
  endfacet
  facet normal 0.841254 -0.54064 0
    outer loop
      vertex -10.9823 5.13362 0
      vertex -11.4392 4.4226 3
      vertex -11.4392 4.4226 0
    endloop
  endfacet
  facet normal -0.142315 0.989821 0
    outer loop
      vertex -9.37688 2.63555 0
      vertex -10.2135 2.51527 3
      vertex -9.37688 2.63555 3
    endloop
  endfacet
  facet normal -0.142315 0.989821 0
    outer loop
      vertex -10.2135 2.51527 3
      vertex -9.37688 2.63555 0
      vertex -10.2135 2.51527 0
    endloop
  endfacet
  facet normal -0.654861 0.75575 0
    outer loop
      vertex -8.73812 3.18904 0
      vertex -9.37688 2.63555 3
      vertex -8.73812 3.18904 3
    endloop
  endfacet
  facet normal -0.654861 0.75575 0
    outer loop
      vertex -9.37688 2.63555 3
      vertex -8.73812 3.18904 0
      vertex -9.37688 2.63555 0
    endloop
  endfacet
  facet normal 0.841254 0.54064 0
    outer loop
      vertex -10.9823 2.86637 3
      vertex -11.4392 3.5774 0
      vertex -11.4392 3.5774 3
    endloop
  endfacet
  facet normal 0.841254 0.54064 0
    outer loop
      vertex -11.4392 3.5774 0
      vertex -10.9823 2.86637 3
      vertex -10.9823 2.86637 0
    endloop
  endfacet
  facet normal -0.142315 -0.989821 0
    outer loop
      vertex -10.2135 5.48473 0
      vertex -9.37688 5.36445 3
      vertex -10.2135 5.48473 3
    endloop
  endfacet
  facet normal -0.142315 -0.989821 -0
    outer loop
      vertex -9.37688 5.36445 3
      vertex -10.2135 5.48473 0
      vertex -9.37688 5.36445 0
    endloop
  endfacet
  facet normal -0.959493 0.281732 0
    outer loop
      vertex -8.73812 3.18904 0
      vertex -8.5 4 3
      vertex -8.5 4 0
    endloop
  endfacet
  facet normal -0.959493 0.281732 0
    outer loop
      vertex -8.5 4 3
      vertex -8.73812 3.18904 0
      vertex -8.73812 3.18904 3
    endloop
  endfacet
  facet normal 0.415415 0.909632 -0
    outer loop
      vertex -10.2135 2.51527 0
      vertex -10.9823 2.86637 3
      vertex -10.2135 2.51527 3
    endloop
  endfacet
  facet normal 0.415415 0.909632 0
    outer loop
      vertex -10.9823 2.86637 3
      vertex -10.2135 2.51527 0
      vertex -10.9823 2.86637 0
    endloop
  endfacet
  facet normal -0.959493 -0.281734 0
    outer loop
      vertex 1.5 50 0
      vertex 1.26188 50.811 16
      vertex 1.26188 50.811 0
    endloop
  endfacet
  facet normal -0.959493 -0.281734 0
    outer loop
      vertex 1.26188 50.811 16
      vertex 1.5 50 0
      vertex 1.5 50 16
    endloop
  endfacet
  facet normal 1 -0 0
    outer loop
      vertex -1.43924 49.5774 16
      vertex -1.43924 50.4226 0
      vertex -1.43924 50.4226 16
    endloop
  endfacet
  facet normal 1 0 0
    outer loop
      vertex -1.43924 50.4226 0
      vertex -1.43924 49.5774 16
      vertex -1.43924 49.5774 0
    endloop
  endfacet
  facet normal 0.415416 -0.909632 0
    outer loop
      vertex -0.98229 51.1336 0
      vertex -0.213471 51.4847 16
      vertex -0.98229 51.1336 16
    endloop
  endfacet
  facet normal 0.415416 -0.909632 0
    outer loop
      vertex -0.213471 51.4847 16
      vertex -0.98229 51.1336 0
      vertex -0.213471 51.4847 0
    endloop
  endfacet
  facet normal -0.654863 -0.755748 0
    outer loop
      vertex 0.623122 51.3644 0
      vertex 1.26188 50.811 16
      vertex 0.623122 51.3644 16
    endloop
  endfacet
  facet normal -0.654863 -0.755748 -0
    outer loop
      vertex 1.26188 50.811 16
      vertex 0.623122 51.3644 0
      vertex 1.26188 50.811 0
    endloop
  endfacet
  facet normal 0.841253 -0.540641 0
    outer loop
      vertex -1.43924 50.4226 16
      vertex -0.98229 51.1336 0
      vertex -0.98229 51.1336 16
    endloop
  endfacet
  facet normal 0.841253 -0.540641 0
    outer loop
      vertex -0.98229 51.1336 0
      vertex -1.43924 50.4226 16
      vertex -1.43924 50.4226 0
    endloop
  endfacet
  facet normal -0.142316 -0.989821 0
    outer loop
      vertex -0.213471 51.4847 0
      vertex 0.623122 51.3644 16
      vertex -0.213471 51.4847 16
    endloop
  endfacet
  facet normal -0.142316 -0.989821 -0
    outer loop
      vertex 0.623122 51.3644 16
      vertex -0.213471 51.4847 0
      vertex 0.623122 51.3644 0
    endloop
  endfacet
  facet normal 0.992115 0.125334 0
    outer loop
      vertex 3.5 50 16
      vertex 3.39004 50.8704 3
      vertex 3.39004 50.8704 16
    endloop
  endfacet
  facet normal 0.992115 0.125334 0
    outer loop
      vertex 3.39004 50.8704 3
      vertex 3.5 50 16
      vertex 3.5 50 3
    endloop
  endfacet
  facet normal -0.309017 -0.951057 0
    outer loop
      vertex -1.49023 46.8331 3
      vertex -0.655834 46.562 16
      vertex -1.49023 46.8331 16
    endloop
  endfacet
  facet normal -0.309017 -0.951057 -0
    outer loop
      vertex -0.655834 46.562 16
      vertex -1.49023 46.8331 3
      vertex -0.655834 46.562 3
    endloop
  endfacet
  facet normal 0.637425 -0.770512 0
    outer loop
      vertex 1.87539 47.0449 3
      vertex 2.55139 47.6041 16
      vertex 1.87539 47.0449 16
    endloop
  endfacet
  facet normal 0.637425 -0.770512 0
    outer loop
      vertex 2.55139 47.6041 16
      vertex 1.87539 47.0449 3
      vertex 2.55139 47.6041 3
    endloop
  endfacet
  facet normal -0.876306 -0.481754 0
    outer loop
      vertex -2.83156 47.9428 3
      vertex -3.25422 48.7116 16
      vertex -3.25422 48.7116 3
    endloop
  endfacet
  facet normal -0.876306 -0.481754 0
    outer loop
      vertex -3.25422 48.7116 16
      vertex -2.83156 47.9428 3
      vertex -2.83156 47.9428 16
    endloop
  endfacet
  facet normal -0.535825 -0.844329 0
    outer loop
      vertex -2.23098 47.3032 3
      vertex -1.49023 46.8331 16
      vertex -2.23098 47.3032 16
    endloop
  endfacet
  facet normal -0.535825 -0.844329 -0
    outer loop
      vertex -1.49023 46.8331 16
      vertex -2.23098 47.3032 3
      vertex -1.49023 46.8331 3
    endloop
  endfacet
  facet normal -0.728969 -0.684546 0
    outer loop
      vertex -2.23098 47.3032 3
      vertex -2.83156 47.9428 16
      vertex -2.83156 47.9428 3
    endloop
  endfacet
  facet normal -0.728969 -0.684546 0
    outer loop
      vertex -2.83156 47.9428 16
      vertex -2.23098 47.3032 3
      vertex -2.23098 47.3032 16
    endloop
  endfacet
  facet normal -1 0 0
    outer loop
      vertex -3.4724 49.5613 3
      vertex -3.4724 50.4387 16
      vertex -3.4724 50.4387 3
    endloop
  endfacet
  facet normal -1 -0 0
    outer loop
      vertex -3.4724 50.4387 16
      vertex -3.4724 49.5613 3
      vertex -3.4724 49.5613 16
    endloop
  endfacet
  facet normal 0.929777 -0.368124 0
    outer loop
      vertex 3.06707 48.3139 16
      vertex 3.39004 49.1296 3
      vertex 3.39004 49.1296 16
    endloop
  endfacet
  facet normal 0.929777 -0.368124 0
    outer loop
      vertex 3.39004 49.1296 3
      vertex 3.06707 48.3139 16
      vertex 3.06707 48.3139 3
    endloop
  endfacet
  facet normal 0.187384 -0.982287 0
    outer loop
      vertex 0.219767 46.5069 3
      vertex 1.08156 46.6713 16
      vertex 0.219767 46.5069 16
    endloop
  endfacet
  facet normal 0.187384 -0.982287 0
    outer loop
      vertex 1.08156 46.6713 16
      vertex 0.219767 46.5069 3
      vertex 1.08156 46.6713 3
    endloop
  endfacet
  facet normal 0.42578 -0.904827 0
    outer loop
      vertex 1.08156 46.6713 3
      vertex 1.87539 47.0449 16
      vertex 1.08156 46.6713 16
    endloop
  endfacet
  facet normal 0.42578 -0.904827 0
    outer loop
      vertex 1.87539 47.0449 16
      vertex 1.08156 46.6713 3
      vertex 1.87539 47.0449 3
    endloop
  endfacet
  facet normal -0.0627947 -0.998026 0
    outer loop
      vertex -0.655834 46.562 3
      vertex 0.219767 46.5069 16
      vertex -0.655834 46.562 16
    endloop
  endfacet
  facet normal -0.0627947 -0.998026 -0
    outer loop
      vertex 0.219767 46.5069 16
      vertex -0.655834 46.562 3
      vertex 0.219767 46.5069 3
    endloop
  endfacet
  facet normal -0.968583 -0.24869 0
    outer loop
      vertex -3.25422 48.7116 3
      vertex -3.4724 49.5613 16
      vertex -3.4724 49.5613 3
    endloop
  endfacet
  facet normal -0.968583 -0.24869 0
    outer loop
      vertex -3.4724 49.5613 16
      vertex -3.25422 48.7116 3
      vertex -3.25422 48.7116 16
    endloop
  endfacet
  facet normal 0 0 1
    outer loop
      vertex 1.5 50 16
      vertex 3.5 50 16
      vertex 3.39004 50.8704 16
    endloop
  endfacet
  facet normal 0 0 1
    outer loop
      vertex 1.26188 50.811 16
      vertex 3.39004 50.8704 16
      vertex 3.06707 51.6861 16
    endloop
  endfacet
  facet normal 0 0 1
    outer loop
      vertex 3.5 50 16
      vertex 1.5 50 16
      vertex 3.39004 49.1296 16
    endloop
  endfacet
  facet normal 0 0 1
    outer loop
      vertex 1.26188 50.811 16
      vertex 3.06707 51.6861 16
      vertex 2.55139 52.3959 16
    endloop
  endfacet
  facet normal -0 0 1
    outer loop
      vertex 1.26188 49.189 16
      vertex 3.39004 49.1296 16
      vertex 1.5 50 16
    endloop
  endfacet
  facet normal 0 0 1
    outer loop
      vertex 0.623122 51.3644 16
      vertex 2.55139 52.3959 16
      vertex 1.87539 52.9551 16
    endloop
  endfacet
  facet normal 0 0 1
    outer loop
      vertex 3.39004 49.1296 16
      vertex 1.26188 49.189 16
      vertex 3.06707 48.3139 16
    endloop
  endfacet
  facet normal 0 0 1
    outer loop
      vertex 3.06707 48.3139 16
      vertex 1.26188 49.189 16
      vertex 2.55139 47.6041 16
    endloop
  endfacet
  facet normal 0 0 1
    outer loop
      vertex 3.39004 50.8704 16
      vertex 1.26188 50.811 16
      vertex 1.5 50 16
    endloop
  endfacet
  facet normal 0 0 1
    outer loop
      vertex 0.623122 51.3644 16
      vertex 1.87539 52.9551 16
      vertex 1.08156 53.3287 16
    endloop
  endfacet
  facet normal 0 0 1
    outer loop
      vertex 2.55139 52.3959 16
      vertex 0.623122 51.3644 16
      vertex 1.26188 50.811 16
    endloop
  endfacet
  facet normal 0 0 1
    outer loop
      vertex 0.219767 53.4931 16
      vertex 0.623122 51.3644 16
      vertex 1.08156 53.3287 16
    endloop
  endfacet
  facet normal 0 0 1
    outer loop
      vertex 0.219767 53.4931 16
      vertex -0.213471 51.4847 16
      vertex 0.623122 51.3644 16
    endloop
  endfacet
  facet normal -0 0 1
    outer loop
      vertex -0.655834 53.438 16
      vertex -0.213471 51.4847 16
      vertex 0.219767 53.4931 16
    endloop
  endfacet
  facet normal -0 0 1
    outer loop
      vertex -1.49023 53.1669 16
      vertex -0.213471 51.4847 16
      vertex -0.655834 53.438 16
    endloop
  endfacet
  facet normal 0 0 1
    outer loop
      vertex -0.213471 51.4847 16
      vertex -1.49023 53.1669 16
      vertex -0.98229 51.1336 16
    endloop
  endfacet
  facet normal -0 0 1
    outer loop
      vertex -2.83156 52.0572 16
      vertex -0.98229 51.1336 16
      vertex -2.23098 52.6968 16
    endloop
  endfacet
  facet normal -0 0 1
    outer loop
      vertex -2.23098 52.6968 16
      vertex -0.98229 51.1336 16
      vertex -1.49023 53.1669 16
    endloop
  endfacet
  facet normal -0 0 1
    outer loop
      vertex 0.623122 48.6356 16
      vertex 2.55139 47.6041 16
      vertex 1.26188 49.189 16
    endloop
  endfacet
  facet normal 0 0 1
    outer loop
      vertex 2.55139 47.6041 16
      vertex 0.623122 48.6356 16
      vertex 1.87539 47.0449 16
    endloop
  endfacet
  facet normal 0 0 1
    outer loop
      vertex 1.87539 47.0449 16
      vertex 0.623122 48.6356 16
      vertex 1.08156 46.6713 16
    endloop
  endfacet
  facet normal 0 0 1
    outer loop
      vertex 0.623122 48.6356 16
      vertex 0.219767 46.5069 16
      vertex 1.08156 46.6713 16
    endloop
  endfacet
  facet normal -0 0 1
    outer loop
      vertex -0.213471 48.5153 16
      vertex 0.219767 46.5069 16
      vertex 0.623122 48.6356 16
    endloop
  endfacet
  facet normal 0 0 1
    outer loop
      vertex -0.213471 48.5153 16
      vertex -0.655834 46.562 16
      vertex 0.219767 46.5069 16
    endloop
  endfacet
  facet normal 0 0 1
    outer loop
      vertex -1.49023 46.8331 16
      vertex -0.213471 48.5153 16
      vertex -0.98229 48.8664 16
    endloop
  endfacet
  facet normal 0 0 1
    outer loop
      vertex -2.83156 47.9428 16
      vertex -0.98229 48.8664 16
      vertex -1.43924 49.5774 16
    endloop
  endfacet
  facet normal 0 0 1
    outer loop
      vertex -0.213471 48.5153 16
      vertex -1.49023 46.8331 16
      vertex -0.655834 46.562 16
    endloop
  endfacet
  facet normal 0 0 1
    outer loop
      vertex -0.98229 51.1336 16
      vertex -2.83156 52.0572 16
      vertex -1.43924 50.4226 16
    endloop
  endfacet
  facet normal -0 0 1
    outer loop
      vertex -3.25422 51.2884 16
      vertex -1.43924 50.4226 16
      vertex -2.83156 52.0572 16
    endloop
  endfacet
  facet normal 0 0 1
    outer loop
      vertex -0.98229 48.8664 16
      vertex -2.23098 47.3032 16
      vertex -1.49023 46.8331 16
    endloop
  endfacet
  facet normal -0 0 1
    outer loop
      vertex -3.4724 50.4387 16
      vertex -1.43924 50.4226 16
      vertex -3.25422 51.2884 16
    endloop
  endfacet
  facet normal 0 0 1
    outer loop
      vertex -0.98229 48.8664 16
      vertex -2.83156 47.9428 16
      vertex -2.23098 47.3032 16
    endloop
  endfacet
  facet normal 0 0 1
    outer loop
      vertex -1.43924 50.4226 16
      vertex -3.4724 50.4387 16
      vertex -1.43924 49.5774 16
    endloop
  endfacet
  facet normal 0 0 1
    outer loop
      vertex -1.43924 49.5774 16
      vertex -3.25422 48.7116 16
      vertex -2.83156 47.9428 16
    endloop
  endfacet
  facet normal 0 0 1
    outer loop
      vertex -3.4724 49.5613 16
      vertex -1.43924 49.5774 16
      vertex -3.4724 50.4387 16
    endloop
  endfacet
  facet normal 0 0 1
    outer loop
      vertex -1.43924 49.5774 16
      vertex -3.4724 49.5613 16
      vertex -3.25422 48.7116 16
    endloop
  endfacet
  facet normal 0.992115 -0.125334 0
    outer loop
      vertex 3.39004 49.1296 16
      vertex 3.5 50 3
      vertex 3.5 50 16
    endloop
  endfacet
  facet normal 0.992115 -0.125334 0
    outer loop
      vertex 3.5 50 3
      vertex 3.39004 49.1296 16
      vertex 3.39004 49.1296 3
    endloop
  endfacet
  facet normal 0.809016 -0.587787 0
    outer loop
      vertex 2.55139 47.6041 16
      vertex 3.06707 48.3139 3
      vertex 3.06707 48.3139 16
    endloop
  endfacet
  facet normal 0.809016 -0.587787 0
    outer loop
      vertex 3.06707 48.3139 3
      vertex 2.55139 47.6041 16
      vertex 2.55139 47.6041 3
    endloop
  endfacet
  facet normal -0.142316 0.989821 0
    outer loop
      vertex 0.623122 48.6356 0
      vertex -0.213471 48.5153 16
      vertex 0.623122 48.6356 16
    endloop
  endfacet
  facet normal -0.142316 0.989821 0
    outer loop
      vertex -0.213471 48.5153 16
      vertex 0.623122 48.6356 0
      vertex -0.213471 48.5153 0
    endloop
  endfacet
  facet normal -0.654863 0.755748 0
    outer loop
      vertex 1.26188 49.189 0
      vertex 0.623122 48.6356 16
      vertex 1.26188 49.189 16
    endloop
  endfacet
  facet normal -0.654863 0.755748 0
    outer loop
      vertex 0.623122 48.6356 16
      vertex 1.26188 49.189 0
      vertex 0.623122 48.6356 0
    endloop
  endfacet
  facet normal 0.415416 0.909632 -0
    outer loop
      vertex -0.213471 48.5153 0
      vertex -0.98229 48.8664 16
      vertex -0.213471 48.5153 16
    endloop
  endfacet
  facet normal 0.415416 0.909632 0
    outer loop
      vertex -0.98229 48.8664 16
      vertex -0.213471 48.5153 0
      vertex -0.98229 48.8664 0
    endloop
  endfacet
  facet normal 0.841253 0.540641 0
    outer loop
      vertex -0.98229 48.8664 16
      vertex -1.43924 49.5774 0
      vertex -1.43924 49.5774 16
    endloop
  endfacet
  facet normal 0.841253 0.540641 0
    outer loop
      vertex -1.43924 49.5774 0
      vertex -0.98229 48.8664 16
      vertex -0.98229 48.8664 0
    endloop
  endfacet
  facet normal -0.959493 0.281734 0
    outer loop
      vertex 1.26188 49.189 0
      vertex 1.5 50 16
      vertex 1.5 50 0
    endloop
  endfacet
  facet normal -0.959493 0.281734 0
    outer loop
      vertex 1.5 50 16
      vertex 1.26188 49.189 0
      vertex 1.26188 49.189 16
    endloop
  endfacet
endsolid OpenSCAD_Model
