<?xml version="1.0" encoding="UTF-8" standalone="no"?>
<!-- Created with Inkscape (http://www.inkscape.org/) -->

<svg
   xmlns:dc="http://purl.org/dc/elements/1.1/"
   xmlns:cc="http://creativecommons.org/ns#"
   xmlns:rdf="http://www.w3.org/1999/02/22-rdf-syntax-ns#"
   xmlns:svg="http://www.w3.org/2000/svg"
   xmlns="http://www.w3.org/2000/svg"
   xmlns:sodipodi="http://sodipodi.sourceforge.net/DTD/sodipodi-0.dtd"
   xmlns:inkscape="http://www.inkscape.org/namespaces/inkscape"
   id="svg3615"
   version="1.1"
   inkscape:version="0.91 r13725"
   width="1527.1875"
   height="795.9375"
   viewBox="0 0 1527.1875 795.9375"
   sodipodi:docname="bokstaver2.svg">
  <metadata
     id="metadata3621">
    <rdf:RDF>
      <cc:Work
         rdf:about="">
        <dc:format>image/svg+xml</dc:format>
        <dc:type
           rdf:resource="http://purl.org/dc/dcmitype/StillImage" />
        <dc:title></dc:title>
      </cc:Work>
    </rdf:RDF>
  </metadata>
  <defs
     id="defs3619" />
  <sodipodi:namedview
     pagecolor="#ffffff"
     bordercolor="#666666"
     borderopacity="1"
     objecttolerance="10"
     gridtolerance="10"
     guidetolerance="10"
     inkscape:pageopacity="0"
     inkscape:pageshadow="2"
     inkscape:window-width="1752"
     inkscape:window-height="1055"
     id="namedview3617"
     showgrid="false"
     inkscape:zoom="0.19905873"
     inkscape:cx="763.59375"
     inkscape:cy="397.96875"
     inkscape:window-x="0"
     inkscape:window-y="25"
     inkscape:window-maximized="0"
     inkscape:current-layer="svg3615" />
  <path
     style="fill:#000000"
     d="m 15.070929,402.99239 0,-397.9687472 763.593731,0 763.59384,0 0,397.9687472 0,397.96875 -763.59384,0 -763.593731,0 0,-397.96875 z M 387.9809,686.63404 c 22.82992,-5.08528 38.2551,-17.90912 45.16457,-37.5479 2.99298,-8.50693 3.75103,-25.52778 1.48423,-33.32536 -5.39816,-18.56897 -15.34883,-27.6708 -47.37127,-43.33026 -11.08594,-5.42118 -22.26563,-11.20851 -24.84375,-12.86071 -6.82978,-4.37691 -12.62312,-10.55904 -15.25849,-16.2825 -2.01701,-4.38054 -2.25709,-5.9874 -1.89092,-12.65625 0.6618,-12.05292 4.6056,-17.8128 15.74316,-22.99271 4.25309,-1.97805 6.89493,-2.46169 15.08257,-2.76117 12.29198,-0.4496 20.12403,1.47506 33.67536,8.27543 5.13315,2.57595 10.16958,4.68353 11.19205,4.68353 2.86631,0 3.80002,-2.89997 3.80002,-11.80227 l 0,-8.17555 -3.5522,-3.37912 c -6.83143,-6.49859 -22.7584,-11.26616 -40.04835,-11.98807 -14.86151,-0.62051 -23.35738,0.95995 -35.14945,6.53872 -18.34104,8.67707 -28.125,24.71948 -28.125,46.11561 0,14.7533 4.14089,24.97985 14.60095,36.05917 6.91685,7.32636 14.92542,12.27047 37.20658,22.96961 19.09702,9.17015 25.09078,12.84961 30.5117,18.73063 5.61758,6.09434 7.68399,11.3822 7.66654,19.61837 -0.0146,6.91482 -1.19576,12.03664 -3.95351,17.14411 -2.61257,4.83859 -10.44763,11.15632 -16.84756,13.58487 -5.25356,1.99356 -7.39995,2.23736 -19.4972,2.21466 -12.875,-0.0242 -14.06466,-0.18745 -22.5,-3.08846 -4.89844,-1.68462 -12.54655,-5.15362 -16.99581,-7.70887 -12.72222,-7.30649 -14.87919,-6.36582 -14.87919,6.48887 0,10.79874 1.55482,13.07795 12.53446,18.37421 13.7222,6.61921 23.26078,8.57033 43.02234,8.80024 7.89753,0.0919 13.35268,-0.39009 19.22817,-1.69883 z m 484.79606,-0.90984 c 24.615,-6.43622 41.0919,-22.63354 48.6939,-47.86779 l 2.4067,-7.98902 0.3273,-71.8464 0.3272,-71.84639 -2.9954,-1.04424 c -3.8025,-1.32554 -15.6079,-1.35466 -19.3569,-0.0477 -1.6407,0.57196 -3.0927,1.86998 -3.4084,3.04687 -0.3024,1.12773 -0.5628,32.21447 -0.5787,69.08166 -0.027,62.40808 -0.1495,67.48386 -1.7786,73.59375 -6.4757,24.28814 -21.1374,35.15625 -47.4279,35.15625 -15.8341,0 -25.9304,-3.73105 -35.1778,-12.9997 -5.9354,-5.94918 -9.7092,-13.06906 -12.489,-23.56284 -1.7576,-6.63459 -1.8847,-10.87514 -2.2546,-75.1685 l -0.3921,-68.13725 -2.8782,-1.00337 c -3.7052,-1.29161 -15.5422,-1.29586 -19.2397,-0.007 -1.6407,0.57196 -3.0927,1.86998 -3.4083,3.04687 -0.9714,3.62203 -0.5989,120.62102 0.4213,132.36291 1.9672,22.6398 7.3218,35.90805 19.3976,48.06613 10.2805,10.35041 21.0344,15.58971 39.6056,19.29574 1.289,0.25725 9.0937,0.34576 17.3437,0.19671 11.7736,-0.21271 16.6912,-0.71318 22.8623,-2.32677 z m -764.46889,-0.22605 2.38786,-1.08798 0,-44.38077 0,-44.38076 7.26563,0.008 c 26.99975,0.0264 37.24194,5.58902 47.1175,25.5897 2.59604,5.25769 9.33733,21.37193 14.98065,35.80943 6.51465,16.66666 10.99454,26.84896 12.27101,27.89063 1.64078,1.33897 3.88744,1.64062 12.21907,1.64062 8.98436,0 10.43521,-0.22657 12.09792,-1.88927 2.51059,-2.51059 2.45153,-2.7195 -8.49949,-30.06772 -18.85715,-47.09236 -23.02342,-54.42274 -35.93597,-63.22777 l -4.57744,-3.12134 6.22243,-2.82138 c 16.21648,-7.35291 26.00408,-18.17543 30.20946,-33.40377 1.76261,-6.38268 1.67291,-21.78537 -0.16845,-28.92718 -4.81603,-18.6791 -19.54834,-31.49513 -41.63982,-36.22357 -7.41337,-1.58675 -13.77775,-1.9996 -37.96875,-2.46298 -31.985801,-0.6127 -34.695451,-0.28517 -38.347961,4.63523 -1.95909,2.63914 -1.9653,2.90593 -2.23984,96.09375 -0.15142,51.39599 -0.0383,94.7573 0.2514,96.35846 0.31503,1.74119 1.36763,3.31702 2.61906,3.92093 2.83246,1.36687 18.764261,1.40253 21.735731,0.0487 z m 2.38786,-145.16201 0,-33.75 9.14063,0.0274 c 5.02734,0.015 14.48907,0.41875 21.02606,0.89713 14.12425,1.0336 21.45641,3.59533 27.77639,9.70456 6.57634,6.35704 8.02464,10.49491 8.09262,23.12097 0.0522,9.70569 -0.17494,11.23745 -2.27738,15.35425 -4.48826,8.78849 -11.54515,14.08225 -22.74825,17.0647 -3.38877,0.90213 -10.52369,1.31225 -22.9632,1.31992 l -18.04687,0.0111 0,-33.75 z m 498.23714,145.16201 2.38786,-1.08798 0,-88.91202 0,-88.91201 29.84951,0 29.84952,0 1.08798,-2.38786 c 1.38838,-3.04715 1.41144,-13.68902 0.0362,-16.70732 -0.57847,-1.26963 -1.94957,-2.54934 -3.04688,-2.84381 -2.60632,-0.69944 -139.19636,-0.69944 -141.80268,0 -1.09731,0.29447 -2.4684,1.57418 -3.04688,2.84381 -1.37523,3.0183 -1.35217,13.66017 0.0362,16.70732 l 1.08798,2.38786 29.38077,0 29.38076,0 0.0127,86.95312 c 0.008,47.82422 0.2546,87.85422 0.55013,88.95555 0.29553,1.10133 1.44993,2.44387 2.56533,2.98343 2.77954,1.34454 18.73196,1.35921 21.67139,0.0199 z m 518.88343,-0.28358 c 1.4587,-0.75437 2.955,-2.12546 3.3248,-3.04688 5.5294,-13.77386 67.0547,-191.6471 67.0547,-193.85898 0,-3.83181 -1.1361,-4.1926 -13.2555,-4.20977 -7.2322,-0.0102 -9.4365,0.31484 -11.0384,1.62782 -1.4912,1.22219 -9.2289,23.48454 -30.3383,87.28662 l -28.3365,85.64598 -28.929,-85.17723 c -22.6387,-66.65687 -29.4279,-85.63589 -31.224,-87.28662 -2.0569,-1.89026 -3.2574,-2.10937 -11.5571,-2.10937 -5.0939,0 -10.3975,0.43187 -11.7859,0.9597 -2.3108,0.87857 -2.4851,1.29465 -2.0616,4.92187 0.4202,3.59991 64.9104,188.44768 67.3112,192.9336 1.5964,2.98292 4.254,3.56151 16.6523,3.6254 8.3832,0.0432 12.2549,-0.31497 14.1833,-1.31214 z m 287.3576,-418.83703 c 1.7631,-2.51721 2.0244,-15.33808 0.3859,-18.93424 -0.7728,-1.69624 -4.2517,-3.91931 -12.4219,-7.938 -12.4735,-6.1354 -20.3122,-10.97061 -29.731,-18.33941 l -6.1953,-4.84679 3.711,-4.62535 c 7.9154,-9.86578 14.3506,-24.46881 18.1795,-41.25424 2.4186,-10.60228 2.5531,-12.44222 2.5325,-34.63462 -0.021,-21.65554 -0.2016,-24.22156 -2.3854,-33.75 -7.7781,-33.93715 -25.8561,-54.60422 -55.5847,-63.54532 -9.0532,-2.72283 -10.0346,-2.82205 -28.5937,-2.89076 -19.1254,-0.0708 -19.2688,-0.0561 -29.5313,3.02086 -32.2325,9.66435 -51.9869,32.52941 -59.6475,69.04022 -1.905,9.07922 -2.1644,12.94723 -2.1683,32.34375 0,19.24258 0.2682,23.39591 2.1499,32.8125 7.1014,35.53805 25.4847,56.96572 55.9159,65.17625 12.6923,3.42443 36.1153,4.34538 48.2813,1.89832 8.9572,-1.80162 19.6444,-5.37987 23.8907,-7.99895 l 2.828,-1.74432 4.2188,3.71284 c 16.0131,14.09275 35.0732,26.15093 51.0876,32.31998 7.3538,2.83284 11.1816,2.88473 13.078,0.17728 z M 1287.7273,216.927 c -31.1823,-5.32099 -46.413,-31.40676 -46.4033,-79.47532 0.01,-41.5137 13.2854,-66.91932 40.0962,-76.72426 6.8501,-2.50513 8.0614,-2.64707 22.2446,-2.60645 13.6896,0.0392 15.5883,0.25397 21.7351,2.45848 26.3079,9.43512 38.7406,33.95646 38.7299,76.38722 -0.011,42.30401 -13.1183,67.91258 -39.6781,77.5205 -6.3954,2.31354 -8.9243,2.69209 -19.6875,2.94711 -6.7922,0.16093 -14.4588,-0.0673 -17.037,-0.50728 z m -480.30994,21.9976 c 26.358,-6.67064 45.8994,-23.73184 56.2467,-49.10792 2.0211,-4.95648 4.7844,-13.86335 6.1406,-19.79304 2.2913,-10.01771 2.4696,-12.40793 2.5173,-33.75 0.046,-20.59732 -0.1736,-24.02546 -2.1279,-33.20373 -7.4746,-35.10526 -24.8657,-55.34747 -55.4294,-64.51665 -9.6439,-2.8932 -10.2521,-2.95556 -29.0687,-2.98032 -19.0647,-0.0251 -19.3015,-4.9e-4 -29.5313,3.06673 -31.84617,9.5485 -51.10918,31.4464 -59.23001,67.3318 -2.3312,10.3014 -2.51143,12.67097 -2.5544,33.58342 -0.0407,19.77769 0.21119,23.77916 2.08137,33.07231 5.62289,27.94085 18.39271,47.54592 37.87714,58.15151 8.4102,4.57775 20.1298,8.3485 29.7947,9.58635 9.4337,1.20825 36.3585,0.31222 43.2839,-1.44046 z m -37.6589,-21.68631 c -6.168,-0.79294 -15.4646,-4.29785 -21.276,-8.02123 -17.94167,-11.49528 -26.54104,-34.75407 -26.53354,-71.76538 0.008,-41.30639 12.82466,-66.0363 39.60924,-76.42872 7.5859,-2.94335 8.0139,-2.99851 22.7315,-2.92943 13.6499,0.0641 15.6063,0.28782 21.7352,2.48592 26.3078,9.43512 38.7406,33.95646 38.7298,76.38722 -0.011,42.35571 -13.0858,67.90084 -39.678,77.5205 -6.4273,2.32505 -8.8708,2.68668 -19.6875,2.91373 -6.7922,0.14256 -13.826,0.0694 -15.6307,-0.16261 z m -661.4551,21.07451 2.38315,-1.08583 0.23909,-89.08836 0.23908,-89.08835 34.06861,88.53356 c 18.73774,48.69347 34.67773,89.16638 35.42222,89.93982 1.96725,2.04377 19.29061,2.58205 22.17889,0.68917 1.5549,-1.01905 10.959,-23.56733 37.23653,-89.28238 l 35.15625,-87.91902 0.46875,87.7095 c 0.25781,48.24023 0.67969,87.89833 0.9375,88.12913 2.97572,2.66386 19.06044,3.64842 23.86214,1.46061 l 2.38786,-1.08798 0,-96.03299 c 0,-88.49091 -0.12447,-96.24371 -1.58491,-98.71603 -2.51664,-4.26033 -5.88098,-5.1119 -19.97759,-5.05666 -14.59463,0.0572 -18.41061,1.33426 -22.75011,7.61363 -3.47244,5.02472 -4.52407,7.49559 -36.35278,85.41219 -17.05706,41.75566 -28.72303,69.14446 -29.13658,68.40549 -0.37934,-0.67784 -13.34532,-33.28053 -28.8133,-72.45043 -15.46798,-39.16988 -28.97984,-73.11641 -30.02636,-75.43673 -2.72814,-6.04876 -5.54905,-8.98873 -10.88962,-11.34925 -4.03698,-1.78433 -6.44392,-2.08384 -17.34375,-2.15818 -13.873691,-0.0946 -17.042081,0.67251 -20.156251,4.88026 -1.84095,2.48742 -1.88004,4.22716 -2.15246,95.81467 -0.1526,51.30469 -0.0239,94.67455 0.28612,96.37747 0.36087,1.98263 1.30362,3.39429 2.6212,3.92495 3.03421,1.22205 18.933131,1.12074 21.696321,-0.13826 z m 344.06721,-0.002 2.38786,-1.08797 0,-85.32395 0,-85.32394 9.23922,18.67755 c 14.43883,29.18884 73.09652,140.04308 76.73543,145.01845 1.79645,2.45623 5.05617,5.51482 7.24381,6.79687 3.56082,2.08678 5.02009,2.33098 13.92916,2.33098 11.01856,0 13.67488,-0.77762 15.97869,-4.67765 1.42913,-2.41961 1.56119,-10.73782 1.56119,-98.33628 l 0,-95.69311 -2.31466,-1.51662 c -1.84421,-1.20838 -4.24311,-1.45095 -11.80296,-1.19349 -14.97166,0.50988 -13.44418,-9.621906 -12.7692,84.69813 l 0.57025,79.6875 -17.13741,-33.75 C 516.52132,130.27242 478.58346,57.76824 473.93651,50.02139 467.63388,39.51437 463.8385,37.62748 448.70733,37.47855 c -12.50586,-0.1231 -16.21806,0.83628 -18.98132,4.90553 -1.59076,2.34258 -1.70205,7.76979 -1.96378,95.76456 -0.15261,51.30469 -0.0395,94.59129 0.2514,96.19246 0.31603,1.73965 1.37088,3.31755 2.62121,3.92092 2.83246,1.36688 18.76426,1.40253 21.73573,0.0487 z m 560.62503,0 2.3879,-1.08797 0,-37.71799 0,-37.71799 21.3281,-0.46102 c 17.4822,-0.37789 22.5494,-0.80063 28.1007,-2.34431 22.8214,-6.34602 37.7113,-20.13644 44.2961,-41.02548 2.9121,-9.23826 3.6693,-28.4754 1.4562,-36.99474 -5.8745,-22.61306 -22.7243,-37.28853 -48.1141,-41.90515 -6.1831,-1.12427 -15.1097,-1.50867 -36.8351,-1.58624 -30.99384,-0.11064 -31.93804,0.0224 -35.30394,4.97461 -1.5387,2.26403 -1.665,8.54408 -1.9243,95.70427 -0.1525,51.30469 -0.039,94.5913 0.2515,96.19246 0.316,1.73965 1.3709,3.31755 2.6212,3.92093 2.8325,1.36687 18.76434,1.40252 21.73574,0.0486 z m 2.3879,-138.74404 0,-40.45677 17.1094,0.56982 c 9.4101,0.3134 19.6272,1.04953 22.7046,1.63586 18.1849,3.4647 28.6396,17.05495 28.6123,37.19391 -0.023,17.03327 -6.5467,29.63146 -18.7967,36.29873 -8.1253,4.42237 -12.8651,5.19194 -32.0515,5.20408 l -17.5781,0.0111 0,-40.45676 z"
     id="path3625"
     inkscape:connector-curvature="0" />
</svg>
