<?xml version="1.0" encoding="UTF-8" standalone="no"?>
<!-- Created with Inkscape (http://www.inkscape.org/) -->

<svg
   xmlns:dc="http://purl.org/dc/elements/1.1/"
   xmlns:cc="http://creativecommons.org/ns#"
   xmlns:rdf="http://www.w3.org/1999/02/22-rdf-syntax-ns#"
   xmlns:svg="http://www.w3.org/2000/svg"
   xmlns="http://www.w3.org/2000/svg"
   xmlns:sodipodi="http://sodipodi.sourceforge.net/DTD/sodipodi-0.dtd"
   xmlns:inkscape="http://www.inkscape.org/namespaces/inkscape"
   id="svg3697"
   version="1.1"
   inkscape:version="0.91 r13725"
   width="1647.1875"
   height="704.0625"
   viewBox="0 0 1647.1875 704.0625"
   sodipodi:docname="bokstaver3.svg">
  <metadata
     id="metadata3703">
    <rdf:RDF>
      <cc:Work
         rdf:about="">
        <dc:format>image/svg+xml</dc:format>
        <dc:type
           rdf:resource="http://purl.org/dc/dcmitype/StillImage" />
        <dc:title></dc:title>
      </cc:Work>
    </rdf:RDF>
  </metadata>
  <defs
     id="defs3701" />
  <sodipodi:namedview
     pagecolor="#ffffff"
     bordercolor="#666666"
     borderopacity="1"
     objecttolerance="10"
     gridtolerance="10"
     guidetolerance="10"
     inkscape:pageopacity="0"
     inkscape:pageshadow="2"
     inkscape:window-width="2560"
     inkscape:window-height="1368"
     id="namedview3699"
     showgrid="false"
     inkscape:zoom="0.73822804"
     inkscape:cx="1274.778"
     inkscape:cy="299.53935"
     inkscape:window-x="0"
     inkscape:window-y="25"
     inkscape:window-maximized="1"
     inkscape:current-layer="svg3697" />
  <path
     style="fill:#000000"
     d="m -16.255136,357.44963 0,-232.82689 823.593736,0 613.6316,-1.35459 0,232.82689 0,212.50792 -613.6316,1.3546 -823.593736,0 z M 1274.8413,455.88184 c 26.358,-6.67064 45.8994,-23.73184 56.2467,-49.10792 2.0211,-4.95648 4.7844,-13.86335 6.1406,-19.79304 2.2913,-10.01771 2.4696,-12.40792 2.5173,-33.75 0.046,-20.59732 -0.1736,-24.02546 -2.1278,-33.20374 -7.4747,-35.10525 -24.8658,-55.34747 -55.4294,-64.51665 -9.644,-2.8932 -10.2521,-2.95555 -29.0688,-2.98031 -19.0646,-0.0251 -19.3014,-4.9e-4 -29.5313,3.06673 -31.8462,9.5485 -51.1092,31.4464 -59.23,67.3318 -2.3312,10.3014 -2.5115,12.67097 -2.5544,33.58342 -0.04,19.77769 0.2112,23.77916 2.0814,33.07231 5.6229,27.94085 18.3927,47.54592 37.8771,58.15151 8.4102,4.57775 20.1298,8.3485 29.7947,9.58635 9.4338,1.20825 36.3585,0.31222 43.2839,-1.44046 z m -37.6589,-21.68631 c -6.168,-0.79294 -15.4646,-4.29785 -21.276,-8.02123 -17.9416,-11.49528 -26.541,-34.75407 -26.5335,-71.76538 0.01,-41.3064 12.8246,-66.0363 39.6092,-76.42872 7.586,-2.94335 8.014,-2.99852 22.7316,-2.92944 13.6498,0.064 15.6061,0.28782 21.7351,2.48592 26.3079,9.43512 38.7406,33.95647 38.7299,76.38723 -0.011,42.35571 -13.0859,67.90085 -39.6781,77.5205 -6.4273,2.32505 -8.8708,2.68668 -19.6875,2.91373 -6.7922,0.14256 -13.826,0.0694 -15.6307,-0.16261 z M 154.38195,454.94338 c 1.99946,-1.03396 3.08317,-2.60425 4.04376,-5.85938 0.72174,-2.44578 9.69225,-37.24765 19.93445,-77.3375 10.24219,-40.08984 18.84297,-72.8856 19.11282,-72.87948 0.26984,0.007 9.77188,33.63722 21.11563,74.73577 11.34375,41.09856 21.25781,75.99783 22.03125,77.55395 2.16856,4.36303 4.83566,5.16993 17.13949,5.18532 12.18705,0.0153 16.89001,-1.2203 18.49656,-4.85934 2.00495,-4.54145 54.42729,-188.87692 54.54565,-191.80177 0.19726,-4.8744 -0.96883,-5.35632 -12.9604,-5.35632 -8.95263,0 -11.0038,0.26512 -11.93822,1.543 -0.62055,0.84866 -11.23733,39.98221 -23.59286,86.96346 -15.56748,59.19456 -22.66677,84.76966 -23.12313,83.30075 -0.3622,-1.16584 -10.40417,-37.76815 -22.31548,-81.33846 -11.91131,-43.57031 -22.30269,-81.22243 -23.09194,-83.67137 -2.0689,-6.41943 -3.76521,-7.26613 -14.55724,-7.26613 -10.94397,0 -13.6081,0.86069 -15.21633,4.91591 -0.66589,1.67907 -10.66502,40.2829 -22.22028,85.78629 -13.61185,53.602 -21.26196,82.15609 -21.72637,81.09375 -0.39425,-0.90183 -10.83296,-39.39751 -23.19714,-85.54595 -16.07597,-60.00241 -22.949426,-84.25726 -24.126936,-85.13834 -1.20036,-0.89817 -4.64177,-1.15225 -12.69818,-0.9375 -11.75601,0.31337 -12.81003,0.74301 -12.84034,5.23397 -0.0144,2.13017 52.464596,186.74668 54.524916,191.81395 1.6889,4.15377 5.36045,5.19973 18.39791,5.24123 8.49735,0.027 12.24954,-0.33492 14.26241,-1.37581 z m 510.2081,-0.25366 c 0.79184,-0.65858 5.33879,-12.58085 10.10433,-26.49394 l 8.66462,-25.29653 41.8169,0.24393 41.8168,0.24395 8.9229,25.15581 c 5.7775,16.28782 9.5645,25.62415 10.7428,26.48437 1.3117,0.95764 4.7299,1.32857 12.2427,1.32857 12.3716,0 14.1683,-0.78378 13.3504,-5.82376 -0.5026,-3.0971 -67.3946,-189.67442 -69.2404,-193.12757 -1.4572,-2.72603 -7.1994,-3.73493 -19.3386,-3.39776 -9.9567,0.27655 -11.6815,0.56141 -13.2778,2.19284 -1.6609,1.69747 -66.9465,180.84361 -69.97729,192.02027 -1.13512,4.18602 -1.08611,4.65992 0.6629,6.40893 1.70419,1.70419 2.87418,1.85787 11.97934,1.57348 6.38068,-0.1993 10.62002,-0.75543 11.5304,-1.51259 z m 26.02985,-74.11154 c 0,-0.97886 32.7564,-95.82778 33.6514,-97.44058 0.3655,-0.65854 7.4838,18.33264 15.9885,42.65625 8.4313,24.11381 16.302,46.48 17.4904,49.70265 l 2.1606,5.85938 -34.6455,0 c -19.055,0 -34.6454,-0.34997 -34.6454,-0.7777 z m 229.9076,74.11154 c 0.7919,-0.65858 5.3389,-12.58085 10.1044,-26.49394 l 8.6646,-25.29653 41.8168,0.24393 41.817,0.24395 8.9229,25.15581 c 5.7775,16.28782 9.5645,25.62415 10.7427,26.48437 1.3118,0.95764 4.7299,1.32857 12.2428,1.32857 12.3715,0 14.1682,-0.78378 13.3503,-5.82376 -0.5025,-3.0971 -67.3946,-189.67442 -69.2403,-193.12757 -1.4572,-2.72603 -7.1994,-3.73493 -19.3387,-3.39776 -9.9567,0.27655 -11.6816,0.56141 -13.2778,2.19284 -1.6609,1.69747 -66.9465,180.84361 -69.9773,192.02027 -1.1351,4.18602 -1.0861,4.65992 0.6629,6.40893 1.7042,1.70419 2.8742,1.85787 11.9793,1.57348 6.3807,-0.19931 10.6201,-0.75543 11.5304,-1.51259 z m 26.0299,-74.11154 c 0,-0.97886 32.7564,-95.82778 33.6514,-97.44058 0.3656,-0.65854 7.4839,18.33264 15.9886,42.65625 8.4313,24.11381 16.3019,46.48 17.4903,49.70265 l 2.1607,5.85938 -34.6455,0 c -19.0551,0 -34.6455,-0.34997 -34.6455,-0.7777 z M 553.54499,453.309 c 2.15733,-4.31554 1.77327,-14.7099 -0.65433,-17.70864 l -1.7917,-2.21323 -49.56819,-0.46875 -49.56819,-0.46875 48.45706,-75.89695 c 26.65139,-41.74332 48.9196,-77.44071 49.4849,-79.32752 1.30281,-4.34839 1.32739,-13.79265 0.0455,-17.46997 -1.93676,-5.55578 -0.46259,-5.43056 -63.92948,-5.43056 l -58.06608,0 -1.7923,2.21323 c -1.39784,1.72614 -1.79229,3.71499 -1.79229,9.03677 0,11.76687 -4.60171,10.75728 50.24166,11.02271 l 46.96041,0.22729 -46.73444,73.125 c -25.70394,40.21875 -48.20721,76.02934 -50.00728,79.57909 -2.47283,4.87642 -3.27285,7.62792 -3.27285,11.25619 0,5.76779 1.25204,10.51622 3.39816,12.88765 1.51111,1.66975 4.32388,1.74582 64.55747,1.74582 l 62.97753,0 1.05447,-2.10938 z M 744.2353,239.53101 c 11.3252,-6.34956 15.3624,-13.87618 14.627,-27.26928 -0.4684,-8.52918 -2.4383,-13.39496 -7.4533,-18.40994 -5.3894,-5.38942 -10.1134,-6.82438 -22.8204,-6.93194 -10.2494,-0.0867 -11.7091,0.12016 -16.412,2.32635 -9.9817,4.68262 -15.0114,12.05202 -15.7294,23.04666 -0.6098,9.33675 0.3504,14.41069 3.6779,19.43434 5.8509,8.83319 13.4613,11.98335 27.9948,11.58791 9.4075,-0.25598 10.1216,-0.42367 16.1154,-3.7841 z m -25.7511,-12.05214 c -3.7908,-2.82762 -5.3648,-6.56143 -5.3608,-12.71706 0.01,-9.55193 4.773,-14.34904 14.2468,-14.33725 8.8644,0.0111 13.8581,5.17345 13.8685,14.33725 0.01,6.06648 -1.5497,9.84452 -5.2578,12.76129 -3.5257,2.77332 -13.754,2.74746 -17.4967,-0.0442 z m 241.2288,3.39239 c 4.0705,-2.10493 5.5944,-5.86155 5.5944,-13.79147 0,-10.57986 -3.4302,-13.84891 -14.5313,-13.84891 -11.134,0 -14.5544,3.58305 -14.4981,15.18782 0.054,11.15639 2.6851,13.7873 13.8416,13.84145 4.3428,0.0211 7.8483,-0.48641 9.5934,-1.38889 z m 66.0319,-1.89038 c 3.2339,-3.23398 3.3125,-3.4885 3.3125,-10.73714 0,-12.21545 -2.6122,-15.01286 -14.0194,-15.01286 -11.6304,0 -15.0431,3.41269 -15.0431,15.04317 0,7.22529 1.5783,11.24649 5.0814,12.94631 1.0724,0.52036 5.4163,0.97468 9.653,1.00957 7.6014,0.0626 7.7469,0.0197 11.0156,-3.24905 z m 203.0307,1.89038 c 4.0705,-2.10493 5.5943,-5.86155 5.5943,-13.79147 0,-10.57986 -3.4301,-13.84891 -14.5312,-13.84891 -11.1341,0 -14.5545,3.58305 -14.4981,15.18782 0.054,11.15639 2.6851,13.7873 13.8415,13.84145 4.3428,0.0211 7.8483,-0.48641 9.5935,-1.38889 z m 66.0318,-1.89038 c 3.2339,-3.23398 3.3125,-3.4885 3.3125,-10.73714 0,-12.21545 -2.6122,-15.01286 -14.0194,-15.01286 -11.6304,0 -15.0431,3.41269 -15.0431,15.04317 0,7.22529 1.5783,11.24649 5.0814,12.94631 1.0724,0.52036 5.4163,0.97468 9.653,1.00957 7.6014,0.0626 7.7469,0.0197 11.0156,-3.24905 z"
     id="path3707"
     inkscape:connector-curvature="0"
     sodipodi:nodetypes="cccccccccsscsssssscsssssscsssssssssscsssssssssssssssssscssssscccscsscssssssscsccsscscccscsccscssscscsscsscscccsssscssscssssscccsssssssssccscscccsscscsssssssssscsssssssss" />
</svg>
