<?xml version="1.0" encoding="UTF-8" standalone="no"?>
<!-- Created with Inkscape (http://www.inkscape.org/) -->

<svg
   xmlns:dc="http://purl.org/dc/elements/1.1/"
   xmlns:cc="http://creativecommons.org/ns#"
   xmlns:rdf="http://www.w3.org/1999/02/22-rdf-syntax-ns#"
   xmlns:svg="http://www.w3.org/2000/svg"
   xmlns="http://www.w3.org/2000/svg"
   xmlns:sodipodi="http://sodipodi.sourceforge.net/DTD/sodipodi-0.dtd"
   xmlns:inkscape="http://www.inkscape.org/namespaces/inkscape"
   id="svg3528"
   version="1.1"
   inkscape:version="0.91 r13725"
   width="1502.8125"
   height="787.5"
   viewBox="0 0 1502.8125 787.5"
   sodipodi:docname="bokstaver.svg">
  <metadata
     id="metadata3534">
    <rdf:RDF>
      <cc:Work
         rdf:about="">
        <dc:format>image/svg+xml</dc:format>
        <dc:type
           rdf:resource="http://purl.org/dc/dcmitype/StillImage" />
        <dc:title></dc:title>
      </cc:Work>
    </rdf:RDF>
  </metadata>
  <defs
     id="defs3532" />
  <sodipodi:namedview
     pagecolor="#ffffff"
     bordercolor="#666666"
     borderopacity="1"
     objecttolerance="10"
     gridtolerance="10"
     guidetolerance="10"
     inkscape:pageopacity="0"
     inkscape:pageshadow="2"
     inkscape:window-width="2560"
     inkscape:window-height="1368"
     id="namedview3530"
     showgrid="false"
     inkscape:zoom="1.4653968"
     inkscape:cx="667.12874"
     inkscape:cy="448.34272"
     inkscape:window-x="0"
     inkscape:window-y="25"
     inkscape:window-maximized="1"
     inkscape:current-layer="svg3528" />
  <path
     style="fill:#000000"
     d="m 2.047227,395.79722 0,-393.7499972 751.406253,0 751.40622,0 0,393.7499972 0,393.75 -751.40622,0 -751.406253,0 0,-393.75 z M 162.41327,686.48531 c 16.2098,-3.00001 34.99074,-9.85922 38.94075,-14.222 1.69612,-1.87337 1.80062,-4.22395 2.05571,-46.23727 0.26491,-43.63097 0.24086,-44.29902 -1.68327,-46.74515 -1.07361,-1.36487 -3.51486,-2.91564 -5.425,-3.44615 -3.63852,-1.01054 -62.80809,-1.37944 -66.40557,-0.41401 -2.83818,0.76165 -4.09866,4.22557 -4.09866,11.26348 0,10.40841 -1.8094,9.73801 26.28298,9.73801 l 24.34202,0 0,29.98095 0,29.98094 -3.52697,1.79933 c -1.93984,0.98963 -6.68593,2.79117 -10.54687,4.00343 -6.16997,1.93724 -8.83605,2.2004 -22.01991,2.17356 -13.121,-0.0267 -15.88078,-0.30871 -22.03125,-2.25107 -23.588486,-7.44942 -39.605951,-25.35856 -46.171694,-51.62464 -2.884604,-11.53978 -2.931724,-39.19426 -0.08546,-50.15625 6.959144,-26.80217 22.839236,-44.99032 45.827754,-52.48852 9.95815,-3.24806 29.05737,-4.22124 40.2904,-2.05294 10.37576,2.00282 22.16501,6.43285 31.75951,11.93424 12.5921,7.22019 14.63538,6.2551 14.62331,-6.90694 -0.005,-5.01086 -0.45735,-7.42017 -1.76796,-9.40805 -3.82691,-5.80453 -16.57962,-12.00435 -33.56489,-16.31782 -9.33054,-2.36952 -11.53503,-2.56947 -27.94222,-2.53445 -23.09128,0.0493 -32.65626,2.19346 -49.218754,11.03336 -23.64116,12.61799 -39.264329,33.11151 -46.949012,61.58487 -3.115158,11.54231 -3.163057,12.01516 -3.181379,31.40625 -0.01753,18.5573 0.135342,20.30642 2.663031,30.46875 8.60348,34.58947 30.270765,57.82478 62.594604,67.12446 15.37407,4.42316 38.5871,5.39542 55.2388,2.31363 z m 606.36467,0.27569 c 14.25054,-4.13012 21.67163,-11.70254 26.97621,-27.52628 1.61942,-4.83082 1.74645,-10.45633 2.01257,-89.13134 l 0.28407,-83.9751 -2.42089,-1.10303 c -4.82887,-2.20018 -20.90739,-1.22766 -23.89517,1.44531 -0.25781,0.23064 -0.67969,37.19303 -0.9375,82.13863 l -0.46875,81.71928 -2.4899,5.31121 c -3.56144,7.5969 -5.76252,8.75129 -16.68612,8.75129 -8.15162,0 -9.5222,-0.27148 -15.38236,-3.04688 -7.42479,-3.51641 -9.52797,-3.75491 -10.87739,-1.2335 -1.58096,2.95405 -1.2209,17.09942 0.49772,19.55308 1.81262,2.58788 7.26771,5.43492 13.7668,7.18498 6.94697,1.87065 23.02798,1.82307 29.62071,-0.0876 z m -417.55607,-1.42677 2.38786,-1.08798 0,-46.25577 0,-46.25576 45.9375,0 45.9375,0 0.0127,44.29687 c 0.007,24.36329 0.25373,45.19468 0.54821,46.29197 0.29447,1.09731 1.57419,2.4684 2.84381,3.04688 3.02908,1.38014 17.40463,1.3547 20.45732,-0.0362 l 2.38791,-1.088 0,-99.1328 0,-99.13281 -2.95239,-1.0292 c -3.76666,-1.31308 -15.5836,-1.3331 -19.31379,-0.0327 -1.64072,0.57196 -3.09274,1.86998 -3.40834,3.04687 -0.30243,1.12773 -0.55564,19.66369 -0.56268,41.19103 l -0.0128,39.1406 -45.9375,0 -45.9375,0 0,-41.15828 0,-41.1583 -2.95239,-1.0292 c -3.76873,-1.31379 -16.51737,-1.3344 -20.25129,-0.0327 -1.64072,0.57196 -3.09274,1.86998 -3.40834,3.04687 -0.71051,2.64937 -0.72271,191.71882 -0.0126,194.36533 0.29553,1.10133 1.44993,2.44387 2.56533,2.98343 2.77955,1.34454 18.73196,1.3592 21.67139,0.0199 z m 270,0 2.38786,-1.08798 0,-99.1328 0,-99.13281 -2.95239,-1.0292 c -3.76873,-1.31379 -16.51737,-1.3344 -20.25129,-0.0327 -1.64072,0.57196 -3.09274,1.86998 -3.40835,3.04687 -0.7105,2.64937 -0.7227,191.71882 -0.0126,194.36533 0.29553,1.10133 1.44993,2.44387 2.56533,2.98343 2.77955,1.34454 18.73196,1.3592 21.67139,0.0199 z m 326.24217,0.004 2.37994,-1.08439 0.24225,-51.56805 0.24225,-51.56805 37.15509,50.54307 c 20.43533,27.79869 38.09163,51.38682 39.23633,52.41807 1.7501,1.57671 3.6693,1.92368 12.0636,2.18106 13.487,0.41349 17.1295,-1.13815 15.733,-6.70209 -0.3,-1.1952 -17.356,-24.53767 -37.9023,-51.87216 l -37.35681,-49.69907 34.06131,-40.70387 c 18.7338,-22.38713 34.9274,-42.47448 35.9858,-44.63856 3.5346,-7.22704 0.2225,-9.20519 -14.3739,-8.58485 -5.3183,0.22604 -8.5897,0.84154 -10.2468,1.92791 -1.3387,0.87773 -18.6163,21.95061 -38.3947,46.82863 l -35.96062,45.23277 -0.24319,-46.03686 -0.24309,-46.03686 -2.94366,-1.02615 c -3.76153,-1.31126 -16.5125,-1.32996 -20.24249,-0.0297 -1.64072,0.57196 -3.09274,1.86998 -3.40835,3.04688 -0.7105,2.64936 -0.7227,191.71881 -0.0126,194.36533 0.29553,1.10132 1.44993,2.44386 2.56533,2.98342 2.77576,1.34272 18.73022,1.36002 21.66356,0.0235 z m 314.99876,-1.9367 c 1.019,-1.45475 1.4594,-4.29707 1.4594,-9.41761 0,-6.53673 -0.2501,-7.58417 -2.3011,-9.63515 l -2.3012,-2.3013 -36.1363,0 -36.1364,0 0,-88.03328 0,-88.0333 -2.9524,-1.0292 c -3.7992,-1.32441 -16.529,-1.33032 -20.3181,-0.009 -2.224,0.77526 -3.0546,1.7306 -3.4642,3.98437 -0.2963,1.63053 -0.414,45.2923 -0.2615,97.02614 l 0.2775,94.06156 3.0616,2.73532 3.0617,2.73532 47.2758,0 47.2758,0 1.4594,-2.0836 z M 648.87842,239.65601 c 10.12162,-1.92003 22.5064,-6.34835 30.04937,-10.74448 9.40594,-5.48189 9.78376,-6.11367 10.16139,-16.99178 0.4667,-13.44369 -1.39005,-14.81038 -11.47189,-8.44409 -11.07931,6.99615 -20.68851,11.1625 -30.7092,13.31489 -7.94393,1.7063 -27.9064,0.67317 -34.84873,-1.80356 -21.02043,-7.4992 -33.93844,-25.37878 -38.63669,-53.47632 -1.9668,-11.76231 -1.4532,-38.66791 0.94122,-49.3072 4.36325,-19.387547 13.98383,-35.539067 26.06611,-43.761117 9.02415,-6.14097 16.36608,-8.42539 28.83977,-8.97339 17.13161,-0.75264 29.27363,2.92355 45.23894,13.69684 11.40895,7.69867 13.78852,6.47604 13.78852,-7.08457 0,-5.40728 -0.4365,-7.80021 -1.83588,-10.06445 -3.77026,-6.10041 -17.00366,-13.35398 -31.91412,-17.49295 -6.91613,-1.91984 -10.01206,-2.20883 -23.4375,-2.18775 -14.85005,0.0233 -15.86247,0.14797 -25.3125,3.11651 -30.14808,9.47041 -49.64364,32.04804 -58.36732,67.594627 -2.78339,11.34157 -2.87771,12.42785 -2.93063,33.75 -0.0514,20.69111 0.0983,22.68919 2.45959,32.8474 4.77829,20.55567 13.30205,36.34077 25.81497,47.80659 10.28088,9.42055 26.28967,16.81684 40.52339,18.72238 9.4168,1.26066 27.60149,0.99615 35.58119,-0.51758 z M 57.579917,237.56856 c 0.791842,-0.65858 5.338792,-12.58085 10.104333,-26.49394 l 8.66462,-25.29653 41.81686,0.24393 41.81684,0.24395 8.92295,25.15581 c 5.77742,16.28782 9.56448,25.62415 10.74277,26.48437 1.31172,0.95764 4.72986,1.32857 12.24269,1.32857 12.37155,0 14.1683,-0.78378 13.35042,-5.82376 -0.50259,-3.0971 -67.39465,-189.674417 -69.24047,-193.127557 -1.45714,-2.72604 -7.19932,-3.73494 -19.33852,-3.39777 -9.95671,0.27656 -11.68158,0.56142 -13.27785,2.19284 -1.6609,1.69747 -66.946499,180.843607 -69.977282,192.020267 -1.135127,4.18602 -1.08611,4.65992 0.662894,6.40893 1.704197,1.70419 2.874193,1.85787 11.979345,1.57348 6.380685,-0.19931 10.620021,-0.75543 11.5304,-1.51259 z m 26.02981,-74.11154 c 0,-0.97886 32.756463,-95.827777 33.651493,-97.440567 0.36546,-0.65854 7.48375,18.33263 15.98844,42.656237 8.43132,24.11381 16.30199,46.48 17.49037,49.70265 l 2.16067,5.85938 -34.64548,0 c -19.055027,0 -34.645493,-0.34997 -34.645493,-0.7777 z m 1233.237073,74.68971 2.3879,-1.08798 0,-43.44327 0,-43.44326 35.979,0 c 32.3237,0 36.1096,-0.1575 37.2656,-1.55033 0.863,-1.03983 1.2867,-4.11594 1.2867,-9.34153 0,-12.01647 3.1606,-11.09065 -38.9388,-11.40601 l -35.5925,-0.2666 0,-34.186507 0,-34.18652 37.9156,0 37.9156,0 1.4594,-2.08359 c 0.9983,-1.42532 1.4594,-4.25258 1.4594,-8.94887 0,-6.03904 -0.2769,-7.1422 -2.3011,-9.1664 l -2.3012,-2.30114 -45.2769,0.0529 c -48.7811,0.057 -50.097,0.17818 -53.6267,4.93733 -1.9568,2.63837 -1.9637,2.93322 -2.2382,96.093747 -0.1514,51.396 -0.038,94.7573 0.2514,96.35847 0.315,1.74119 1.3677,3.31701 2.6191,3.92092 2.8325,1.36688 18.7643,1.40253 21.7357,0.0487 z m -923.30595,-1.24309 c 24.6215,-4.71087 42.1305,-19.7349 47.79433,-41.0111 1.70221,-6.39437 1.68843,-22.28529 -0.0249,-28.72255 -2.04945,-7.70009 -5.79008,-14.59095 -11.03692,-20.33182 -6.19992,-6.78371 -11.47322,-10.33606 -19.90873,-13.41147 l -6.86318,-2.50219 6.02197,-3.62196 c 7.71718,-4.64156 12.66432,-10.47952 16.36328,-19.30982 2.54152,-6.06724 3.0145,-8.505087 3.42521,-17.654657 0.37475,-8.34818 0.12125,-11.95232 -1.18691,-16.875 -3.7011,-13.92739 -12.81926,-24.35535 -26.50274,-30.30978 -10.10501,-4.39723 -19.46589,-5.51751 -50.82503,-6.08255 -32.4825,-0.58528 -35.16653,-0.26343 -38.81671,4.65469 -1.9638,2.64595 -1.96454,2.68246 -1.96454,96.873817 l 0,94.22687 3.06167,2.73555 3.06166,2.73555 35.05899,0 c 27.13026,0 36.70619,-0.31516 42.34255,-1.39358 z m -57.74362,-56.3549 0,-35.35557 22.26562,0.56733 c 30.52535,0.77781 39.70978,3.22564 48.46531,12.91696 5.55386,6.14746 7.38533,11.20392 7.83761,21.63864 0.54367,12.5433 -1.09191,17.23374 -8.6416,24.78191 -4.03543,4.03463 -7.35657,6.36687 -11.33319,7.95867 -5.3976,2.16059 -6.69568,2.26367 -32.10937,2.54963 l -26.48438,0.29801 0,-35.35558 z m 0,-89.583587 0,-32.95708 18.98437,0.55523 c 10.44141,0.30537 21.30469,1.05522 24.14063,1.66633 9.83939,2.12026 16.41768,6.74306 20.43671,14.36159 2.34879,4.45238 2.53044,5.61395 2.50992,16.04975 -0.0187,9.467777 -0.33816,11.933627 -2.01696,15.565247 -3.81914,8.26161 -10.02399,13.50694 -19.52342,16.5043 -2.53314,0.79928 -10.36667,1.18785 -24.14062,1.19747 l -20.39063,0.0142 0,-32.957067 z m 549.375,143.781187 c 34.25086,-8.77625 54.96909,-30.43705 63.40819,-66.29287 2.51034,-10.66595 2.646,-12.36943 2.61403,-32.8125 -0.0319,-20.48856 -0.16285,-22.05277 -2.62369,-31.40625 -7.04391,-26.772807 -21.12071,-44.913637 -43.60876,-56.198667 -17.17839,-8.62053 -26.99845,-10.23478 -66.66477,-10.95856 -32.48462,-0.59274 -35.16536,-0.27175 -38.81671,4.64794 -1.9638,2.64595 -1.96454,2.68246 -1.96454,96.873817 l 0,94.22687 3.17978,2.84108 3.17978,2.84109 35.25772,-0.49971 c 35.20319,-0.49894 35.27439,-0.50399 46.03897,-3.26224 z m -60.9375,-97.14762 0,-78.363997 11.01562,0.002 c 14.86935,0.003 34.2011,1.5516 41.03892,3.28732 13.27034,3.36858 27.32486,13.30302 35.09389,24.80614 4.53324,6.71211 8.74648,17.956477 10.81582,28.865527 2.07108,10.91818 1.58267,36.91207 -0.90842,48.34807 -4.52917,20.7923 -15.11526,35.97195 -30.53628,43.78672 -11.67902,5.91846 -16.60039,6.74685 -42.84768,7.21223 l -23.67187,0.41973 0,-78.36401 z m 350.10307,98.6149 c 0.9983,-1.42532 1.4594,-4.25258 1.4594,-8.94886 0,-6.03905 -0.2769,-7.14221 -2.3011,-9.1664 l -2.3012,-2.30114 -39.8863,0 -39.8864,0 0,-36.09375 0,-36.09375 35.1232,0 c 40.5385,0 37.0643,0.96485 37.0643,-10.29348 0,-5.82828 -0.2894,-6.95616 -2.3011,-8.96788 l -2.3012,-2.30114 -33.7925,0 -33.7927,0 0,-31.406247 0,-31.40625 40.6308,0 40.6308,0 1.0879,-2.38786 c 0.5984,-1.31332 1.088,-5.34031 1.088,-8.94886 0,-5.716 -0.2963,-6.85737 -2.3011,-8.86214 l -2.3012,-2.30114 -47.6207,0.0529 c -51.2885,0.057 -52.4255,0.1573 -55.9704,4.93779 -1.9615,2.6452 -1.9628,2.70967 -1.9628,96.873827 l 0,94.22687 3.0616,2.73555 3.0617,2.73555 51.0258,0 51.0258,0 1.4594,-2.08361 z"
     id="path3538"
     inkscape:connector-curvature="0" />
</svg>
