<?xml version="1.0" encoding="UTF-8" standalone="no"?>
<!-- Created with Inkscape (http://www.inkscape.org/) -->

<svg
   xmlns:dc="http://purl.org/dc/elements/1.1/"
   xmlns:cc="http://creativecommons.org/ns#"
   xmlns:rdf="http://www.w3.org/1999/02/22-rdf-syntax-ns#"
   xmlns:svg="http://www.w3.org/2000/svg"
   xmlns="http://www.w3.org/2000/svg"
   xmlns:sodipodi="http://sodipodi.sourceforge.net/DTD/sodipodi-0.dtd"
   xmlns:inkscape="http://www.inkscape.org/namespaces/inkscape"
   id="svg3877"
   version="1.1"
   inkscape:version="0.91 r13725"
   width="1642.5"
   height="768.75"
   viewBox="0 0 1642.5 768.75"
   sodipodi:docname="visstuga.svg">
  <metadata
     id="metadata3883">
    <rdf:RDF>
      <cc:Work
         rdf:about="">
        <dc:format>image/svg+xml</dc:format>
        <dc:type
           rdf:resource="http://purl.org/dc/dcmitype/StillImage" />
        <dc:title></dc:title>
      </cc:Work>
    </rdf:RDF>
  </metadata>
  <defs
     id="defs3881" />
  <sodipodi:namedview
     pagecolor="#ffffff"
     bordercolor="#666666"
     borderopacity="1"
     objecttolerance="10"
     gridtolerance="10"
     guidetolerance="10"
     inkscape:pageopacity="0"
     inkscape:pageshadow="2"
     inkscape:window-width="2560"
     inkscape:window-height="1368"
     id="namedview3879"
     showgrid="false"
     inkscape:zoom="1.0426865"
     inkscape:cx="827.16099"
     inkscape:cy="394.64447"
     inkscape:window-x="0"
     inkscape:window-y="25"
     inkscape:window-maximized="1"
     inkscape:current-layer="svg3877" />
  <path
     style="fill:#000000"
     d="m 4.8533241e-7,386.29312 0,-384.3749976 821.24999951466759,0 821.25,0 0,384.3749976 0,384.375 -821.25,0 -821.24999951466759,0 0,-384.375 z M 1012.0312,600.817 c 7.4705,-0.92121 9.1628,-1.50655 14.7657,-5.10701 3.4804,-2.2366 6.3281,-4.49693 6.3281,-5.02296 0,-0.52602 0.8543,-0.95641 1.8984,-0.95641 5.0024,0 12.3244,-3.74512 17.7431,-9.0754 7.0559,-6.94087 14.6346,-13.4246 15.6918,-13.4246 1.026,0 3.2097,-5.63339 2.5792,-6.65351 -0.2562,-0.41456 0.3899,-2.35041 1.4358,-4.30186 1.046,-1.95146 1.9017,-4.11956 1.9017,-4.818 0,-0.69845 2.1444,-3.65782 4.7654,-6.57639 2.621,-2.91857 5.8404,-7.41587 7.1542,-9.99399 1.3139,-2.57813 2.783,-4.94046 3.2649,-5.24962 1.5785,-1.01278 3.474,-5.47754 2.5642,-6.03983 -1.6147,-0.99794 -0.8927,-4.00837 1.377,-5.74173 3.4918,-2.66662 9.2703,-18.0054 9.1269,-24.22684 -0.1,-4.33344 0.2104,-5.27798 2.2647,-6.8939 2.0354,-1.60107 2.4031,-2.68982 2.5367,-7.51144 0.1287,-4.64359 0.4977,-5.82166 2.0903,-6.67397 1.4407,-0.77105 2.4523,-3.20508 3.9666,-9.54433 1.1428,-4.7837 2.8407,-9.38147 3.8782,-10.50133 1.1803,-1.27401 2.0767,-4.01948 2.4871,-7.61701 0.3528,-3.09375 1.8666,-9.26101 3.3639,-13.70502 1.4974,-4.44401 2.7224,-8.76456 2.7224,-9.60122 0,-2.01264 5.4503,-7.16251 7.5804,-7.16251 1.4429,0 1.6774,-0.86913 1.6774,-6.21567 0,-5.39311 0.3179,-6.5475 2.4024,-8.72317 1.5106,-1.57672 2.4023,-3.57454 2.4023,-5.38204 l 0,-2.87453 -9.2768,0.11334 c -7.5865,0.0927 -9.624,0.42761 -11.1825,1.83818 -1.7462,1.58045 -3.1084,1.671 -16.2701,1.08148 -12.5239,-0.56094 -15.5303,-0.39665 -23.4648,1.28243 -9.8706,2.08882 -13.7027,3.75877 -23.6389,10.30139 -7.643,5.03263 -11.9837,9.25459 -16.4794,16.02878 -3.6577,5.5115 -8.9563,11.29981 -10.3437,11.29981 -0.4985,0 -0.9063,0.58361 -0.9063,1.29691 0,0.7133 -0.7383,1.49611 -1.6406,1.73958 -1.0268,0.27703 -2.477,2.8165 -3.8756,6.78657 l -2.235,6.34389 1.7132,12.09984 c 1.6483,11.64122 1.8259,12.18574 4.685,14.3665 1.6344,1.24667 4.0441,2.53581 5.3547,2.86476 1.3106,0.32895 3.3403,1.61708 4.5103,2.86252 1.8718,1.99252 2.9478,2.26443 8.96,2.26443 8.6325,0 14.9721,-2.29186 23.4635,-8.48237 3.5025,-2.55345 6.8594,-4.64263 7.4598,-4.64263 1.3263,0 2.5919,-2.68173 2.3169,-4.9099 -0.1295,-1.04913 0.9952,-2.1991 3.1607,-3.23175 3.218,-1.53459 6.1271,-5.58815 6.1271,-8.53771 0,-1.14113 -0.9628,-1.27812 -5.3548,-0.76195 -2.9451,0.34615 -5.5818,0.98963 -5.8594,1.42996 -0.2775,0.44035 -2.0774,1.45548 -3.9997,2.25587 -2.1562,0.89772 -4.6704,3.1289 -6.5625,5.82379 -3.9725,5.65773 -8.431,7.93169 -15.5514,7.93169 l -5.5274,0 0.9525,-4.92188 c 0.5239,-2.70703 1.499,-5.24865 2.1669,-5.64806 0.6678,-0.3994 1.9317,-3.28298 2.8084,-6.40795 1.1556,-4.11832 2.3506,-6.24024 4.3428,-7.71131 2.9184,-2.15503 7.2721,-10.2666 7.2721,-13.54905 0,-1.07997 0.4219,-2.22433 0.9375,-2.543 0.5156,-0.31867 0.9375,-1.53027 0.9375,-2.69243 0,-2.13888 3.119,-5.54985 7.62,-8.33351 1.5863,-0.981 2.6831,-2.69251 3.0794,-4.80525 0.7508,-4.00169 5.4697,-7.96769 12.3918,-10.41464 4.272,-1.51015 5.1713,-1.55303 8.0426,-0.38347 1.7781,0.72423 4.573,2.85169 6.2109,4.72768 l 2.9781,3.41087 -2.3376,4.08913 c -1.4045,2.45692 -2.3443,5.58595 -2.3543,7.83912 -0.01,2.0625 -0.4883,6.28125 -1.0646,9.375 -0.5764,3.09375 -0.9995,6.95324 -0.9401,8.57665 0.059,1.62341 -0.5215,4.45752 -1.2905,6.29802 -0.769,1.8405 -1.3982,4.65567 -1.3982,6.25593 0,1.60027 -0.5748,3.48433 -1.2772,4.18682 -0.7025,0.70248 -1.5474,3.31342 -1.8775,5.80209 -0.4579,3.45153 -1.5779,5.71665 -4.7218,9.54927 -2.2669,2.76344 -4.349,6.16185 -4.627,7.55202 -0.6663,3.33143 -5.3155,10.37295 -6.8487,10.37295 -1.5761,0 -2.58,1.97582 -6.0553,11.9168 -1.5842,4.53169 -3.854,9.92695 -5.0441,11.98945 -1.19,2.0625 -2.6263,5.46907 -3.1917,7.57014 -0.5654,2.10107 -2.4783,5.68701 -4.2508,7.96875 -1.7726,2.28174 -7.7966,12.78378 -13.3871,23.33789 -9.265,17.49172 -10.432,19.26607 -13.1915,20.05749 -1.665,0.47752 -3.0273,1.22906 -3.0273,1.6701 0,0.44104 -0.5287,0.80188 -1.1749,0.80188 -0.6462,0 -3.2517,1.47656 -5.79,3.28125 -2.5383,1.80469 -5.1045,3.28125 -5.7025,3.28125 -0.598,0 -3.1176,1.58203 -5.5988,3.51562 l -4.5116,3.51563 -12.28292,0.16671 c -11.01919,0.14956 -12.95822,-0.0767 -18.84553,-2.19895 -3.60937,-1.30112 -8.59219,-2.40631 -11.07281,-2.45599 -3.32757,-0.0667 -5.12269,-0.6578 -6.84525,-2.25418 -1.2841,-1.19012 -2.73497,-2.16384 -3.22397,-2.16384 -0.48909,0 -0.88922,-1.11121 -0.88922,-2.46936 0,-1.35814 -0.46237,-4.01254 -1.02741,-5.89865 -0.86756,-2.8955 -0.74653,-3.93396 0.77738,-6.67127 1.61325,-2.89776 2.47181,-3.38194 8.08584,-4.56024 l 6.28097,-1.31825 5.88835,2.95888 c 8.47903,4.26073 14.68237,3.70207 14.68237,-1.32227 0,-1.2871 0.63281,-2.58302 1.40625,-2.87981 1.59647,-0.61261 1.938,-4.08903 0.40181,-4.08903 -1.27809,0 -3.68306,-2.37722 -3.68306,-3.64056 0,-0.91742 -3.95634,-1.8333 -7.96875,-1.84474 -1.03125,-0.003 -4.50422,-0.30443 -7.71759,-0.66997 -3.80166,-0.43245 -6.27413,-0.30652 -7.07785,0.36046 -0.67931,0.56379 -3.11259,1.32053 -5.40731,1.68165 -7.05469,1.11019 -7.605,1.71444 -16.12594,17.70691 -4.50348,8.45237 -4.22306,13.78627 0.89541,17.031 1.44141,0.91378 4.33772,3.46734 6.43631,5.67458 3.5146,3.69666 4.19044,4.01317 8.5695,4.01317 2.73403,0 6.49041,0.78794 8.84072,1.85441 2.24775,1.01993 6.02531,1.86368 8.39456,1.875 3.18825,0.0153 4.77197,0.538 6.09375,2.01133 1.69144,1.88538 2.3566,1.95821 12.56719,1.37593 5.92969,-0.33816 14.5781,-1.08304 19.2187,-1.65529 z M 182.4936,500.88505 c 0.59804,-0.38052 1.61616,-3.25207 2.26247,-6.38121 0.992,-4.80278 1.66257,-6.00888 4.30327,-7.73989 1.81167,-1.18758 3.12816,-2.83604 3.12816,-3.91695 0,-1.02651 0.43511,-1.86638 0.96692,-1.86638 0.53181,0 1.23498,-0.73828 1.56259,-1.64063 0.32761,-0.90234 1.8964,-3.16367 3.48619,-5.02519 8.0732,-9.45301 10.59561,-12.9129 12.22725,-16.77168 2.66905,-6.31222 6.54715,-10.00016 11.85467,-11.27342 4.34941,-1.04341 4.87111,-1.54233 12.30034,-11.76313 4.26706,-5.87044 8.43537,-10.6825 9.26292,-10.69348 1.75139,-0.0233 9.83111,-8.35494 12.77974,-13.17828 1.11445,-1.82301 5.23856,-6.20094 9.16469,-9.72877 4.05872,-3.64695 8.34235,-8.54745 9.929,-11.35883 1.89019,-3.34924 3.5696,-5.14014 5.20506,-5.55062 2.08429,-0.52312 2.33988,-0.97908 1.8689,-3.33399 -0.76099,-3.80493 1.66024,-9.04001 4.97339,-10.75331 1.5195,-0.78577 4.6578,-1.42867 6.97401,-1.42867 3.96961,0 4.46992,-0.30644 8.71843,-5.33993 2.47893,-2.93695 9.36209,-10.63617 15.29589,-17.10937 5.93381,-6.47319 13.05998,-14.3007 15.83593,-17.39445 5.83134,-6.49892 17.70056,-15.91598 21.15238,-16.78234 1.59418,-0.4001 3.09747,-2.03788 4.61739,-5.03045 2.64538,-5.20853 19.72054,-22.53447 24.23749,-24.59346 1.69674,-0.77344 3.99717,-2.32506 5.11207,-3.44805 2.44306,-2.46078 8.38498,-3.59598 18.5685,-3.54749 6.35167,0.0303 8.30708,0.44571 12.77123,2.71352 l 5.27122,2.67781 0.58815,5.62713 c 0.32348,3.09492 0.58815,9.12695 0.58815,13.40451 0,7.50376 -0.18977,8.18421 -5.39388,19.34102 -7.36218,15.78337 -9.6166,18.03482 -26.14156,26.10715 -7.56426,3.6951 -14.53389,6.4994 -16.1532,6.4994 -2.49272,0 -2.97009,-0.43882 -3.82457,-3.51563 -0.53698,-1.93359 -0.97869,-6.10068 -0.98156,-9.26021 -0.004,-3.97115 -0.44169,-6.10681 -1.41905,-6.91794 -1.92625,-1.59865 -8.05774,-0.77974 -14.99243,2.00237 -5.47407,2.19612 -5.61841,2.34426 -5.37943,5.52092 0.13505,1.79533 0.34599,6.11135 0.46875,9.59116 0.12275,3.47981 0.48352,6.32746 0.80172,6.32812 0.31821,6.7e-4 1.69528,1.68871 3.06018,3.75121 l 2.48164,3.75 9.47224,0 c 9.05696,0 9.84185,-0.16642 17.90213,-3.79577 4.63642,-2.08767 11.02027,-4.45505 14.18631,-5.26084 3.16605,-0.80579 6.06693,-2.00276 6.44639,-2.65993 0.37947,-0.65716 2.132,-1.46538 3.89452,-1.79602 1.76252,-0.33065 4.80401,-2.06622 6.75889,-3.85681 1.95487,-1.7906 3.9385,-3.25563 4.40807,-3.25563 0.46955,0 1.66374,-1.02975 2.65375,-2.28833 0.99,-1.25859 2.63274,-2.55265 3.65055,-2.87568 1.0178,-0.32304 1.85054,-1.23629 1.85054,-2.02946 0,-0.79316 1.05469,-2.69553 2.34375,-4.2275 1.28906,-1.53196 2.34375,-3.75605 2.34375,-4.94242 0,-1.18637 0.62978,-2.6797 1.39952,-3.31852 0.76974,-0.63883 1.83661,-2.90533 2.37083,-5.03667 0.53422,-2.13135 1.57625,-4.96839 2.31562,-6.30455 0.73937,-1.33615 1.6167,-4.28928 1.94963,-6.5625 0.84108,-5.74281 5.56433,-13.40901 9.38355,-15.23027 3.63658,-1.73417 5.33026,-4.34036 4.09229,-6.29711 -0.47175,-0.74566 -0.86419,-2.98366 -0.87209,-4.97335 -0.012,-3.01933 -0.90586,-4.68666 -5.40498,-10.08178 -7.02511,-8.42418 -8.6878,-8.95391 -23.90201,-7.61528 -28.03211,2.46643 -46.93015,9.40846 -58.55322,21.50899 -1.13554,1.18219 -2.49485,2.14943 -3.02069,2.14943 -0.52583,0 -1.64484,2.42578 -2.48667,5.39062 -1.53732,5.41434 -4.1799,8.61225 -7.14874,8.65103 -2.34559,0.0306 -13.87304,8.36335 -13.87304,10.02824 0,1.69588 -11.06304,13.36352 -15.57989,16.43133 -1.74511,1.18526 -3.40548,2.87381 -3.68969,3.75232 -0.69702,2.15447 -11.334,13.08124 -15.41792,15.83796 -1.80469,1.2182 -7.71094,6.0236 -13.125,10.67867 -5.41406,4.65506 -11.95313,10.00329 -14.53125,11.88495 -6.35282,4.63663 -14.63073,13.46249 -16.48027,17.57115 -1.24713,2.77046 -12.37203,16.0743 -18.10304,21.64873 -0.79516,0.77344 -6.2064,6.10566 -12.02496,11.84938 -5.81858,5.74373 -12.14424,11.22852 -14.05702,12.18845 -1.91278,0.95992 -4.59027,3.22145 -5.94998,5.02562 l -2.47222,3.2803 0.66905,-3.28125 c 0.36798,-1.80469 2.90944,-6.91873 5.64769,-11.36453 2.73825,-4.44581 7.33304,-12.77784 10.21065,-18.51563 2.87761,-5.73779 5.57825,-10.43234 6.00143,-10.43234 0.42318,0 1.75404,-2.10221 2.95747,-4.67158 1.72454,-3.68198 2.17787,-6.21407 2.14,-11.95313 -0.0356,-5.39939 0.36722,-7.88736 1.55852,-9.62529 0.88361,-1.28906 2.16722,-3.82031 2.85247,-5.625 0.68525,-1.80469 1.71328,-3.70313 2.28449,-4.21875 3.22534,-2.91143 4.6592,-16.27793 2.30131,-21.45293 -0.921,-2.02138 -0.55605,-3.23729 2.81547,-9.38036 3.35097,-6.10564 3.99596,-8.23776 4.78035,-15.8021 0.49869,-4.80929 1.98655,-12.47045 3.30635,-17.02481 2.18992,-7.55692 3.01525,-9.00043 9.4434,-16.51652 8.10646,-9.47843 8.03495,-8.76958 2.12083,-21.02369 -1.97765,-4.09772 -3.59574,-8.8057 -3.59574,-10.46217 l 0,-3.01176 6.79687,-1.10595 c 3.73829,-0.60828 10.80469,-2.15128 15.70313,-3.42888 11.63339,-3.03422 23.38976,-4.93494 30.77972,-4.97633 5.37629,-0.0301 6.30442,0.26617 9.84375,3.14234 l 3.90778,3.17561 11.55984,-0.0159 c 11.24264,-0.0155 11.58762,-0.0768 12.57161,-2.23642 0.8205,-1.80081 0.52803,-3.42214 -1.54719,-8.57708 -3.46503,-8.60732 -6.1734,-10.42228 -16.60252,-11.12584 -7.05276,-0.4758 -8.7746,-0.23328 -16.82642,2.37001 -5.03383,1.62751 -12.88584,3.30612 -17.89448,3.82549 -13.28725,1.37782 -17.79662,2.57988 -28.29043,7.54139 -14.05156,6.64364 -14.90011,6.71165 -20.18326,1.61761 -4.65473,-4.48811 -8.68887,-6.30041 -14.09892,-6.33382 -1.89847,-0.0118 -4.40138,-0.82316 -5.71948,-1.85419 -1.28906,-1.00832 -3.73263,-1.84268 -5.43015,-1.85415 -4.67473,-0.0316 -17.22294,-2.81886 -19.956,-4.43274 -2.18777,-1.29189 -2.71322,-1.27452 -5.53153,0.18289 -2.58541,1.33696 -4.32379,1.48386 -10.23885,0.8652 -3.9186,-0.40985 -11.55441,-0.63357 -16.96847,-0.49714 -7.93527,0.19994 -11.08782,-0.1414 -16.26054,-1.76057 -5.61243,-1.75682 -6.61134,-1.83977 -7.96875,-0.66175 -0.86009,0.74644 -4.62996,1.61869 -8.45639,1.9566 -10.27934,0.90778 -18.40444,3.25047 -26.84311,7.73959 -10.57027,5.62306 -12.78759,8.16739 -13.53718,15.53364 -0.51413,5.05235 -0.27893,6.56871 1.64177,10.58468 2.01058,4.20391 2.88369,4.97766 8.46306,7.5 5.91175,2.67261 6.8979,2.82091 19.82555,2.98154 7.48238,0.093 15.87677,0.62033 18.65417,1.17188 7.6411,1.51742 22.95152,1.27551 27.02625,-0.42702 2.56407,-1.07133 5.11975,-1.27602 10.19263,-0.81633 7.51023,0.68056 12.81017,0.002 14.69316,-1.88087 2.0241,-2.0241 28.81938,-7.95108 28.81938,-6.37469 0,0.45826 -0.84375,3.28561 -1.875,6.28299 -1.90721,5.54341 -2.5676,15.46875 -1.02922,15.46875 0.75017,0 2.90422,4.86232 2.90422,6.55567 0,0.35799 -2.06603,2.06072 -4.59117,3.78387 -3.44606,2.35158 -4.86524,4.04778 -5.69005,6.80074 -0.60438,2.01727 -2.86258,5.58211 -5.01821,7.92187 l -3.91932,4.2541 0.0811,7.30803 c 0.0803,7.22826 0.0495,7.32549 -2.8125,8.90647 -5.23333,2.89089 -9.65986,9.12486 -10.40832,14.65826 -0.36953,2.73198 -1.68509,7.67421 -2.92346,10.98274 -2.2375,5.97789 -2.24011,6.0277 -0.41699,7.96875 2.64108,2.81191 3.92517,9.47354 2.81545,14.60602 -1.29252,5.97796 -4.56037,13.84382 -5.97724,14.38753 -0.80325,0.30823 -1.41802,3.6588 -1.86188,10.14744 -0.48372,7.07142 -1.25442,10.99698 -2.85414,14.53753 -1.20532,2.66766 -2.02408,5.01769 -1.81946,5.22231 0.20462,0.20461 0.42071,4.77199 0.4802,10.14973 0.1006,9.09485 -0.13383,10.4324 -3.35694,19.15269 -1.90581,5.15625 -3.7763,10.85156 -4.15664,12.65625 -1.61534,7.66456 -5.08156,11.45908 -11.49344,12.58199 -1.89984,0.33272 -6.22406,1.86084 -9.60937,3.39581 -5.23196,2.37228 -6.15513,3.14773 -6.15513,5.17025 0,2.46765 2.70625,5.41388 8.20313,8.9306 3.5997,2.30296 3.98605,5.40086 1.23602,9.91088 -0.9921,1.62706 -1.55303,3.20909 -1.2465,3.51563 0.80493,0.80492 18.32097,0.65915 19.61345,-0.16323 z M 131.20249,253.34462 c -1.26294,-0.98646 -3.13999,-2.06209 -4.17124,-2.39028 -1.03125,-0.32819 -2.86817,-2.33914 -4.08205,-4.46879 l -2.20705,-3.87208 3.23028,-3.23027 c 3.83735,-3.83735 19.76042,-10.59327 24.94518,-10.58386 1.88437,0.004 8.27391,0.84084 14.19896,1.86093 8.22002,1.41522 15.42968,1.87616 30.42476,1.94516 17.40825,0.0801 20.61924,0.34167 28.12435,2.29099 9.08734,2.36028 12.70932,5.01947 12.70932,9.33096 0,1.97692 -0.50851,2.25168 -4.92188,2.65928 -2.70703,0.25002 -7.875,1.52894 -11.48437,2.84206 -10.78421,3.9234 -17.02362,4.5253 -51.61001,4.9787 -31.29774,0.41029 -32.96919,0.3455 -35.15625,-1.3628 z m 645.81378,245.83559 c 1.47402,-0.76847 3.72191,-1.08692 5.43094,-0.76936 2.06793,0.38425 3.06859,0.14408 3.44078,-0.82583 0.28864,-0.7522 2.12595,-1.66802 4.08289,-2.03514 5.27926,-0.9904 8.42507,-2.90791 14.56282,-8.87669 3.65809,-3.55739 5.86256,-6.58034 6.51083,-8.92817 1.20145,-4.35129 4.69924,-9.26874 9.9711,-14.01809 2.49465,-2.24742 3.98437,-4.3966 3.98437,-5.74817 0,-1.18728 0.71849,-3.41059 1.59665,-4.94068 1.51204,-2.63459 1.50569,-2.9837 -0.11987,-6.58856 -1.18567,-2.62934 -2.59251,-4.11192 -4.54904,-4.79398 -4.51651,-1.57445 -6.0062,-1.19982 -9.48903,2.38633 -2.70338,2.78358 -3.09503,3.66442 -2.23891,5.0353 0.81098,1.29857 0.63976,2.25113 -0.78378,4.36061 -3.16093,4.68406 -5.04102,9.67134 -5.04102,13.37225 0,4.81338 -1.64396,9.4271 -4.43092,12.43519 -2.6799,2.89256 -12.60775,6.79485 -15.19648,5.97323 -0.97752,-0.31026 -2.04935,-0.12392 -2.38185,0.41407 -0.414,0.66987 -1.16765,0.6768 -2.39113,0.022 -0.98262,-0.52588 -3.4078,-0.6969 -5.38928,-0.38006 l -3.60269,0.5761 -0.99129,-4.33193 c -0.54861,-2.39746 -0.62847,-4.55615 -0.17883,-4.83405 1.56025,-0.9643 0.79693,-3.20399 -1.09195,-3.20399 -3.00195,0 -3.21398,-2.53787 -0.54854,-6.56562 1.34913,-2.03867 2.45296,-4.28315 2.45296,-4.98773 0,-0.70458 0.82374,-2.02653 1.83054,-2.93767 1.28144,-1.15968 1.68011,-2.40885 1.32902,-4.1643 -0.39988,-1.99938 -0.0207,-2.765 1.87058,-3.77719 1.30466,-0.69823 3.0235,-2.89749 3.81964,-4.88725 0.79615,-1.98976 1.82588,-3.61774 2.28829,-3.61774 0.46242,0 1.10981,-1.43417 1.43865,-3.18705 0.32885,-1.75287 1.20164,-3.68811 1.93955,-4.30052 0.85623,-0.71061 1.15264,-2.05854 0.81922,-3.72558 -0.39027,-1.95137 -0.0388,-2.9508 1.38925,-3.95108 1.61237,-1.12935 1.79218,-1.86874 1.14849,-4.72276 -0.5579,-2.47366 -0.41009,-3.73686 0.54954,-4.6965 0.722,-0.722 1.75326,-4.02904 2.2917,-7.34899 1.33228,-8.21483 4.48763,-17.83519 6.57498,-20.04648 1.6634,-1.76216 6.1369,-2.78206 17.24751,-3.93222 2.7336,-0.28298 7.35737,0.13202 11.0738,0.99392 11.78421,2.73294 13.76424,2.08395 13.76424,-4.51148 0,-6.02825 -1.3104,-6.65233 -14.22212,-6.77333 -6.35752,-0.0595 -14.54249,-0.41123 -18.18883,-0.78148 l -6.62969,-0.67317 2.17657,-4.29927 c 1.19712,-2.3646 2.17657,-5.11629 2.17657,-6.11486 0,-0.99857 1.26562,-3.41357 2.8125,-5.36665 1.54687,-1.95308 2.8125,-4.57097 2.8125,-5.81751 0,-1.24654 0.84375,-3.17209 1.875,-4.27902 2.35395,-2.52666 2.77183,-11.07322 0.49878,-10.20096 -0.75693,0.29045 -1.62558,0.12466 -1.93033,-0.36845 -1.18103,-1.91094 -3.17472,-0.73751 -4.81936,2.83654 -0.94482,2.05321 -2.48029,3.98774 -3.41217,4.29897 -0.93188,0.31123 -2.10096,1.63541 -2.59797,2.94262 -0.76878,2.02206 -1.32039,2.2934 -3.69629,1.81822 -2.35054,-0.47011 -2.79266,-0.263 -2.79266,1.3082 0,1.21036 -1.15373,2.4169 -3.28125,3.43144 -1.96699,0.938 -3.28125,2.2451 -3.28125,3.26338 0,2.00684 -6.24486,9.20407 -7.98613,9.20407 -0.66299,0 -1.6181,1.18372 -2.12244,2.63048 -1.02096,2.92875 -4.78403,4.45128 -14.73518,5.96188 -10.57015,1.60455 -11.86321,1.94324 -12.35981,3.23736 -0.27338,0.71241 -1.11458,1.29528 -1.86934,1.29528 -0.75475,0 -3.83279,1.36302 -6.84007,3.02894 -4.21861,2.33694 -5.68269,3.72914 -6.40841,6.09375 l -0.94062,3.06481 3.54438,0 c 1.94941,0 5.39039,-0.6517 7.64662,-1.44823 2.25624,-0.79653 5.05434,-1.20965 6.21801,-0.91804 1.31265,0.32894 3.80082,-0.36683 6.55504,-1.83302 4.3502,-2.31579 9.05339,-3.08551 9.95357,-1.62898 0.24959,0.40383 0.0185,2.77543 -0.51365,5.27023 -0.67227,3.15206 -1.50672,4.67703 -2.73501,4.99823 -1.12746,0.29484 -2.13072,1.86619 -2.77039,4.33914 -0.55156,2.13231 -1.85222,6.97028 -2.89036,10.75104 -1.03814,3.78076 -1.63979,7.51974 -1.33698,8.30882 0.3028,0.78909 -0.24183,2.75823 -1.21029,4.37588 -0.96845,1.61765 -2.26922,5.68337 -2.8906,9.03493 -0.62137,3.35156 -2.15432,7.66673 -3.40656,9.58928 -1.25222,1.92254 -2.27678,4.84793 -2.27678,6.50088 0,1.65295 -0.7952,4.72059 -1.76711,6.81698 -2.4194,5.21858 -6.67039,18.58171 -6.67039,20.96859 0,1.07311 0.42187,2.21185 0.9375,2.53052 0.51562,0.31867 0.945,2.34748 0.95418,4.50846 0.0162,3.8191 0.21151,4.06503 6.97953,8.78905 6.27479,4.37975 7.61647,4.92442 13.57707,5.51176 3.63782,0.35846 6.61422,1.05263 6.61422,1.54261 0,1.0945 4.82107,0.11263 8.26627,-1.68354 z m 464.35533,-1.81892 c 6.2524,-1.31522 7.1927,-1.83661 11.5457,-6.40182 2.6064,-2.73348 5.8418,-5.79623 7.1898,-6.80611 3.3111,-2.48062 5.8073,-7.51691 5.1076,-10.30496 -0.3096,-1.23353 -0.9936,-2.24278 -1.5199,-2.24278 -1.4544,0 -8.4748,3.73409 -11.8464,6.30097 -1.7101,1.30201 -3.9225,2.14901 -5.1562,1.97412 -2.5518,-0.36175 -2.6203,-2.29088 -0.3598,-10.12002 0.814,-2.8194 1.4801,-7.53287 1.4801,-10.47439 0,-5.33622 0.012,-5.35826 5.2577,-9.83999 2.8917,-2.47049 4.7968,-4.64545 4.2335,-4.83323 -0.5742,-0.19136 0.1955,-1.8594 1.751,-3.79504 2.9631,-3.68712 6.9482,-14.2158 6.7224,-17.76046 -0.075,-1.178 0.4928,-2.38329 1.2619,-2.67843 0.7692,-0.29516 1.4079,-1.22978 1.4193,-2.07696 0.011,-0.84717 0.8459,-2.59501 1.8542,-3.88407 1.0083,-1.28906 1.8427,-3.26807 1.8542,-4.39779 0.011,-1.12973 0.4427,-2.31479 0.9583,-2.63346 0.5156,-0.31868 0.944,-1.71467 0.9518,-3.10221 0.022,-3.8606 0.9623,-4.58072 6.5748,-5.0353 7.8817,-0.63838 12.331,-5.45585 9.3686,-10.14374 -1.1987,-1.89683 -8.4305,-2.03125 -10.5576,-0.19626 -0.8971,0.77395 -3.7711,1.6128 -6.3867,1.86413 -4.114,0.3953 -4.9489,0.18107 -6.1878,-1.58773 -1.2257,-1.75 -2.0041,-1.9589 -5.401,-1.4495 -2.6884,0.40313 -5.1179,0.11509 -7.53,-0.89273 -4.8835,-2.04044 -6.8191,-1.87585 -10.0656,0.85584 -2.98,2.50758 -7.8925,3.11161 -11.1458,1.37049 -1.0002,-0.53529 -4.453,-1.20143 -7.6727,-1.48031 -8.5217,-0.7381 -14.6305,1.69645 -21.7918,8.68486 -4.3654,4.26005 -7.0133,5.97426 -11.8251,7.65544 -7.6766,2.68209 -11.2811,6.30843 -13.5175,13.59965 -1.7304,5.64106 -5.7929,12.06897 -9.4461,14.94623 -1.1532,0.90825 -3.4075,4.34185 -5.0095,7.63023 -2.5334,5.20028 -2.7676,6.29729 -1.7986,8.424 0.869,1.90739 0.8523,3.322 -0.076,6.43227 -0.6547,2.19292 -1.6711,4.28811 -2.2586,4.65595 -2.0695,1.29565 -1.284,13.78369 1.2755,20.27868 2.6468,6.71669 4.3985,8.2719 13.125,11.65307 11.8204,4.57991 20.2954,4.059 25.0719,-1.54103 1.1567,-1.35617 3.0551,-2.46601 4.2188,-2.46631 1.4215,-3.4e-4 3.9203,-2.01872 7.6172,-6.15279 l 5.5018,-6.15228 2.2326,2.09747 c 1.8459,1.73412 2.2327,3.02402 2.2327,7.44611 0,5.18735 0.1249,5.45101 4.1421,8.74284 2.3852,1.95449 5.1688,3.39418 6.5625,3.39418 1.3312,0 2.4204,0.42187 2.4204,0.9375 0,1.17418 -0.4485,1.20327 7.6216,-0.49433 z m -55.4341,-14.23327 c -0.7734,-0.28438 -2.1445,-1.16021 -3.0469,-1.94629 -1.976,-1.72145 -2.2311,-6.76361 -0.3422,-6.76361 1.754,0 4.3266,-4.09299 4.3266,-6.88347 0,-1.24407 0.6328,-2.78713 1.4063,-3.42903 0.7734,-0.6419 1.4062,-2.32416 1.4062,-3.73837 0,-1.4142 0.8438,-3.64393 1.875,-4.95495 1.0313,-1.31101 1.875,-3.52185 1.875,-4.91296 0,-1.39112 1.0547,-3.78272 2.3438,-5.31469 1.289,-1.53196 2.3437,-3.51239 2.3437,-4.40096 0,-0.88857 0.392,-2.01635 0.8711,-2.50619 0.9712,-0.99302 8.7186,-19.63356 11.4564,-27.56467 0.9705,-2.81134 2.7071,-6.13671 3.8591,-7.38969 2.8397,-3.08852 10.7364,-6.69204 14.7509,-6.73128 1.8047,-0.0176 5.1282,-0.4579 7.3856,-0.97835 3.28,-0.75619 4.9319,-0.63028 8.2235,0.62679 3.4957,1.33504 4.0263,1.87176 3.5061,3.54731 -0.3372,1.08585 -0.9904,2.11864 -1.4517,2.29512 -1.5766,0.60316 -4.4362,7.36762 -3.9312,9.29897 0.3529,1.3495 0.01,2.0239 -1.1527,2.2478 -1.1101,0.21432 -2.0458,1.86671 -2.8355,5.00737 -1.9622,7.80426 -5.1077,15.82483 -7.0095,17.87292 -0.9884,1.06449 -1.7971,2.25707 -1.7971,2.65018 0,1.29359 -11.4819,21.34824 -13.4972,23.57447 -1.0844,1.19789 -3.4481,4.08038 -5.2528,6.40552 -1.8047,2.32514 -4.7445,4.99126 -6.5329,5.92472 -1.7883,0.93346 -5.7561,3.27922 -8.8173,5.21282 -5.4333,3.43214 -7.0907,3.90637 -9.9623,2.85052 z m -745.7947,13.59566 c 2.32771,-0.62257 4.2322,-1.4328 4.2322,-1.80051 0,-0.36772 1.35442,-0.96605 3.00983,-1.32964 4.12472,-0.90594 7.99259,-3.94836 10.34836,-8.13989 1.43924,-2.56078 2.7778,-3.66367 4.93849,-4.06902 3.57929,-0.67148 12.31368,-8.61791 13.15443,-11.96773 0.85382,-3.40185 0.18228,-5.7106 -1.7704,-6.08665 -3.37951,-0.65084 -6.46669,0.93012 -10.61936,5.43822 -4.61398,5.00891 -16.11576,11.58899 -22.25442,12.7316 l -3.66181,0.68158 0.5473,-4.58489 c 0.83538,-6.99835 6.89955,-24.79133 8.93531,-26.21723 0.97209,-0.68088 2.53281,-3.26402 3.46826,-5.74031 0.93545,-2.47629 2.09055,-4.75958 2.56689,-5.07399 0.47635,-0.31442 1.10248,-3.17873 1.39141,-6.36515 0.40061,-4.41786 1.00632,-6.17425 2.55099,-7.3971 1.1141,-0.88198 2.30882,-2.34821 2.65491,-3.2583 0.34609,-0.91008 1.63344,-2.03648 2.86077,-2.5031 1.22732,-0.46663 3.55845,-2.65279 5.18027,-4.85813 2.6091,-3.54782 2.94877,-4.72784 2.94877,-10.24406 0,-4.93472 -0.39972,-6.69524 -1.91742,-8.44518 -1.05459,-1.21594 -2.77693,-3.60151 -3.82744,-5.30127 -2.4074,-3.89525 -4.62897,-4.43435 -15.24008,-3.69823 -8.35381,0.57951 -17.42579,2.84452 -23.05748,5.75678 -1.54609,0.79952 -6.08544,2.12745 -10.08745,2.95097 -6.92864,1.42574 -11.87246,3.43217 -15.47951,6.28228 -1.90013,1.50139 -2.2289,7.15761 -0.51562,8.87089 2.21648,2.21648 10.48994,0.69977 14.34375,-2.62955 1.03125,-0.89089 3.97163,-2.40174 6.53419,-3.35745 2.56255,-0.95569 5.42705,-2.50549 6.36556,-3.444 1.92119,-1.92119 5.59788,-3.5065 8.13237,-3.5065 1.21806,0 1.84584,0.95231 2.2436,3.40344 0.6085,3.7497 -1.25441,8.40093 -4.19657,10.47784 -0.95447,0.67377 -1.7354,1.88262 -1.7354,2.68634 0,0.80372 -1.6932,6.75761 -3.76267,13.23088 -3.85308,12.05244 -15.45102,34.8933 -20.46488,40.30334 -2.97902,3.21442 -3.80005,9.92918 -1.7086,13.97362 3.78434,7.31809 10.57673,11.48107 18.9049,11.5866 2.0625,0.0262 5.01562,0.62703 6.5625,1.33534 3.59904,1.64797 3.43684,1.64204 8.42405,0.30816 z m 521.13876,-2.9743 c 1.79025,-0.74801 3.68831,-2.16969 4.21791,-3.15926 0.52959,-0.98958 2.46262,-2.81826 4.29562,-4.06374 1.833,-1.24549 3.59382,-3.07333 3.91304,-4.06189 0.81159,-2.51405 11.46421,-13.10004 15.00759,-14.91374 4.83647,-2.47557 8.78569,-6.28376 8.76347,-8.45034 -0.0113,-1.11432 -0.79997,-3.03942 -1.75228,-4.27801 -2.86425,-3.72549 -7.67794,-2.2918 -14.29697,4.25813 -2.97235,2.94138 -5.52966,6.22076 -5.68275,7.28751 -0.21956,1.52949 -1.19128,2.06945 -4.59628,2.554 -2.89913,0.41256 -5.82338,1.76364 -8.89997,4.11205 l -4.58213,3.4976 -0.71737,-4.10367 c -0.5565,-3.18306 -0.26138,-5.36553 1.3155,-9.72865 1.11806,-3.09375 2.54625,-6.25781 3.17372,-7.03125 2.27887,-2.80907 5.12184,-10.63455 5.12184,-14.09825 0,-3.67429 3.47709,-14.02675 4.71112,-14.02675 0.3856,0 0.99366,-1.95141 1.35132,-4.33646 0.38972,-2.59884 1.50815,-5.19433 2.79122,-6.4774 5.50715,-5.50723 9.26437,-16.91832 7.66659,-23.28451 -0.47147,-1.87828 -1.665,-2.70946 -5.73131,-3.99127 -5.09522,-1.60611 -5.17519,-1.60096 -10.07185,0.64737 -5.7015,2.61788 -6.30825,3.25806 -6.32775,6.67647 -0.009,1.38351 -2.06372,6.50435 -4.56853,11.37965 -2.50481,4.8753 -5.73684,12.18084 -7.18237,16.23454 -1.44553,4.0537 -3.35907,8.00317 -4.25222,8.77661 -0.89325,0.77344 -1.8915,2.30231 -2.21831,3.39751 -0.61969,2.07653 -9.27225,9.33127 -14.13666,11.85292 -1.55112,0.80408 -3.85487,3.3874 -5.13667,5.76002 -1.2783,2.36613 -2.61401,4.30205 -2.96826,4.30205 -0.35425,0 -2.45378,1.6875 -4.66561,3.75 -2.21183,2.0625 -4.47136,3.75 -5.02119,3.75 -0.54981,0 -4.56698,3.58594 -8.92702,7.96875 -6.71374,6.7488 -8.39517,7.96875 -10.98317,7.96875 -2.57514,0 -3.45112,-0.62622 -5.56904,-3.98122 -4.48776,-7.10906 -6.92712,-13.52379 -7.50791,-19.7433 -0.47337,-5.06926 -0.23346,-6.7892 1.42494,-10.21498 1.09678,-2.26565 2.26427,-6.20847 2.5944,-8.76182 0.36438,-2.81812 1.56484,-5.92607 3.05489,-7.90899 4.78905,-6.37311 8.49815,-13.61721 8.5278,-16.65531 0.0113,-1.16016 0.3784,-2.10938 0.81571,-2.10938 0.43731,0 1.53485,-1.64043 2.43896,-3.6454 1.38614,-3.07391 2.19941,-3.73424 5.18755,-4.21207 4.16487,-0.66599 4.55633,-1.6374 3.82281,-9.48628 -0.52456,-5.61283 -0.53413,-5.62792 -4.42792,-6.97404 -3.2695,-1.1303 -4.50166,-1.15122 -7.59907,-0.12898 -2.77068,0.91441 -4.18503,0.9588 -5.64551,0.17717 -3.28173,-1.75633 -4.5396,-1.19672 -6.07054,2.70067 -0.99168,2.52458 -2.32918,4.07003 -4.1075,4.74615 -1.45034,0.55142 -2.91891,1.45874 -3.26348,2.01626 -1.06339,1.7206 -7.52663,3.71515 -14.62652,4.51373 -8.97443,1.00942 -11.99678,3.12257 -12.87884,9.00452 -0.47845,3.19055 -0.3186,4.57635 0.59467,5.15528 2.23277,1.41539 7.94955,0.88174 10.29186,-0.96073 2.12262,-1.66965 4.38717,-2.32932 7.12903,-2.07673 1.82464,0.16808 1.39446,8.43314 -0.67638,12.99526 -0.9939,2.18957 -3.01073,5.77551 -4.48184,7.96875 -8.11972,12.10542 -10.1633,24.01541 -6.52603,38.03373 1.93791,7.4689 2.72734,9.1096 5.45171,11.33058 12.51814,10.20513 28.37938,13.18696 38.52334,7.2422 2.31114,-1.35442 5.31712,-2.46257 6.67996,-2.46257 1.92432,0 2.61968,-0.57597 3.11251,-2.57812 0.64881,-2.63578 7.01294,-10.75091 12.05736,-15.37475 1.54687,-1.41791 4.86475,-3.43965 7.37305,-4.49276 l 4.56057,-1.91475 -0.59944,2.10207 c -5.26504,18.46313 -4.85087,21.9002 3.04864,25.29979 2.91758,1.25558 6.35937,2.77334 7.64843,3.37278 3.01378,1.40147 15.66769,0.67786 20.03156,-1.1455 z m -419.10475,-0.95266 c 2.15432,-1.23552 4.97163,-2.56157 6.26069,-2.94678 1.28906,-0.38521 4.03125,-2.06075 6.09375,-3.72342 5.16059,-4.16018 7.99042,-5.52101 11.02481,-5.30171 3.26308,0.23583 6.9389,-2.13575 8.7557,-5.64905 0.77188,-1.49266 2.41004,-3.17257 3.64035,-3.73314 1.56564,-0.71336 2.41567,-2.07717 2.83254,-4.54463 0.32758,-1.93897 1.621,-4.4887 2.87423,-5.66606 1.25324,-1.17736 2.27862,-3.13504 2.27862,-4.3504 0,-1.21537 0.64841,-2.45858 1.44093,-2.76269 2.06031,-0.79062 4.18419,-5.33505 4.18333,-8.95104 -0.002,-6.93813 -10.201,-22.5316 -18.67402,-28.55013 -4.03535,-2.86638 -5.23653,-5.06959 -6.19942,-11.37102 -0.73298,-4.79677 0.68801,-7.446 5.63322,-10.5023 2.9402,-1.81714 4.38515,-2.033 11.69232,-1.74668 11.09842,0.43488 12.81054,1.86398 13.33411,11.12992 0.44951,7.95535 2.85077,11.22803 8.23832,11.22803 2.74151,0 3.68998,-0.51724 4.99283,-2.72277 1.84542,-3.12405 2.11458,-9.56859 0.52513,-12.57324 -2.61723,-4.94753 -7.99014,-10.21487 -13.76879,-13.49826 l -6.24171,-3.5465 -12.65625,-0.001 c -12.01836,-0.002 -13.08697,0.15627 -21.20219,3.12863 -4.70027,1.72156 -9.44388,4.04188 -10.54136,5.15625 -4.25066,4.31606 -6.69407,8.01213 -6.69693,10.13022 -0.002,1.21462 -1.6878,4.73966 -3.74702,7.83341 -2.77414,4.16783 -3.74481,6.57922 -3.74702,9.30848 -0.004,4.93384 3.84638,16.67429 5.62062,17.13826 0.77488,0.20263 2.9453,2.83452 4.82318,5.84862 2.59353,4.16276 4.09908,5.63057 6.26274,6.10579 3.59522,0.78965 4.4526,1.90098 5.18732,6.72376 0.43406,2.84931 0.21981,4.18241 -0.80951,5.03667 -0.76991,0.63897 -1.39983,2.3242 -1.39983,3.74497 0,3.13891 -2.49034,9.3747 -3.7439,9.3747 -0.49843,0 -3.75296,2.57982 -7.23229,5.73293 l -6.32608,5.73294 -10.80198,-0.48268 c -12.34006,-0.55142 -16.55187,-1.58853 -20.7306,-5.1047 -2.87764,-2.42137 -2.94273,-2.64711 -2.46809,-8.55998 0.39626,-4.93663 0.90001,-6.39032 2.69208,-7.76867 1.21254,-0.93261 2.80421,-1.70502 3.53704,-1.71649 1.94107,-0.0304 4.76132,2.80864 4.76132,4.79298 0,0.9409 0.67862,3.40676 1.50804,5.47969 1.23305,3.0817 1.96415,3.76898 4.00928,3.76898 1.90506,0 3.12813,-0.94968 5.13134,-3.98438 2.52106,-3.81916 2.60493,-4.31163 2.02272,-11.87715 -1.05583,-13.71994 -6.2222,-20.31697 -17.2331,-22.00528 -3.50942,-0.5381 -4.5453,-0.28257 -7.26562,1.79233 -2.34098,1.78554 -3.17266,3.14467 -3.17266,5.18469 0,1.52063 -0.41384,2.76479 -0.91964,2.76479 -0.5058,0 -1.19528,1.16016 -1.53217,2.57812 -0.33689,1.41797 -1.22879,3.28848 -1.98199,4.15669 -3.87305,4.4644 -5.26265,17.04752 -2.52073,22.8257 2.08227,4.38805 10.75094,12.31165 15.86991,14.50591 6.00833,2.57546 16.47549,4.48853 25.13643,4.59415 6.12495,0.0747 7.97837,-0.28066 11.25,-2.15697 z m 120.9375,0 c 2.15432,-1.23552 4.97163,-2.56157 6.26069,-2.94678 1.28906,-0.38521 4.03125,-2.06075 6.09375,-3.72342 5.16059,-4.16018 7.99042,-5.52101 11.02481,-5.30171 3.26308,0.23583 6.9389,-2.13575 8.7557,-5.64905 0.77188,-1.49266 2.41004,-3.17257 3.64035,-3.73314 1.56564,-0.71336 2.41567,-2.07717 2.83254,-4.54463 0.32758,-1.93897 1.621,-4.4887 2.87423,-5.66606 1.25324,-1.17736 2.27862,-3.13504 2.27862,-4.3504 0,-1.21537 0.64841,-2.45858 1.44093,-2.76269 2.06031,-0.79062 4.18419,-5.33505 4.18333,-8.95104 -0.002,-6.93813 -10.201,-22.5316 -18.67402,-28.55013 -4.03535,-2.86638 -5.23653,-5.06959 -6.19942,-11.37102 -0.73298,-4.79677 0.68801,-7.446 5.63322,-10.5023 2.9402,-1.81714 4.38515,-2.033 11.69232,-1.74668 11.09842,0.43488 12.81054,1.86398 13.33411,11.12992 0.44951,7.95535 2.85077,11.22803 8.23832,11.22803 2.74151,0 3.68998,-0.51724 4.99283,-2.72277 1.84542,-3.12405 2.11458,-9.56859 0.52513,-12.57324 -2.61723,-4.94753 -7.99014,-10.21487 -13.76879,-13.49826 l -6.24171,-3.5465 -12.65625,-0.001 c -12.01836,-0.002 -13.08697,0.15627 -21.20219,3.12863 -4.70027,1.72156 -9.44388,4.04188 -10.54136,5.15625 -4.25066,4.31606 -6.69407,8.01213 -6.69693,10.13022 -0.002,1.21462 -1.6878,4.73966 -3.74702,7.83341 -2.77414,4.16783 -3.74481,6.57922 -3.74702,9.30848 -0.004,4.93384 3.84638,16.67429 5.62062,17.13826 0.77488,0.20263 2.9453,2.83452 4.82318,5.84862 2.59353,4.16276 4.09908,5.63057 6.26274,6.10579 3.59522,0.78965 4.4526,1.90098 5.18732,6.72376 0.43406,2.84931 0.21981,4.18241 -0.80951,5.03667 -0.76991,0.63897 -1.39983,2.3242 -1.39983,3.74497 0,3.13891 -2.49034,9.3747 -3.7439,9.3747 -0.49843,0 -3.75296,2.57982 -7.23229,5.73293 l -6.32608,5.73294 -10.80198,-0.48268 c -12.34006,-0.55142 -16.55187,-1.58853 -20.7306,-5.1047 -2.87764,-2.42137 -2.94273,-2.64711 -2.46809,-8.55998 0.39626,-4.93663 0.90001,-6.39032 2.69208,-7.76867 1.21254,-0.93261 2.80421,-1.70502 3.53704,-1.71649 1.94107,-0.0304 4.76132,2.80864 4.76132,4.79298 0,0.9409 0.67862,3.40676 1.50804,5.47969 1.23305,3.0817 1.96415,3.76898 4.00928,3.76898 1.90506,0 3.12813,-0.94968 5.13134,-3.98438 2.52106,-3.81916 2.60493,-4.31163 2.02272,-11.87715 -1.05583,-13.71994 -6.2222,-20.31697 -17.2331,-22.00528 -3.50942,-0.5381 -4.5453,-0.28257 -7.26562,1.79233 -2.34098,1.78554 -3.17266,3.14467 -3.17266,5.18469 0,1.52063 -0.41384,2.76479 -0.91964,2.76479 -0.5058,0 -1.19528,1.16016 -1.53217,2.57812 -0.33689,1.41797 -1.22879,3.28848 -1.98199,4.15669 -3.87305,4.4644 -5.26265,17.04752 -2.52073,22.8257 2.08227,4.38805 10.75094,12.31165 15.86991,14.50591 6.00833,2.57546 16.47549,4.48853 25.13643,4.59415 6.12495,0.0747 7.97837,-0.28066 11.25,-2.15697 z M 464.24926,363.9616 c 3.44661,-1.3787 10.10666,-8.80353 11.05464,-12.32406 0.69775,-2.5912 1.59107,-3.74053 3.22641,-4.15098 1.50778,-0.37843 2.61421,-1.63633 3.3198,-3.77428 0.58207,-1.76367 1.66954,-3.71395 2.41659,-4.33396 0.74707,-0.62 1.3583,-2.07866 1.3583,-3.24145 0,-1.16279 0.60969,-2.62016 1.35487,-3.23861 0.74518,-0.61844 2.04306,-3.19639 2.88419,-5.72877 0.84111,-2.53237 1.91892,-4.84512 2.39512,-5.13942 2.13955,-1.32231 0.81346,-5.90118 -2.56918,-8.87118 -3.07181,-2.6971 -3.86492,-2.95706 -7.50104,-2.45866 -2.23632,0.30651 -6.77191,1.8224 -10.0791,3.36863 -5.26608,2.46209 -6.39262,3.47473 -9.06844,8.15159 -2.52605,4.41509 -3.01629,6.18429 -2.82971,10.21213 0.13001,2.80679 -0.39687,6.36184 -1.24302,8.38695 -1.87516,4.48789 -1.93813,16.28528 -0.11028,20.65995 1.35181,3.23532 2.35417,3.69685 5.39085,2.48212 z"
     id="path3887"
     inkscape:connector-curvature="0" />
</svg>
